<svg xmlns="http://www.w3.org/2000/svg" viewBox="0 0 70 40"><g fill="none"><path fill="#225A99" d="M60.96 29.08 56.48 3a2.33 2.33 0 0 0-2.28-1.93h-.03l-.38.03-41.86 7.2a2.3 2.3 0 0 0-1.9 2.69l4.49 26.08a2.33 2.33 0 0 0 2.68 1.9l41.86-7.2a2.33 2.33 0 0 0 1.9-2.68M57.41 3.08l1.84 10.7-.73-8.88a2.4 2.4 0 0 0-1.1-1.82M12.48 35.17c.06.78.5 1.43 1.1 1.82l-1.84-10.7.74 8.88m28.26.67 17.2-1.42a2.4 2.4 0 0 0 2.2-2.14c-.3.2-.64.34-1.02.4l-18.38 3.16M30.25 4.23l-17.2 1.42a2.4 2.4 0 0 0-2.19 2.14c.3-.2.64-.34 1.01-.4l18.38-3.16"/><path fill="#FFFFFE" d="m21.05 16.91.77 4.42-1.26.22c-.8.14-1.74-.26-1.92-1.33l-.5-2.81a20.88 20.88 0 0 1-4.4-5.53l1.47-.26c.95-.16 1.63.19 1.9.6.62.9 1.48 1.91 2.22 2.66a15.1 15.1 0 0 0 1.32-4.22l1.38-.24c.67-.12 1.18.28 1.26.74.16.88-1.46 4.46-2.24 5.75m6.93-3.28c-.8.14-1.37 1.1-1.16 2.25.28 1.62 1.05 2.21 2.07 2.03.92-.16 1.37-1.1 1.16-2.26-.27-1.52-1.06-2.2-2.07-2.02zm-.22-2.32c2.29-.4 4.66.97 5.12 3.57.48 2.75-.87 4.82-3.77 5.33-2.4.42-4.67-1-5.1-3.48a4.45 4.45 0 0 1 3.75-5.42zm11.53 7.12c-2.72.48-4.44-.6-4.91-3.28l-.82-4.63 1.13-.2c1.27-.22 1.9.1 2.12 1.4l.53 2.99c.22 1.23.86 1.51 1.66 1.37.69-.12 1.17-.61.93-1.94l-.8-4.6 1.12-.2c1.16-.2 1.9.17 2.1 1.4l.53 2.99c.48 2.69-1.01 4.24-3.6 4.7m9.78-8.29a2.7 2.7 0 0 0-1.06 0c-.7.13-1.19.58-1 1.6l.88 5.03-.8.14c-1.25.22-2.12-.22-2.36-1.63l-.65-3.65c-.3-1.7.61-3.24 2.52-3.58 1.45-.26 2.23.22 2.37 1l.19 1.07-.1.02M34.97 32.46a5.37 5.37 0 0 1-6.44-4.42c-.55-3.14 1.27-6.04 4.98-6.7 2.08-.36 3.32.52 3.53 1.7l.19 1.05-.08.01c-.64-.4-1.68-.66-3.3-.38-1.57.28-2.81 1.57-2.46 3.56.4 2.28 1.83 3.05 3.4 2.77.84-.15.86-.43.79-.82l-.2-1.17a5.91 5.91 0 0 0-.46-1.42l1.48-.26c.93-.16 1.53.36 1.67 1.15l.25 1.41c.3 1.74-.59 3.03-3.35 3.52m8.37-1.6c-1.55.27-2.89-.28-3.24-2.26l-.97-5.52.71-.13c1.65-.29 2.27.1 2.54 1.62l.55 3.09c.13.74.52.91 1.33.77l.35-.06.15.85c.18 1.01-.52 1.48-1.43 1.64zm-2.97-8.76c-.84.15-1.64-.37-1.78-1.16-.14-.8.44-1.56 1.28-1.71a1.5 1.5 0 0 1 1.76 1.17 1.5 1.5 0 0 1-1.26 1.7zm9.3-1.97a3.37 3.37 0 0 0-1.34 0c-.69.12-1.1.6-1 1.1l.17 1 1.93-.34.18 1.06c.1.56-.35 1.02-1.09 1.15l-.67.12.98 5.54-.89.16c-1.37.24-2.03-.2-2.26-1.46l-1.02-5.8c-.53-3.02 1.14-4.18 2.73-4.46 1.42-.25 2.08.37 2.24 1.25l.11.67-.07.01m1.37-.95c.33-.36.8-.72 1.42-.83l.3-.05.36 2.04 2.46-.43.18 1.02c.13.72-.54 1.4-1.2 1.52l-1.03.19.53 3.04c.1.56.51.84 1.08.74.69-.12 1-.24 1.28-.42l.08-.01.2 1.13c.12.7-.4 1.46-1.92 1.72-1.44.26-3.1-.16-3.5-2.46l-.93-5.22c-.13-.76.2-1.45.7-1.98"/></g></svg>