<svg xmlns="http://www.w3.org/2000/svg" id="Layer_1" data-name="Layer 1" viewBox="0 0 70 40"><defs><style>.cls-1{fill:#fff}</style></defs><rect width="70" height="40" rx="3.7"/><g id="_000000ff" data-name="#000000ff"><path d="M35.3 9.8a1.1 1.1 0 0 1 0-1 6.5 6.5 0 0 1 1.4 0v.5a.6.6 0 0 1 0 .5 27.3 27.3 0 0 1 .3 3 1.5 1.5 0 0 0 .2.7l.7.7a1.9 1.9 0 0 1 .4 1.2v9.2a.7.7 0 0 1-.7.8h-3.2a.7.7 0 0 1-.7-.8v-9.4a1.6 1.6 0 0 1 .6-1.3c.2-.2.6-.3.6-.7 0-1.1.2-2.3.4-3.4Zm.2 1-.2 2.1a1.1 1.1 0 0 1-.2.7 4.4 4.4 0 0 0-.7.7 1.9 1.9 0 0 0-.3 1.1v8.7c0 .5.4.8.8.8a2.7 2.7 0 0 1-.4-.4 3.6 3.6 0 0 1 0-.9v-8.4A1.6 1.6 0 0 1 35 14c.3-.2.6-.4.6-.7V9.7a3.5 3.5 0 0 0-.2 1.2Zm3.9-1.9H44a.6.6 0 0 1 .6.5v1.3a.6.6 0 0 1-.5.5h-2.3a.6.6 0 0 0-.5.6v3.6a.6.6 0 0 0 .4.7h1.2a.6.6 0 0 1 .5.6v1.1a.6.6 0 0 1-.5.6h-1.2a.6.6 0 0 0-.4.7v3.3a.6.6 0 0 0 .5.6H44a.6.6 0 0 1 .5.2c.2.3.1.7.1 1 0 .3.1.7-.1 1a.9.9 0 0 1-.7.1h-4.2c-.3 0-.7-.1-.6-.5V10.4a6.5 6.5 0 0 1 0-1 .6.6 0 0 1 .4-.5Zm6.1.6a.6.6 0 0 1 .6-.6h2.6a4 4 0 0 1 3.6 2.1 7.1 7.1 0 0 1 .6 3.8 5.3 5.3 0 0 1-1.2 3.1l1.9 6.6a.6.6 0 0 1-.6.8 9.2 9.2 0 0 1-1.2 0 .6.6 0 0 1-.6-.5l-1.4-5.1a.9.9 0 0 0-.3-.6h-1.3a.4.4 0 0 0-.4.5v5a.6.6 0 0 1-.5.7 6.2 6.2 0 0 1-1.2 0 .6.6 0 0 1-.6-.4 7 7 0 0 1 0-1V13.6a.7.7 0 0 1 .4-.8 6.8 6.8 0 0 1 1.3 0 .6.6 0 0 1 .6.6v3A3 3 0 0 0 50 16a2.2 2.2 0 0 0 .8-1.8A3.4 3.4 0 0 0 50 12a2 2 0 0 0-1.4-.8H46a.6.6 0 0 1-.6-.6 7.4 7.4 0 0 1 0-1.1Zm-27.9 7.3a.8.8 0 0 1 1-.3 2.2 2.2 0 0 1 .8.5.8.8 0 0 1 0 1 6.8 6.8 0 0 0-.8 5 6.6 6.6 0 0 0 3.8 4.5v2.3a8.5 8.5 0 0 1-4.7-3.5 9 9 0 0 1-.1-9.5Zm6.3 9.2a2 2 0 0 1 2.1.5 2.4 2.4 0 0 1 .5 1.8h-.6a1.4 1.4 0 0 1-.6 0c-.1-.4 0-1-.5-1.2a.6.6 0 0 0-.9.5v3.6a1.7 1.7 0 0 0 .1.9.7.7 0 0 0 1 .1c.3-.3.2-.8.2-1.2.3-.1.5 0 .8 0 .1 0 .4-.1.5.1a2 2 0 0 1-3.5 1.8 2 2 0 0 1-.4-1.3v-4a1.8 1.8 0 0 1 1.3-1.7Zm9.7 0 2.8-.1a2.7 2.7 0 0 1 1 0 3.1 3.1 0 0 1-.1 1.1 1 1 0 0 1-.4 0h-2v2.5a12.6 12.6 0 0 1 1.6 0 1.8 1.8 0 0 1 0 1 6.7 6.7 0 0 1-1.6.2v1.6h2.4c.2.1 0 .4 0 .6.1.2.1.6-.2.5h-3.3c-.2 0-.2-.2-.2-.4v-5.6a14 14 0 0 1 0-1.5Zm5.9.1a2.8 2.8 0 0 1 2.3 0 1.7 1.7 0 0 1 1 1 5.3 5.3 0 0 1 0 1.4v3a2.8 2.8 0 0 1-.3 1.2c.3.4.8.7 1 1.2a5.4 5.4 0 0 1-1.6 0l-.5-.5a3 3 0 0 1-2-.2 1.9 1.9 0 0 1-.9-1.6v-3.9a1.8 1.8 0 0 1 1-1.6Zm1 1a.6.6 0 0 0-.7.6v3.7c0 .3 0 .6.3.8a1.5 1.5 0 0 0 1.3 0 1.4 1.4 0 0 0 .1-1v-3.6c0-.5-.7-.6-1-.5Zm4.1-1.2a4.1 4.1 0 0 1 1 0 1.6 1.6 0 0 1 .1.5v5a.8.8 0 0 0 .2.7.7.7 0 0 0 1.1-.4V26c.2-.2.5-.1.7-.1.2 0 .6-.1.6.2v5.3a2 2 0 0 1-.6 1.6 2.2 2.2 0 0 1-1.9.4 1.7 1.7 0 0 1-1.3-1.1 5.5 5.5 0 0 1 0-1.6V26Zm5.3.3a.3.3 0 0 1 .3-.3h3l.4.1a6 6 0 0 1 0 1 1 1 0 0 1-.4 0h-2v2.5h1.5c.2 0 .1.3.1.5l-.1.6c-.5.1-1 0-1.6 0v1.7h2.5a3 3 0 0 1 0 1 9 9 0 0 1-1.4.1H50c-.2 0-.1-.3-.1-.5v-6.7Z" class="cls-1"/><path d="M26.7 27.7a7.9 7.9 0 0 0 1-.5v2.4a8.7 8.7 0 0 1-3.6.5V28h1c0 .2 0 .5.2.5a4 4 0 0 0 1.1 0c.3-.1.3-.5.3-.8Z" class="cls-1"/></g><path d="M32 25.8a9.5 9.5 0 0 0 .8-7.2 9.1 9.1 0 0 0-4-5 6.1 6.1 0 0 0 .7-3.7 4.8 4.8 0 0 0-.9-2.4 3.5 3.5 0 0 0-3-1.5H21a.7.7 0 0 0-.6.8c0 .5-.2 1.2.3 1.5.6.2 1.2 0 1.8.2.2 0 .2.3.2.4v15.8c0 .3 0 .6.4.6h1.5a.5.5 0 0 0 .5-.6V16a1.7 1.7 0 0 1 0-.9c.2-.2.5-.2.7-.1a6.4 6.4 0 0 1 4 2.5 6.8 6.8 0 0 1 0 8l-.2-2 .1-.1V23h-.1l-.1.2H29V23a2.1 2.1 0 0 1 0-.7.3.3 0 0 0-.1-.2l-.1-.2a.7.7 0 0 0 .1-.6l.2-.1H29a.1.1 0 0 1 0-.1.6.6 0 0 0-.1 0 .3.3 0 0 0-.6.1.7.7 0 0 0 .1.6H28a.7.7 0 0 0-.4.3v.2a.9.9 0 0 0-.2.4 3.8 3.8 0 0 0 .1.9.2.2 0 0 0 .2 0h.4a3.3 3.3 0 0 1 0 1.3 31.8 31.8 0 0 0 0 3.6v4.3a1 1 0 0 0 0 .5 3.4 3.4 0 0 0 1 0c.2 0 .2-.2.2-.3v-2.4h1.6v2.7a5.2 5.2 0 0 0 1.1 0l.2-.1V26a2 2 0 0 0-1.2 0l-.1.3v3.2h-1.6v-3.6l.2.2v2.6a6.8 6.8 0 0 0 1.2-1 16 16 0 0 1 0-1.8c.4-.3 1-.1 1.5-.1Zm-4.7-15a1.7 1.7 0 0 1-.7 1.4 2.4 2.4 0 0 1-1.5.4V8.4a2 2 0 0 1 1.3.2 2.6 2.6 0 0 1 .9 2.2Zm1.2 15-.1-.1a5.4 5.4 0 0 0 .2-1.4 5 5 0 0 0 .4.6v1h-.5Zm1-.2V25c0-.4-.4-.6-.4-1v-.4h.5v2.1Z" class="cls-1"/></svg>