<svg xmlns="http://www.w3.org/2000/svg" viewBox="0 0 40.6728 47.8896"><defs><style>.cls-1{fill:#263668}</style></defs><g id="Layer_2" data-name="Layer 2"><g id="Layer_1-2" data-name="Layer 1"><g id="Layer_1-2-2" data-name="Layer 1-2"><path d="M34.5542 3.611C32.3367 1.0837 28.3282 0 23.2004 0H8.3177a2.1313 2.1313 0 0 0-2.105 1.7976L.016 41.0993a1.2777 1.2777 0 0 0 1.2624 1.477h9.188L12.7738 27.94l-.0715.4583a2.1241 2.1241 0 0 1 2.097-1.7976h4.366c8.5773 0 15.2934-3.4839 17.2552-13.562q.0875-.447.1524-.8717a9.5133 9.5133 0 0 0-2.0188-8.556" class="cls-1"/><path d="M16.2896 10.8252a1.8679 1.8679 0 0 1 .804-.1815h11.6678a24.3633 24.3633 0 0 1 3.8482.2796q.5066.0814.9829.188.4768.1054.9259.2372c.1497.0437.2967.0887.441.1364a10.5376 10.5376 0 0 1 1.6135.6822 9.5122 9.5122 0 0 0-2.0188-8.556C32.3353 1.0836 28.3283 0 23.2004 0H8.3164a2.131 2.131 0 0 0-2.1036 1.7976L.016 41.098a1.2768 1.2768 0 0 0 1.261 1.477h9.1894l4.7874-30.3589a1.8646 1.8646 0 0 1 1.0358-1.3909Z" class="cls-1"/><path fill="#2b90c5" d="M36.4206 13.0388c-1.9618 10.0767-8.6779 13.562-17.2552 13.562H14.798a2.1217 2.1217 0 0 0-2.0955 1.7975L9.8318 46.5967a1.1183 1.1183 0 0 0 1.1035 1.2929h7.7452a1.8635 1.8635 0 0 0 1.84-1.5724l.0756-.3948 1.4597-9.2515.0941-.5113a1.8636 1.8636 0 0 1 1.84-1.5724h1.159c7.503 0 13.378-3.048 15.0948-11.8638a10.106 10.106 0 0 0-1.5499-8.9203 7.397 7.397 0 0 0-2.1208-1.636c-.045.2848-.094.5736-.1523.8716Z"/><path fill="#20284e" d="M34.5197 11.3485q-.449-.1313-.926-.2371a17.4951 17.4951 0 0 0-.9829-.1868 24.219 24.219 0 0 0-3.8495-.2809H17.095a1.8635 1.8635 0 0 0-1.84 1.5738L12.7753 27.94l-.0715.4583a2.1217 2.1217 0 0 1 2.0955-1.7976h4.3675c8.5773 0 15.2933-3.4839 17.2552-13.562.0583-.298.1073-.5869.1523-.8716a10.5952 10.5952 0 0 0-1.6134-.681 13.2899 13.2899 0 0 0-.441-.1376"/></g></g></g></svg>