<svg xmlns="http://www.w3.org/2000/svg" fill="none" viewBox="0 0 154 115"><g clip-path="url(#a)"><path fill="#5B841A" d="M152.2 85.23 139.8 7.44a6.93 6.93 0 0 0-6.7-5.83 6.23 6.23 0 0 0-1.15-.01L7 21.5a6.92 6.92 0 0 0-5.96 6.76 12 12 0 0 0-.01 1.2l12.4 77.78a6.94 6.94 0 0 0 6.78 5.84c.4.04.78.04 1.17 0l125.08-19.96a6.95 6.95 0 0 0 5.75-7.89ZM142.6 7.7l5.07 32.07-1.86-26.47a7.08 7.08 0 0 0-3.21-5.6ZM7.52 101.6a7.27 7.27 0 0 0 3.24 5.47l-5.1-31.94 1.86 26.47Zm84.2 3 51.3-3.63a7.3 7.3 0 0 0 6.62-6.27 8.2 8.2 0 0 1-3.03 1.15l-54.9 8.74ZM61.6 10.14l-51.32 3.67a7.14 7.14 0 0 0-6.58 6.27 7.85 7.85 0 0 1 3.02-1.15l54.88-8.79Z"/><path fill="#fff" d="m33.7 47.56 2.27 13.18-3.8.6a4.86 4.86 0 0 1-5.65-4.02l-1.38-8.38a62.17 62.17 0 0 1-12.89-16.61l4.38-.72a5.57 5.57 0 0 1 5.64 1.84 63.6 63.6 0 0 0 6.5 8.01 45.09 45.09 0 0 0 4.1-12.52l4.1-.65a3.09 3.09 0 0 1 3.75 2.23c.33 2.65-4.63 13.24-7.01 17.04Zm20.22-16.44a13 13 0 0 1 15.12 10.8c1.36 8.22-2.75 14.31-11.41 15.74a12.81 12.81 0 0 1-15.1-10.55 13.26 13.26 0 0 1 11.4-16Zm.57 6.92a5.46 5.46 0 0 0-3.53 6.68c.8 4.86 3.05 6.6 6.1 6.11 3.04-.5 4.12-3.25 3.53-6.73-.73-4.5-3.08-6.56-6.1-6.06Zm33.53 14.7c-8.13 1.33-13.21-1.91-14.45-9.88l-2.26-13.81 3.38-.57c3.78-.6 5.63.39 6.27 4.23l1.47 8.92c.58 3.7 2.52 4.54 4.8 4.16 2.3-.39 3.52-1.78 2.87-5.74l-2.26-13.74 3.38-.54c3.48-.56 5.63.58 6.21 4.23l1.47 8.92c1.31 7.97-3.19 12.55-10.88 13.82Zm29.4-24.32a8 8 0 0 0-3.14-.04c-2.09.34-3.56 1.66-3.07 4.82l2.47 15-2.44.38a5.37 5.37 0 0 1-6.98-4.94l-1.79-10.89a8.78 8.78 0 0 1 7.64-10.56c4.33-.72 6.64.74 7 3.05l.55 3.2-.25-.02ZM74.64 94.35a16.04 16.04 0 0 1-19.02-13.4C54.08 71.59 59.6 63.02 70.7 61.2c6.2-1.01 9.86 1.65 10.45 5.18l.52 3.13h-.24a13.54 13.54 0 0 0-9.7-1.26 8.68 8.68 0 0 0-7.41 10.49c1.1 6.78 5.33 9.14 10.02 8.37 2.44-.4 2.45-1.26 2.46-2.4l-.59-3.5A16.97 16.97 0 0 0 74.93 77l4.4-.73a3.98 3.98 0 0 1 4.82 3.48l.7 4.2c.74 5.26-1.96 9.06-10.2 10.41Zm16.48-30.63a4.38 4.38 0 1 1-1.4-8.58 4.36 4.36 0 0 1 1.4 8.58Zm8.5 26.16a7.51 7.51 0 0 1-9.64-6.86L87.3 66.58l2.15-.36c4.86-.81 6.74.35 7.51 4.94l1.5 9.22c.38 2.24 1.54 2.76 3.95 2.35l1.04-.18.44 2.43c.54 3.09-1.56 4.47-4.27 4.9Zm19.18-31.7a9.88 9.88 0 0 0-3.98-.04c-2.05.33-3.28 1.75-3.03 3.26l.5 2.96 5.74-.94.52 3.13c.27 1.7-1.1 3.05-3.3 3.4l-1.99.35 2.71 16.53-2.65.43c-4.11.67-6.06-.64-6.67-4.43l-2.85-17.28c-1.47-9.02 3.55-12.4 8.3-13.2 4.23-.67 6.17 1.2 6.6 3.8l.34 2.01-.24.02Zm4.21-2.78a7.97 7.97 0 0 1 4.26-2.38l.9-.13 1 6.1 7.3-1.2.49 3.04a4.31 4.31 0 0 1-3.6 4.5l-3.12.5 1.5 9.06a2.42 2.42 0 0 0 3.17 2.25 9.72 9.72 0 0 0 3.83-1.2h.22l.57 3.39c.34 2.09-1.27 4.33-5.77 5.07a8.27 8.27 0 0 1-10.38-7.4l-2.48-15.73a6.88 6.88 0 0 1 2.11-5.87Z"/></g><defs><clipPath id="a"><path fill="#fff" d="m1.38 0 151.94 1.86-1.38 112.9L0 112.9z"/></clipPath></defs></svg>