<svg xmlns="http://www.w3.org/2000/svg" viewBox="0 0 189 33"><g fill="none"><path fill="#F59100" d="M30.3 2.8H.8v29.5h29.5z"/><path fill="#FFF" d="M12.5 17.5c0 1.5-.3 2.7-2 2.7-2 0-2.2-1.4-2.2-2.5V9L6 9.5v8.6c0 3.2 2.3 4.5 4.4 4.5 2.9 0 4.6-1.9 4.6-4.2V9l-2.4.5v8Zm8.6-4.9c-1 0-1.9.2-2.6.8V12l-2.4.6v13l2.4-.6v-3.3a5 5 0 0 0 2.7.8 5 5 0 0 0 4.8-5 5 5 0 0 0-4.9-5Zm-.1 7.8a2.8 2.8 0 0 1-2.7-2.9c0-1.5 1-2.8 2.7-2.8 1.6 0 2.7 1.3 2.7 2.8 0 1.6-1.1 2.9-2.7 2.9Z"/><path fill="#4F5D5B" d="M37.6 32.3 43.1 2h.1l9.6 19.8L62.4 2l5.7 30.2-5.6.7-2.4-15-7.3 15-7.4-15L43 33zM81.3 9.8a12 12 0 0 1 12.1 11.6A12 12 0 0 1 81.3 33a12 12 0 0 1-12.1-11.6A12 12 0 0 1 81.3 9.8Zm0 18.2c3.7 0 7-2.9 7-6.6 0-3.7-3.3-6.6-7-6.6s-7 2.9-7 6.6c0 3.7 3.3 6.6 7 6.6Zm15.1-17.5 5.1-.5v3h.1c1.9-2.5 3.7-3.2 6.7-3.2 4.5 0 7.5 2.9 7.5 7.5v15l-5.4.3V18.8c0-2.4-1.1-4.3-3.5-4.3-3.5 0-5 2.7-5 5.4v12.4l-5.5.4V10.5Zm30-5.9-3.7 3.7-3.7-3.7 3.7-3.6 3.7 3.6Zm-6.6 5.9 5.5-.5v22.3l-5.5.3V10.5Zm10 0h15.8l-10 17h10l-.9 4.8h-17.3l10-17.1h-8.7zm18.8 0h15.8l-10 17h10l-.9 4.8h-17.3l10.1-17.1h-8.8zm38.3 19.6c-2.7 1.9-6 2.9-9.2 2.9a12 12 0 0 1-12.1-11.6 12 12 0 0 1 12.1-11.6c4.5 0 8.5 2.7 10.4 6.7l-15 9.3c.5.9 1.7 2.2 4.3 2.2 2.8 0 4.8-1.1 7.1-2.6L187 30Zm-5.7-14.3c-1-1-2.4-1.5-3.8-1.5a6.7 6.7 0 0 0-6.5 6.2v1.4l10.3-6.1Z"/></g></svg>