<svg xmlns="http://www.w3.org/2000/svg" version="1.2" viewBox="0 0 220 70"><style>.s0{fill:#243639}</style><g id="Layer"><path d="m115.5 53.6-3.3 12.3-3.7-12.3h-2.1l-3.7 12.3h-.1l-3.2-12.3h-2.3l4.4 15.1h2.2l3.7-12.4h.1l3.7 12.4h2.2l4.4-15.1z" class="s0"/><path fill-rule="evenodd" d="M134.7 61.2q0 1.7-.6 3.1-.5 1.5-1.5 2.6-1 1-2.3 1.6-1.4.6-3 .6t-3-.6q-1.4-.6-2.3-1.6-1-1.1-1.6-2.6-.5-1.4-.5-3.1 0-1.8.5-3.2.6-1.5 1.6-2.5.9-1.1 2.3-1.7 1.4-.6 3-.6t3 .6q1.3.6 2.3 1.7 1 1 1.5 2.5.6 1.4.6 3.2zm-2.1 0q-.1-1.3-.4-2.4-.4-1.1-1.1-1.9-.7-.8-1.6-1.3-1-.5-2.2-.5-1.3 0-2.2.5-1 .5-1.7 1.3-.6.8-1 1.9-.4 1.1-.4 2.4 0 1.2.4 2.3.4 1.1 1 1.9.7.8 1.7 1.3t2.2.5q1.2 0 2.2-.5.9-.5 1.6-1.3.7-.8 1.1-1.9.4-1.1.4-2.3z" class="s0"/><path d="M140.7 53.6V56h.1q.3-.6.8-1.1l1.2-.9q.6-.4 1.3-.6l1.4-.2q2.7 0 4 1.5 1.2 1.6 1.2 4.4v9.7h-1.9v-8.4q0-2.6-.8-3.9-.8-1.4-3-1.3-.2-.1-.9.1-.6.1-1.4.7-.8.6-1.4 1.7-.6 1.2-.6 3.3v7.7h-1.9V56.9l-.1-1.5-.1-1.8z" class="s0"/><path fill-rule="evenodd" d="M157.1 61.8q0 1.1.5 2.1.4 1 1.1 1.7.7.8 1.5 1.2.9.4 2 .4 1.6 0 2.7-.8 1.2-.8 1.8-1.8l1.5 1.3q-1.3 1.7-2.8 2.5-1.5.7-3.2.7-1.6 0-2.9-.6-1.3-.6-2.3-1.6-.9-1.1-1.5-2.6-.5-1.4-.5-3.1 0-1.8.5-3.2.5-1.5 1.5-2.5.9-1.1 2.2-1.7 1.3-.6 2.8-.6 1.6 0 2.9.6 1.2.6 2.1 1.6.8 1.1 1.3 2.4.4 1.4.4 3v.9l-11.6.1zm9.4-1.8q0-2.2-1.2-3.5-1.1-1.4-3.3-1.4-.9 0-1.8.5-.9.4-1.6 1-.7.7-1.1 1.6-.4.9-.4 1.8z" class="s0"/><path d="M174.7 53.6v1.2l.1 1.2q.3-.6.9-1.1l1.1-.9q.6-.4 1.3-.6l1.4-.2q2.7 0 4 1.5 1.3 1.6 1.3 4.4v9.7h-2v-8.4q0-2.6-.8-3.9-.8-1.4-3-1.3-.2-.1-.8.1-.7.1-1.5.7t-1.4 1.7q-.6 1.2-.6 3.3v7.7h-1.9V56.9l-.1-1.5-.1-1.8z" class="s0"/><path fill-rule="evenodd" d="M73.9 12.6c-2.1 8.8-8.2 12.7-19.8 12.7h-5.4l-4.2 17h-5.6L48.2 4H0V-.1h51.8l9 .1c6.1 0 10 1.2 12 3.8q1.6 2 1.6 5 0 1.7-.5 3.8zm-5.7-6.3c-1.3-1.6-3.8-2.4-7.6-2.4h-6.7l-4.2 17.2h5.7c8 0 11.8-2.6 13.4-8.9q.4-1.5.4-2.7 0-2-1-3.2z" class="s0"/><path d="M156.5 14.6h7.1l.9-3.5h-7.1l1.7-6.5H154l-1.7 6.5h-3.5l-.9 3.5h3.5l-4.6 18.6q-.7 2.6-.7 4.5 0 2.3 1 3.5c.9 1.1 2.2 1.6 4.1 1.6 1.8 0 3.3-.5 4.6-1.1l.3-.1v-3.7l-.8.4c-.6.4-1.5.9-2.5.9q-.6 0-1-.4-.4-.6-.4-2 0-1.8.8-4.9l4.3-17.3zm-18.7-4.2c-1.7 0-3.6.5-5.5 1.4-1.5.7-3.1 1.7-4.5 2.6l.9-3.3h-5.3l-7.8 31.1h5.3l5.8-23.1c1.7-1.6 3.7-2.9 5-3.6q2.2-1 3.9-1c1.8 0 2.5.6 2.8 1.2.5 1.2.1 3.3-.4 5.4l-5.3 21.1h5.3l5.6-22.3c.8-3.3.8-5.5-.2-7.2q-1.4-2.3-5.6-2.3zm-47.2 4.9.5.6 1.7-4.2-.2-.2c-.4-.4-.8-.6-1.3-.8q-.9-.3-2-.3c-1.2 0-2.4.3-3.8 1l-2.3 1.8.6-2.1h-5.2l-7.8 31H76l5.8-23.3c1.3-1.3 2.5-2.5 3.6-3.2 1.2-.8 2.1-1.2 3-1.2.6 0 1 .1 1.5.3q.4.2.7.6z" class="s0"/><path fill-rule="evenodd" d="M115.1 26.9c-2.7 10.6-8.2 16-16.4 16-3.5 0-6.1-1-7.7-2.9-2-2.7-2.3-7-.7-13.4 2.7-10.7 8.2-16.1 16.4-16.1 3.4 0 6 1 7.5 3 2.2 2.7 2.4 7.2.9 13.4zm-4.4-6.7c0-2-.4-3.6-1.2-4.6q-1.2-1.5-3.5-1.5c-4.6 0-8.3 4.5-10.4 12.7-1.3 5.5-1.3 9.2.2 11.1.8 1 2 1.4 3.7 1.4 4.6 0 8.2-4.4 10.3-12.7q.9-3.7.9-6.4zm1170-9.7v3.6H186.2c1.7 2.7 1.8 7 .4 12.8-2.7 10.6-8.2 16-16.3 16-3.6 0-6.2-1-7.7-2.9-2.1-2.7-2.4-7-.8-13.4 2.7-10.5 8-15.9 16-16.1h1102.8zM182.3 20.2c0-2-.4-3.6-1.2-4.6q-1.2-1.5-3.5-1.5c-4.6 0-8.3 4.5-10.4 12.7-1.3 5.5-1.3 9.2.2 11.1.8 1 2 1.4 3.7 1.4 4.6 0 8.2-4.4 10.3-12.7q.9-3.7.9-6.4z" class="s0"/></g></svg>