<svg xmlns="http://www.w3.org/2000/svg" id="Layer_1" data-name="Layer 1" viewBox="0 0 140 48"><defs><clipPath id="clippath"><path fill="none" stroke-width="0" d="M0 0h140v48H0z"/></clipPath><style>.cls-3{stroke-width:0}</style></defs><g clip-path="url(#clippath)"><path d="M46.6776 33.806V14.5655h-6.7963V10h18.4654v4.5655h-6.7963V33.806h-4.8728Z" class="cls-3"/><path d="M57.5776 33.8038V16.52h4.4881v2.7393c1.0579-2.3153 2.4364-2.7393 3.911-2.7393h1.7312v4.6308h-1.4747c-2.1156 0-4.0071 1.2392-4.0071 5.022v7.631h-4.6485Zm12.2452-6.3245V16.522h4.6482v9.8811c0 2.0219.9617 3.522 2.9492 3.522 1.9235 0 3.1416-1.5001 3.1416-3.4893V16.522h4.6485v17.2838h-4.4239v-2.1849c-1.1219 1.7284-2.7891 2.5762-4.905 2.5762-3.7186 0-6.0586-2.6089-6.0586-6.7178Zm17.3764 1.4695 4.0392-.9457c.1923 1.3371 1.2503 2.348 3.2698 2.348 1.571 0 2.4366-.6522 2.4366-1.4675 0-.6522-.3527-1.1414-1.9557-1.5001l-2.6608-.587c-3.3979-.75-4.8406-2.3479-4.8406-5.2504 0-2.9675 2.4044-5.3481 6.9243-5.3481 4.8088 0 6.732 2.935 6.925 4.8589l-4.0717.9132c-.1924-1.011-.9298-2.1197-2.9495-2.1197-1.282 0-2.2438.587-2.2438 1.4349 0 .7174.481 1.1087 1.3143 1.3044l3.879.9131c2.9497.6848 4.3277 2.4785 4.3277 5.0221 0 2.7393-2.1479 5.6091-7.0526 5.6091-5.3857 0-7.1488-3.2938-7.3412-5.1852Zm23.3388 4.857c-3.013 0-5.033-1.6958-5.033-5.0548v-8.0874h-2.853v-4.1417h2.853v-3.848l4.649-1.3697v5.2177h3.43v4.1417h-3.43v7.2396c0 1.2718.641 1.761 1.891 1.761h1.795v4.1416h-3.302Zm5.834.0002V10h4.648v23.806h-4.648Zm18.659-17.286H140L132.916 40h-4.969l1.955-6.1962h-2.564L122.657 16.52h4.969l3.494 13.3705 3.911-13.3705ZM0 20.4257h10.9109v-8.854l8.7037 8.854-8.7037 8.8524v4.5305h10.565V20.4257h9.7054V10.002H0v10.4237Z" class="cls-3"/></g></svg>