<svg xmlns="http://www.w3.org/2000/svg" id="Layer_1" data-name="Layer 1" viewBox="0 0 70 40"><defs><style>.cls-1{fill:#102f76}</style></defs><g id="in3"><g id="IN3-BLUE-RGB"><path id="Path" d="M3.7 11.1A3.8 3.8 0 0 0 0 15v20.5a3.8 3.8 0 0 0 3.7 3.8 3.8 3.8 0 0 0 3.6-3.8V15a3.7 3.7 0 0 0-3.6-4" class="cls-1"/><path id="Path-2" d="M3.7 8A3.7 3.7 0 1 0 0 4.3 3.6 3.6 0 0 0 3.7 8" class="cls-1" data-name="Path"/><path id="Path-3" d="M26.8 11.1a10.7 10.7 0 0 0-7.6 2.8 11.7 11.7 0 0 0-1.5-1.1 3.5 3.5 0 0 0-1-.6 3.6 3.6 0 0 0-1.3-.2 3.9 3.9 0 0 0-4 3.9 3.8 3.8 0 0 0 2.1 3.4 2.5 2.5 0 0 1 .7.5 6.8 6.8 0 0 1 1.4 3.9v11.7a3.9 3.9 0 0 0 7.8 0V22.6a3.8 3.8 0 0 1 7.5 0v1.6a1 1 0 0 1 0 .2v11a3.9 3.9 0 0 0 7.8 0V24.3c0-1.6-.3-6.5-3.6-9.9a11.3 11.3 0 0 0-8.3-3.3" class="cls-1" data-name="Path"/><path id="Path-4" d="M67.3 19.6a5.4 5.4 0 0 0 .4-.5 2.1 2.1 0 0 0 .1-.2l.5-.6v-.1a3.5 3.5 0 0 0 .5-1A12.3 12.3 0 0 0 70 12a10.9 10.9 0 0 0-2.8-7.6C65.4 2.5 63.3.7 57 .7H45.7a4 4 0 0 0 0 7.8h12.8a3.8 3.8 0 0 1 .5 7.6h-2.1a1 1 0 0 1-.2 0h-11a3.9 3.9 0 0 0-3.9 3.9 3.9 3.9 0 0 0 3.9 4h12.8a3.8 3.8 0 0 1 0 7.5H57a1 1 0 0 1-.1 0H45.7a3.9 3.9 0 0 0 0 7.8h11.2c1.5 0 6.4-.2 9.8-3.6a11.3 11.3 0 0 0 3.3-8.3 10.9 10.9 0 0 0-2.8-7.7.3.3 0 0 1 .1-.1" class="cls-1" data-name="Path"/></g></g></svg>