<svg xmlns="http://www.w3.org/2000/svg" xml:space="preserve" fill-rule="evenodd" stroke-linejoin="round" stroke-miterlimit="2" clip-rule="evenodd" viewBox="0 0 1001 1001"><path fill="#ff4785" fill-rule="nonzero" d="M0 556.4V95.5A95.6 95.6 0 0 1 95.5 0h809a95.6 95.6 0 0 1 95.6 95.5v461H0Z"/><path fill="#fff" fill-rule="nonzero" d="M0 556.4v348.2a95.6 95.6 0 0 0 95.5 95.5h809a95.6 95.6 0 0 0 95.6-95.5V556.4H0ZM638.2 249a50.3 50.3 0 1 1 0-100.7 50.3 50.3 0 0 1 0 100.7m-276.3 0a50.3 50.3 0 1 1 0-100.7 50.3 50.3 0 0 1 0 100.7M638.2 86.4c-24.4 0-47 7.8-65.3 21l-100.3 73a112.2 112.2 0 1 0-45 109.3l99.9-72.7A112.2 112.2 0 1 0 638.2 86.4m-47.6 338c0-10.8-8.7-19.6-19.3-19.6a19.5 19.5 0 0 0-19.4 19.6c0 10.8 8.7 19.6 19.4 19.6 10.6 0 19.3-8.8 19.3-19.6m26 0a45.6 45.6 0 0 1-45.3 45.9c-25 0-45.4-20.6-45.4-46a45.6 45.6 0 0 1 45.4-45.8c25 0 45.3 20.6 45.3 45.9m-181.4-45h-26.4l-18.8 48-20.2-48h-28.1l35.8 80-12.4 31.7h26.4l43.7-111.8Zm235.3-.2a45 45 0 0 0-16.5 3.3v-3.4h-26V470h26v-47.8c0-16.2 14.8-16.7 16.5-16.7 4.4 0 8.3 1.5 11 4 3.3 3 4.9 7.5 4.9 13.3v46.6h26v-46.6c0-28.6-21-43.6-41.9-43.6m-364.2 43a19.5 19.5 0 0 0-19.3-17.4 19.5 19.5 0 0 0-19.3 19.6c0 10.8 8.7 19.6 19.3 19.6 10 0 18.1-7.6 19.3-17.3V422Zm26 47.8h-26v-4.1a44.6 44.6 0 0 1-19.3 4.4c-25 0-45.3-20.6-45.3-46a45.6 45.6 0 0 1 45.3-45.8c7 0 13.4 1.6 19.3 4.4V379h26v91Zm-124.6-45.6c0-10.8-8.7-19.6-19.3-19.6a19.5 19.5 0 0 0-19.4 19.6c0 10.8 8.7 19.6 19.4 19.6 10.6 0 19.3-8.8 19.3-19.6m26 0a45.6 45.6 0 0 1-45.3 45.9 44 44 0 0 1-19.8-4.7v25.2h-26V379.1h26v4a45.7 45.7 0 0 1 65.1 41.3m246.9-19.6c6.5 0 12.5 3.3 16.1 8.8l21.8-14.4a45.1 45.1 0 0 0-83.3 25.2 45.2 45.2 0 0 0 83 25.5l-21.5-14.6a19.3 19.3 0 0 1-35.5-11c0-10.7 8.7-19.5 19.4-19.5m350.7 19.6c0-10.8-8.7-19.6-19.4-19.6a19.5 19.5 0 0 0-19.4 19.6c0 10.8 8.7 19.6 19.4 19.6s19.4-8.8 19.4-19.6m26.2-45.3v111.7h-26v-25a45.7 45.7 0 0 1-65-41.4c0-25.3 20.4-46 45.4-46 7 0 13.6 1.7 19.6 4.6v-3.9h26ZM742 338.5c-8.4 0-15.2 6.8-15.2 15.3s6.8 15.4 15.1 15.4c8.4 0 15.2-6.9 15.2-15.4 0-8.4-6.8-15.3-15.1-15.3m-13 40.4h26v91h-26v-91Z"/><path fill="#1e3764" fill-rule="nonzero" d="M741.4 933.7c-12.3 0-18.6-6.7-18.6-20.3V891h-7v-11.3h7v-11.5l14.3-.7v12.2h11.4V891h-11.4v22.1c0 6 2.4 8.8 7 8.8a25 25 0 0 0 5.6-.6l.7 11.5c-2.5.6-5.8 1-9 1M710 881.4l-2.6 11.3a31 31 0 0 0-11.7-2.6c-8.4 0-13 5.9-13 15.6 0 10.7 4.8 16.1 13.7 16.1 3.4 0 7.6-.9 11.5-2.7l2.2 11.5c-3.5 1.8-8.8 3-14.8 3-17.2 0-27.1-10.6-27.1-27.5 0-16.7 9.8-27.8 26.2-27.8 6 0 11.8 1.4 15.6 3.1M647.4 922v-11c-2.4-.5-4.8-.8-7.3-.8-4.8 0-8.5 1.8-8.5 6.7 0 4.3 3.1 6.6 8.6 6.6 3 0 5.7-.6 7.2-1.5m-8.7 11.7c-14.1 0-21.2-7-21.2-16.2 0-10.2 8.3-16.2 20.7-16.3 3 0 6.6.4 9.2.8v-2.5c0-6.3-3.6-9.3-10.5-9.3-4.6 0-9.4.7-13.7 2.5l-2.5-11.2a51.2 51.2 0 0 1 17.8-3c15.2 0 22.8 8 22.8 22v28.7a51.7 51.7 0 0 1-22.6 4.5m-36 0c-12.2 0-18.5-6.7-18.5-20.3V891h-7v-11.3h7v-11.5l14.2-.7v12.2H610V891h-11.5v22.1c0 6 2.5 8.8 7.1 8.8a25 25 0 0 0 5.5-.6l.7 11.5c-2.4.6-5.7 1-9 1m-79.2-1.3V883a63 63 0 0 1 23.3-4.6c15.1 0 23.8 7.5 23.8 21.2v32.9h-14.3v-31.9c0-7-3.3-10.4-9.6-10.4-3.3 0-6.4.6-9 1.9v40.4h-14.2Zm-34-10.6c7.3 0 11.2-6 11.2-15.9 0-9.7-3.9-15.8-11.2-15.8-7.2 0-11.2 6.1-11.2 15.8 0 9.8 4 16 11.2 16m0 11.7c-15.9 0-25.8-11-25.8-27.7 0-16.5 9.9-27.6 25.8-27.6 16 0 25.7 11 25.7 27.6 0 16.7-9.7 27.7-25.7 27.7m-30.8-52.2-2.7 11.3a30.3 30.3 0 0 0-11.7-2.6c-8.3 0-12.9 5.9-12.9 15.6 0 10.7 4.8 16.1 13.7 16.1 3.4 0 7.5-.9 11.4-2.7l2.3 11.5c-3.5 1.8-8.9 3-14.9 3-17.1 0-27-10.6-27-27.5 0-16.7 9.8-27.8 26.2-27.8 5.9 0 11.8 1.4 15.6 3.1m-97 51V883a63 63 0 0 1 23.4-4.6c15.1 0 23.8 7.5 23.8 21.2v32.9h-14.3v-31.9c0-7-3.3-10.4-9.6-10.4-3.3 0-6.4.6-9 1.9v40.4h-14.2ZM338 922v-11c-2.4-.5-4.9-.8-7.3-.8-4.8 0-8.5 1.8-8.5 6.7 0 4.3 3 6.6 8.6 6.6 3 0 5.6-.6 7.2-1.5m-8.7 11.7c-14.1 0-21.3-7-21.3-16.2 0-10.2 8.4-16.2 20.8-16.3 2.9 0 6.6.4 9.2.8v-2.5c0-6.3-3.6-9.3-10.5-9.3-4.6 0-9.4.7-13.7 2.5l-2.6-11.2a51.1 51.1 0 0 1 18-3c15.1 0 22.6 8 22.6 22v28.7a51.7 51.7 0 0 1-22.5 4.5M264.1 920h8.9c8.6 0 13.7-2.2 13.7-9 0-6.7-4.3-9.5-12.5-9.5H264V920Zm0-29.7h10.6c6.5 0 9.3-3.2 9.3-9 0-6.4-5-8.4-11.9-8.4h-8v17.4Zm-14.4 42.3V860H272c16.2 0 26.7 6.1 26.7 18.7 0 7.2-3.3 12.1-8 15a18 18 0 0 1 10.7 17.3c0 14.6-10.7 21.4-27.2 21.4h-24.5Z"/><path fill="url(#a)" fill-rule="nonzero" d="M.2-.6h.5V0C.7.3.4.5.2.7V-.6Z" transform="matrix(0 195.358 195.358 0 361.8 689.9)"/><path fill="url(#b)" fill-rule="nonzero" d="M.3-.2c.3-.2.6-.2.9-.1L.3.5 0 .2l.3-.4Z" transform="scale(-205.456 205.456) rotate(44.7 -5.3 -2.8)"/><defs><linearGradient id="a" x1="0" x2="1" y1="0" y2="0" gradientTransform="rotate(110.4 .3 0)" gradientUnits="userSpaceOnUse"><stop offset="0" stop-color="#005ab9"/><stop offset="1" stop-color="#1e3764"/></linearGradient><linearGradient id="b" x1="0" x2="1" y1="0" y2="0" gradientTransform="rotate(154.2 .6 0)" gradientUnits="userSpaceOnUse"><stop offset="0" stop-color="#fba900"/><stop offset="1" stop-color="#ffd800"/></linearGradient></defs></svg>