<svg xmlns="http://www.w3.org/2000/svg" fill="none" viewBox="0 0 273 40"><g clip-path="url(#a)"><path fill="#000" d="M45.8 20.6c-3.4-1-5.4-1-5.4-2.7 0-1 .9-1.8 2.5-1.8 2.3 0 4.3 1.2 5.7 3.7H51v-6h-2.5l-.6 1c-1.7-1-3.7-1.6-5.7-1.5-4.7 0-7.5 2.6-7.5 5.7 0 3 2.3 4.7 7.1 6 3 .6 4.7 1 4.7 2.4 0 1-1 1.9-3 1.9A5.7 5.7 0 0 1 38 25h-3s0 3.8-2.6 3.8c-1 0-1.7-.8-1.6-1.8v-7.9c0-1.7-.1-3-1.5-4.2-1.2-1-3.3-1.7-6.2-1.7-5.3 0-8.2 2-8.2 5 0 1.5 1.2 2.8 2.8 2.8h.3a3 3 0 0 0 2.9-2.4 2 2 0 0 0-2-2.2h-.2c1-.7 2-1.1 3.2-1 2.1 0 3.7 1.2 3.7 3 0 2.7-2.6 2.8-6.2 3.7-3.6 1-5.3 2.4-5.3 5.2 0 3 2.1 5 5.7 5a8 8 0 0 0 6.1-2.7c.8 1.9 2.2 2.7 4.4 2.7 3.2 0 4.7-1.6 4.7-2.4v2h2.6l.7-1.4a13 13 0 0 0 6.5 1.8c4.5 0 7.5-2.5 7.5-5.9 0-3.3-2.3-4.7-6.4-5.8Zm-20.5 4.7c0 2.4-1.3 3.6-3.4 3.6a2 2 0 0 1-2.1-2c0-2.2 2.1-2.5 5.5-4.2v2.6Zm57.3-13a3 3 0 1 0 0-5.9 3 3 0 0 0 0 6Zm5 16.9c-1.8 0-2-.6-2-2.3V14h-8.5v2.8h1.1c1.8 0 2 .6 2 2.2v8c0 1.7-.2 2.3-2 2.3h-3c-2 0-2.1-.6-2.1-2.3v-7c0-4.4-1.4-6.5-5.7-6.5-2.5 0-4.5 1-6.2 3.5V6.5h-8.4v2.7h1c1.7 0 2 .6 2 2.3v15.4c0 1.7-.3 2.3-2 2.3h-1v2.7h11v-2.7H63c-1.8 0-2-.6-2-2.3v-5.5c0-3 1.7-5 4-5 2 0 2.6 1.3 2.6 3.6v7c0 1.6-.1 2.2-2 2.2H65v2.7h23.6v-2.7h-1.1Zm21.7-6.1c0 5.7-4 9.5-10.3 9.5-6 0-10.1-3.8-10.1-9.5s4-9.5 10.2-9.5c6.1 0 10.2 3.8 10.2 9.5Zm-14.5-.2c0 4.6 1.4 6.8 4.3 6.8s4.2-2.2 4.2-6.6c0-4.4-1.3-6.6-4.2-6.6-2.8 0-4.3 2.1-4.3 6.4Zm27.2 6.3h.6c1.8 0 2-.6 2-2.3v-7c0-2.2-.6-3.4-2.6-3.4-2.3 0-4 1.9-4 4.9v5.5c0 1.7.2 2.3 2 2.3h.6v2.7h-11v-2.7h1c1.8 0 2-.6 2-2.3v-8c0-1.6-.3-2.2-2-2.2h-1v-2.8h8.3v3.2c2-2.6 3.8-3.7 6.4-3.7 4.3 0 5.6 2.1 5.6 6.5v7c0 1.7.2 2.3 2.2 2.3h.8v2.7h-11v-2.7Zm28.5-3.8c-.6 4.8-3.4 7.2-8 7.2-5.5 0-9-3.7-9-9.4 0-5.6 4-9.6 9.4-9.6 4.7 0 7.8 2.7 7.8 5.6a2.4 2.4 0 0 1-2.4 2.7 2 2 0 0 1-2.2-1.6V20c0-1.2.7-1.8 2.1-2-.8-1.7-2.4-2.5-5-2.5-3.7 0-6 2.8-6 7.8 0 4.5 2.1 7.2 5.7 7.2 3 0 4.9-1.8 5.5-5h2.1v-.1Zm1.2-23.5h-.8V0h6.5v17a7.4 7.4 0 0 1 6.5-3.6c2-.2 3.9.7 5 2.2 1 1.4 1.1 3.3 1.1 5.9v6.4c0 1.8.5 2.2 2.5 2.2h.8v1.8h-10.1v-1.8h1.2c2 0 2.4-.4 2.4-2.2V21c0-3.8-.9-5.6-3.8-5.6-3.3 0-5.7 2.3-5.7 6V28c0 1.8.4 2.2 2.5 2.2h1.2V32h-10.1v-1.8h.8c2 0 2.4-.4 2.4-2.2V4c0-1.6-.4-2-2.4-2Zm38.5 24.2c-1 4.4-3.6 6.5-8.1 6.5-5.3 0-9-3.7-9-9.5 0-5.7 3.6-9.5 9-9.5 5.5 0 8.6 3.4 8.6 9.8h-14v.3c0 4.4 2 6.8 5.6 6.8 2.7.2 5-1.7 5.6-4.3h2.3ZM182 15.4c-3 0-4.8 2.1-5.1 6H187c0-4-1.6-6-5-6ZM234.7 30c-2 0-2.5-.3-2.5-2V14.1h-7V16h1.4c2 0 2.4.5 2.4 2.2v6.1c0 3.7-2.3 6.1-5.7 6.1-2.8 0-3.7-1.7-3.7-5.6V14.2h-12.8v3a7.1 7.1 0 0 0-6.4-3.5c-4.7 0-8 3.6-8 9.4 0 5.7 3.3 9.5 8.1 9.5a7 7 0 0 0 6.3-3.7V36c0 1.8-.4 2.2-2.4 2.2h-1.2V40h10.1v-1.8h-.8c-2 0-2.5-.4-2.5-2.2V18.2c0-1.7.5-2.2 2.5-2.2h1.5c2 0 2.4.5 2.4 2.2v6.2c0 2.5.1 4.4 1.1 5.8 1.2 1.6 3 2.4 5 2.2 2.7.1 5.2-1.2 6.6-3.5v3h6.7v-1.8h-1.1Zm-33.7.4c-3.2 0-5-2.6-5-7.3 0-4.6 1.8-7.2 5-7.2 3.5 0 5.8 2.7 5.8 7.3 0 4.4-2.3 7.2-5.8 7.2Zm52-4.3c-1 4.4-3.6 6.5-8.2 6.5-5.2 0-9-3.7-9-9.5 0-5.7 3.7-9.5 9-9.5 5.6 0 8.7 3.4 8.7 9.8h-14v.3c0 4.4 2 6.8 5.6 6.8 2.7.2 5-1.7 5.6-4.3h2.2Zm-8.2-10.7c-3 0-5 2.1-5.1 6h10.1c0-4-1.7-6-5-6ZM10.4.3c-4.5 0-7 2.3-7 6.7v7.3H.6v3h1c1.5 0 1.8.6 1.8 2.2v7.3c0 1.7-.2 2.6-2 2.6H0V32h12.8v-2.6h-2c-1.8 0-2-1-2-2.6v-8c.2-1 .6-1.5 1.9-1.5h1.6v-3H8.9V6c0-2.5.4-3.8 2.3-3.8.5 0 1 .2 1.5.5-1 .2-1.6 1-1.7 2C11 6 12.1 7 13.4 6.9h.1a2.5 2.5 0 0 0 2.7-2.7c0-2.3-2.2-4-5.8-4Z"/><path fill="#EA0A8C" d="M256.2 9.1Zm-1.8 0a9.1 9.1 0 1 0 18.2 0 9.1 9.1 0 0 0-18.2 0Z"/><path fill="#EA0A8C" d="M259.5 6.5v5h1.3v-2h1.5v-1h-1.5v-.8h2.4V6.5h-3.7Zm6.3 4a1.5 1.5 0 0 1 0-3c.5 0 1 .5 1 1l1.3-.4c-.3-1-1.3-1.7-2.3-1.7a2.5 2.5 0 0 0-2.4 2.6c0 1.5 1 2.6 2.4 2.7 1 0 2-.7 2.3-1.7l-1.3-.3c0 .4-.5.8-1 .8Z"/></g><defs><clipPath id="a"><path fill="#fff" d="M0 0h272.6v40H0z"/></clipPath></defs></svg>