<svg xmlns="http://www.w3.org/2000/svg" viewBox="0 0 66 41"><g fill="none" fill-rule="evenodd"><path fill="#FEFEFE" d="M19.8602 1.0296C9.129 1.0296.3982 9.759.3982 20.4889c0 10.731 8.7308 19.4612 19.462 19.4612h26.2099c10.7298 0 19.4594-8.7303 19.4594-19.4612 0-10.7299-8.7296-19.4593-19.4594-19.4593H19.8602Z"/><path fill="#221E1F" d="M19.8602 1.0296C9.129 1.0296.3982 9.759.3982 20.4889c0 10.731 8.7308 19.4612 19.462 19.4612h26.2099c10.7298 0 19.4594-8.7303 19.4594-19.4612 0-10.7299-8.7296-19.4593-19.4594-19.4593H19.8602Zm26.2099 39.3157H19.8602C8.911 40.3453.003 31.4378.003 20.489.003 9.541 8.9109.6342 19.8602.6342h26.2099c10.948 0 19.8546 8.9069 19.8546 19.8547 0 10.9489-8.9067 19.8564-19.8546 19.8564Z"/><path fill="#E21F28" d="M25.9544 10.0072H7.5661c2.9672-3.4737 7.3774-5.6799 12.294-5.6799h26.21c4.9149 0 9.3242 2.2062 12.2913 5.679H44.7218l-6.8498 7.1408c-.5048-5.4839-5.409-7.14-11.9176-7.14Zm24.6974 9.2934 8.4067-8.4184c1.993 2.6872 3.174 6.0119 3.174 9.6068 0 3.4062-1.06 6.5682-2.8651 9.1769l-8.7156-10.3653Zm-35.4212-2.3803h8.4618c1.8945 0 3.4367.848 2.8228 3.0333-.6204 2.2095-1.4592 3.3571-4.2314 3.3571h-9.3774l2.3242-6.3904Zm29.5481 13.618H58.72c-2.9637 3.7239-7.5328 6.115-12.6499 6.115h-26.21c-5.1189 0-9.6889-2.392-12.6525-6.116h16.3818c8.2199 0 12.6047-2.9121 13.9448-9.1544l7.2445 9.1554Z"/></g></svg>