<svg xmlns="http://www.w3.org/2000/svg" viewBox="0 0 70 40"><g fill="none"><path fill="#1A1919" d="M39.4 20.3c0 .1 0 .2-.2.2h-3.1l-.2-.2v-7l.2-.1h3.2v.6l-.2.1h-2.3v2.4h2l.1.1v.5l-.1.1h-2v2.7h2.4l.2.1v.5m3.4-.6c.7 0 1.3-.2 1.3-1.3 0-1-.6-1.3-1.4-1.3h-.9v2.6h1zm-.3-3.3c.6 0 1.4-.2 1.4-1.4 0-1-.5-1-1.2-1h-.9v2.4h.7zm.3-3.2c.7 0 2 0 2 1.7 0 1.1-.7 1.6-1 1.7.5.2 1.3.5 1.3 1.8 0 1-.5 1.4-.7 1.7-.4.3-1 .4-1.8.4H41l-.1-.2v-7.1h1.8zm7.2.8-.1.2h-.2c-.2-.1-.7-.4-1.3-.4-.6 0-1 .3-1 1 0 1.1 1.3 1.3 2.1 2 .5.5.8 1 .8 1.7 0 1.3-.9 2.1-2.2 2.1-1 0-1.7-.5-1.8-.5l-.1-.1v-.2l.2-.3v-.2h.2c.2.2.9.5 1.6.5.7 0 1.2-.5 1.2-1.2 0-1.7-3-1.5-3-3.7 0-1.2 1-1.9 2-1.9.9 0 1.5.4 1.7.5v.2l-.1.4m2.8 2.9v3.3l-.1.2H52l-.2-.2v-7l.2-.1h.6v3.1h2.7v-3l.1-.1h.6l.2.1v7l-.2.2h-.6V17h-2.7m8.9-.2c0-1.8-.3-3-1.4-3-1.2 0-1.4 1.2-1.4 3 0 1.9.2 3 1.4 3 1.1 0 1.4-1.1 1.4-3m-1.4 3.8c-1.7 0-2.3-1.5-2.3-3.8s.6-3.8 2.3-3.8c1.6 0 2.3 1.5 2.3 3.8s-.7 3.8-2.3 3.8m5.6-4c.7 0 1.4-.2 1.4-1.5 0-1.1-.7-1.2-1.3-1.2h-.8v2.7h.7zm-.7 3.7-.1.2h-.6l-.1-.2v-7l.1-.1H66c.8 0 2 0 2 2 0 1.7-1 2.2-2.1 2.2H65v3zM33 28.1l-.1.4c-.4.2-1 .4-1.5.4-1.6 0-2.2-1.5-2.2-3.5 0-1.8.6-3.3 2.2-3.3.8 0 1.5.4 1.5.6l-.2.3v.2c-.2 0-.5-.5-1.3-.5-1 0-1.4 1-1.4 2.6 0 1.8.4 3 1.4 3 .4 0 .7-.2.8-.3v-2h-.8v-.5H33v2.6m4.1.5v.1h-2.5l-.1-.1v-.5h1v-5.3h-1v-.5h2.6v.5h-1v5.3h1v.5m2.5 0-.1.1h-.6v-6.4h3l-.1.5h-2.2V25h1.8l.1.1v.4l-.1.1h-1.8v3m5.2-5.7v5.7l-.1.1H44V23h-1.4l-.1-.1v-.5h4v.1l-.2.4h-1.5m5.8 5.1v.1c0 .2-.6.8-1.5.8-1.5 0-2-1.5-2-3.5 0-1.8.4-3.3 2-3.3.8 0 1.5.6 1.5.7l-.1.1-.2.3c-.2 0-.7-.5-1.2-.5-1 0-1.2 1-1.2 2.6 0 1.8.3 3 1.3 3 .5 0 1-.6 1-.6h.2l.2.3m3.4-4-.2-.9-.2 1-.6 2h1.6l-.6-2zm2 4.5.1.2h-.8l-.6-2H53l-.5 2h-1v-.2l2-6.2h.7l1.9 6.2zM31.4 13.1h-.7v.1l-.5 2.2-1 4-1.3-6.2H27v.2l1.9 7.2h.8L31 15l1.4 5.6h.9l1.8-7.2v-.2h-.8l-.5 2.2-.9 4-1.4-6.1V13zm27.6 12c.7 0 1.3-.1 1.3-1.1 0-1.1-.7-1.1-1.2-1.1h-.7V25h.6zm2.4 3.5-.1.1-.6.2-.1-.1-1.5-3h-.7v2.8l-.1.1h-.5l-.2-.1v-6.3h1.6c.7 0 1.8 0 1.8 1.6a2 2 0 0 1-1.2 1.8l1.6 2.9zm2.9-.6c1.3 0 1.6-1 1.6-2.6 0-2.1-.6-2.5-1.7-2.5h-.5V28h.6zm0-5.8c1.2 0 2.4.3 2.4 3.2 0 2.3-.7 3.3-2.6 3.3h-1l-.1-.1v-6.3h1.2z"/><path fill="#FFE059" d="m9.4 17.6-.4-5-3.2-2.3c-.1 0-.3 0-.4.2l-4.2 7.7v.5l3 1.3 1.6-.7 3.6-1.7"/><path fill="#3B99C8" d="m22.3 20 3-1.3c.2-.1.2-.3.1-.5l-4.2-7.7c0-.2-.3-.2-.4-.2l-3.2 2.2-.4 5.2 5 2.3"/><path fill="#BA4C8D" d="m9 27.4-.4 4c0 .2.2.3.4.3h8.7c.1 0 .3 0 .3-.3l-.4-3.8-4.4-3.1-4.2 3"/><path fill="#374E87" d="m25.3 21.4-3-1.4-.3.2-4.8 2.2.4 5.2 3.2 2.2c.1 0 .3 0 .4-.2l4.2-7.7v-.5"/><path fill="#E57448" d="m9 27.4.4-5L4.2 20l-3 1.3v.5l4.2 7.7c0 .2.3.2.4.1L9 27.4"/><path fill="#67B545" d="m9 12.5 4.3 3 4.3-3 .4-3.8c0-.2-.2-.4-.3-.4H8.9c-.1 0-.3.2-.3.4l.4 3.8"/></g></svg>