<svg xmlns="http://www.w3.org/2000/svg" data-name="Layer 1" viewBox="0 0 70 40"><path fill="#0047bb" d="M0 13h6.2c1.1 0 2.4.3 3.2 1.1.8 1 1 2.3.7 3.4a3 3 0 0 1-1.9 2.2c-1.5.6-3.3.4-5 .4v4H0V13m3.3 2.2v2.7c1 0 2 .2 2.8-.2 1-.5.9-1.9 0-2.3-1-.4-1.9-.2-2.8-.2Zm26.7 0 3.2-1.1v2.3H35v1.8h-1.8v3.3c0 .3 0 .7.4.9H35V24c-1 .2-2.2.3-3.2.1a2 2 0 0 1-1.3-.6c-.4-.4-.5-1-.5-1.6v-3.8h-1.5v-1.8H30v-1.2Zm-16.4 1.1c1.4-.3 3-.2 4.4.5 1 .5 1.6 1.5 1.8 2.6.1 1 0 2.2-.6 3a4 4 0 0 1-2.9 1.8c-1.3.2-2.8.1-4-.5-1-.5-1.7-1.4-1.9-2.4-.2-1.2 0-2.5.6-3.5.6-.8 1.6-1.3 2.6-1.5m.9 1.7c-1 .5-1 1.8-1 2.7.1.6.3 1.2.7 1.6.6.4 1.5.4 2-.2.4-.6.5-1.3.4-2a3 3 0 0 0-.4-1.8c-.4-.5-1.2-.6-1.7-.3Zm7.7-1.6c1.1-.3 2.3-.4 3.5-.2a3 3 0 0 1 2 1c.3.5.4 1 .4 1.6h-3c0-.3 0-.6-.2-.8-.5-.3-1.4-.3-1.5.3-.1.3.2.6.5.6 1 .4 2.2.5 3.3 1 1.2.5 1.3 2.1.7 3.1-.8 1-2.2 1.3-3.4 1.3a6 6 0 0 1-3.1-.6c-.8-.5-1-1.4-1-2.2h2.9c0 .8.9 1.4 1.6 1 .5-.2.5-.9 0-1.1-1.2-.6-2.7-.5-3.7-1.4-.8-.5-1-1.6-.5-2.4.3-.6.9-1 1.5-1.2Zm16.3-.2c1.4-.2 3.1-.1 4.3.8 1 1 1.3 2.5 1.3 3.8h-5.9c0 .5 0 1.2.5 1.5.8.7 2.3.3 2.4-.8h3c-.2 1.1-1 2-2.1 2.5-1.2.4-2.6.4-3.8.2-1-.2-2-.9-2.5-1.8-.4-1-.5-2.2-.3-3.3.2-1.4 1.5-2.6 3-2.9m.2 2c-.2.3-.2.6-.3 1H41c0-.5-.1-1-.5-1.3-.5-.5-1.6-.4-2 .3Zm9.6-1.9c1-.3 2.3-.3 3.2.3a4 4 0 0 1 1.6 2.9c.1 1.2 0 2.6-1 3.6-1.2 1.5-4 1.7-5.2.1V27h-1.6V16.4h1.5v1.2c.3-.6.9-1.1 1.5-1.3m.2 1c-1 .3-1.4 1.2-1.5 2-.2 1-.1 2.2.5 3.1.7 1.1 2.5 1 3.3 0 .5-.6.7-1.4.7-2.2 0-.8-.2-1.6-.6-2.3-.6-.6-1.6-.8-2.4-.6Zm6.8-.5c.8-.7 2-.7 3-.6.9 0 1.7.3 2.2 1 .5.7.4 1.6.5 2.4v4.5h-1.5V23c-1 1.6-3.5 1.7-4.8.6-1.2-1-.8-3 .5-3.7 1.2-.7 2.8-.6 4.2-.6 0-.6 0-1.2-.4-1.7-.9-.7-2.8-.4-2.9.8h-1.6c0-.6.2-1.2.8-1.6m.9 4c-.7.4-.7 1.5-.1 2 .6.6 1.7.5 2.4 0 .8-.6.9-1.6.9-2.5-1 0-2.3-.1-3.2.5Zm5.3-4.4h1.8l2.5 6 2.6-6H70L65.2 27h-1.6l1.2-3-3.4-7.6Z" data-name="#0047bbff"/></svg>