<svg xmlns="http://www.w3.org/2000/svg" data-name="Layer 1" viewBox="0 0 140 48"><defs><clipPath id="a"><path fill="none" stroke-width="0" d="M0 0h140v48H0z"/></clipPath></defs><g fill-rule="evenodd" clip-path="url(#a)"><path fill="#232f3e" d="M10.888 27.639a.565.565 0 0 1-.6507.0662c-.9138-.7653-1.0795-1.1186-1.5766-1.8472-1.5133 1.5504-2.5831 2.014-4.54 2.014C1.8034 27.872 0 26.4321 0 23.5521c0-2.2495 1.2184-3.7778 2.9243-4.5285 1.4938-.6599 3.5797-.7801 5.1759-.9616v-.3582c0-.6598.0512-1.4399-.3339-2.0115-.3363-.5103-.9747-.7188-1.545-.7188-1.0502 0-1.986.5422-2.215 1.6632a.5798.5798 0 0 1-.4874.5103l-2.6465-.2919c-.2664-.0385-.4515-.287-.4134-.5553a.5136.5136 0 0 1 .004-.0237c.6117-3.2577 3.536-4.2414 6.1556-4.2414 1.3403 0 3.09.3581 4.1427 1.3786 1.3378 1.2609 1.2184 2.9438 1.2184 4.7714v4.315c0 1.3002.536 1.8693 1.0406 2.5684.1754.2453.2144.552 0 .736-.563.4734-1.5621 1.3467-2.1104 1.8398l-.022-.0049Zm-2.7756-6.7559c0 1.0794.0244 1.9797-.5142 2.9437-.4386.7801-1.1332 1.261-1.908 1.261-1.0552 0-1.6718-.8096-1.6718-2.0116 0-2.3599 2.103-2.7892 4.094-2.7892v.601-.0049Zm10.3137 6.6487h-2.7512c-.2552-.0134-.4624-.2126-.4874-.4686V12.8351c.0093-.2851.243-.5106.5264-.5078h2.566c.2629.0146.4729.2259.4874.4906v1.857h.0512c.6677-1.7981 1.9275-2.6346 3.6236-2.6346s2.8.8365 3.5725 2.6346c.7885-2.1158 3.1316-3.1876 5.2334-2.3938a4.0667 4.0667 0 0 1 1.7677 1.3022c.8749 1.1971.6945 2.9437.6945 4.4598v8.976c-.0053.2885-.2419.5181-.5285.5127h-2.7539c-.2707-.0142-.4839-.2375-.4874-.5103v-7.5409c0-.5986.0512-2.095-.078-2.6641-.2047-.9567-.8212-1.2266-1.6181-1.2266-.7304.0225-1.3773.4808-1.6449 1.1653-.2827.7212-.2583 1.9159-.2583 2.7254v7.5385c-.0053.2885-.242.518-.5286.5127h-2.7587c-.2702-.0154-.4828-.238-.4874-.5103v-7.5409c0-1.5872.2437-3.925-1.7058-3.925s-1.9008 2.274-1.9008 3.925v7.5385c-.0053.2885-.242.5181-.5286.5127h-.0026m30.6722-2.4732c-.5044-.6991-1.0405-1.2683-1.0405-2.566v-4.3175c0-1.83.1292-3.5104-1.2184-4.7713-1.0552-1.0205-2.8049-1.3787-4.1427-1.3787-2.6197 0-5.5439.9813-6.158 4.2415-.0523.2658.1193.524.3834.5766a.4547.4547 0 0 0 .0284.0048l2.6684.2895a.5824.5824 0 0 0 .4874-.5103c.2315-1.1211 1.1623-1.6632 2.2126-1.6632.5678 0 1.2185.211 1.545.7212.3875.5691.3363 1.3492.3363 2.0091v.3508c-1.5961.1791-3.6846.2993-5.1759.9592-1.7253.7506-2.9365 2.2789-2.9365 4.5309 0 2.8775 1.8033 4.3175 4.1208 4.3175 1.9495 0 3.0266-.4636 4.5375-2.014.502.7359.6652 1.0818 1.5791 1.8472a.5694.5694 0 0 0 .6506-.0638c.5483-.4906 1.5474-1.3664 2.1104-1.8398.2363-.1693.1973-.4686.0121-.7237Zm-5.4098-1.2437c-.4362.7776-1.1332 1.2584-1.9057 1.2584-1.0551 0-1.6717-.8095-1.6717-2.0091 0-2.3623 2.1031-2.7892 4.094-2.7892v.5986c0 1.0818.0195 1.9796-.5166 2.9413Zm7.7376-8.9931v-2.0337c-.0125-.2706.1953-.5003.4642-.5129a.4906.4906 0 0 1 .05.0002h9.0481c.2785-.0095.5118.21.5213.4903.0002.0075.0003.015.0002.0224v1.7442c0 .2919-.2437.6746-.6799 1.2781l-4.6885 6.7363c1.7399-.0417 3.5798.2207 5.1613 1.1161a.9282.9282 0 0 1 .4874.7924v2.1784c0 .2993-.3241.6451-.6677.4661a10.3588 10.3588 0 0 0-9.5599.0171c-.3144.1693-.6434-.1717-.6434-.471v-2.0729a2.4667 2.4667 0 0 1 .3363-1.3958l5.4318-7.85h-4.7373c-.2783.0109-.5128-.2075-.5235-.4877-.0004-.0084-.0005-.0167-.0004-.025m17.8977.1111c-2.0299 0-2.159 2.7818-2.159 4.5187 0 1.7368-.0244 5.4459 2.1322 5.4459s2.2371-2.9928 2.2371-4.8179c0-1.1972-.0512-2.6347-.4118-3.7705-.3095-.9812-.926-1.3762-1.7985-1.3762Zm-.0268-2.9045c4.0867 0 6.2969 3.5325 6.2969 8.0217 0 4.3396-2.4368 7.7813-6.2969 7.7813-4.0086 0-6.1921-3.5325-6.1921-7.9309s2.2103-7.8721 6.1921-7.8721Zm11.6237 15.4828h-2.7439c-.2707-.0142-.4839-.2375-.4874-.5103V12.7654c.0291-.2702.259-.4728.5288-.4661h2.5539a.5198.5198 0 0 1 .4873.3974v2.1759h.0536C82.0855 12.9273 83.165 12 85.0659 12c1.233 0 2.4369.4489 3.2143 1.6755.7188 1.1382.7188 3.0541.7188 4.4303v8.9515c-.0402.2612-.2663.452-.5288.4465h-2.7683c-.2483-.0107-.4534-.1987-.4873-.4465v-7.7249c0-1.5553.1803-3.8318-1.723-3.8318-.7066.0329-1.3293.4777-1.5936 1.1383-.3851.8684-.4362 1.7368-.4362 2.6984v7.6562c-.0106.2888-.2491.5158-.5362.5103m22.3984-13.0449a6.415 6.415 0 0 0-3.8674 1.337v8.0953c1.2314.9322 2.5014 1.3974 3.8084 1.3958 2.655 0 3.982-1.799 3.982-5.3969s-1.308-5.4091-3.923-5.4337v.0025Zm-4.0697-.3778a8.1254 8.1254 0 0 1 2.3367-1.4522 6.8203 6.8203 0 0 1 2.54-.4907 5.9007 5.9007 0 0 1 2.512.5103 5.1483 5.1483 0 0 1 1.903 1.5111 7.0448 7.0448 0 0 1 1.199 2.4139 11.193 11.193 0 0 1 .419 3.1891 11.047 11.047 0 0 1-.448 3.2528 7.4276 7.4276 0 0 1-1.255 2.4703 5.6879 5.6879 0 0 1-1.964 1.5847 5.7754 5.7754 0 0 1-2.566.5422c-1.655.0275-3.256-.5874-4.472-1.7172v6.8099c.0407.2801-.152.5404-.4304.5813a.5036.5036 0 0 1-.147 0h-1.7059c-.2784.0409-.5369-.153-.5776-.4332a.5175.5175 0 0 1 0-.1481V13.1514c-.039-.2818.1562-.5421.4362-.5814a.5074.5074 0 0 1 .1414 0h1.2696c.335-.0316.632.2163.6633.5535a.6533.6533 0 0 1 .002.0279l.1437.9297Zm18.1077 11.4314a5.8699 5.8699 0 0 0 1.991-.3753 7.5513 7.5513 0 0 0 1.991-1.1039v-2.9659c-.5-.1183-1.006-.21-1.516-.2747a11.963 11.963 0 0 0-1.542-.103c-2.177 0-3.265.843-3.263 2.5291 0 .736.202 1.3026.606 1.7001.405.3974.982.5952 1.733.5936Zm-3.378-10.4062-.216.0736a.7645.7645 0 0 1-.244.0442c-.244 0-.375-.1742-.375-.525v-.7776a.9806.9806 0 0 1 .117-.5667c.124-.1406.283-.2462.46-.3066a10.3618 10.3618 0 0 1 2.279-.6403 15.1308 15.1308 0 0 1 2.712-.2453c1.827 0 3.174.377 4.04 1.1309.866.7539 1.3 1.9257 1.301 3.5153v9.9254c.04.2817-.156.542-.436.5814a.5122.5122 0 0 1-.141 0h-1.243c-.317.0315-.6-.2021-.631-.5216a.3082.3082 0 0 1-.002-.0304l-.147-.9592a7.8512 7.8512 0 0 1-2.293 1.3934 6.7485 6.7485 0 0 1-2.498.4906c-1.384 0-2.48-.3925-3.289-1.1775s-1.216-1.8357-1.219-3.1522c0-1.413.501-2.5415 1.501-3.3853 1.001-.8439 2.348-1.265 4.041-1.2634 1.227.019 2.447.1837 3.635.4906v-1.9085c0-1.0467-.23-1.7826-.692-2.2078-.461-.4252-1.269-.6387-2.424-.6403a14.7867 14.7867 0 0 0-4.236.6623Zm19.463 14.7798c-.521 1.3361-1.123 2.2953-1.806 2.8775-.682.5822-1.576.8725-2.68.8709a6.0895 6.0895 0 0 1-1.645-.2036.838.838 0 0 1-.463-.2772.9834.9834 0 0 1-.144-.5937v-.7555c0-.368.144-.552.434-.552.146.0067.291.0256.434.0564.256.0447.517.0644.777.0589a2.5312 2.5312 0 0 0 1.706-.5225c.404-.3484.77-.9878 1.096-1.9184l.549-1.4718-5.561-13.8381a2.2142 2.2142 0 0 1-.2-.6992c0-.2306.134-.3483.402-.3483h1.733c.221-.0214.444.0293.636.1447.163.1833.28.4026.343.6403l4.043 11.2721L137 13.3545c.063-.2377.181-.457.344-.6403.191-.1154.414-.1661.636-.1447h1.615c.271 0 .405.1177.405.3483a2.2726 2.2726 0 0 1-.202.6992l-6.351 16.2691Z"/><path fill="#f90" d="M55.1623 33.112c-5.1687 3.8392-12.6718 5.8875-19.1149 5.8875-8.6198.0443-16.9454-3.1533-23.3454-8.9661-.4874-.4391-.0536-1.0402.5288-.6992 6.6478 3.8931 14.865 6.2383 23.36 6.2383a46.241 46.241 0 0 0 17.8209-3.6797c.8724-.3728 1.6059.579.7506 1.2266m2.1493-2.4703c.6628.8512-.7311 4.3641-1.3574 5.9317-.19.4734.2169.6648.6434.3066 2.7707-2.3354 3.4872-7.2269 2.9242-7.9334-.5629-.7065-5.4098-1.3051-8.3682.7874-.4557.3214-.3777.7654.1291.7041 1.6644-.2012 5.3734-.6501 6.0338.2036"/></g></svg>