<svg xmlns="http://www.w3.org/2000/svg" width="61" height="26" viewBox="0 0 61 26" fill="none"> <g clip-path="url(#clip0_5597_403290)"> <path d="M0 0.791992V25.192H61V0.791992H0Z" fill="#527A42"/> <path d="M53.8833 10.1963L52.46 12.0975L51.0367 10.1963H49.4303L51.7788 13.2768V15.788H53.07V13.2768L55.4185 10.1963H53.8833Z" fill="#E7E4E2"/> <path d="M42.334 10.1963V11.2943H44.408V15.788H45.689V11.2943H47.763V10.1963H42.334Z" fill="#E7E4E2"/> <path d="M35.929 12.6261H37.8403C38.4097 12.6261 38.674 12.4126 38.674 11.9551C38.674 11.4976 38.4097 11.2841 37.8403 11.2841H35.929V12.6261ZM38.735 15.788L37.3422 13.7343H35.929V15.788H34.648V10.1963H37.9725C39.2738 10.1963 39.9652 10.8165 39.9652 11.9653C39.9652 12.8498 39.5585 13.4191 38.7655 13.6326L40.2397 15.788H38.735Z" fill="#E7E4E2"/> <path d="M26.0572 10.1963V15.788H31.11V14.69H27.3382V13.531H30.5712V12.433H27.3382V11.3045H31.11V10.1963H26.0572Z" fill="#E7E4E2"/> <path d="M22.0413 10.1963L20.3943 14.3341L18.7372 10.1963H17.3443L19.703 15.788H21.0145L23.3732 10.1963H22.0413Z" fill="#E7E4E2"/> <path d="M13.3488 15.788H14.6298V10.1963H13.3488V15.788Z" fill="#E7E4E2"/> <path d="M5.58151 15.7882H6.86251V11.4775H5.58151V15.7882Z" fill="#E7E4E2"/> <path d="M6.86249 11.4773H11.1732V10.1963H6.86249V11.4773Z" fill="#E7E4E2"/> </g> <defs> <clipPath id="clip0_5597_403290"> <rect width="61" height="24.4" fill="white" transform="translate(0 0.791992)"/> </clipPath> </defs> </svg>