<svg xmlns="http://www.w3.org/2000/svg" version="1.0" viewBox="-1.3 -1.3 134.3 45.1"><path fill="#2b3797" d="m62.5 26.3-1.4 7.3c-.7 3-2.5 5-6.1 5-4.2 0-5.3-2.6-4.4-6.3 1.3-5.2 5.5-6.7 12-6M69 16l-4.4.2-1.4 7.2-4.3-.1c-6.2 0-11.7 2.6-13.1 8.8-1.3 5.5 1.8 9.9 8.7 9.9 7 0 10.1-3.7 11.2-8.9L69 16zM20.9 26.6c-6.5-.6-12.2 0-12.2 2.2-.2 3.3 10.7.4 10.5 6.5-.3 9-15.5 7-19.2 5.8l.7-2.7C7 39.4 14 39.5 14 36c.2-3.8-10.8-.4-10.5-6.5.2-4.6 7-7 18.2-5.4l-1 2.5zm17.6 6.1c-1 3.8-4 6.1-7.5 6.1-3.7 0-5.4-2.1-4.4-6 1-3.8 4-6.3 7.5-6.3 3.6 0 5.3 2.5 4.4 6.2m-3.8-9.3c-6.5 0-11.7 3.7-13 9.3-1.3 5.6 2.2 9.4 8.7 9.4 6.5 0 11.7-3.8 13-9.4 1.3-5.6-2.2-9.3-8.7-9.3M109.6 42H104a102 102 0 0 1-14.8-18.4h4.1A253 253 0 0 0 109.6 42m5.9-36.6 2.6-5.4.7 5.5 5.3-1.9-3.7 4.8 4 3-5.3.5-.3 5.7-3-4.2-4.4 4 1.7-5.7-5.2-.7 5-2.8-2-4.9 4.6 2.1zm11 27.4c-1 3.8-4 6.2-7.6 6.2-3.7 0-5.4-2.2-4.4-6.2 1-3.8 4-6.4 7.6-6.4 3.6 0 5.4 2.6 4.4 6.4m-3.8-9.5c-6.6 0-12 3.8-13.2 9.5-1.3 5.7 2.2 9.5 8.8 9.5 6.6 0 11.9-3.8 13.2-9.5 1.3-5.7-2.2-9.5-8.8-9.5"/><path fill="#ed1c24" d="M85 40.4a99 99 0 0 0 26.4-22.8c-4.7 14.7-16 22.7-26.5 22.8"/><path fill="#2b3797" d="M80.7 26.1c2 0 3.2.8 3.2 2.2 0 3.7-7.4 3.5-10.6 2.8 1.1-2.8 3.7-5 7.4-5m7.5 2c0-2.7-2.1-4.7-7-4.7-8 0-13.2 5.1-13.2 11.6 0 4.1 3.4 7.5 9.7 7.5 4.3 0 7.2-2 7.2-2-5.5.5-12.2 0-12.2-6v-.7c7.5 1.6 15.5-.3 15.5-5.7"/></svg>