<svg xmlns="http://www.w3.org/2000/svg" id="Layer_1" data-name="Layer 1" viewBox="0 0 53 48"><defs><clipPath id="clippath"><path d="M0 0h140v48H0z" style="stroke-width:0;fill:none"/></clipPath><style>.cls-5,.cls-6,.cls-8{stroke-width:0}.cls-6{fill:#151011}.cls-8{fill:#fff}</style></defs><g style="clip-path:url(#clippath)"><path d="M6.5991 4.6714V42.668h21.3514c14.093 0 20.199-8.182 20.199-19.0379 0-10.8033-6.1091-18.9587-20.199-18.9587H6.5991Z" class="cls-8"/><path d="M27.9456 7.0737H8.8989V40.272h19.0467c10.9661 0 17.8841-5.5632 17.8841-16.6355 0-9.2399-4.9512-16.5628-17.8841-16.5628ZM10.7388 38.3518V8.9894l17.1997-.0016c9.915 0 16.0396 4.6757 16.0396 14.6457 0 9.7002-5.6512 14.7183-16.0396 14.7183H10.7388Z" style="fill:#151011;fill-rule:evenodd;stroke-width:0"/><path d="M19.2386 20.6658c0 1.9623-1.5339 3.5532-3.4259 3.5532-1.8921 0-3.426-1.5909-3.426-3.5532 0-1.9624 1.5339-3.5532 3.426-3.5532.9089-.0011 1.7809.3729 2.4236 1.0395.6427.6666 1.0033 1.571 1.0023 2.5137" class="cls-6"/><path d="M37.6972 17.3645h1.586v4.9648h2.3538c-.6455-9.0041-7.4748-10.9511-13.6788-10.9511h-6.6183v5.9968h.9779c1.7909 0 2.8942 1.2469 2.8942 3.2706 0 2.0818-1.0839 3.3263-2.8942 3.3263h-.9779v11.9864h6.6183c10.0855 0 13.5963-4.8582 13.7216-11.9889h-3.9826v-6.6049Zm-6.8954 6.6128 1.9248-6.6106h2.258l1.917 6.6106h-1.6515l-.3574-1.2759h-2.075l-.3652 1.2759h-1.6507Zm-.6922-1.648v1.6425h-3.9211V17.375h3.7982v1.6401h-2.2109v.7632h2.0894v1.6457h-2.0894v.9053h2.3338Zm4.3156-1.2773H33.279l.5291-1.8638h.0935l.5236 1.8638Zm-13.0854 1.2758v-3.3109l.9793-.0032c.6088 0 1.3094.1849 1.3094 1.6304 0 1.4802-.629 1.6837-1.3094 1.6837h-.9793Z" style="fill:#d80260;fill-rule:evenodd;stroke-width:0"/><path d="M13.1494 25.0923h5.775v10.6556h-5.775z" class="cls-6"/><path d="M0 3.5578v40.8844c0 .9436.3718 1.8485 1.0334 2.5158A3.5136 3.5136 0 0 0 3.5285 48h24.2258C46.0611 48 54 37.661 54 23.9529 54 10.2981 46.0612 0 27.7542 0H3.5284C3.065 0 2.6062.092 2.178.2708a3.5266 3.5266 0 0 0-1.1447.7713 3.56 3.56 0 0 0-.7648 1.1542A3.5836 3.5836 0 0 0 0 3.5578Z" class="cls-8"/><path d="M27.7455 44.7309H6.6758a3.3765 3.3765 0 0 1-2.3941-1.0014c-.635-.6403-.9922-1.5085-.9931-2.4141V6.6821c.001-.9056.358-1.7738.9931-2.414a3.3767 3.3767 0 0 1 2.3941-1.0015h21.0697c19.9829 0 22.9679 12.9593 22.9679 20.685 0 13.404-8.1575 20.7793-22.9679 20.7793ZM6.6758 4.4052a2.2523 2.2523 0 0 0-1.5969.6673 2.2902 2.2902 0 0 0-.663 1.6096v34.6333a2.29 2.29 0 0 0 .663 1.6097c.4237.4269.998.6669 1.597.6673h21.0696c14.0817 0 21.8389-6.975 21.8389-19.6408 0-17.0062-13.6831-19.5465-21.8389-19.5465H6.6758Z" class="cls-5"/><path d="M16.2104 10.0345v30.2004h13.0373c11.8448 0 16.9803-6.7491 16.9803-16.2698 0-9.1204-5.1355-16.2075-16.9803-16.2075H18.4686a2.2488 2.2488 0 0 0-1.5968.6669 2.287 2.287 0 0 0-.6614 1.6101v-.0001Z" style="fill:#c06;stroke-width:0"/><path d="M41.0696 19.8887v5.8812h3.4857v1.3344h-5.0602v-7.2156h1.5745ZM35.8284 19.8889l2.6763 7.2152h-1.6319l-.5416-1.601h-2.678l-.561 1.601h-1.5878l2.7062-7.2152h1.6178Zm.09 4.4259-.9015-2.647h-.0195l-.9314 2.647h1.8524ZM30.4356 19.8889v1.3344h-3.7761v1.5456h3.4667v1.2336h-3.4667v1.7676h3.8582v1.3344h-5.4303v-7.2156h5.3482ZM20.8051 19.889a3.662 3.662 0 0 1 1.2861.2224c.3886.1429.741.3707 1.032.6671.3038.3172.5366.6963.6828 1.1118a4.566 4.566 0 0 1 .2452 1.5672 5.0208 5.0208 0 0 1-.2011 1.4534 3.2327 3.2327 0 0 1-.6051 1.1527 2.8503 2.8503 0 0 1-1.0127.7632 3.404 3.404 0 0 1-1.4272.2775h-3.0873V19.889h3.0873Zm-.1111 5.8811a2.035 2.035 0 0 0 .6615-.1103 1.463 1.463 0 0 0 .5716-.37 1.8673 1.8673 0 0 0 .4005-.6707 2.9711 2.9711 0 0 0 .1499-1.0104 4.314 4.314 0 0 0-.104-.9855 1.9656 1.9656 0 0 0-.3529-.7525 1.5433 1.5433 0 0 0-.6369-.4803 2.5067 2.5067 0 0 0-.9773-.1672h-1.122V25.77l1.4096.0001Z" class="cls-8"/><path d="M10.317 28.7415c.3283 0 .6534.0652.9567.1918.3033.1267.5789.3124.811.5465.2321.234.4163.5119.5419.8177.1256.3059.1903.6337.1903.9647v8.9763c-1.3265 0-2.5986-.5313-3.5366-1.4771-.938-.9458-1.4649-2.2286-1.4649-3.5661v-3.9331c0-.6685.2634-1.3097.7322-1.7824a2.4895 2.4895 0 0 1 1.7677-.7383h.0017ZM10.3154 26.8305c1.823 0 3.3008-1.4902 3.3008-3.3284 0-1.8381-1.4778-3.3283-3.3008-3.3283s-3.3007 1.4902-3.3007 3.3283c0 1.8382 1.4778 3.3284 3.3007 3.3284Z" class="cls-5"/></g></svg>
