<svg xmlns="http://www.w3.org/2000/svg" xmlns:xlink="http://www.w3.org/1999/xlink" viewBox="0 0 325 267"><defs><path id="a" d="M0 0h63v63H0z"/><path id="c" d="M0 0h17v17H0z"/><path id="e" d="M0 0h326v160H0z"/></defs><g fill="none" fill-rule="evenodd"><path fill="#E84925" d="M242.9865 60.2727c.4016 11.038-8.221 20.3118-19.2592 20.7138-11.038.4016-20.3118-8.221-20.7138-19.2592-.4016-11.038 8.221-20.3123 19.2592-20.7138 11.0385-.4016 20.3123 8.221 20.7138 19.2592"/><g transform="translate(141 199)"><mask id="b" fill="#fff"><use xlink:href="#a"/></mask><path fill="#E84925" d="M62.9788 30.3547c.6326 17.3853-12.9482 31.9914-30.3335 32.624C15.26 63.6118.6538 50.0311.0213 32.6457-.6115 15.2606 12.9692.6539 30.3546.0213c17.3848-.6326 31.9915 12.9482 32.624 30.3335" mask="url(#b)"/></g><g transform="translate(110 4)"><mask id="d" fill="#fff"><use xlink:href="#c"/></mask><path fill="#E84925" d="M16.9943 8.1909c.1705 4.6912-3.4937 8.6328-8.1853 8.8033-4.6911.1711-8.6327-3.4937-8.8032-8.1849C-.1653 4.1177 3.4995.1766 8.191.0055c4.6911-.1706 8.6327 3.4942 8.8033 8.1854" mask="url(#d)"/></g><g transform="translate(0 46)"><mask id="f" fill="#fff"><use xlink:href="#e"/></mask><path fill="#E84925" d="M325.9651 84.9245c-1.0397-28.5466-25.0402-50.8465-53.6072-49.8075-10.2045.3707-19.61 3.6713-27.4398 9.0603l-.8128.573c-4.2052 2.8983-24.2173 15.8246-47.192 16.1968-24.9008.4037-50.3167-26.5256-55.9134-32.8211a82.178 82.178 0 0 0-1.1235-1.2915c-.0062-.0077-.0143-.0168-.0143-.0168v.0015C124.5429 9.6347 101.9579-.8482 77.1446.0539 32.9607 1.6607-1.5539 38.7562.054 82.9093c1.608 44.153 38.7294 78.6435 82.9134 77.0368 22.6803-.8247 42.8106-11.0024 56.8177-26.684v.0034s24.9597-25.169 51.02-26.5514c25.4795-1.3518 48.8764 18.5941 48.8764 18.5941v-.0019c9.6305 8.6341 22.4902 13.695 36.4413 13.188 28.5666-1.039 50.882-25.0227 49.8424-53.5698ZM44.2719 101.4762c-2.9501 1.3327-5.8715 2-8.7646 2-3.9084 0-7.4401-.9017-10.5965-2.7041-3.1564-1.8024-5.637-4.2611-7.4401-7.3785-1.8037-3.1164-2.706-6.6088-2.706-10.4767 0-3.83.9205-7.2842 2.762-10.3638 1.841-3.0786 4.3684-5.5004 7.5813-7.266 3.2129-1.7646 6.8106-2.6472 10.7937-2.6472 2.931 0 5.824.6109 8.6804 1.8307 2.8553 1.2207 5.2788 2.882 7.271 4.9848l-5.9748 7.2096c-1.2776-1.614-2.7998-2.9007-4.5656-3.8583-1.7668-.9577-3.514-1.436-5.242-1.436-1.9918 0-3.8046.498-5.4392 1.4924-1.6343.995-2.9219 2.3654-3.861 4.1118-.9397 1.746-1.4088 3.689-1.4088 5.8296 0 2.1401.469 4.0832 1.4087 5.8296.9392 1.7464 2.2268 3.1174 3.861 4.1118 1.6347.995 3.4475 1.4925 5.4393 1.4925 1.615 0 3.3062-.4128 5.073-1.2394 1.7659-.8252 3.344-1.9517 4.7346-3.379l6.0309 6.4772c-2.1416 2.253-4.6877 4.0463-7.6373 5.379Zm46.303 1.2676H80.542v-4.9566c-2.0665 3.5297-5.3177 5.3316-9.7508 5.4072-3.3071 0-5.9466-1.0605-7.9192-3.1824-1.9731-2.1215-2.9597-4.947-2.9597-8.4772V72.2714h10.0331v16.391c0 1.7272.4414 3.0795 1.325 4.0553.8822.9768 2.0756 1.4642 3.5786 1.4642 1.7658-.0368 3.1569-.6845 4.1712-1.943 1.0148-1.2576 1.5217-2.9007 1.5217-4.9284V72.2714H90.575v30.4724Zm12.4557 0h10.0331V60.9504h-10.033v41.7934Zm38.4403-.0847a18.7827 18.7827 0 0 1-4.4527.5353c-3.007 0-5.4392-.8634-7.2993-2.5912-1.8602-1.7268-2.7898-4.1118-2.7898-7.1531V80.3827h-4.2277V73.736h4.2277v-8.449h9.9762v8.449h7.891v6.6466h-7.891V91.873c0 2.14.8826 3.2106 2.649 3.2106 1.0894 0 2.3857-.3382 3.8892-1.014l1.9167 7.0966c-1.1273.639-2.4236 1.1366-3.8893 1.493Zm41.3382-16.718h-11.1063V97.04h-7.5607V85.941h-11.1738v-7.6225h11.1738V67.1531h7.5607v11.1655h11.1063v7.6224Z" mask="url(#f)"/></g></g></svg>