<svg xmlns="http://www.w3.org/2000/svg" viewBox="0 0 49.2168 49.2168"><defs><style>.cls-1{fill:#2d9dd8}</style></defs><g id="Layer_2" data-name="Layer 2"><g id="Layer_1-2" data-name="Layer 1"><path d="M41.3548 0H7.862A7.8562 7.8562 0 0 0 .0002 7.8506v33.4401a7.8702 7.8702 0 0 0 7.8143 7.9257l.0475.0002h33.429a7.8702 7.8702 0 0 0 7.9257-7.8143l.0002-.0476v-.5114S36.4971 35.538 30.0414 32.406a20.9928 20.9928 0 0 1-15.6597 8.5012c-9.7794 0-13.1032-8.5648-8.501-14.1898a9.9384 9.9384 0 0 1 5.369-3.068 36.511 36.511 0 0 1 17.002 2.6846 35.7485 35.7485 0 0 0 2.7485-6.7753H11.825v-1.9176h9.9072v-3.5154H9.8435v-1.9176h11.9526V7.2227a.8138.8138 0 0 1 .7962-.831q.0174-.0004.0348 0h4.8576v5.8165h11.8248v1.9176H27.4847v3.5154h9.6515a38.0717 38.0717 0 0 1-4.0907 10.3547c2.9402 1.0866 5.5609 2.0454 7.5423 2.7484a51.8795 51.8795 0 0 0 8.6289 2.4928V7.8618A7.8562 7.8562 0 0 0 41.366 0Z" class="cls-1"/><path d="M7.5424 27.9959c-3.835 3.1958-1.534 9.0763 6.2 9.0763a16.7414 16.7414 0 0 0 12.464-7.1588 26.3784 26.3784 0 0 0-13.8062-3.5794 9.2412 9.2412 0 0 0-4.8578 1.6619Z" class="cls-1"/></g></g></svg>