<svg xmlns="http://www.w3.org/2000/svg" xml:space="preserve" viewBox="0 0 70 40"><path fill="#15c30e" d="M33.3 14.8c-.1 0-.2.1-.3.1-.2 0-.5-.1-.6-.3v-.1l-1.8-4v-.1c0-.2.1-.3.3-.3.1 0 .1 0 .2.1l2.1 1.5c.2.1.3.2.5.2.1 0 .2 0 .3-.1l10.1-4.5C42.4 5 39.4 3.6 36 3.6c-5.5 0-10 3.7-10 8.3 0 2.5 1.3 4.8 3.4 6.3.2.1.3.3.3.5v.2c-.2.6-.4 1.6-.4 1.7 0 .1-.1.2-.1.2 0 .2.1.3.3.3.1 0 .1 0 .2-.1l2.2-1.3c.2-.1.3-.2.5-.2h.3c1 .3 2.1.5 3.3.5 5.5 0 10-3.7 10-8.3 0-1.4-.4-2.7-1.1-3.8l-11.6 6.9z"/><path d="m11.2 29.2-.2.7c-.2.6-.3 1.1-.5 1.7l-.6-2.4L8.6 24v-.1h-1l-1.5 5.3c-.3.9-.5 1.7-.7 2.4-.1-.6-.3-1.2-.4-1.9L3.5 24v-.1h-1L5 33.3v.1h.9L7.4 28c.3-.9.5-1.6.6-2.3.1.7.3 1.4.6 2.3l1.4 5.3v.1h.9l2.8-9.4v-.2h-1l-1.5 5.4zm5.8-2.8c-1.9 0-3.1 1.5-3.1 3.7 0 2.1 1.3 3.5 3.2 3.5 1.2 0 1.9-.3 2.1-.4l.1-.1-.3-.9h-.1c-.3.2-.8.3-1.7.3-1.4 0-2.2-.9-2.3-2.6h4.8v-.5c0-.3 0-1.1-.5-1.9-.4-.7-1.2-1.1-2.2-1.1m-2 2.8c.3-1.4 1.2-1.9 2-1.9.5 0 .9.2 1.2.5.4.4.5 1.1.6 1.5H15zm12.4 3c-.5.2-1.2.4-1.9.4-2.3 0-3.7-1.5-3.7-3.9 0-2.5 1.4-4.1 3.8-4.1.7 0 1.3.1 1.8.3h.1l.5-.8-.1-.1c-.2-.1-.9-.4-2.2-.4-2.9 0-4.8 2-4.8 5 0 3.6 2.4 4.8 4.5 4.8 1.2 0 2.1-.2 2.6-.5v.1l-.5-.8h-.1zm4.7-5.8c-.5 0-1 .1-1.4.4-.2.1-.5.3-.6.5v-3.6h-1v9.7h1v-4.2c0-.2 0-.4.1-.6.3-.8 1-1.3 1.8-1.3 1.4 0 1.6 1.3 1.6 2.1v4h1v-4.1c0-2.8-2-2.9-2.5-2.9M43.6 25h-1v1.5h-1.1v.8h1.1v3.9c0 .8.1 1.3.4 1.7.3.3.7.5 1.3.5.4 0 .7-.1 1-.2l.2-.1-.5-.5h-.7c-.5 0-.8-.3-.8-1.2v-4.1h1.9v-.8h-1.9V25zm8.5-1.2c-.7 0-1.3.1-2 .2H50v9.4h1v-3.9c.3.1.6.1.9.1 1.2 0 2.2-.4 2.8-1.1.5-.5.7-1.1.7-2 0-.8-.3-1.5-.8-1.9-.5-.5-1.4-.8-2.5-.8m-1.2 1c.2 0 .6-.1 1.1-.1 1.5 0 2.3.7 2.3 1.9 0 1.3-.9 2.1-2.4 2.1-.3 0-.7 0-1-.1v-3.8zm15.6 1.7-1.6 4.3c-.1.3-.2.7-.3 1l-.3-.9-1.7-4.3v-.1h-1.1l2.5 6.3v.2s0 .1-.1.2c-.3.8-.7 1.3-1 1.6-.4.4-.9.6-1.1.7l-.2.1.8.8c.2-.1.4-.3.9-.7.9-.8 1.4-1.9 2.3-4l2-4.9.1-.2h-1.2zm-25.8 5.2v-2.6c0-1.8-.8-2.7-2.4-2.7-.7 0-1.5.2-2 .6h-.1l.4.8.1-.1c.4-.3.9-.4 1.5-.4.4 0 .8.1 1 .4.3.3.4.7.4 1.4-1.6 0-2.7.3-3.3 1-.4.4-.6.9-.6 1.6 0 1 .7 2 2.1 2 1 0 1.6-.5 2-.8l.1.7h1v-.2c-.2-.7-.2-1.2-.2-1.7m-3.6-1.2c.4-.4 1.3-.6 2.5-.6h.1v1.2c0 .1 0 .2-.1.3-.2.6-.8 1.2-1.8 1.2-.5 0-1.1-.3-1.1-1.2.1-.3.2-.6.4-.9m23.5 1.2v-2.6c0-1.8-.8-2.7-2.4-2.7-.7 0-1.4.2-1.9.5l-.2.1.4.8.1-.1c.4-.2.9-.4 1.4-.4.4 0 .8.1 1 .4.3.3.4.7.4 1.4-1.6 0-2.7.3-3.3 1-.4.4-.6.9-.6 1.6 0 .9.7 2 2.1 2 1 0 1.6-.5 2-.8l.1.7h1v-.2c-.1-.7-.1-1.2-.1-1.7m-1-.6c0 .1 0 .2-.1.3-.2.6-.8 1.2-1.8 1.2-.5 0-1.1-.3-1.1-1.2 0-.4.1-.7.4-.9.4-.4 1.3-.6 2.5-.6h.1v1.2z"/></svg>