<svg xmlns="http://www.w3.org/2000/svg" data-name="Layer 1" viewBox="0 0 64 48"><defs><clipPath id="a"><path fill="none" stroke-width="0" d="M0 0h140v48H0z"/></clipPath></defs><g clip-path="url(#a)"><path d="M18.7444 47.7297v-3.1731a1.8736 1.8736 0 0 0-.1135-.7855 1.8805 1.8805 0 0 0-.4287-.6691 1.892 1.892 0 0 0-.6677-.4338 1.8993 1.8993 0 0 0-.788-.1213 1.9758 1.9758 0 0 0-1.0162.2068 1.964 1.964 0 0 0-.7693.6923 1.863 1.863 0 0 0-.7155-.6792 1.8735 1.8735 0 0 0-.9638-.2199 1.6873 1.6873 0 0 0-.8442.1787 1.6767 1.6767 0 0 0-.6436.5723v-.6241h-1.1054v5.056h1.1159v-2.803a1.1777 1.1777 0 0 1 .303-.9639 1.1887 1.1887 0 0 1 .4275-.2946 1.1932 1.1932 0 0 1 .513-.0848c.7333 0 1.1054.476 1.1054 1.3327v2.8136h1.1159v-2.803a1.19 1.19 0 0 1 .3072-.9601 1.198 1.198 0 0 1 .4255-.2949 1.2047 1.2047 0 0 1 .5108-.0883c.7545 0 1.1159.476 1.1159 1.3327v2.8136l1.1158-.0001Zm6.228-2.528v-2.5279h-1.1053v.6134a1.9266 1.9266 0 0 0-.7121-.5642 1.9362 1.9362 0 0 0-.8928-.1762 2.676 2.676 0 0 0-1.8035.822c-.4729.4942-.7367 1.1505-.7367 1.833s.2638 1.3388.7367 1.833a2.6764 2.6764 0 0 0 1.8035.8219 1.9348 1.9348 0 0 0 .8928-.1761 1.925 1.925 0 0 0 .7121-.5643v.6134h1.1053v-2.528Zm-4.113 0a1.5267 1.5267 0 0 1 .3007-.8251 1.5373 1.5373 0 0 1 .7066-.5251c.282-.1027.588-.121.8803-.0526.2923.0683.5581.2203.7646.4372.2066.2169.3448.4893.3977.7834a1.5235 1.5235 0 0 1-.1001.872 1.5317 1.5317 0 0 1-.5648.6741 1.5429 1.5429 0 0 1-.844.2544 1.5282 1.5282 0 0 1-1.1266-.4732 1.5167 1.5167 0 0 1-.3276-.5294 1.5107 1.5107 0 0 1-.0867-.6157h-.0001Zm27.7641-2.6608a2.8766 2.8766 0 0 1 1.0902.2033c.323.1283.6177.3185.8672.5596.2456.2398.4404.5261.5729.8421a2.7963 2.7963 0 0 1 0 2.1117 2.56 2.56 0 0 1-.5729.8422 2.659 2.659 0 0 1-.8672.5595 3.0234 3.0234 0 0 1-2.1804 0 2.6298 2.6298 0 0 1-.8647-.5595 2.5823 2.5823 0 0 1-.5702-.8422 2.7991 2.7991 0 0 1 0-2.1117 2.5871 2.5871 0 0 1 .5702-.8421 2.6316 2.6316 0 0 1 .8647-.5596 2.876 2.876 0 0 1 1.0902-.2033Zm0 1.0401a1.6589 1.6589 0 0 0-.6312.1188 1.4948 1.4948 0 0 0-.5039.3325 1.5491 1.5491 0 0 0-.3343.5122 1.8313 1.8313 0 0 0 0 1.3146c.0762.1911.1898.3652.3343.5121a1.492 1.492 0 0 0 .5039.3326 1.736 1.736 0 0 0 1.2623 0 1.5237 1.5237 0 0 0 .5067-.3326 1.5334 1.5334 0 0 0 .3369-.5121 1.8313 1.8313 0 0 0 0-1.3146 1.5348 1.5348 0 0 0-.3369-.5122 1.525 1.525 0 0 0-.5067-.3325 1.6568 1.6568 0 0 0-.6311-.1188ZM30.987 45.2017a2.4142 2.4142 0 0 0-.1126-.9932 2.421 2.421 0 0 0-.5056-.8636 2.4367 2.4367 0 0 0-.8127-.5871 2.4462 2.4462 0 0 0-.9817-.211 2.6751 2.6751 0 0 0-1.8091.8383 2.6501 2.6501 0 0 0-.7199 1.8523 2.651 2.651 0 0 0 .7715 1.8316 2.6759 2.6759 0 0 0 1.832.7877 3.0972 3.0972 0 0 0 2.083-.7087l-.5419-.8144a2.4276 2.4276 0 0 1-1.4773.5288 1.4155 1.4155 0 0 1-1.0118-.3124 1.4028 1.4028 0 0 1-.5081-.9251h3.773c.0105-.1376.0211-.275.0211-.4232h.0001Zm-3.7836-.4442a1.2999 1.2999 0 0 1 .4237-.887 1.3118 1.3118 0 0 1 .9259-.3399 1.2656 1.2656 0 0 1 .8977.349c.2411.23.3807.5457.3883.8779h-2.6356Zm8.4384-.7932a3.2861 3.2861 0 0 0-1.5835-.4337c-.6059 0-.9672.2221-.9672.5923 0 .3386.3826.4336.8609.4971l.5207.074c1.1054.1587 1.7749.6241 1.7749 1.5126 0 .9625-.8502 1.6501-2.3169 1.6501a3.6772 3.6772 0 0 1-2.2-.6559l.5208-.8567a2.7154 2.7154 0 0 0 1.6899.5289c.7545 0 1.1584-.2221 1.1584-.6135 0-.2856-.287-.4443-.8927-.5288l-.5209-.074c-1.1371-.1588-1.7535-.6665-1.7535-1.4915 0-1.0049.8289-1.6184 2.1149-1.6184a3.8132 3.8132 0 0 1 2.0725.529l-.4783.8885Zm5.3111-.2856h-1.8067v2.2847c0 .5076.1806.8462.7334.8462a2.049 2.049 0 0 0 .9778-.2856l.3188.9414a2.606 2.606 0 0 1-1.3816.3913c-1.3073 0-1.7642-.6981-1.7642-1.8723v-2.3057h-1.031v-1.0049h1.031l-.0003-1.5337h1.1158l.0004 1.5337h1.8067l-.0001 1.0049Zm3.8252-1.1319c.2681.0011.5341.0476.7865.1376l-.3401 1.0366a1.8076 1.8076 0 0 0-.6908-.127c-.7227 0-1.0841.4655-1.0841 1.301v2.8347h-1.1054v-5.0559h1.0947v.6134a1.4954 1.4954 0 0 1 .5673-.5534 1.504 1.504 0 0 1 .7718-.187h.0001Zm7.6521 4.447a.5193.5193 0 0 1 .3638.1474.5051.5051 0 0 1 .1102.1602.4913.4913 0 0 1 0 .3904.5097.5097 0 0 1-.1102.1597.5288.5288 0 0 1-.1636.1084.5005.5005 0 0 1-.2002.0402.517.517 0 0 1-.2855-.0825.514.514 0 0 1-.1922-.2258.4946.4946 0 0 1 0-.3904.507.507 0 0 1 .2739-.2681.523.523 0 0 1 .2037-.0395h.0001Zm0 .8954a.3771.3771 0 0 0 .1525-.0309.4019.4019 0 0 0 .1239-.0838.3915.3915 0 0 0 .1085-.3519.391.391 0 0 0-.0803-.172.3936.3936 0 0 0-.1521-.1143.3803.3803 0 0 0-.1525-.0303.3986.3986 0 0 0-.2813.1134.3934.3934 0 0 0-.1148.2775c0 .104.0413.2038.1148.2776a.3976.3976 0 0 0 .2812.1147h.0001Zm.0298-.6279a.2143.2143 0 0 1 .1394.0402.1333.1333 0 0 1 .0489.1091.1264.1264 0 0 1-.039.0955.1855.1855 0 0 1-.111.0463l.1537.1764h-.1202l-.1425-.1752h-.0459v.1752h-.1003v-.4675h.2169Zm-.1165.0877v.1245h.1153a.114.114 0 0 0 .0633-.0155.0527.0527 0 0 0 .0234-.0474.0522.0522 0 0 0-.0234-.0463.1149.1149 0 0 0-.0633-.0153h-.1153Z"/><path fill="#7573b4" d="M39.377 4.0762H22.6138v29.9804H39.377V4.0762Z"/><path fill="#e41221" d="M23.6799 19.0668a18.957 18.957 0 0 1 1.9225-8.3346 19.051 19.051 0 0 1 5.3947-6.6557C28.1709 1.8656 24.7767.4907 21.2025.1089A19.2381 19.2381 0 0 0 10.785 1.9174C7.5517 3.481 4.8257 5.9184 2.9185 8.951 1.0114 11.9836 0 15.4891 0 19.0667s1.0114 7.0831 2.9185 10.1157c1.9072 3.0326 4.6332 5.47 7.8665 7.0336a19.2381 19.2381 0 0 0 10.4175 1.8085c3.5742-.3818 6.9684-1.7567 9.7946-3.9676a19.0504 19.0504 0 0 1-5.3947-6.6557 18.9576 18.9576 0 0 1-1.9225-8.3344Z"/><path fill="#12a1dc" d="M60.1654 30.8813v-.6143h.2487v-.1252h-.6333v.1252h.2487v.6143h.1359Zm1.2296 0v-.7407h-.1941l-.2233.5095-.2233-.5095H60.56v.7407h.1371v-.5587l.2094.4817h.1422l.2094-.4829v.5599h.1369Zm.6051-11.8146a18.9997 18.9997 0 0 1-2.9182 10.1156c-1.9071 3.0326-4.633 5.47-7.8662 7.0336a19.237 19.237 0 0 1-10.4174 1.8086c-3.5741-.3818-6.9683-1.7567-9.7944-3.9676a19.0869 19.0869 0 0 0 5.3911-6.6574c1.2675-2.5967 1.9261-5.4459 1.9261-8.3328s-.6586-5.7361-1.9261-8.3328a19.087 19.087 0 0 0-5.3911-6.6574C33.83 1.8655 37.2242.4907 40.7983.1089a19.2377 19.2377 0 0 1 10.4174 1.8086c3.2332 1.5636 5.9591 4.001 7.8662 7.0336a18.9996 18.9996 0 0 1 2.9182 10.1156Z"/></g></svg>