<svg xmlns="http://www.w3.org/2000/svg" viewBox="30 28.5 54 40"><defs><linearGradient id="b" x1="30.59" x2="83.41" y1="74.91" y2="22.09" gradientUnits="userSpaceOnUse"><stop offset="0" stop-color="#b1d3f1"/><stop offset="1" stop-color="#e9f2fa"/></linearGradient><linearGradient id="c" x1="11.72" x2="68.28" y1="68.28" y2="11.72" gradientUnits="userSpaceOnUse"><stop offset="0" stop-color="#b1d3f1" stop-opacity="0"/><stop offset="1" stop-color="#fff"/></linearGradient><clipPath id="a" transform="translate(22 28.5)"><rect width="70" height="40" fill="none" rx="3.71"/></clipPath></defs><g data-name="Layer 2"><g data-name="Layer 1"><g clip-path="url(#a)"><rect width="70" height="40" x="22" y="28.5" fill="url(#b)" rx="3.71"/><circle cx="40" cy="40" r="40" fill="url(#c)" opacity=".8"/></g><path fill="#ff9d02" d="M63.98 42.45a6.95 6.95 0 0 1-5.77 6.86l-1.18 1.5-1.18-1.5a6.95 6.95 0 1 1 8.13-6.86Z"/><g data-name="#ecf9f3ff"><path fill="#fff" d="M56.21 37.78a4.75 4.75 0 0 1 4.51 1.76c.12-.23.25-.45.36-.69l.38.48a5.86 5.86 0 0 0-.37.72 4.9 4.9 0 0 1 .5 3.6 4.8 4.8 0 0 1-2.27 2.96 4.75 4.75 0 0 1-6.43-6.55c-.13-.24-.28-.47-.38-.72.1-.17.24-.32.36-.48l.38.68a4.74 4.74 0 0 1 2.96-1.76m.2.52a4.26 4.26 0 0 0-2.88 1.77l2.27 4.26.05.02c.3-.48.54-1 .82-1.5-.55-1.05-1.13-2.08-1.66-3.14a3.76 3.76 0 0 1 1.33-.56 3.38 3.38 0 0 1 2.63.58q-.86 1.55-1.67 3.12c.25.5.55 1 .79 1.52a.6.6 0 0 0 .21-.29c.7-1.34 1.45-2.66 2.13-4.02a4.17 4.17 0 0 0-4.02-1.76m-.67 1.63c.42.74.8 1.5 1.2 2.26h.08c.4-.77.82-1.52 1.22-2.27a2.88 2.88 0 0 0-2.5.01m-2.55.7a4.33 4.33 0 0 0-.3 2.78 4.24 4.24 0 0 0 2.3 2.88 4.22 4.22 0 0 0 5.59-5.66l-.19.31c-.81 1.55-1.66 3.08-2.46 4.63-.38-.72-.77-1.43-1.14-2.15l-1.16 2.15a710.5 710.5 0 0 0-2.64-4.93Z"/><path fill="#002764" d="M32.77 53.04h.8c.15.66.3 1.31.5 1.95q.26-.97.49-1.95h.72c.16.64.32 1.3.5 1.93.18-.63.32-1.28.5-1.92.26-.03.53-.01.8-.01l-.9 3.1h-.75c-.17-.62-.31-1.25-.47-1.88l-.06-.03a40.6 40.6 0 0 0-.48 1.9h-.76c-.3-1.02-.58-2.06-.9-3.09Zm5.92-.01h.8l-.01 3.11h-.79v-3.1Zm2.65 0a3.93 3.93 0 0 1 .82.03c.42.57.8 1.17 1.22 1.74v-1.77h.78c.03 1.04 0 2.07 0 3.1h-.78c-.4-.59-.8-1.2-1.24-1.76v1.76h-.8v-3.1Zm4.63 0h.78v1.4c.32-.45.59-.93.88-1.4h.9c-.33.5-.64 1-.98 1.49.35.54.74 1.07 1.1 1.6l-.91.01c-.33-.49-.62-1-.98-1.46-.03.49-.01.98-.01 1.46h-.78v-3.1Zm4.34.01h2v.6h-1.23l.01.61c.37-.02.73 0 1.1-.01v.59h-1.11l.01.72h1.28l-.03.58h-2.02v-3.1Zm3.82 0h.77v2.42a9.09 9.09 0 0 0 1.1-.03v.7h-1.87v-3.09Zm4.49.3a1.65 1.65 0 0 1 1.84-.13c.12.04.14.16.17.27-.26-.05-.48-.22-.74-.28a1.6 1.6 0 0 0-.77.07 1.67 1.67 0 0 0-.75.75l-.1.29v.57l.1.28a1.4 1.4 0 0 0 1.72.76c.16-.08.32-.18.48-.28.04.15.03.29-.14.35a1.75 1.75 0 0 1-1.9-.22 1.66 1.66 0 0 1 .09-2.43Zm5.94-.29.25-.01a9.05 9.05 0 0 1-.02 1.37c.07.57.02 1.14.04 1.71l-.26.02v-1.6H62.8v1.59h-.25c.04-.88-.04-1.77.04-2.64.06-.16-.1-.57.22-.45v1.31h1.77v-1.3Zm2.35 0h1.75v.2h-1.49v1.07c.44.02.89 0 1.33.01l-.01.22-1.32-.01v1.38h1.53l-.01.22h-1.77v-3.09Zm4.21.13a1.67 1.67 0 0 1 2.1.34 1.71 1.71 0 0 1-.05 2.2c.15.14.29.28.42.43l-.23.13-.37-.39a1.96 1.96 0 0 1-1.12.32 1.6 1.6 0 0 1-1.36-.9 1.65 1.65 0 0 1 .61-2.13m.51.06a1.32 1.32 0 0 0-.87.68 1.38 1.38 0 0 0 2.18 1.65 1.48 1.48 0 0 0 .2-1.68 1.37 1.37 0 0 0-1.5-.65Zm3.73-.21h.28v1.84a1.33 1.33 0 0 0 .16.8.86.86 0 0 0 1.5-.4c.03-.74.02-1.48.01-2.21l.26-.05c.02.62 0 1.24.01 1.86a1.53 1.53 0 0 1-.17.9 1.17 1.17 0 0 1-2.02-.33c-.06-.8-.01-1.61-.03-2.41Zm4.08 0h1.74l-.02.24-1.45-.01v1.04c.43.02.86 0 1.3.01l.02.23H79.7v1.36l1.53.01v.23h-1.79v-3.11Zm-30.59 6.85h.2v1.58h-.2v-1.58Zm15.53-.01c.31.01.74-.07.94.25a.51.51 0 0 1-.31.68l.44.66h-.28c-.19-.24-.24-.64-.58-.7v.7h-.22v-1.6m.21.17v.58c.2-.02.56.03.55-.26.04-.3-.33-.31-.55-.32Zm-19.16 1.32a.85.85 0 0 1 .14-1.42 1.01 1.01 0 0 1 .99.17l-.15.13a.78.78 0 0 0-.74-.15.68.68 0 0 0 0 1.19.9.9 0 0 0 .7-.05v-.43h-.43l.03-.17h.59c-.04.25.13.63-.16.75a.96.96 0 0 1-.97-.02Zm5.95-1.44h.87v.13h-.68v.57h.63l.02.16h-.65v.68h-.19v-1.54Zm2.86.11c.1-.15.29-.08.43-.1h.73l.01.13-.49-.02c.02.48 0 .96.01 1.43h-.13c-.01-.46.01-.93-.01-1.4-.18-.03-.37-.02-.55-.04Zm3.36.1a1.02 1.02 0 0 1 .72-.27l.46.23c-.12.16-.27.01-.39-.03a.75.75 0 0 0-.78.3 2.77 2.77 0 0 0 .01.65l.21.2.2.12a1.1 1.1 0 0 0 .68-.2l.02.2a.89.89 0 0 1-1.3-.3.94.94 0 0 1 .17-.9Zm3.81-.21h.22c.2.54.42 1.06.63 1.59-.3.03-.33-.24-.4-.44l-.7-.01c-.08.18-.1.46-.37.44.17-.54.41-1.05.61-1.58m.05.3a6.74 6.74 0 0 1-.24.67h.6a3.56 3.56 0 0 1-.24-.65l-.12-.02Zm6.12-.34c.35 0 .77-.06 1.06.2a.81.81 0 0 1-.17 1.33 3.28 3.28 0 0 1-.9.1v-1.63m.25.18v1.24c.22-.03.49.02.67-.16a.64.64 0 0 0-.05-.96 1.44 1.44 0 0 0-.62-.12Zm-35.09.43c1.96-.04 3.92 0 5.88 0 1.32 0 2.65-.02 3.97 0a.26.26 0 0 1-.26.11l-9.4.01a.17.17 0 0 1-.19-.12Zm38.68.09c.17-.24.5-.08.76-.1 1-.06 1.98 0 2.97 0h5.68c.16.01.37-.06.49.1a6.49 6.49 0 0 1-.95.03H72.8a13.53 13.53 0 0 1-1.41-.03Z"/></g></g></g></svg>