<svg xmlns="http://www.w3.org/2000/svg" id="Layer_1" data-name="Layer 1" viewBox="0 0 48 48"><defs><clipPath id="clippath"><path d="M0 0h140v48H0z" style="stroke-width:0;fill:none"/></clipPath><style>.cls-3,.cls-4{stroke-width:0}.cls-3{fill:#fff}.cls-4{fill:#006fcf}</style></defs><g style="clip-path:url(#clippath)"><path d="M.031 0h47.8504c0 8.6342.008 17.2685-.0079 25.9027-9.6275.016-19.2629-.008-28.8904.008-.2789.3838-.5659.7515-.8528 1.1273l-.8607-1.1273c-2.638-.008-5.276 0-7.914 0v7.515c2.6301 0 5.2521.008 7.8821 0 .2869-.3837.5738-.7595.8608-1.1352.2948.3757.5817.7675.8766 1.1432 1.578-.008 3.1561 0 4.742 0v-1.7348c.813-.008 1.6737.0799 2.4308-.2798v2.0146h3.1401v-1.1912c.3188.3917.6455.7835.9564 1.1832 5.268.016 10.536 0 15.812.008.6455.016 1.2751-.1919 1.8091-.5436.0159 5.0366.008 10.0733.008 15.1099H.031c0-8.1466-.008-16.2931 0-24.4397.7332 0 1.4744-.008 2.2076 0 .1754-.3838.3109-.7755.4703-1.1592.4383 0 .8687-.008 1.307 0 .1594.3917.3028.7834.4782 1.1592 5.9932-.008 11.9865 0 17.9798-.008v-1.1992c.3427.3837.6296.8394 1.0041 1.1912 1.602.016 3.2039 0 4.8058.008v-.8155c.6376.5437 1.4664.8075 2.2953.8155 1.0042.008 2.0163 0 3.0205 0 .1594-.3837.3109-.7755.4623-1.1592h1.299c.1594.3837.3109.7675.4703 1.1592h4.726v-1.3591c.2949.4477.5818.9114.8687 1.3591 1.076 0 2.1519.008 3.2358 0v-7.523H41.41v1.3511c-.2949-.4477-.5818-.9034-.8687-1.3511h-3.2596c-.008.7515.0079 1.503-.008 2.2545-.0797-.1039-.1355-.2079-.1833-.3278-.263-.6475-.5499-1.2791-.8129-1.9267-1.849-.016-3.698 0-5.555-.008-.8846 0-1.7772.2878-2.4467.8714v-.8714c-5.7621 0-11.5242-.008-17.2943 0-.1993.5676-.3826 1.1353-.5978 1.6949-.2072-.5676-.3985-1.1353-.5977-1.6949H5.9127v2.3505c-.3427-.7835-.6695-1.567-1.0042-2.3505H1.8163C1.2185 17.4124.6447 18.8115.023 20.1865c-.0399-.2958-.016-.5996-.016-.8954C.0311 12.8714.0311 6.4357.0311 0Z" class="cls-4"/><path d="M2.4615 16.9658h1.865c.8129 1.8868 1.6098 3.7735 2.4228 5.6602H5.1234c-.1434-.3837-.3108-.7594-.4542-1.1432-.8608-.024-1.7135-.008-2.5743-.008-.1434.3838-.3028.7595-.4542 1.1512-.534.008-1.076.008-1.61 0 .008-.0079.016-.0319.024-.0479.8288-1.8628 1.6019-3.7415 2.4068-5.6123Zm.1435 3.2618h1.5382c-.2471-.6315-.5101-1.2631-.7572-1.8947-.2949.6156-.518 1.2632-.781 1.8947ZM6.8927 16.9653h2.2714l1.2433 3.5496c.0398-.048.0717-.0959.0877-.1599.3905-1.1352.781-2.2705 1.1875-3.3977h2.2554v5.6602h-1.4186V18.82c.008-.0959-.008-.1838-.0399-.2718-.4702 1.3591-.9723 2.7022-1.4266 4.0613-.4223.024-.8447.008-1.2671.008-.4942-1.3831-.9723-2.7662-1.4824-4.1492-.008 1.383 0 2.7661-.008 4.1492H6.8848c0-1.8787 0-3.7655.008-5.6522ZM14.8776 16.9648h4.5985v1.2712c-1.052.008-2.104 0-3.1639.008v.9114h3.0763v1.2472c-1.0281.0079-2.0562 0-3.0843 0v.9433c1.052.016 2.104 0 3.164.008v1.2792h-4.5986c.008-1.8948.008-3.7815.008-5.6683ZM20.2905 16.9644h3.0604c.4463-.008.9086.0799 1.2831.3357.8608.5597.9883 1.9028.3268 2.6703-.271.3197-.6535.5116-1.052.5996.6137.6795 1.2194 1.375 1.833 2.0626h-1.7692a203.4977 203.4977 0 0 1-1.6896-2.0067 6.3028 6.3028 0 0 0-.5499 0 84.9575 84.9575 0 0 1 0 2.0067h-1.4266c-.016-1.8948-.016-3.7815-.016-5.6682Zm1.4266 1.2711v1.1512c.542 0 1.0919.016 1.6338-.0079.2949 0 .5898-.2399.5738-.5517.0239-.3198-.2789-.5836-.5897-.5836-.534-.016-1.0759-.008-1.6179-.008ZM25.9487 16.9648h1.4266c.008 1.8868.008 3.7735 0 5.6683h-1.4266v-5.6683ZM28.8256 17.691c.4861-.4876 1.1795-.7115 1.8569-.7275.5818-.008 1.1557 0 1.7375 0v1.3111c-.5261 0-1.0521-.008-1.5781 0-.3905.008-.789.1599-1.0281.4717-.3108.3998-.3506.9514-.2789 1.4391.0558.3997.271.7914.6376.9833.3746.2079.8129.1759 1.2273.1759-.1833.4237-.3985.8394-.5738 1.2711-.7492.04-1.5461-.1838-2.0642-.7515-.518-.5516-.7013-1.3351-.6854-2.0786-.0239-.7515.1993-1.5509.7492-2.0946ZM33.8146 16.9738c.6216-.016 1.2512 0 1.8729-.008l2.4148 5.6602c-.5419.008-1.0839 0-1.6258 0-.1594-.3837-.3108-.7754-.4702-1.1592h-2.5504c-.1594.3838-.3108.7755-.4622 1.1592h-1.586c.797-1.8867 1.6179-3.7654 2.4069-5.6522Zm.9006 1.3671c-.2471.6316-.5101 1.2552-.7572 1.8867h1.5382c-.263-.6235-.4702-1.2791-.781-1.8867ZM38.2383 16.9645h1.8251c.7491 1.1592 1.4823 2.3264 2.2395 3.4777.0079-1.1593 0-2.3185 0-3.4777.4702 0 .9484-.008 1.4186 0-.008 1.8867.0079 3.7735-.008 5.6682-.5738-.008-1.1476 0-1.7215-.008-.773-1.1992-1.5302-2.4064-2.3112-3.6056-.008 1.1992 0 2.4064 0 3.6056h-1.4425v-5.6602ZM10.3039 26.8455h4.5985v1.2711c-1.052.008-2.112-.016-3.164.016.008.2958.008.5996.008.8954 1.0281.008 2.0562 0 3.0763.008v1.2312h-3.0763v.9513h3.156v1.2792c-1.5302 0-3.0683.008-4.6065-.008.0159-1.8788.008-3.7655.008-5.6442ZM15.0059 26.8459h1.7214c.1116-.016.1515.104.2152.1679.3985.5197.789 1.0473 1.1955 1.559.4383-.5756.8766-1.1512 1.323-1.7269h1.7533c-.7332.9434-1.4903 1.8628-2.2395 2.7982.7492.9593 1.5143 1.9027 2.2634 2.8541h-1.8091c-.4463-.5836-.8847-1.1593-1.331-1.7429-.4383.5756-.8846 1.1513-1.307 1.7349-.5898.016-1.1875 0-1.7773.008.7492-.9434 1.4983-1.8788 2.2475-2.8221-.7492-.9434-1.5063-1.8788-2.2554-2.8302ZM21.3507 26.8455c1.0919.008 2.1838 0 3.2676 0 .526.008 1.076.2078 1.4187.6235.6694.7995.5738 2.1906-.2949 2.8142-.3666.2718-.8368.3837-1.2832.3837h-1.6736v1.8388h-1.4425c.0079-1.8948-.008-3.7815.0079-5.6602Zm1.4346 1.2711v1.2632h1.594c.263.016.5419-.1439.6216-.3998.1275-.3517-.0877-.8074-.4782-.8474-.5738-.032-1.1556-.008-1.7374-.016ZM27.0881 26.8455h3.1959c.534 0 1.0919.1838 1.4585.5916.4782.5356.5579 1.3591.2789 2.0146-.2311.5277-.7491.8794-1.2991.9994.5978.6875 1.2114 1.367 1.8172 2.0546h-1.7773c-.5579-.6636-1.1237-1.3351-1.6816-1.9987h-.5499v1.9987h-1.4426c0-1.8948-.0159-3.7815 0-5.6602Zm1.4426 1.2711c-.008.3838 0 .7595 0 1.1433h1.5859c.2949.0159.6057-.1999.6217-.5117.0398-.3118-.2311-.5996-.534-.6236-.5658-.016-1.1237 0-1.6736-.008ZM32.7476 26.8455h4.5985v1.2711c-1.052.016-2.112 0-3.164.008 0 .3038-.008.6076 0 .9194 1.0281-.008 2.0562 0 3.0843 0v1.2232c-1.0281.016-2.0562 0-3.0843.008v.9513c1.052 0 2.112-.008 3.172 0v1.2712h-4.5986c-.0079-1.8868-.0079-3.7735-.0079-5.6522ZM38.2297 27.4371c.3587-.4078.9166-.5916 1.4505-.5916h3.0604c-.1833.4317-.3746.8554-.5658 1.2791-.8289 0-1.6577-.008-2.4946 0-.3586-.008-.5738.4557-.3506.7275.1992.2559.5499.1679.8288.1839.6137.016 1.2592-.0799 1.8331.1759.3985.1679.7013.5436.789.9673.1514.6556.0079 1.4231-.526 1.8708-.4224.3677-1.0042.4717-1.5462.4477h-2.7336v-1.2792c.9962-.008 1.9845 0 2.9807 0 .2471.008.4702-.2238.4463-.4716 0-.2399-.2231-.4397-.4543-.4318-.5419-.0239-1.0918.008-1.6338-.0159-.5499-.04-1.1078-.3358-1.3469-.8555-.2789-.6555-.2072-1.471.263-2.0066ZM43.3949 27.4373c.3825-.4317.9802-.6076 1.5461-.5916.9723.008 1.9526-.016 2.9249.016h.0398l-.0318.0719c-.1913.3918-.3587.7915-.534 1.1912-.8289.008-1.6498-.008-2.4786.008-.2232-.008-.4304.1679-.4543.3918-.0398.2398.1435.4877.3826.5036.6375.04 1.2831-.0399 1.9127.056.4941.072.9643.3758 1.1636.8554.1833.4717.1753 1.0154 0 1.487-.1594.3838-.4463.7036-.8289.8795-.3825.1838-.8129.2158-1.2273.2078-.8926-.008-1.7852.008-2.6778-.008v-1.2711c.9723-.008 1.9525 0 2.9328 0 .1833.008.3826-.08.4623-.2559.1275-.2558-.0319-.5996-.3188-.6395-.6057-.064-1.2194.016-1.8251-.04-.5419-.056-1.0679-.3838-1.2752-.8954-.247-.6556-.1753-1.455.287-1.9667Z" class="cls-4"/><path d="M1.8479 16.0282c1.028-.008 2.0562 0 3.0922 0l1.0042 2.3504v-2.3504h3.8733c.2073.5676.3906 1.1353.5978 1.6949.2152-.5596.3985-1.1273.5977-1.6949 5.7621-.008 11.5243 0 17.2944 0v.8714c.6694-.5836 1.562-.8714 2.4467-.8714 1.849 0 3.698-.008 5.5549.008.263.6476.5499 1.2792.8129 1.9267.0478.1199.1036.2239.1833.3278.016-.7515 0-1.503.008-2.2545h3.2596c.2869.4477.5738.9034.8687 1.3511v-1.3511h3.2517v7.523c-1.0759.008-2.1518 0-3.2357 0-.2949-.4557-.5739-.9114-.8687-1.3591v1.3591h-4.7261c-.1594-.3838-.3108-.7755-.4702-1.1592h-1.2991c-.1594.3837-.3108.7754-.4622 1.1592-1.0042 0-2.0164.008-3.0206 0-.8288-.008-1.6577-.2718-2.2953-.8155v.8155c-1.6019 0-3.2038.008-4.8057-.008-.3746-.3518-.6615-.8075-1.0042-1.1912v1.1992c-5.9933.008-11.9865-.008-17.9798.008-.1753-.3838-.3188-.7755-.4782-1.1592a35.5937 35.5937 0 0 0-1.307 0c-.1594.3837-.3029.7834-.4702 1.1592a101.536 101.536 0 0 0-2.2076 0c0-.3118.0159-.6316-.008-.9434.534.008 1.0759.008 1.6099 0 .1434-.3837.3028-.7595.4542-1.1512.8608 0 1.7135-.016 2.5743.008.1355.3837.3028.7595.4543 1.1432.5419.008 1.0838 0 1.6258 0-.805-1.8867-1.6099-3.7815-2.4228-5.6602h-1.865c-.8049 1.8707-1.586 3.7495-2.4068 5.6122a58.9539 58.9539 0 0 1 0-2.3744c.6057-1.3751 1.1715-2.7821 1.7693-4.1732Zm5.0448.9354v5.6602h1.4107c.008-1.3831-.008-2.7661.008-4.1492.502 1.3751.9802 2.7661 1.4823 4.1492.4224 0 .8448.016 1.2672-.008.4623-1.3591.9564-2.7022 1.4266-4.0613.0319.088.0478.1759.0399.2718-.008 1.2632 0 2.5344 0 3.7975h1.4186v-5.6602h-2.2555c-.4064 1.1272-.789 2.2625-1.1875 3.3977-.0159.056-.0478.1119-.0876.1599l-1.2433-3.5496c-.7651-.008-1.5222-.016-2.2794-.008Zm7.9857 0v5.6602h4.5986v-1.2791c-1.052-.008-2.104.008-3.164-.008v-.9434h3.0843v-1.2472H16.321v-.9114c1.052-.008 2.104.008 3.164-.008v-1.2711c-1.5382.008-3.0764 0-4.6066.008Zm5.4115 0v5.6602h1.4266c.008-.6715.008-1.3351 0-2.0066.1833-.008.3666-.008.5499 0a203.4854 203.4854 0 0 0 1.6896 2.0066c.5897-.008 1.1795 0 1.7693 0-.6137-.6875-1.2114-1.3751-1.8331-2.0626.3985-.0959.789-.2798 1.052-.5996.6615-.7595.534-2.1106-.3267-2.6702-.3746-.2559-.8368-.3358-1.2832-.3358-1.0041.008-2.0243 0-3.0444.008Zm5.6585 0v5.6602h1.4266c0-1.8867.008-3.7815 0-5.6682-.4782.008-.9484 0-1.4266.008Zm2.8771.7275c-.5499.5436-.7731 1.3431-.7571 2.1026-.016.7355.1753 1.527.6854 2.0786.518.5676 1.315.7915 2.0641.7515.1754-.4317.3906-.8474.5739-1.2711-.4145 0-.8528.0399-1.2274-.1759-.3666-.1919-.5818-.5836-.6376-.9834-.0717-.4876-.0318-1.0313.279-1.439.2391-.3118.6376-.4717 1.0281-.4717.526-.008 1.052 0 1.578 0v-1.3111c-.5818 0-1.1556-.008-1.7374 0-.6695.008-1.3628.2238-1.849.7195Zm4.9891-.7195c-.789 1.8867-1.6099 3.7655-2.4069 5.6522h1.586c.1514-.3837.3028-.7755.4622-1.1592h2.5504c.1594.3837.3108.7755.4702 1.1592h1.6258l-2.4148-5.6602c-.6217 0-1.2513-.016-1.8729.008Zm4.4232-.008v5.6602h1.4425v-3.6056c.7731 1.1992 1.5382 2.4064 2.3112 3.6056.5739.008 1.1477-.008 1.7215.008.0239-1.8867 0-3.7735.008-5.6682-.4782-.008-.9484 0-1.4186 0v3.4777c-.7572-1.1513-1.4904-2.3185-2.2395-3.4777-.6057-.008-1.2114 0-1.8251 0Z" class="cls-3"/><path d="M21.7163 18.2345c.542 0 1.0839-.008 1.6258 0 .3109 0 .6057.2558.5898.5836.0159.3118-.2789.5517-.5738.5517-.542.0159-1.0919 0-1.6338.0079-.008-.3757-.008-.7594-.008-1.1432ZM2.6055 20.2241c.263-.6316.494-1.2792.781-1.8948.247.6316.51 1.2632.7571 1.8948H2.6055ZM34.7151 18.3381c.3029.6076.5181 1.2632.7811 1.8868-.5181.008-1.0281 0-1.5382 0 .255-.6316.5101-1.2552.7571-1.8868ZM9.3551 25.9104h7.914l.8607 1.1272c.279-.3757.5739-.7435.8528-1.1272 9.6275-.024 19.2629 0 28.8904-.008-.016.3118 0 .6316-.016.9514-.9723-.032-1.9446 0-2.9249-.016-.5658-.016-1.1636.1599-1.5461.5916-.4702.5196-.534 1.3111-.2869 1.9507.2072.5196.7332.8394 1.2751.8954.6057.056 1.2194-.024 1.8251.04.2869.0479.4384.3917.3188.6395-.0797.1759-.2789.2639-.4622.2559-.9724.008-1.9526 0-2.9329 0v1.2711c.8926.008 1.7852 0 2.6778.008.4145.008.8528-.016 1.2274-.2079.3745-.1758.6694-.4956.8288-.8794a45.6598 45.6598 0 0 0 0 1.4711c-.5419.3437-1.1715.5516-1.8091.5436-5.268-.008-10.544.008-15.812-.008-.3108-.3997-.6376-.7915-.9564-1.1832-.0079.3997 0 .7915 0 1.1912h-3.1401v-2.0147c-.7651.3598-1.6178.2719-2.4307.2798v1.7349h-4.742c-.3029-.3758-.5818-.7675-.8767-1.1432-.2869.3757-.5738.7594-.8607 1.1352-2.6301.008-5.2521 0-7.8821 0 .008-2.4863.008-4.9887.008-7.499Zm.9484.9354c0 1.8787.008 3.7655 0 5.6442 1.5302.016 3.0684 0 4.6066.008v-1.2791H11.754v-.9514h3.0764v-1.2312c-1.0281-.008-2.0562.008-3.0764-.008 0-.3038.008-.5996-.0079-.8954 1.052-.032 2.1119 0 3.164-.016v-1.2711h-4.6066Zm4.7022 0c.7492.9513 1.5063 1.8867 2.2475 2.8381-.7492.9354-1.4983 1.8787-2.2475 2.8221.5898-.008 1.1875.008 1.7772-.008.4304-.5836.8767-1.1592 1.3071-1.7348.4463.5836.8846 1.1672 1.3309 1.7428h1.8092c-.7572-.9514-1.5143-1.9027-2.2634-2.8541.7491-.9354 1.5062-1.8548 2.2395-2.7981h-1.7534c-.4463.5756-.8846 1.1512-1.323 1.7268-.4064-.5116-.7969-1.0393-1.1954-1.5589-.0638-.064-.1036-.1839-.2152-.1679-.5659-.008-1.1397-.008-1.7135-.008Zm6.3439 0c-.0159 1.8867 0 3.7735-.008 5.6522h1.4426v-1.8388h1.6736c.4543 0 .9165-.1119 1.2832-.3837.8687-.6236.9643-2.0067.2948-2.8141-.3506-.4078-.8926-.6156-1.4186-.6236-1.0839 0-2.1757.008-3.2676.008Zm5.7382 0c-.0079 1.8867 0 3.7735-.0079 5.6522h1.4425v-1.9987h.5499c.5659.6636 1.1237 1.3351 1.6816 1.9987h1.7773c-.6057-.6875-1.2194-1.3671-1.8171-2.0546.5499-.1199 1.0679-.4717 1.2991-.9994.2869-.6475.1992-1.479-.279-2.0146-.3666-.4077-.9245-.5916-1.4585-.5916-1.0599.008-2.1279.008-3.1879.008Zm5.6586 0v5.6522h4.5985v-1.2711c-1.052-.008-2.112 0-3.1719 0v-.9514c1.0281 0 2.0562.008 3.0843-.008v-1.2232c-1.0281 0-2.0562-.008-3.0843 0a17.6133 17.6133 0 0 1 0-.9194c1.052 0 2.1119.008 3.1639-.008-.0079-.4237 0-.8474 0-1.2711h-4.5905Zm5.4832.5916c-.4782.5356-.542 1.3511-.2551 1.9907.2312.5196.789.8234 1.3469.8554.542.024 1.0919-.008 1.6338.016.2391 0 .4543.1918.4543.4317.0239.2478-.1993.4797-.4463.4717-.9962.008-1.9845 0-2.9807 0v1.2791h2.7336c.542.024 1.1238-.0799 1.5462-.4477.526-.4477.6694-1.2152.526-1.8707-.0957-.4238-.3906-.7995-.789-.9674-.5739-.2558-1.2274-.1519-1.8331-.1759-.2789-.016-.6296.072-.8288-.1839-.2232-.2798-.016-.7435.3506-.7275.8289-.008 1.6577 0 2.4946 0 .1992-.4237.3825-.8474.5658-1.2791H39.688c-.5419.016-1.0998.1999-1.4584.6076Z" class="cls-3"/><path d="M47.339 28.1158c.1834-.3918.3428-.7995.534-1.1912a189.6233 189.6233 0 0 0 0 2.998c-.1992-.4717-.6694-.7835-1.1636-.8555-.6375-.0879-1.2751-.008-1.9127-.0559-.2391-.024-.4224-.2718-.3825-.5037.0159-.2238.2311-.3997.4542-.3917.8209-.008 1.6418.008 2.4706 0ZM22.7837 28.1155c.5738.008 1.1556-.016 1.7374.008.3905.04.6057.4957.4782.8475-.0797.2638-.3587.4157-.6217.3997h-1.5939v-1.2552ZM28.5304 28.1165c.5579.0079 1.1158-.008 1.6657.0079.3108.016.5738.3038.534.6236-.008.3118-.3188.5277-.6217.5117-.526.008-1.0599 0-1.5859 0 0-.3838 0-.7595.0079-1.1432Z" class="cls-3"/></g></svg>
