<svg xmlns="http://www.w3.org/2000/svg" viewBox="0 0 45 45"><path fill="currentColor" fill-rule="evenodd" d="M35.293 25.151a49.397 49.397 0 0 1-6.939-2.201 19.491 19.491 0 0 1-5.948-3.966l-.169 13.295a14.01 14.01 0 0 0 2.102 6.94c2.165 3.6125 6.0785 5.8112 10.29 5.781 9.34 0 10.103-8.923 10.103-8.923s.793-4.481-1.983-7.237c-1.993-2.142-4.263-2.816-7.455-3.688zM0 .545h15.268a11.382 11.382 0 0 1 4.976 9.27c-.0006 6.5206-5.2864 11.8064-11.807 11.807H0Zm42.095 19.63c.514.179 1.011.4 1.487.664v-8.585S43.8.516 33.172.486c-5.948 0-9.567 2.915-9.844 7.138a7.534 7.534 0 0 0 2.428 6.266c1.695 1.874 8.309 3.846 12.841 5.197 1.46.435 2.703.806 3.498 1.088zM8.239 24.35h.025c10.4183.0154 15.7055 12.5394 8.45 20.016H0V24.35Z" clip-rule="evenodd"/></svg>