<svg xmlns="http://www.w3.org/2000/svg" viewBox="0 0 70 40"><g data-name="Layer 2"><g data-name="Layer 1"><rect width="70" height="40" fill="#fff" rx="3.7"/><path fill="#a81715" d="M58.9 15.8a.4.4 0 0 0 0-.1 3.3 3.3 0 0 1 .8-1.6 3.5 3.5 0 0 1 2.8-1.2 3.9 3.9 0 0 1 2.1.7A3.2 3.2 0 0 1 66 16a15.6 15.6 0 0 1 0 1.6v9.1c0 .3 0 .3-.3.3a4.6 4.6 0 0 1-2.8-1 5 5 0 0 1-1.6-2.7v-.1 1.5a2.3 2.3 0 0 1-2.1 2.3 2.4 2.4 0 0 1-2.7-2 6 6 0 0 1 0-.7v-1.1l-.2.5a5 5 0 0 1-1 1.9 4.6 4.6 0 0 1-2 1.2 7 7 0 0 1-1.3.2c-.2 0-.2 0-.2-.2V16.5a3.8 3.8 0 0 1 .4-1.8 3.5 3.5 0 0 1 2.6-1.9 3.4 3.4 0 0 1 2.2.4 3.5 3.5 0 0 1 1.8 2.4v.1Zm-24.3.2v6a5 5 0 0 1-2.2 4.2 4.4 4.4 0 0 1-2 .8 4.3 4.3 0 0 1-1.5 0 5.2 5.2 0 0 1-2-.9 4.4 4.4 0 0 1-1.6-2.1 5.3 5.3 0 0 1-.3-2v-4.3a4.7 4.7 0 0 1 1.2-3.2 4.6 4.6 0 0 1 2.9-1.6h.3c.2 0 .2 0 .2-.2V9.9a2.5 2.5 0 0 1 .6-1.6 2.4 2.4 0 0 1 1.6-.9 2.5 2.5 0 0 1 2.7 2.1 3.8 3.8 0 0 1 0 .6v6ZM8 20H6.4a2.4 2.4 0 0 1-1-.2 2.3 2.3 0 0 1-1.5-2v-4.5c0-.4 0-.4.4-.4h4.5a4.8 4.8 0 0 1 4.7 4.3v5.3a4.4 4.4 0 0 1-1.1 2.8 4.7 4.7 0 0 1-3 1.6H9l-.1.3V30a2.5 2.5 0 0 1-4.2 1.9 2.5 2.5 0 0 1-.8-2v-5.2a4.8 4.8 0 0 1 3.7-4.6l.2-.1Zm38.1-3.3a10.2 10.2 0 0 1 .4-1 4.9 4.9 0 0 1 3.3-2.6 3.4 3.4 0 0 1 1-.1l.1.2v9a4.9 4.9 0 0 1-1 3 4.6 4.6 0 0 1-3 1.8 4.5 4.5 0 0 1-2.6-.3 4.6 4.6 0 0 1-3-4 13.5 13.5 0 0 1 0-1.9 42.7 42.7 0 0 0 0-3.8v-1.1a6.5 6.5 0 0 1 0-1 2.4 2.4 0 0 1 4-1.4 2.2 2.2 0 0 1 .8 1.8v1.4ZM24 19.1v2.2a13.9 13.9 0 0 1 0 1.5 4.4 4.4 0 0 1-1 2.3 4.8 4.8 0 0 1-7 .6 4.6 4.6 0 0 1-1.5-2.8 4.8 4.8 0 0 1 0-.7v-4.6a4.8 4.8 0 0 1 5-4.7 4.6 4.6 0 0 1 2.9 1.1 4.7 4.7 0 0 1 1.5 2.4 3.9 3.9 0 0 1 .2 1v1.7Zm16.4.9v4.5a2.5 2.5 0 0 1-2.2 2.5 2.5 2.5 0 0 1-2.7-2 3 3 0 0 1 0-.6v-8.8a2.7 2.7 0 0 1 .3-1.4 2.4 2.4 0 0 1 1.7-1.2 2.5 2.5 0 0 1 2.9 2 2.6 2.6 0 0 1 0 .5V20ZM38 12.4a2.5 2.5 0 1 1 0-5 2.5 2.5 0 0 1 0 5ZM60.6 31v-1.2a1.6 1.6 0 0 1 0-.2c0-.2 0-.3.3-.3h.8a1 1 0 0 1 .8.7 1 1 0 0 1-.4 1c-.1.2-.2.2 0 .3l.3.9a.2.2 0 0 1 0 .4.3.3 0 0 1-.4 0 .8.8 0 0 1 0-.2l-.5-1-.1-.2c-.2 0-.3 0-.3.2v.8a1.1 1.1 0 0 1 0 .2.2.2 0 0 1-.3.2.2.2 0 0 1-.2-.2 1.4 1.4 0 0 1 0-.2V31Zm.5-.8v.4l.1.1h.5a.3.3 0 0 0 .2-.1.5.5 0 0 0 .1-.5.4.4 0 0 0-.4-.3h-.4a.1.1 0 0 0-.1.1v.3Zm-27.9.7v-1.2a1.6 1.6 0 0 1 0-.2.2.2 0 0 1 .2-.2 7.9 7.9 0 0 1 .9 0 .9.9 0 0 1 .8.9v1.4a1 1 0 0 1-1 1h-.6c-.3 0-.3-.2-.3-.4V31Zm.5 0v1l.1.1a3.1 3.1 0 0 0 .4 0 .4.4 0 0 0 .4-.4v-1.4a.4.4 0 0 0-.5-.5H34c-.2 0-.2 0-.2.3v.9Zm15.7-.3.3-.5.5-.7c.1-.1.3-.2.4-.1.1 0 .1.2 0 .4l-.5.8a.3.3 0 0 0 0 .3l.6 1.3a1.3 1.3 0 0 1 0 .2.2.2 0 0 1 0 .3.2.2 0 0 1-.4 0 .8.8 0 0 1 0-.3l-.5-1h-.1c0-.1 0-.1-.1 0a.8.8 0 0 0-.2.5 2.5 2.5 0 0 1 0 .5c0 .2-.2.3-.3.3a.3.3 0 0 1-.2-.2.8.8 0 0 1 0-.2v-2.6a.6.6 0 0 1 0-.2.2.2 0 0 1 .2-.1.2.2 0 0 1 .2.1.6.6 0 0 1 0 .2v.8a.3.3 0 0 0 .1.2Zm-12.3.3v-1.3a.3.3 0 0 1 .3-.3h1.4c.1 0 .2 0 .2.2s0 .2-.2.2h-1a.1.1 0 0 0-.2.2 38.5 38.5 0 0 0 .2.7h.4a1.3 1.3 0 0 1 .2 0 .2.2 0 0 1 .2.3.2.2 0 0 1-.2.2 1.4 1.4 0 0 1-.2 0h-.4a.1.1 0 0 0-.2.2v.6l.1.1h.9a1 1 0 0 1 .2 0 .2.2 0 0 1 .2.3.2.2 0 0 1-.2.2.7.7 0 0 1-.1 0h-1.2a1 1 0 0 1-.2 0 .3.3 0 0 1-.2-.2 1.3 1.3 0 0 1 0-.2V31Zm15.5 1.7a.2.2 0 0 1-.2-.3.8.8 0 0 1 0-.1l.9-2.6a1.4 1.4 0 0 1 0-.2.3.3 0 0 1 .5 0 1 1 0 0 1 0 .1l1 2.7a1 1 0 0 1 0 .1.2.2 0 0 1-.2.3.2.2 0 0 1-.3-.1.7.7 0 0 1 0-.2L54 32c0-.2 0-.2-.2-.2h-.7a.2.2 0 0 0-.2.2l-.1.4a.3.3 0 0 1-.3.2Zm1-2.3-.3.9v.1h.5s.1 0 0 0q0-.6-.2-1Zm5.1 2.1a.2.2 0 0 1-.2.2.2.2 0 0 1-.3-.2V32l-.4-.2h-.6a.2.2 0 0 0-.2.2l-.1.4a.3.3 0 0 1-.3.2.2.2 0 0 1-.2-.3l.1-.6.7-2.1a1 1 0 0 1 0-.1.3.3 0 0 1 .4-.2.3.3 0 0 1 .2.2l.4 1 .5 1.6a1 1 0 0 1 0 .3Zm-1.1-2.1-.1.2-.3.7.1.1h.5q0-.6-.2-1Zm-27.5-1.1a.3.3 0 0 1 .3.2l.2.5.7 2.2a1.1 1.1 0 0 1 0 .2.2.2 0 0 1-.2.2.2.2 0 0 1-.3 0 4 4 0 0 1 0-.5l-.4-.2h-.6c-.2 0-.2 0-.2.2l-.2.4a.3.3 0 0 1-.2.2.2.2 0 0 1-.3-.3.7.7 0 0 1 .1-.2l.8-2.6c0-.2.2-.3.3-.3Zm0 1-.3 1h.6l-.2-1ZM43 32.3a.2.2 0 0 1-.2.3.2.2 0 0 1-.3-.2v-.3l-.1-.2a.2.2 0 0 0-.2-.1h-.7a.2.2 0 0 0-.2.1l-.2.5a.2.2 0 0 1-.2.2.2.2 0 0 1-.3-.3 2.3 2.3 0 0 1 .1-.3l.8-2.4a1.1 1.1 0 0 1 0-.2.3.3 0 0 1 .3-.2.3.3 0 0 1 .3.2l.1.5.8 2.2v.2Zm-1.2-2-.3.9.1.1h.4c.1 0 .2 0 .1-.2l-.2-.7v-.1Zm5 .3v1a.9.9 0 0 1-.6 1 1 1 0 0 1-1-.3.9.9 0 0 1-.3-.5 4.9 4.9 0 0 1 0-.6v-1.4a2.6 2.6 0 0 1 0-.3.2.2 0 0 1 .2-.3.2.2 0 0 1 .2.3 1.3 1.3 0 0 1 0 .2v1.9a.6.6 0 0 0 .1.3.5.5 0 0 0 .5.2.4.4 0 0 0 .4-.4 1.5 1.5 0 0 0 0-.2v-1.9a1 1 0 0 1 0-.1.2.2 0 0 1 .2-.2.2.2 0 0 1 .3.2v1.1Zm-20.9.3v.7a.4.4 0 0 0 .4.5.5.5 0 0 0 .5-.4.2.2 0 0 1 .3-.2.2.2 0 0 1 .2.2.6.6 0 0 1-.1.5 1 1 0 0 1-1.7 0 .9.9 0 0 1-.1-.5V30a1 1 0 0 1 .9-.9 1 1 0 0 1 .8.4.7.7 0 0 1 .2.5.2.2 0 0 1-.2.2.2.2 0 0 1-.3-.1V30a.5.5 0 0 0-.6-.3.4.4 0 0 0-.3.4v.8Zm38.9.2v-1c0-.3 0-.3-.2-.3a1.1 1.1 0 0 1-.3 0 .2.2 0 0 1 0-.5.8.8 0 0 1 .2 0h1.1a.7.7 0 0 1 .2 0 .2.2 0 0 1 .2.3.2.2 0 0 1-.2.2 1.1 1.1 0 0 1-.2 0c-.3 0-.3 0-.3.3v2.2c0 .2 0 .3-.2.3s-.3 0-.3-.3v-1.2Z"/></g></g></svg>