<svg xmlns="http://www.w3.org/2000/svg" xmlns:xlink="http://www.w3.org/1999/xlink" viewBox="0 0 70 40"><defs><linearGradient id="b" x1="69.7%" x2="-5.8%" y1="47.3%" y2="57.8%"><stop offset=".2%" stop-color="#81CFF4"/><stop offset="46.7%" stop-color="#0998D5"/><stop offset="100%" stop-color="#273680"/></linearGradient><linearGradient id="d" x1="41.2%" x2="61%" y1="-4.7%" y2="38.4%"><stop offset="0%" stop-color="#0998D5"/><stop offset="100%" stop-color="#273680"/></linearGradient><linearGradient id="e" x1="65.8%" x2="50.8%" y1="85.5%" y2="4.6%"><stop offset="0%" stop-color="#E20E7E"/><stop offset=".5%" stop-color="#E20E7E"/><stop offset="100%" stop-color="#6E237F"/></linearGradient><linearGradient id="f" x1="77.3%" x2="36.8%" y1="75.2%" y2="-1.4%"><stop offset="0%" stop-color="#FABE03"/><stop offset="47%" stop-color="#EE8906"/><stop offset="100%" stop-color="#E64516"/></linearGradient><linearGradient id="g" x1="3690.3%" x2="4459.6%" y1="9910.1%" y2="14444.9%"><stop offset="0%" stop-color="#97C02B"/><stop offset="99.8%" stop-color="#06863B"/><stop offset="100%" stop-color="#06863B"/></linearGradient><linearGradient id="h" x1="79%" x2="68.3%" y1="36.5%" y2="51.5%"><stop offset="0%" stop-color="#EE8906"/><stop offset="100%" stop-color="#E64516"/></linearGradient><rect id="a" width="29.4" height="29.1" x=".2" y=".7" rx="3.3"/></defs><g fill="none" fill-rule="evenodd"><path fill="#273680" fill-rule="nonzero" d="M39 15.1c.5 0 1.5.2 1.5.8a.4.4 0 0 1-.4.4l-1-.2c-.8 0-1.3.7-1.3 1.5 0 .7.5 1.4 1.3 1.4.5 0 .7-.3 1-.3.3 0 .4.2.5.5 0 .6-1 .8-1.5.8-1.4 0-2.3-1.1-2.3-2.5 0-1.3 1-2.4 2.3-2.4zm4.2.6c0-.3.3-.5.7-.6.3 0 .6.3.7.6l1.3 3.5v.3l-.1.3-.4.1a.5.5 0 0 1-.4-.3l-.2-.6h-1.9l-.2.6c0 .2-.2.3-.4.3a.5.5 0 0 1-.5-.4v-.3l1.4-3.5zm0 2.4h1.3l-.6-2-.7 2zm4-2.4.2-.3.4-.2h1c1.5 0 2.4 1 2.4 2.4s-1 2.3-2.3 2.3h-1.1c-.2 0-.3 0-.4-.2a.5.5 0 0 1-.1-.3v-3.7zm1 3.3h.7c.9 0 1.3-.6 1.3-1.4 0-.9-.4-1.5-1.3-1.5h-.6V19zm4.5-3.2c0-.3.2-.6.5-.6H55l.3.1.1.4-.1.3-.3.1h-1.2v1h1l.4.1.2.3c0 .2 0 .3-.2.4h-1.5v1h1.2l.4.2v.7h-2.4a.5.5 0 0 1-.2-.4v-3.6zm5.2-.1c.1-.3.4-.5.7-.6.3 0 .6.3.7.6l1.3 3.5v.6l-.4.1a.5.5 0 0 1-.5-.3l-.2-.6h-1.8l-.2.6c0 .2-.3.3-.5.3a.5.5 0 0 1-.5-.4v-.3l1.4-3.5zm0 2.4h1.3l-.6-2-.6 2zm4-2.4c0-.2.2-.4.3-.4h.5c.2 0 .3.2.3.4V18c0 .3 0 .5.2.7a1 1 0 0 0 1.5 0c.2-.2.3-.4.3-.7v-2.3c0-.2 0-.4.2-.4h.5c.2 0 .3.2.3.4V18c0 1.1-1 2-2 2a2 2 0 0 1-2-2v-2.3zm-25 6.8c0-.1 0-.2.2-.3l.3-.2c.2 0 .3 0 .4.2l.1.3V24l1.7-1.7.3-.2a.5.5 0 0 1 .5.5c0 .2 0 .3-.3.5l-1.2 1.2 1.5 1.6.3.5-.2.3-.4.2c-.2 0-.3-.2-.5-.3l-1.6-2v1.7l-.1.3-.4.2s-.2 0-.3-.2l-.2-.3v-3.8zm7.7 0c.1-.3.4-.5.7-.5.4 0 .7.2.7.5l1.3 3.6v.5l-.4.2a.5.5 0 0 1-.5-.4l-.1-.6h-1.9l-.2.6c0 .2-.2.4-.5.4a.5.5 0 0 1-.4-.5v-.2l1.3-3.6zm.1 2.4H46l-.7-1.9-.6 1.9zm6.7-2.4c0-.3.3-.5.7-.5.3 0 .6.2.7.5l1.3 3.6v.2l-.1.3-.3.2a.5.5 0 0 1-.5-.4l-.2-.6h-2l-.2.6c0 .2-.2.4-.4.4a.5.5 0 0 1-.5-.5v-.2l1.4-3.6zm0 2.4h1.3L52 23l-.7 1.9zm5.3-2.3c0-.2 0-.3.2-.4l.3-.1h1.2c1 0 1.6.4 1.6 1.4 0 .8-.5 1.2-1.2 1.3L60 26c.1 0 .2.1.2.3a.5.5 0 0 1-.9.3l-1.5-1.8v1.4c0 .2 0 .4-.2.5H57a.5.5 0 0 1-.3-.5v-3.6zm1 1.5h.7l.4-.1c.2-.1.2-.3.2-.5 0-.1 0-.3-.2-.4a.6.6 0 0 0-.4-.1h-.7v1zm6-1.1h-.8s-.2 0-.3-.2l-.1-.3.1-.3.3-.1h2.5l.3.1.1.3-.1.3-.3.2h-.8v3.2c0 .2 0 .4-.2.5h-.5a.5.5 0 0 1-.3-.5V23z"/><g transform="translate(4.2 4.8)"><mask id="c" fill="#fff"><use xlink:href="#a"/></mask><path fill="url(#b)" fill-rule="nonzero" d="M-11.2-1.8h50.6V33h-50.6z" mask="url(#c)"/><path fill="url(#d)" fill-rule="nonzero" d="m58.9-1-20 34.4a6.3 6.3 0 0 1-10.8 0L14.4 10l6.3-11h38.2z" mask="url(#c)"/><path fill="url(#e)" fill-rule="nonzero" d="m20.7-1-6.3 11L8-1h12.6z" mask="url(#c)"/><path fill="url(#f)" fill-rule="nonzero" d="m8.1-1 6.3 11L8 20.6a5.7 5.7 0 0 1-9.9 0L-14.3-.9H8z" mask="url(#c)"/><path fill="url(#g)" fill-rule="nonzero" d="M1.4 50H27c1.3 0 2.5-.7 3.2-1.9.7-1.1.7-2.6 0-3.7l-12.8-22a3.8 3.8 0 0 0-6.5 0L-2 44.3A3.7 3.7 0 0 0-2 48c.7 1.2 2 1.9 3.3 1.9z" mask="url(#c)"/><path fill="url(#h)" fill-rule="nonzero" d="M-33.1 50.8H-.6c1.7 0 3.2-.9 4-2.3a4 4 0 0 0 0-4.7l-16.2-28a4.8 4.8 0 0 0-8.2 0l-16.3 28a4.7 4.7 0 0 0 0 4.7 4.8 4.8 0 0 0 4.2 2.3z" mask="url(#c)"/></g><path fill="#FFF" fill-rule="nonzero" d="M27.6 10.6h-18c-1 0-2 .5-2.4 1.3-.5.8-.5 1.8 0 2.6l9 15.5a2.7 2.7 0 0 0 4.6 0l9-15.5c.6-.8.6-1.8 0-2.6a2.7 2.7 0 0 0-2.2-1.3z"/><path fill="#273680" fill-rule="nonzero" d="M28.4 13.8c-1 2-2.2 3.8-3.3 5.8a1 1 0 0 1-1.9 0l-3.3-5.8a1 1 0 0 1 0-1 1 1 0 0 1 1.8 0l2.4 4v.1l.9-1.4 1.6-2.8a1 1 0 0 1 1.9 0v1m-5.6 9.7L20.7 27l-1.2 2c-.5.8-1.5.8-2 0a2276 2276 0 0 1-3.2-5.7 1 1 0 0 1 0-1.3 1 1 0 0 1 1.3-.2c.2 0 .4.2.5.4l2.3 4 .1.2.7-1.1 1.8-3a1 1 0 0 1 1.7-.2c.3.3.4.8.2 1.2m-11-3.8a6012.1 6012.1 0 0 0-1.9-3.4l-1.3-2.3a1 1 0 0 1 0-1.1 1 1 0 0 1 1.8 0l2.3 4 .1.2 1.2-2 1.3-2.2a1 1 0 0 1 1.5-.4c.5.3.6 1 .3 1.4l-3 5.3-.3.5a1 1 0 0 1-2 0"/></g></svg>