<svg xmlns="http://www.w3.org/2000/svg" viewBox="0 0 33.9646 49.4298"><defs><style>.cls-1{fill:#e3061d}</style></defs><g id="Layer_2" data-name="Layer 2"><g id="Layer_1-2" data-name="Layer 1"><path id="path2513" d="M3.3887 16.1608a9.7041 9.7041 0 0 1 1.86-.62 11.9925 11.9925 0 0 1 23.471.0038 8.644 8.644 0 0 1 4.3827 2.1216 17.2383 17.2383 0 0 0-.1202-2.9973 16.0802 16.0802 0 0 0-32.0851.7595 22.7833 22.7833 0 0 0-.0388 2.3172 10.2044 10.2044 0 0 1 2.5304-1.5848" class="cls-1"/><path id="path2515" d="M26.3734 17.3795H7.0952a7.0125 7.0125 0 0 0-2.8792.6587 7.9542 7.9542 0 0 0-2.3657 1.5229Q.0572 21.7175 0 25.8677v15.07q.064 4.1589 1.8503 6.3027a7.8674 7.8674 0 0 0 2.3657 1.5364 7.1598 7.1598 0 0 0 2.8791.653h19.2783q7.469-.0669 7.5912-8.1763V25.5519q-.1192-8.1114-7.5912-8.1724" class="cls-1"/></g></g></svg>