<svg xmlns="http://www.w3.org/2000/svg" fill="none" viewBox="0 0 120 120"><clipPath id="a"><path d="M0 0h120v120H0z"/></clipPath><g clip-path="url(#a)"><path fill="#000" d="M120.32-.2H-.3v120.4h120.62z"/><path fill="#fff" d="m22.17 51.44-6.39-6.63v6.63h-2.27V40.07h.7l6.27 6.35v-6.35h2.3v11.37zm8.29-11.37 5.36 11.37H33.3l-3.25-6.91-3.52 6.91h-2.54l5.78-11.37zm13.75 0v2.28h-3.15v9.1h-2.28v-9.1h-3.16v-2.28zm2.46 11.35V40.07h2.27v11.35zm16.65-5.66a5.9 5.9 0 0 1-5.89 5.88 5.9 5.9 0 0 1 0-11.77 5.9 5.9 0 0 1 5.89 5.89zm-9.44 0a3.55 3.55 0 1 0 7.1-.01 3.55 3.55 0 0 0-7.1 0zm20.06 5.68-6.41-6.63v6.63h-2.28V40.07h.7l6.28 6.35v-6.35h2.27v11.37z"/><path fill="#db0812" d="m83.03 40.07 5.36 11.37h-2.52l-3.22-6.91-3.53 6.91h-2.54l5.79-11.37z"/><path fill="#fff" d="M92.67 49.19h4.23v2.25h-6.51V40.1h2.28zm13.8-6.84h-5.3v2.1h4.38v2.28h-4.38v2.46h5.26v2.27h-7.52V40.1h7.58v2.26zm-79.26 12.2a3.33 3.33 0 0 1 3.33 3.32c0 .7-.2 1.33-.59 1.88a3.4 3.4 0 0 1 1.35 2.72 3.43 3.43 0 0 1-3.44 3.45H24.1V54.57h3.1zm-.1 4.5c.63 0 1.31-.53 1.31-1.32 0-.78-.68-1.29-1.3-1.29h-1v2.6zm.73 4.91c.76 0 1.39-.6 1.39-1.37s-.63-1.37-1.4-1.37h-1.65v2.74zm5.8 1.92V54.53h2.28v11.35zm15.87-5.67a5.9 5.9 0 1 1-11.79-.01 5.9 5.9 0 0 1 11.79.01zm-9.44 0a3.55 3.55 0 1 0 7.1 0 3.55 3.55 0 0 0-7.1 0zm14.07.87a5.66 5.66 0 0 1-1.7-.7 3.1 3.1 0 0 1-1.46-2.57c-.04-.9.24-1.69.83-2.31a4 4 0 0 1 2.64-1.13c1.65 0 2.58.6 3.4 1.13l.39.24-1.2 1.93-.4-.26c-.72-.46-1.2-.79-2.2-.79-.14 0-.7.12-1 .43-.1.1-.2.28-.2.64.02.59.42.9 1.45 1.17l.32.1c1.09.39 1.94.87 2.52 1.51.58.65.89 1.41.89 2.22a3.6 3.6 0 0 1-.9 2.26 3.47 3.47 0 0 1-2.63 1.17 6.8 6.8 0 0 1-2-.28 6.13 6.13 0 0 1-2.7-1.72l1.66-1.55a3.9 3.9 0 0 0 3.04 1.29c.95 0 1.25-.87 1.25-1.15 0-.62-.7-1.19-1.88-1.6l-.04-.01zm13.59-3.8c-2.2-1.42-5.52-.1-5.52 2.95 0 3.2 3.53 4.48 5.66 2.86l1.45 1.68a5.92 5.92 0 0 1-3.77 1.37 5.9 5.9 0 0 1-5.88-5.89 5.9 5.9 0 0 1 5.88-5.88c1.37 0 2.62.46 3.63 1.25z"/><path fill="#009fe3" d="M81.86 60.21a5.9 5.9 0 0 1-5.88 5.89 5.9 5.9 0 0 1 0-11.77 5.9 5.9 0 0 1 5.88 5.88zm-9.43 0a3.55 3.55 0 0 0 3.54 3.55 3.55 3.55 0 1 0-3.54-3.55z"/><path fill="#fff" d="M100.67 54.53c1.87 0 3.4 1.53 3.4 3.42a3.4 3.4 0 0 1-3.4 3.41h-1.41v4.54h-2.28V54.53zm0 4.55c.62 0 1.13-.5 1.13-1.13s-.53-1.15-1.13-1.15h-1.41v2.28zM71.4 68.52a3.33 3.33 0 0 1 3.33 3.32c0 .7-.2 1.33-.59 1.88a3.4 3.4 0 0 1 1.35 2.72 3.43 3.43 0 0 1-3.45 3.45H68.3V68.54h3.1zm-.1 4.5c.62 0 1.3-.53 1.3-1.32s-.68-1.29-1.3-1.29h-.99v2.6zm.72 4.91c.77 0 1.4-.6 1.4-1.37s-.63-1.37-1.4-1.37h-1.67v2.74z"/><path fill="#fd0" d="M88.37 74.24a5.9 5.9 0 0 1-5.88 5.89 5.9 5.9 0 0 1 0-11.77 5.9 5.9 0 0 1 5.88 5.88zm-9.43 0a3.55 3.55 0 0 0 3.55 3.55 3.55 3.55 0 0 0 0-7.1 3.55 3.55 0 0 0-3.55 3.55z"/><path fill="#fff" d="m98.65 79.89-6.39-6.64v6.64H90V68.52h.7l6.27 6.35v-6.35h2.28v11.37z"/><path fill="#009fe3" d="M94.88 60.21A5.9 5.9 0 0 1 89 66.1a5.9 5.9 0 0 1 0-11.77 5.9 5.9 0 0 1 5.88 5.88zm-9.43 0a3.55 3.55 0 1 0 7.1-.01 3.55 3.55 0 0 0-7.1.01z"/></g></svg>