<svg xmlns="http://www.w3.org/2000/svg" id="Layer_1" data-name="Layer 1" viewBox="0 0 70 40"><defs><style>.cls-2{fill:#fff}</style></defs><rect width="70" height="40" fill="#f7cb21" rx="3.7"/><path d="M13.4 20.9v-.2l.1.1-.1.1a.3.3 0 0 0 0 .2.7.7 0 0 1 .1 0l.1.2a.2.2 0 0 0 .1-.1.2.2 0 0 0 0-.1.2.2 0 0 1 0-.2.5.5 0 0 1 0-.2l.4.1.2-.2a2 2 0 0 1 .3.1l.3.1a1.3 1.3 0 0 0 .2-.1.3.3 0 0 1 .1 0 .1.1 0 0 1 .1 0 1 1 0 0 0 .2 0 1 1 0 0 1 .1 0 .2.2 0 0 1 .2-.2.6.6 0 0 1 .3.1h.1a.3.3 0 0 0 .2 0 .5.5 0 0 0 .2 0 .2.2 0 0 1 .3.1 2 2 0 0 0 .3 0 .3.3 0 0 0 .2 0h.8a1 1 0 0 1 .2 0h.5a.7.7 0 0 0 .3 0 2 2 0 0 1 .3 0h.2a.3.3 0 0 1 .2 0 .5.5 0 0 1 .5.1.2.2 0 0 0 .2-.1 1 1 0 0 1 .4 0h.1a.3.3 0 0 1 .1-.2.2.2 0 0 0 .1.1.5.5 0 0 0-.1 0v.2a.3.3 0 0 1 .1 0 .2.2 0 0 1 .2 0l.1-.2a.5.5 0 0 1 .1 0 .1.1 0 0 0 .2 0h.2v.5-.1a.1.1 0 0 0-.1 0 .1.1 0 0 1-.1 0 .1.1 0 0 0 0 .2h.1a1.8 1.8 0 0 1 .2.6l-.1 1v.4a3 3 0 0 1-.1.6.1.1 0 0 0 0 .1.3.3 0 0 0 0 .2.8.8 0 0 0 0 .2 1 1 0 0 1 .1.2 2.5 2.5 0 0 1-.7.1 3.1 3.1 0 0 1-.6 0 1.2 1.2 0 0 0-.2 0 1.2 1.2 0 0 1-.1 0 .7.7 0 0 1-.1 0 .1.1 0 0 1 0-.1.2.2 0 0 1-.1-.1.3.3 0 0 1 0-.1l.1-.1a.5.5 0 0 0 0-.2.5.5 0 0 1 0-.1.6.6 0 0 1 0-.2.5.5 0 0 0 0-.1v-.1a.1.1 0 0 1 0-.1.2.2 0 0 1 0-.1.7.7 0 0 1 0-.3.7.7 0 0 0 0-.2.3.3 0 0 0 0-.2v-.1a.2.2 0 0 1 0-.1.7.7 0 0 1-.5.1h-.2a1.2 1.2 0 0 0-.2 0h-.2a.2.2 0 0 0-.1.1.3.3 0 0 0 0 .2 3.3 3.3 0 0 0-.2.5 5.1 5.1 0 0 0 0 .6v1.4a16 16 0 0 1 .1 2 .2.2 0 0 0 0 .1.2.2 0 0 1 .1.1 1.9 1.9 0 0 1 .5 0 1.1 1.1 0 0 1 .4.1q.2.1.2 0h.3a.4.4 0 0 1 0 .2.9.9 0 0 1 0 .2.9.9 0 0 0 0 .2v.9a.5.5 0 0 1 0 .2.5.5 0 0 0-.1.2H15a.8.8 0 0 1-.2 0 .2.2 0 0 1-.1 0 .2.2 0 0 1 0-.1 1.5 1.5 0 0 0 0-.6v-1.1a.5.5 0 0 0 .2 0h.7a.5.5 0 0 0 .2 0 .5.5 0 0 0 .3-.1.6.6 0 0 0 .2-.3 1.5 1.5 0 0 0 0-.4.4.4 0 0 0 0-.2 1 1 0 0 1 0-.2 2 2 0 0 1 0-.3 2 2 0 0 0 0-.3 1 1 0 0 0 0-.2.1.1 0 0 0 0-.1h-.1a.4.4 0 0 1 .1-.2l.2-.1a.3.3 0 0 0-.2 0v-.4a.5.5 0 0 0 .1 0v-.1a2 2 0 0 1 0-.8v-1q0-.3-.5-.4a.9.9 0 0 1-.2 0 .7.7 0 0 0-.1 0 .2.2 0 0 0-.2 0h-.1a3.8 3.8 0 0 0-.2 1.2.1.1 0 0 1 .1.1.6.6 0 0 0 0 .4.5.5 0 0 1-.2.3.8.8 0 0 1-.2 0 .8.8 0 0 0-.2 0 .4.4 0 0 0-.1 0 .3.3 0 0 0-.1 0 1.9 1.9 0 0 0-.2 0H14a.7.7 0 0 1-.1 0 .4.4 0 0 0-.2 0 .2.2 0 0 0-.2 0h-.1v-2.1a.4.4 0 0 0 .2-.1.2.2 0 0 1-.2-.1V22a.3.3 0 0 1 .1 0 .2.2 0 0 1-.1-.3.7.7 0 0 1 0-.2.7.7 0 0 0 .1-.2.3.3 0 0 0 0-.1h-.1v-.4Zm4 7.5h.2-.2Zm.4-6.4Zm.2 1.5a.4.4 0 0 0 0 .1Zm0 4.9h.1a.3.3 0 0 1 0-.2.3.3 0 0 1-.1.2Zm.2-5.3h.1Zm0 4.1h.1a.2.2 0 0 1 0 .2h.1a.2.2 0 0 1 0-.2.7.7 0 0 1 0-.2.1.1 0 0 0-.2.2Zm0-3.7h.2-.1Zm.5 5a.1.1 0 0 1 0 .1.3.3 0 0 0 0-.1Zm0 .1v.1a.1.1 0 0 0 .1 0h.2-.1v-.1a.1.1 0 0 1-.1 0Zm.5 0h.3Zm3.8-6.2a1.7 1.7 0 0 0 .1-.7v-.2a5.8 5.8 0 0 1 0-.9h.4a1.6 1.6 0 0 0 .2 0 .9.9 0 0 1 .2.1.3.3 0 0 0 0 .2.3.3 0 0 1 .1 0h.1v-.2a.4.4 0 0 1 .1 0 .8.8 0 0 1 .2 0 .8.8 0 0 0 .2 0 .1.1 0 0 0 .1 0 .2.2 0 0 0 0-.1.3.3 0 0 0-.2 0 1.2 1.2 0 0 0-.2 0 1.1 1.1 0 0 1 .2 0 .4.4 0 0 1 .3 0h.2a.2.2 0 0 0 0-.1.5.5 0 0 0 .4.1h1.3a.1.1 0 0 1 .1 0 .3.3 0 0 0 0 .1.1.1 0 0 1 .1 0 .2.2 0 0 0 .1 0h.1a3.3 3.3 0 0 0 .4-.1h.3a.2.2 0 0 1 .1 0 .4.4 0 0 1 0 .2.3.3 0 0 0 0 .1.6.6 0 0 0 0 .2.7.7 0 0 1 0 .2v.1a2.4 2.4 0 0 0 0 .3 2.4 2.4 0 0 1 0 .3.6.6 0 0 1-.1.4.2.2 0 0 1-.3.1h-.1a1.7 1.7 0 0 0-.2 0 .4.4 0 0 0-.1 0 .3.3 0 0 0-.1 0 .3.3 0 0 0 0 .1 4.6 4.6 0 0 0 0 .8.2.2 0 0 1-.2 0 .3.3 0 0 1 0 .2h.1a1.6 1.6 0 0 1 0 .2 4 4 0 0 1 0 .4 4 4 0 0 0 0 .4 1.3 1.3 0 0 0 0 .3v.4-.1a.1.1 0 0 0-.2 0 .1.1 0 0 0 0 .1l.1.2v.4a.8.8 0 0 0 0 .2v.3a.4.4 0 0 1 0 .3 1.3 1.3 0 0 0 0 .2.5.5 0 0 0 .2.5.2.2 0 0 1-.1 0v-.1a.2.2 0 0 0 0 .1.4.4 0 0 1-.2 0v.2a.1.1 0 0 1 0 .1v.1a.2.2 0 0 0 .1 0h.1a.7.7 0 0 1 0-.2.2.2 0 0 1 .1-.2h.1a.1.1 0 0 0 0 .2.2.2 0 0 0 0 .1.1.1 0 0 0 0 .1l.1-.1a2.2 2.2 0 0 1 .8.1.4.4 0 0 1 0 .2.3.3 0 0 0 .2.2V28a.3.3 0 0 0 .1-.2v-.1h.1v.2a.6.6 0 0 1 0 .2.4.4 0 0 1 0 .3.2.2 0 0 0 .1.1.1.1 0 0 0 .1 0v-.2h.1a.8.8 0 0 1 0-.2.3.3 0 0 0-.1-.1h.1v-.3h-.1a.2.2 0 0 1 .1-.1.1.1 0 0 1 .1 0 .3.3 0 0 1 0 .2l.1.1.2-.1a1.9 1.9 0 0 0-.1-.3.2.2 0 0 1 0-.1.1.1 0 0 1 .1-.1h.1a.5.5 0 0 0 .2 0h.1v-.1l-.1-.1V27a.3.3 0 0 0 0-.1 5.8 5.8 0 0 0 0-.8 3 3 0 0 1 .2-1v-.2a1.4 1.4 0 0 1-.1-.1.6.6 0 0 1 0-.4.2.2 0 0 0 0-.1v-.1a1.7 1.7 0 0 0 .1-.6V23a.2.2 0 0 0 0-.1.3.3 0 0 0-.2-.3.2.2 0 0 0-.1 0 .8.8 0 0 0-.1 0 .3.3 0 0 1-.3-.1.4.4 0 0 0-.1 0 .4.4 0 0 1-.1 0 .1.1 0 0 1-.1 0h-.1a.4.4 0 0 1-.1-.2V22l.1-.4v-.4a2.3 2.3 0 0 0 0-.4.5.5 0 0 0 .2 0 .4.4 0 0 1 .2-.2h.4a.4.4 0 0 0 0 .3h.2l.1-.3v.2a.5.5 0 0 1 .1 0 .5.5 0 0 0 .1 0v-.1a.4.4 0 0 0 0-.2.3.3 0 0 1 .1 0 .4.4 0 0 0 .1.1.4.4 0 0 0 .2.2.4.4 0 0 1 0 .2.2.2 0 0 0 0 .1.1.1 0 0 0 .2 0v-.2h.1a.4.4 0 0 0 0-.1.2.2 0 0 0 0-.1.6.6 0 0 0-.1 0 .6.6 0 0 1 0-.1h.1c.1 0 0 0 0 0h1.4a.5.5 0 0 1 .3.1 1.2 1.2 0 0 0 .2.2.4.4 0 0 0 0-.2.2.2 0 0 0 .1 0h.1a.2.2 0 0 1 0-.2 1 1 0 0 1 .2.4v.8a1.4 1.4 0 0 0 0 .4.7.7 0 0 0 0 .2.3.3 0 0 1-.2.3.4.4 0 0 1-.3-.1H32v-.1a.3.3 0 0 1-.3.2h-.2a.5.5 0 0 0-.1.1.3.3 0 0 1 0 .1v.1a.5.5 0 0 0-.1.1.2.2 0 0 1 0 .3 1 1 0 0 1 0 .1 1 1 0 0 0 0 .1.4.4 0 0 0 0 .2.5.5 0 0 1 0 .4v.2a.2.2 0 0 0-.1 0H31a.2.2 0 0 0 0 .1v.1a.7.7 0 0 0 0 .2.6.6 0 0 0-.1.1v.4h-.2.1V25a.2.2 0 0 1-.1 0 .6.6 0 0 1-.1.2 1 1 0 0 1-.3.2 1.2 1.2 0 0 0-.1 0v.1h.2a2.8 2.8 0 0 1 .3-.1l.1-.2a.3.3 0 0 1 .1 0 1.2 1.2 0 0 0 0 .2.6.6 0 0 1 0 .2q.3 0 .3-.3V27a1.3 1.3 0 0 1 0 .1.8.8 0 0 0-.1.2.1.1 0 0 1 0 .1v.1a.8.8 0 0 0-.1.1.3.3 0 0 0 0 .3.2.2 0 0 0-.2.1v.1a2.5 2.5 0 0 0-.2.3 2.8 2.8 0 0 1-.1.3.4.4 0 0 1-.2.2 3 3 0 0 1-.6.3.3.3 0 0 0-.2.1 1.5 1.5 0 0 1-.1.1 5.2 5.2 0 0 0-.6.2l-.6.1a2.6 2.6 0 0 1-.6.1 1.8 1.8 0 0 1-.6-.1h-.5l-.2-.1a.3.3 0 0 1-.3-.1.1.1 0 0 1-.1 0 2.4 2.4 0 0 0-.6-.5 1 1 0 0 1-.4-.2 2.4 2.4 0 0 1-.3-.4 3.3 3.3 0 0 0-.3-.4.2.2 0 0 0 0-.1.7.7 0 0 1-.1-.4.8.8 0 0 0-.2-.3.2.2 0 0 1 0-.1.6.6 0 0 1 0-.1.6.6 0 0 0 0-.1 1 1 0 0 1 0-.5v-.7h.1a.8.8 0 0 0 0-.3.8.8 0 0 1-.1-.3 1.5 1.5 0 0 0 0-.3 1.5 1.5 0 0 1 0-.2.3.3 0 0 1 0-.1 1 1 0 0 0 .1-.4.8.8 0 0 1 .1-.4h-.1a1.5 1.5 0 0 1 0-.2 1.5 1.5 0 0 0 0-.2.5.5 0 0 0 0-.3v-.1q-.2-.4-.5-.4a.4.4 0 0 0-.3 0 1.7 1.7 0 0 1-.2 0 1.7 1.7 0 0 0-.2 0Zm1.1-1.8h.1Zm.5 7a.1.1 0 0 1 .1 0h.1a.1.1 0 0 0 .1 0h.1a.3.3 0 0 1-.2 0 .1.1 0 0 0-.2 0Zm.7-4.5a.9.9 0 0 0 .1 0V23Zm1.3-1.2Zm.7-1.1v.2a.2.2 0 0 0 .1-.1.4.4 0 0 0 0-.1Zm1 6.9h.2a.2.2 0 0 0-.1 0Zm.8-.5a.2.2 0 0 0 .1 0 .3.3 0 0 1-.1 0Zm.1 0a.3.3 0 0 0 0-.1.2.2 0 0 1 .1 0 .2.2 0 0 1 0-.1.7.7 0 0 1 0 .1Zm.4 1.1a.1.1 0 0 1 .1 0h.1v-.1a.2.2 0 0 1 0-.1.3.3 0 0 0-.2 0v.1a.5.5 0 0 1 0 .1Zm0-7.8a.1.1 0 0 1 .1 0Zm.3 8 .3.1H30l-.1-.1h-.1Zm.5-.6h.1l.1.1a.3.3 0 0 0 .1-.2.4.4 0 0 1 0-.2.2.2 0 0 1-.1 0v.2l-.2.1Zm0-.4a.3.3 0 0 0 .1.1v-.1a.5.5 0 0 0 .2 0 .3.3 0 0 0-.2 0Zm.1.1Zm.2-6.6a.2.2 0 0 0 0 .2.4.4 0 0 1 0-.1.6.6 0 0 1 0-.2.6.6 0 0 0 .1 0 .2.2 0 0 0 0-.1.2.2 0 0 0-.1.2Zm.5 4.2V25l.1-.1a3.1 3.1 0 0 1 0 .3v-.1h-.1Zm.1-.8Zm0 0Zm2.3 3.5a.4.4 0 0 1 .1-.3.5.5 0 0 1 .3 0 1.5 1.5 0 0 1 .4 0 2.2 2.2 0 0 0 .4.1.4.4 0 0 0 .2-.1.3.3 0 0 0 .1-.2v-.5a1.2 1.2 0 0 0 0-.5.3.3 0 0 0 0-.2 1 1 0 0 1 0-.2 1.9 1.9 0 0 1 0-.3 1.9 1.9 0 0 0 0-.3v-.2a1.8 1.8 0 0 1 0-.2v-1.5a1.3 1.3 0 0 0 0-.3 1 1 0 0 1 0-.2 1 1 0 0 0 0-.2.7.7 0 0 0-.2-.2.4.4 0 0 0-.2 0 1 1 0 0 1-.4 0 1.8 1.8 0 0 0-.3 0 1.9 1.9 0 0 1-.3 0v-.9a5.3 5.3 0 0 1 0-1q0-.2.3-.2a.6.6 0 0 1 .3 0 .2.2 0 0 1 .1.2 1 1 0 0 1 0 .2v.2a.1.1 0 0 0 .1 0 .4.4 0 0 1 0-.1.1.1 0 0 0 0-.1.5.5 0 0 0 0-.2.4.4 0 0 1 0-.2h.4l.1.2a1 1 0 0 1 .3 0 1 1 0 0 0 .2-.1h.2a.5.5 0 0 1 .3 0 .5.5 0 0 0 .2 0 .5.5 0 0 1 .1 0 .5.5 0 0 0 .1 0 .2.2 0 0 1 .2-.1.5.5 0 0 1 .1 0 .5.5 0 0 0 .2 0l.2.1h1a1 1 0 0 1 .1 0 1 1 0 0 0 .1 0 .3.3 0 0 0 .2 0h.2a.2.2 0 0 0 .1 0 .4.4 0 0 0 .2 0 .4.4 0 0 1 .2-.1.1.1 0 0 1 0 .2.2.2 0 0 0 .2-.2.6.6 0 0 1 0-.1.3.3 0 0 1 0 .3v.2a3.3 3.3 0 0 1 0 1 .8.8 0 0 1 0 .5l-.2-.2a.4.4 0 0 0 0 .1v.1a1.2 1.2 0 0 1-.4 0h-.4a.9.9 0 0 0-.5.2 2.5 2.5 0 0 1 0 .6 5.7 5.7 0 0 1 .1.6 5.7 5.7 0 0 0 0 .6.6.6 0 0 1 0 .1.3.3 0 0 0-.1.2 2 2 0 0 1 0 .6v.9a.6.6 0 0 0 0 .3.6.6 0 0 1 .1.1.2.2 0 0 1 0 .1.2.2 0 0 0 0 .1.7.7 0 0 0 0 .1.8.8 0 0 1 0 .1.2.2 0 0 1 0 .1.3.3 0 0 1 0 .1.4.4 0 0 0 .1.1h1.2a.2.2 0 0 1 .1 0 .1.1 0 0 1 0 .2v.4a1 1 0 0 1 0 .6v.8h-.2a.2.2 0 0 1 0 .2H39a.3.3 0 0 0-.2 0 .8.8 0 0 0-.2 0 .8.8 0 0 1-.2 0 .4.4 0 0 0-.1 0 .2.2 0 0 0-.1-.1H37a.3.3 0 0 0-.1.1.7.7 0 0 1-.1 0 .5.5 0 0 0-.3 0 1.5 1.5 0 0 1-.5.1 5.8 5.8 0 0 0-1.2-.1 7.6 7.6 0 0 0-.9 0 .9.9 0 0 0-.1 0 .9.9 0 0 1-.1 0 2 2 0 0 1-.2-.7v-.5a2 2 0 0 0 0-.3.3.3 0 0 1 0-.1Zm.2 1.4a.1.1 0 0 0 .1 0 .2.2 0 0 0 0-.1.3.3 0 0 1 0-.1.3.3 0 0 1 0 .1.1.1 0 0 1-.1 0Zm3.5-8.3Zm1 1.3a.4.4 0 0 0 .1 0 .1.1 0 0 0 .1 0h-.1ZM39 21l.1-.1H39Zm1.3 1.5.1-.1a.1.1 0 0 0 .1-.1V22a3.2 3.2 0 0 1 0-.4 3.3 3.3 0 0 0 0-.4.8.8 0 0 0 0-.4.3.3 0 0 1 .1-.2h.2a2.3 2.3 0 0 0 .3-.1 2.2 2.2 0 0 1 .4 0 .6.6 0 0 1 .3 0h.4a3.5 3.5 0 0 0 .4.1 1.2 1.2 0 0 0 .5 0v.1a1.2 1.2 0 0 0 .5-.1 1.2 1.2 0 0 1 .4-.1.3.3 0 0 1 .2 0 .8.8 0 0 1 .2 0 .1.1 0 0 1 .1 0 .6.6 0 0 1 .3 0 .5.5 0 0 1 .2 0 1.9 1.9 0 0 0 .3 0h1.5a.6.6 0 0 1 .6.1.3.3 0 0 1 .2 0 .5.5 0 0 1 .5.2.1.1 0 0 0 0 .1.1.1 0 0 0 0 .1h.3a7.6 7.6 0 0 1 1 1.7l.2.5.4.6a4.8 4.8 0 0 0 .3.5 2.5 2.5 0 0 0 .4.4.6.6 0 0 1 .1.4 3.5 3.5 0 0 1 .4.5 1.8 1.8 0 0 0 .5.4.6.6 0 0 1 .1.4 1 1 0 0 0 .1.4h.1l.2.3v.4a1.4 1.4 0 0 1 .2.2 1.3 1.3 0 0 0 .1.2q.2 0 .2-.2a1 1 0 0 0 0-.4 1.6 1.6 0 0 1 0-.4l-.1-.2v-.3a1.3 1.3 0 0 1 .1-.5 1 1 0 0 1 .1-.2 5 5 0 0 0 0-.6v-.5a3.3 3.3 0 0 0 0-.4 1.4 1.4 0 0 0-.4-.9 1 1 0 0 1-.2.2H52a.1.1 0 0 0 0-.1.2.2 0 0 0-.2 0h-.2a1.5 1.5 0 0 0-.5.2.2.2 0 0 1-.2 0v-.2a1.7 1.7 0 0 0 0-.4v-2a.3.3 0 0 1-.1-.2.4.4 0 0 1 .2-.4.7.7 0 0 1 .2 0h.2a1.2 1.2 0 0 1 .1 0 .3.3 0 0 1 .2 0 .4.4 0 0 1 .1.2.3.3 0 0 1 .1-.1.7.7 0 0 1 .3 0h.2a.7.7 0 0 1 .3.1h.3v.1a.5.5 0 0 0 .1 0v-.2a1.3 1.3 0 0 1 .2 0 .5.5 0 0 0 .3 0 .3.3 0 0 1 .2.2 1.6 1.6 0 0 1 .6-.2.5.5 0 0 1 .3.1.4.4 0 0 1 .4-.1h.4a1 1 0 0 0 .3 0l.1.1a.8.8 0 0 1 .4-.1h.6a.6.6 0 0 1 .2 0 .7.7 0 0 0 .2.1q.2 0 .2.2a7 7 0 0 1-.1 1.3v.2l-.1.1v.6a.4.4 0 0 1-.1.4.8.8 0 0 1-.5.1q-.9 0-1 .3a.8.8 0 0 0-.3.7 4.2 4.2 0 0 0 0 .5 4.3 4.3 0 0 1 .1.4v.3a1 1 0 0 0 0 .2.3.3 0 0 0 0 .2 2.7 2.7 0 0 1 0 .4 2.8 2.8 0 0 0 0 .4 1.3 1.3 0 0 0 0 .4 1.3 1.3 0 0 1 .1.4 3.5 3.5 0 0 0 0 .7v.9a2.6 2.6 0 0 1-.2.8l.1.1.1.2a4 4 0 0 0 0 .6 4 4 0 0 1 0 .6 3.7 3.7 0 0 0-.1.8v.6a2 2 0 0 1 0 .3.5.5 0 0 1-.2.2.4.4 0 0 0-.1.2.6.6 0 0 1 0 .1.3.3 0 0 1 0 .1q0 .2.2.2v.3a.4.4 0 0 1 0 .3.8.8 0 0 1-.5 0h-.7l-.8.1a2.4 2.4 0 0 0-.6.1.5.5 0 0 0-.2 0 2.1 2.1 0 0 1-.3 0 2.1 2.1 0 0 0-.4-.1.5.5 0 0 1-.3-.1 3.3 3.3 0 0 1-.5-.7l-.4-.7a3.2 3.2 0 0 0-.2-.4 3.9 3.9 0 0 1-.3-.5.9.9 0 0 0-.2-.4l-.2-.4-2-3-.2-.2a.7.7 0 0 1-.2-.2 1.5 1.5 0 0 0-.1-.5 5.1 5.1 0 0 1-.7-.9l-.5-.7a1.8 1.8 0 0 1-.2-.5 2 2 0 0 0-.2-.4l-.2-.2-.2-.2a.3.3 0 0 0 0-.1.1.1 0 0 0 0-.1.6.6 0 0 0-.2 0H45a.3.3 0 0 0-.2 0v.2a1.7 1.7 0 0 1 0 .2 1.6 1.6 0 0 0 0 .4 7.4 7.4 0 0 0 .1.9h-.2a6.2 6.2 0 0 1 .3 2v.8l-.1.8a9.2 9.2 0 0 0 .1 1.5l.2.1a.4.4 0 0 0 .1.1.3.3 0 0 0 .1 0 1.2 1.2 0 0 0 .3 0 1.2 1.2 0 0 1 .3 0h.8v1.7a7.4 7.4 0 0 0 .1 1.3l-.1.1a.3.3 0 0 0-.2.1 1.6 1.6 0 0 1-.2 0h-.9a1.7 1.7 0 0 0-.3 0h-1a.2.2 0 0 0 0-.2.6.6 0 0 0-.2 0l-.1.1a.2.2 0 0 1-.2 0 .8.8 0 0 1-.2 0v-.1a.4.4 0 0 0-.3 0 .4.4 0 0 1-.2.1h-.3a2 2 0 0 1-.4 0 3.4 3.4 0 0 0-.6.1v-.1a.3.3 0 0 0-.2 0v.1h-.1a1.5 1.5 0 0 1-.5.1q-.5 0-.6-.3a1.8 1.8 0 0 1 0-.5V33a1 1 0 0 0 0-.1 1 1 0 0 1 0-.1 2.4 2.4 0 0 0 0-.4 2.4 2.4 0 0 1 0-.4.7.7 0 0 1 0-.4.3.3 0 0 1 .4-.1h.7a1 1 0 0 1 .3 0 .3.3 0 0 1 0-.1.6.6 0 0 1 .1 0h.2a.6.6 0 0 0 .3-.6 2.4 2.4 0 0 0 0-.3v-.1l.1-.1v-.1l-.1-.1a7.7 7.7 0 0 0 0-1V27l-.1-2.9a.3.3 0 0 0-.1-.2.6.6 0 0 0-.3-.1l-.3-.1a.8.8 0 0 0 .2-.3l-.2-.2h-.1a.1.1 0 0 0 0 .1.1.1 0 0 1 0 .1s-.1.1-.1.1a.1.1 0 0 1 0 .1v.1a2.1 2.1 0 0 0-.2 0 2 2 0 0 1-.3 0 1.1 1.1 0 0 1-.2 0 .2.2 0 0 1-.1 0 .5.5 0 0 0 0-.1v-.2a.4.4 0 0 1 0-.3.3.3 0 0 1 0-.2.3.3 0 0 0 0-.2.3.3 0 0 1-.2-.2Zm1.3 11.3a.2.2 0 0 1 .2.2v-.2a.2.2 0 0 0 0-.1.2.2 0 0 0-.1 0l-.1.1Zm1.3-2a1 1 0 0 1 .4-.1.3.3 0 0 0-.2 0 .2.2 0 0 0-.2 0Zm.6 2a.4.4 0 0 1 .3-.1.4.4 0 0 0-.2 0l-.1.1Zm.8-10.3a.3.3 0 0 1 .2 0v.3-.1a.2.2 0 0 0 0-.2.2.2 0 0 1 0-.1l-.2.1Zm1.5 9Zm0 .5a.6.6 0 0 1 0 .2v.2a.3.3 0 0 0 0 .1.3.3 0 0 0 .1.1.2.2 0 0 0 .1 0q.2 0 .2-.4a.5.5 0 0 0-.2-.3l-.1.1Zm0-.4h.2a.8.8 0 0 0-.1 0ZM13.3 17.8a9.2 9.2 0 0 1 .2-2 .2.2 0 0 1 0-.2.6.6 0 0 1 .3 0v-.2a2.4 2.4 0 0 1 .5 0 2.4 2.4 0 0 0 .4 0 .6.6 0 0 0 .3 0 1.3 1.3 0 0 1 .1-.1.6.6 0 0 0 .1-.1.3.3 0 0 0 .1-.1.5.5 0 0 0 0-.2 5.7 5.7 0 0 0 .1-.7 2.3 2.3 0 0 0-.1-.8l.1-.2v-.5a2.6 2.6 0 0 1-.1-.3 2.3 2.3 0 0 1 0-.3v-.3a.1.1 0 0 0 .1-.2.3.3 0 0 0 0-.2.3.3 0 0 1 0-.1 9.2 9.2 0 0 0 0-1.6V8.3a.3.3 0 0 0 0-.2 1.3 1.3 0 0 0-.2-.2l-.2-.1-.1.1a.5.5 0 0 0-.1 0 2.6 2.6 0 0 1-.7 0 2.6 2.6 0 0 1-.6 0l-.1-.1a.4.4 0 0 1 0-.2.3.3 0 0 1 0-.1.2.2 0 0 0 0-.1.1.1 0 0 1 .1-.1 1.1 1.1 0 0 1 0-.2 1.4 1.4 0 0 1 0-.2 1.4 1.4 0 0 0 0-.2.5.5 0 0 1 0-.3l.1-.1a1.8 1.8 0 0 1-.1-.6 1.5 1.5 0 0 1 .1-.5.4.4 0 0 1 .5-.3 1.3 1.3 0 0 1 .6.2.2.2 0 0 0 .1 0L15 5a5.3 5.3 0 0 0 .8.1V5a10.4 10.4 0 0 0 2 .1 6.8 6.8 0 0 1 1 0H21l.1.5V7l.1.1a1.4 1.4 0 0 1 0 .3v.4a.8.8 0 0 1-.7.3.9.9 0 0 1-.4-.2.6.6 0 0 1-.3 0l-.1.2a3.3 3.3 0 0 0-.2 1.1 4.6 4.6 0 0 0 0 1 .5.5 0 0 0 .3.3.6.6 0 0 0 .3 0 1.4 1.4 0 0 0 .2 0 1.5 1.5 0 0 1 .1-.1.2.2 0 0 1 .2 0 .8.8 0 0 0 .1 0 .4.4 0 0 1 .1.2l.2-.1h.1a1 1 0 0 1 .2 0 .3.3 0 0 0 .1-.2.9.9 0 0 0 .5.1h.4v.1l.1.1a2.5 2.5 0 0 1 .4 0 1 1 0 0 0 .3-.2.3.3 0 0 0 0-.3v-.2a1.3 1.3 0 0 1 0-.2.5.5 0 0 0 0-.2 1.4 1.4 0 0 0 0-.2 1.4 1.4 0 0 1 0-.2.6.6 0 0 1 0-.2v-.1a.5.5 0 0 0 0-.3.5.5 0 0 0-.3-.4.7.7 0 0 0-.2 0H22a.2.2 0 0 0-.1-.1h-.1a2.4 2.4 0 0 1-.2-1 .5.5 0 0 1 0-.2.5.5 0 0 0 0-.2 1.9 1.9 0 0 1 0-.5v-.6a1.3 1.3 0 0 0 0-.2.1.1 0 0 1 0-.2 1 1 0 0 1 .3 0A.8.8 0 0 0 22 5h.1a.1.1 0 0 0 .1.1.9.9 0 0 1 .5 0h1.7a.3.3 0 0 0 0-.1.4.4 0 0 1 .1-.1.3.3 0 0 0 0 .1.5.5 0 0 0 .2 0l.1.1a.7.7 0 0 0 .2 0 .6.6 0 0 1 .2-.2h.1a1.4 1.4 0 0 0 .8.2h.9a3.4 3.4 0 0 0 .5 0h.8a.2.2 0 0 0 .1 0 .5.5 0 0 0 .3-.1.6.6 0 0 0 .3 0 .7.7 0 0 1 .1 0 3 3 0 0 1 .2 1v1.7a.2.2 0 0 1 0 .1.7.7 0 0 1-.3.1h-.2a.1.1 0 0 0 0 .1h-.2l-.1-.1a1 1 0 0 1-.2 0 1.2 1.2 0 0 1-.3 0 1.2 1.2 0 0 0-.3-.1.5.5 0 0 0-.2 0 1 1 0 0 0-.3.7 1.7 1.7 0 0 0 .1.5 1.7 1.7 0 0 1 .1.5 5.3 5.3 0 0 0 0 1 8.1 8.1 0 0 0 0 1.1 1.5 1.5 0 0 1 0 .3v.8a2.7 2.7 0 0 0 0 .4.5.5 0 0 1 0 .1 1 1 0 0 1 0 .3v.3l-.1.2v.4l.2-.1a.5.5 0 0 0-.2.4.4.4 0 0 0 .1.3.4.4 0 0 0 .3.1h.5a1.2 1.2 0 0 0 .5.2.9.9 0 0 1 .4.2 1.6 1.6 0 0 1 .2.9 6.4 6.4 0 0 1 0 .7 6.4 6.4 0 0 0 0 .7h-.1q-.2 0-.2.3h-2.3a.6.6 0 0 1-.2-.1.6.6 0 0 0-.3 0 .4.4 0 0 1-.2 0 1.1 1.1 0 0 0-.2 0 1 1 0 0 0-.2 0h-.2l-1 .2a2 2 0 0 1-.6-.1V18h.1v-.1a.2.2 0 0 0-.1-.1l-.2.2v.2h-.1a.4.4 0 0 0-.3.1.4.4 0 0 1-.2.2l-.1-.1a.4.4 0 0 1 0-.2V18l-.3.2a1.6 1.6 0 0 1-.3 0H22a1 1 0 0 0-.4.1l-.1-.1-.2-.8.3-1.3-.1-.2v-.5l.2-.1a.9.9 0 0 0-.3 0l.2-.2a2.7 2.7 0 0 0 1 .1 3.2 3.2 0 0 0 .4 0 .3.3 0 0 0 .1-.3v-.3a.4.4 0 0 1 0-.2.3.3 0 0 1 0-.2V14a3 3 0 0 1 0-.6 3.4 3.4 0 0 0 0-.6.4.4 0 0 0-.2-.2.4.4 0 0 0-.2-.1 1.5 1.5 0 0 0-.2 0h-.3a.3.3 0 0 0-.2 0 1.9 1.9 0 0 0-.2 0 1.8 1.8 0 0 1-.2 0 .6.6 0 0 1-.3-.1l-.2.1a4 4 0 0 0-.5 0 .6.6 0 0 0-.3 0l-.1-.2q-.5.1-.5.4V15a.7.7 0 0 0 0 .2.6.6 0 0 1 .4 0 1.5 1.5 0 0 1 .1 0 1.5 1.5 0 0 0 .2 0h.1a.3.3 0 0 1 .1-.1.4.4 0 0 0 .1.1 1 1 0 0 0 .2 0 1.4 1.4 0 0 1 .2.2v.5h.2l-.2 1.9h.1v.5a1.4 1.4 0 0 1-.7.2q-.2 0-.2-.3a1.4 1.4 0 0 0-.5 0 1.7 1.7 0 0 0-.2 0 1.9 1.9 0 0 1-.3 0 .6.6 0 0 0 0 .1h-.1a.5.5 0 0 0-.3 0h-.5a1 1 0 0 1-.3 0v-.1c0-.1 0 0 0 0a.8.8 0 0 0-.3 0 .8.8 0 0 1-.3 0 .3.3 0 0 1-.1 0h-.2a3.5 3.5 0 0 0-.7 0h-1.1a3.7 3.7 0 0 1-.7 0 .6.6 0 0 1 0-.1v-.2a.3.3 0 0 0-.3.3.4.4 0 0 0 0 .1 2.1 2.1 0 0 0-.4 0h-.3a.5.5 0 0 1-.3-.1.4.4 0 0 1-.1-.4ZM15.6 7l.2.1h.1V7h-.2Zm.3 1.8q.2 0 .2.3a.4.4 0 0 0 0-.2l-.1-.1Zm.3.8v.2h.3-.2a.2.2 0 0 1-.1-.2Zm0 1.3a.6.6 0 0 0 0-.3Zm1-.3h.2a.9.9 0 0 0 .1 0v-.2h-.1a.1.1 0 0 0-.1 0 .5.5 0 0 0 0 .2Zm.7-.5a.2.2 0 0 0 .2 0L18 10Zm9.6-2.5h.3v-.1h-.3Zm2.7-1a1.7 1.7 0 0 0 0-.6v-.2a2.4 2.4 0 0 1 .1-.5.5.5 0 0 1 0-.1.2.2 0 0 1 .1 0 .9.9 0 0 1 0 .2.4.4 0 0 0 0 .2.4.4 0 0 0 .2.1.2.2 0 0 1 0-.2.6.6 0 0 1 0-.1.6.6 0 0 0 0-.1l.2.1a.2.2 0 0 0 .2-.1.2.2 0 0 0 0-.1.2.2 0 0 0 0-.1.3.3 0 0 1 .1 0 .6.6 0 0 0 0 .1.3.3 0 0 0 0 .3h.1v-.2a2.3 2.3 0 0 1 .3 0 1.2 1.2 0 0 0 .2-.2.3.3 0 0 0 .1-.1.2.2 0 0 0 0-.1.3.3 0 0 0-.2 0 1.1 1.1 0 0 0-.2 0 1 1 0 0 1 .2 0 .4.4 0 0 1 .3 0h.1a.2.2 0 0 0 .1 0 .4.4 0 0 0 .4 0l-.1.2-.1.1a.2.2 0 0 0 0 .1.5.5 0 0 0 .1.3.1.1 0 0 0 .2 0 .2.2 0 0 0 0-.1.4.4 0 0 0 0-.2v-.1a.1.1 0 0 1 .1-.1h.1A.5.5 0 0 1 33 5v-.1h.1V5a.3.3 0 0 0-.1.1.3.3 0 0 0-.1.2l.1.1h.1v.1a.2.2 0 0 0 .2 0 1 1 0 0 1 .1-.3.3.3 0 0 1 .2-.1l-.1.1v.2a.4.4 0 0 0 .3 0 1.4 1.4 0 0 0-.1-.5 1 1 0 0 0 .1 0 .1.1 0 0 1 .1 0 .3.3 0 0 0 0 .1h.1a.2.2 0 0 0 .2 0 3.2 3.2 0 0 0 .4 0l.3-.1a.4.4 0 0 1 .1.2.3.3 0 0 0 0 .2.6.6 0 0 0 0 .1.6.6 0 0 1 0 .2v.1a2.3 2.3 0 0 0 0 .3 2.3 2.3 0 0 1 0 .3.5.5 0 0 1-.1.3.2.2 0 0 1-.3.2h-.1a1.6 1.6 0 0 0-.2 0 .4.4 0 0 0-.1 0 .3.3 0 0 0-.1 0 .2.2 0 0 1 0 .1 4.5 4.5 0 0 0 0 .7.2.2 0 0 1-.2 0v.1a.3.3 0 0 1 .1 0 1.6 1.6 0 0 1 0 .3 3.8 3.8 0 0 1 0 .4 3.8 3.8 0 0 0 0 .4 1.3 1.3 0 0 0 0 .3v.4-.1a.1.1 0 0 0-.1 0 .1.1 0 0 0 0 .1v.1h.1v.4a.8.8 0 0 0 0 .3v.2a.4.4 0 0 1 0 .3 1.3 1.3 0 0 0 0 .2.5.5 0 0 0 0 .5.4.4 0 0 1-.1 0v.2a.1.1 0 0 1 0 .1v.1h.1a.7.7 0 0 1 0-.2.2.2 0 0 1 .1-.2h.1a.1.1 0 0 0 0 .2.2.2 0 0 0 0 .1h.2a2.1 2.1 0 0 1 .7 0 .4.4 0 0 1 0 .3.2.2 0 0 0 .2.1.3.3 0 0 0 0-.2v-.1h.2v.2a.6.6 0 0 1 0 .2.3.3 0 0 1 0 .3.1.1 0 0 0 .2 0v-.1l.1-.1a.8.8 0 0 1 0-.1.3.3 0 0 0-.1-.1v-.3a.2.2 0 0 1 .1-.1h.1a.3.3 0 0 1 0 .2v.1l.2-.1a1.8 1.8 0 0 0 0-.3.2.2 0 0 1 0-.1.1.1 0 0 1 .1 0h.1a.5.5 0 0 0 .2 0V11a.3.3 0 0 0 0-.1 5.6 5.6 0 0 0 0-.8 2.9 2.9 0 0 1 .1-.8.4.4 0 0 0 0-.2V9a1.3 1.3 0 0 1-.1-.1.6.6 0 0 1 .1-.4.2.2 0 0 0 0-.1v-.1a1.6 1.6 0 0 0 0-.6v-.6a.3.3 0 0 0-.2-.4.7.7 0 0 0-.2 0 .3.3 0 0 1-.2 0 .4.4 0 0 0-.1 0 .4.4 0 0 1-.1 0 .1.1 0 0 1-.2-.1.4.4 0 0 1-.2-.2v-.2h.2v-.8a2.2 2.2 0 0 0 0-.4q0 .3.4.3v.1h.2a.4.4 0 0 0 .1.2h.1q0-.2.2-.3v.2a.5.5 0 0 0 .1 0l.1-.1a.4.4 0 0 0 0-.1.4.4 0 0 0 .1 0 .2.2 0 0 0 .1 0 .4.4 0 0 0 0 .2.4.4 0 0 1 .1.2.2.2 0 0 0 0 .1.1.1 0 0 0 .2 0 .6.6 0 0 0 .1 0h-.1v-.1l.1-.1a.2.2 0 0 0 0-.1.3.3 0 0 0-.1-.1.7.7 0 0 1-.1 0 .2.2 0 0 0 0-.2.5.5 0 0 0 0-.1.8.8 0 0 0-.1-.1H37a.2.2 0 0 0 0 .1.4.4 0 0 1-.2 0 1 1 0 0 0-.2-.1l.2-.1v-.1a.2.2 0 0 1 .2 0 .3.3 0 0 0 .1.1.3.3 0 0 0 .1 0h.1V5a.5.5 0 0 1 .2 0 .7.7 0 0 1 .3 0 .4.4 0 0 0 .1 0 .3.3 0 0 1 .2-.1.2.2 0 0 1-.1 0 .2.2 0 0 0-.2.1.6.6 0 0 0 .2.4.2.2 0 0 0 .2 0v.5l-.1-.1H38a.4.4 0 0 1 0 .1h-.1V6a1.1 1.1 0 0 0-.2.2l-.3.1h.1a.4.4 0 0 0 0 .3.2.2 0 0 0 0 .2h.1v-.1a.1.1 0 0 1 0-.1.2.2 0 0 1 0-.1.2.2 0 0 0 .1-.1.1.1 0 0 0 0-.1h.1a1 1 0 0 1 .6-.3v.1a.7.7 0 0 1 .2-.1.8.8 0 0 0 .2-.2.7.7 0 0 0 0-.2v-.1a.3.3 0 0 0 .1 0 .3.3 0 0 0 .3-.1.4.4 0 0 0 0-.3.5.5 0 0 0 0-.1.2.2 0 0 0 0-.2.4.4 0 0 1 .1 0V5h.2a.2.2 0 0 1 0-.1 1 1 0 0 1 .1.4V6a1.4 1.4 0 0 0 0 .4.7.7 0 0 0 0 .1v.1a.3.3 0 0 1-.2.2.4.4 0 0 1-.2 0H39v-.1h-.1a.3.3 0 0 1-.3.1h-.1a.4.4 0 0 0-.1.2l-.1.1a.5.5 0 0 0 0 .2.2.2 0 0 1 0 .2 1 1 0 0 1 0 .1 1 1 0 0 0 0 .2.4.4 0 0 0 0 .1.5.5 0 0 1 0 .4v.2a.2.2 0 0 0-.1 0H38v.1l.2.2v.4a3.2 3.2 0 0 1 0 .3V11a1.2 1.2 0 0 1 0 .1.7.7 0 0 0-.1.2.1.1 0 0 1 0 .1v.1a.8.8 0 0 0-.1.1.2.2 0 0 0 0 .3.2.2 0 0 0-.2.1v.1a2.4 2.4 0 0 0-.2.3 2.7 2.7 0 0 1-.1.3.4.4 0 0 1-.2.1 3 3 0 0 1-.6.4.3.3 0 0 0-.2 0 1.5 1.5 0 0 1-.1.2 5 5 0 0 0-.5.1l-.6.2a2.5 2.5 0 0 1-.6 0 1.7 1.7 0 0 1-.6 0 .5.5 0 0 1-.3-.5 1.2 1.2 0 0 1 0-.2h.3l.3-.1h-.1l-.2-.2-.1.1h-.2v-.2a.2.2 0 0 1 .1 0 1 1 0 0 0 0-.1l-.1-.1h-.2l-.1.2v.2a1 1 0 0 1-.2.2 1.1 1.1 0 0 0-.3.2.7.7 0 0 0 .5-.1V13v.2a1.7 1.7 0 0 0 .1.1.5.5 0 0 0 .1.2.3.3 0 0 0 .1 0 .2.2 0 0 1-.2.1h-.2a.3.3 0 0 1-.2-.2.1.1 0 0 1-.1 0 2.3 2.3 0 0 0-.7-.4 1 1 0 0 1-.3-.2 2.3 2.3 0 0 1-.3-.4 3.2 3.2 0 0 0-.3-.4.2.2 0 0 0 0-.1.7.7 0 0 1-.1-.4.8.8 0 0 0-.2-.3.2.2 0 0 1 0-.1.6.6 0 0 0 0-.2 1 1 0 0 1 0-.4v-.7l.1-.1a.8.8 0 0 0 0-.3.8.8 0 0 1-.1-.2V9a1.5 1.5 0 0 0 0-.2 1.5 1.5 0 0 1 0-.2.3.3 0 0 1 0-.1 1 1 0 0 0 .2-.4.8.8 0 0 1 0-.3h-.1a1.5 1.5 0 0 1 0-.3 1.5 1.5 0 0 0 0-.2.5.5 0 0 0 0-.3q-.2-.4-.4-.4a.1.1 0 0 0-.1 0l-.1.2h-.1a.4.4 0 0 1-.2 0 .4.4 0 0 0-.2-.2Zm.1-1.7a1.1 1.1 0 0 1 .2 0 .4.4 0 0 1 .1 0 1.7 1.7 0 0 1-.3 0Zm1 0Zm.4 6.8h.4a.3.3 0 0 1-.2 0 .1.1 0 0 0-.2 0Zm.7-4.4a.8.8 0 0 0 0 .1v-.2.1Zm1-1.7h.2v-.1l-.2.1Zm.2.6h.1Zm.7-1.1a.2.2 0 0 1 .1.1v.1a.4.4 0 0 0 0-.2Zm1 6.7h.2a.2.2 0 0 0-.1 0Zm.3-6.8h.1v.2-.1h-.1Zm.4.2h.1V5a.1.1 0 0 1 0-.1h.2a.2.2 0 0 1-.1.2.2.2 0 0 0-.1 0H36Zm0 6.1a.2.2 0 0 0 .2 0 .2.2 0 0 1-.2 0Zm.1-6Zm0 0Zm0 0Zm0 6a.3.3 0 0 0 .1-.1.2.2 0 0 1 .1-.1.7.7 0 0 1-.1.1Zm.5 1.1h.1a.1.1 0 0 0 0-.1.2.2 0 0 1 0-.1.2.2 0 0 0 0-.1.3.3 0 0 0-.1.1v.1a.5.5 0 0 1 0 .1Zm0-7a.1.1 0 0 0 .1 0Zm.2 7.2h.3-.2Zm.5-.6h.2a.3.3 0 0 0 .1 0 .3.3 0 0 0 0-.1.4.4 0 0 1 0-.2.1.1 0 0 1-.1 0v.2l-.2.1Zm0-.4a.3.3 0 0 0 .1.1v-.1a.5.5 0 0 0 .2 0 .3.3 0 0 0-.2 0Zm.1-6.5a.2.2 0 0 1 0 .2h.2v-.1a.4.4 0 0 0 0-.1h-.1Zm0 6.6Zm.2-5.9a.2.2 0 0 0 0 .2.3.3 0 0 1 0-.1.6.6 0 0 1 0-.1.6.6 0 0 0 .1-.2.2.2 0 0 0-.1.2Zm.4-.7a.6.6 0 0 1 .2 0v.1a.3.3 0 0 0-.1.1.3.3 0 0 0 0-.1H38Zm.2 3.5Zm0-3.1a.3.3 0 0 1 .2 0v-.1a.8.8 0 0 0 0-.3.3.3 0 0 0-.1-.2.2.2 0 0 1 .2 0v.4a.9.9 0 0 1 0 .3.9.9 0 0 0 0 .2h-.2a.1.1 0 0 0 0 .1.2.2 0 0 0 0-.1.3.3 0 0 0 0-.1v-.1Zm0 3Zm.4-3.3Zm0 0a.4.4 0 0 0 .1-.2.3.3 0 0 1 0-.1h.3a.1.1 0 0 0-.1 0 .2.2 0 0 0 0 .1.2.2 0 0 1 0 .1h-.2Zm1.7 8.1V13h.1a3.2 3.2 0 0 1 0-.8v-.1a.7.7 0 0 1 0-.5l.1.2a.3.3 0 0 0 0-.1l.1-.1a1.1 1.1 0 0 1 .3 0h.5a.8.8 0 0 0 .5-.2 2.4 2.4 0 0 1-.1-.6 5 5 0 0 1 0-.6 5 5 0 0 0 0-.6.3.3 0 0 0 0-.2 2 2 0 0 1 0-.6V8a.6.6 0 0 0 0-.2.6.6 0 0 1 0-.2.2.2 0 0 0 0-.1.7.7 0 0 0 0-.1.7.7 0 0 1 0-.2.3.3 0 0 1-.1-.2h-1.3a.2.2 0 0 1-.1-.1.1.1 0 0 1 0-.1v-.4a1 1 0 0 1 0-.5v-.7a.5.5 0 0 0 .2 0V5a.1.1 0 0 1 0-.1l.1-.1a.3.3 0 0 0 .2 0 .7.7 0 0 0 .2 0 .7.7 0 0 1 .1 0 .7.7 0 0 0 .1 0 .4.4 0 0 0 .1.1h1.4a.3.3 0 0 0 .2 0 .6.6 0 0 1 0-.1.4.4 0 0 0 .3 0 1.4 1.4 0 0 1 .5 0 5.6 5.6 0 0 0 1.1 0 7.6 7.6 0 0 0 1 0 .9.9 0 0 1 .1 0 2 2 0 0 1 .2.7V6a2.1 2.1 0 0 0 0 .3.3.3 0 0 1 0 .1.4.4 0 0 1-.1.3.5.5 0 0 1-.2 0 1.4 1.4 0 0 1-.4 0 2.2 2.2 0 0 0-.4-.1.4.4 0 0 0-.2 0 .3.3 0 0 0-.2.3v.5a1.1 1.1 0 0 0 0 .4.3.3 0 0 1 0 .1.3.3 0 0 0 0 .1 1 1 0 0 1 0 .2 1.7 1.7 0 0 1 0 .3 1.7 1.7 0 0 0 0 .3 1.8 1.8 0 0 0 0 .2 1.6 1.6 0 0 1 0 .2v1.4a1.2 1.2 0 0 0 0 .3 1 1 0 0 1 0 .2 1 1 0 0 0 0 .2.6.6 0 0 0 .2.2.4.4 0 0 0 .3.1 1 1 0 0 1 .4 0 1.6 1.6 0 0 0 .2 0 1.6 1.6 0 0 1 .3-.1v1a5.2 5.2 0 0 1 0 1q0 .2-.3.2a1.4 1.4 0 0 1-.4 0h-.5v-.2a1 1 0 0 1-.3 0 1.1 1.1 0 0 0-.2 0l-.2.1H44a.5.5 0 0 1-.2 0 .5.5 0 0 0-.2 0 .4.4 0 0 1-.1 0 .4.4 0 0 0-.1 0 .2.2 0 0 1-.2 0 .5.5 0 0 1-.1 0 .5.5 0 0 0-.2 0h-1.2a1 1 0 0 0-.2 0 .3.3 0 0 0-.1 0H41a.2.2 0 0 0-.1 0 .4.4 0 0 0-.2 0 .4.4 0 0 1-.2.1v-.4a.2.2 0 0 0-.2.2.5.5 0 0 1 0 .1.3.3 0 0 1 0-.3Zm2.2-3.5h.2v-.1a.7.7 0 0 1-.1 0 .1.1 0 0 0 0 .1Zm.3 1.4a.1.1 0 0 1 .1-.1.2.2 0 0 0-.1 0 .2.2 0 0 1 0 .1Zm.2-2.7h.1Zm.2.4a.2.2 0 0 1 .2 0V9a.1.1 0 0 1 0-.1v-.1a.5.5 0 0 1-.2 0Zm.3-1a.3.3 0 0 0 0 .2.5.5 0 0 0 .2.1h.4a1.5 1.5 0 0 1-.2-.3l-.1-.1-.1-.1h-.1a.3.3 0 0 0-.1.2Zm1.2 5v.1-.1Zm2.1-.9a7.4 7.4 0 0 1 0-1.2.5.5 0 0 1 .3-.3.7.7 0 0 1 .4-.2.8.8 0 0 1 .2 0 .8.8 0 0 0 .3.1.6.6 0 0 0 .2 0 1.7 1.7 0 0 0-.4-.5 1.3 1.3 0 0 1-.4-.3.6.6 0 0 0-.1-.2l-.1-.1v-.1A.3.3 0 0 1 47 9a.6.6 0 0 1 0-.1 1.3 1.3 0 0 1 0-.2l-.1-.2v-.4a1.5 1.5 0 0 1-.1-.6 1.3 1.3 0 0 1 0-.1v-.2a1.2 1.2 0 0 1 0-.2h.2v-.2l.2-.1v-.2l.1-.2.1-.1.1-.2a.7.7 0 0 1 .3-.3 1.6 1.6 0 0 0 .4-.3 1.1 1.1 0 0 1 .4-.2.9.9 0 0 0 .4-.3l.1.1a.6.6 0 0 1 .2 0 .6.6 0 0 1 .2 0 1.4 1.4 0 0 0 .1 0 .1.1 0 0 1 .1-.1.8.8 0 0 1 .2 0h.2l-.2.2h.1a.4.4 0 0 0-.1.3 1.4 1.4 0 0 0 0 .4.2.2 0 0 0-.1.2h.1a1 1 0 0 0 .1 0 .5.5 0 0 1 0-.2.4.4 0 0 1 .2 0H50v-.2a.7.7 0 0 1 0-.3.7.7 0 0 0 0-.2h.2V5a1.5 1.5 0 0 0 .4 0v.1a.3.3 0 0 0 .1-.1.1.1 0 0 1 .1 0h.4a.3.3 0 0 1 .2 0 .5.5 0 0 0 .3.2.8.8 0 0 1 .2.1.3.3 0 0 1 .1.3.2.2 0 0 1 .2 0 3.5 3.5 0 0 0 .1-.7h.1a.7.7 0 0 1 .3-.1 2 2 0 0 1 .3 0 2 2 0 0 0 .2 0 .5.5 0 0 0 .3 0h.4a.3.3 0 0 1 .2 0l.1.1a1.1 1.1 0 0 1-.1.6 1.8 1.8 0 0 0 0 .4 6 6 0 0 0 0 .6 6.6 6.6 0 0 1 .1 1 1.1 1.1 0 0 1 0 .1L54 8a1.5 1.5 0 0 1-.6 0H53q-.5 0-.5.2l.2.2a.1.1 0 0 1 0-.1h.4l.3.2.2.2a1.9 1.9 0 0 1 .2.1l.2.2a1.2 1.2 0 0 1 .2.2 1.8 1.8 0 0 1 .1.3 2 2 0 0 1 .3.7 5 5 0 0 1 .1 1 2 2 0 0 1-.3.5h-.1v.1h.1v.1a2.6 2.6 0 0 0-.4.7.5.5 0 0 1-.2.2 1.7 1.7 0 0 1-.3.2l-.1-.2v-.1a.7.7 0 0 1 .1 0h-.1a.8.8 0 0 1 0 .2.8.8 0 0 0-.1.2.7.7 0 0 1-.3.2h-.3a.6.6 0 0 1-.1.2 1.2 1.2 0 0 1-.2 0h-.2a.3.3 0 0 0-.2 0 .3.3 0 0 1-.1 0 .1.1 0 0 1-.1 0 .2.2 0 0 1 0 .2.2.2 0 0 1-.2 0 .4.4 0 0 0-.3 0 2.2 2.2 0 0 1-.4 0q-.4 0-.4-.2a.2.2 0 0 1-.2 0 .4.4 0 0 1-.3 0 .7.7 0 0 1-.5-.2l.1-.1a.2.2 0 0 1-.2 0 1.4 1.4 0 0 1-.6-.3v-.1q-.2 0-.2.3v.2a.5.5 0 0 1 0 .1.4.4 0 0 1 0 .2.2.2 0 0 1-.1.1.3.3 0 0 1-.2 0 .1.1 0 0 0 0 .1.4.4 0 0 0-.3 0 1.3 1.3 0 0 1-.2 0l-.2-.1a.5.5 0 0 1-.2 0h-.3a.6.6 0 0 1-.2-.1.4.4 0 0 1 0-.2l-.1-.7V12Zm.5-5.4h.1v-.1Zm0 2q0 .2.2.2l-.1-.2Zm.8-1h.1q.1.1.1 0a.3.3 0 0 0 .2 0h.1-.4Zm.4-.7h.2a.2.2 0 0 0 .1 0v-.1a.2.2 0 0 1-.2 0h-.1V7Zm.2 4v-.1a.4.4 0 0 0 .1 0 2.3 2.3 0 0 0 .8.7 2.1 2.1 0 0 0 .8.2 7.5 7.5 0 0 0 .9 0 .6.6 0 0 0 .2 0 1.6 1.6 0 0 1 .3-.1l.1-.3a.4.4 0 0 0-.2-.4 1.1 1.1 0 0 0-.5 0 1.5 1.5 0 0 1-.2-.1 1.4 1.4 0 0 0-.2 0 .2.2 0 0 0-.1 0h-.2a.6.6 0 0 0-.5-.2 1.3 1.3 0 0 1-.4 0 .1.1 0 0 1-.1 0 .3.3 0 0 0-.2 0v-.1a.2.2 0 0 0-.2 0 .5.5 0 0 0-.1 0 .5.5 0 0 1-.2 0 1 1 0 0 0 0 .2v.1a.2.2 0 0 0 0 .1Zm.1-3.7a.2.2 0 0 0 0 .1.4.4 0 0 0 .3.2h.4a1 1 0 0 0 .1.1 1 1 0 0 0 .1 0 10.4 10.4 0 0 1 2 .4 1.5 1.5 0 0 1 .1 0 .8.8 0 0 0 .2 0h.1v-.3a.5.5 0 0 1-.2-.2.8.8 0 0 0-.3-.2.8.8 0 0 1-.4-.3.1.1 0 0 1-.1.1h-.2l-.2-.2a1.4 1.4 0 0 0-.2 0 .8.8 0 0 0-.1 0 .7.7 0 0 0-.2 0H50a.7.7 0 0 0-.2-.1 2.4 2.4 0 0 0-.3 0 2.4 2.4 0 0 1-.2 0 .8.8 0 0 0-.4.1.3.3 0 0 0-.2.3Zm.6 2.8a.2.2 0 0 0 0-.1h.1v-.4a.4.4 0 0 0-.1.4Zm.2-1.7a.2.2 0 0 0 .1-.1V8h-.1a.1.1 0 0 0 0 .1v.1Zm.4.3h.2q.1 0 0 0a.7.7 0 0 0-.1-.1v.1Zm0 1a.6.6 0 0 1 .2 0l-.1-.1Zm0 2.9h.1v.1a.1.1 0 0 0 .2 0 .1.1 0 0 1 .1 0l-.1-.1a.3.3 0 0 0-.2 0Zm.2-7.2a.3.3 0 0 0 .2 0 .3.3 0 0 1 .1 0h-.2v-.1a.1.1 0 0 1-.1 0Zm.5.7h.2a.5.5 0 0 1-.1 0Zm.2 4.2a.2.2 0 0 1 .1 0l.1.1h.1a.4.4 0 0 1 0-.1H51Zm.1 3v.1a.5.5 0 0 0 0-.1h.1V13l-.1.2Zm.6.3Zm.1-4.5a.3.3 0 0 1 .2-.1h-.1l-.1.1Zm.1 3.2a1.6 1.6 0 0 0 0 .2h.2l-.1-.3Zm0-.2h.3v-.2a.5.5 0 0 0-.2.2Zm.2-3h.2a.4.4 0 0 0-.1 0 .4.4 0 0 1-.1 0Zm.2 3v.1Zm0-3.7a.3.3 0 0 0 .3-.1.1.1 0 0 1 0-.1.1.1 0 0 0-.2 0 .2.2 0 0 0 0 .2Zm.4.6a.5.5 0 0 0 0 .1.5.5 0 0 1 0 .2.2.2 0 0 1 .1 0 .7.7 0 0 1 .2 0 1 1 0 0 0 0-.1V9l-.2.1a.3.3 0 0 1 0-.2h-.1Zm.1 3.7a.2.2 0 0 1 0 .1.1.1 0 0 0 0 .1.1.1 0 0 0 .1 0 .2.2 0 0 0 0-.2Zm1-5Zm-22.4 9.9a.6.6 0 0 1 0-.2l.1-.2a1 1 0 0 1 0-.1.4.4 0 0 1 .2-.1 1.2 1.2 0 0 0 .1-.2 1 1 0 0 1 .2-.2.3.3 0 0 1 .2 0 .3.3 0 0 1 .1-.1 1 1 0 0 0 .1 0v-.1a1.6 1.6 0 0 1 0-.4 1.2 1.2 0 0 1 0-.3l.3-.2h.1a.1.1 0 0 0 0-.1l.1-.1h.1a.2.2 0 0 1 .1 0 .6.6 0 0 1 .2 0 .7.7 0 0 1 .2 0 .6.6 0 0 0 .2.1 1.1 1.1 0 0 1 0 .2.2.2 0 0 1 .1.2.7.7 0 0 1 0 .1.7.7 0 0 0 0 .1.3.3 0 0 1 0 .1v.1l-.1.1v.1a.3.3 0 0 0-.1.2.3.3 0 0 0 0 .1v.1h.1l.1.1a.1.1 0 0 0 0 .1.1.1 0 0 1 .1 0h.1a.7.7 0 0 0 .1-.2 1.7 1.7 0 0 0 0-.3.8.8 0 0 1 .2-.3h.2a.2.2 0 0 1 .1 0h.1a.2.2 0 0 1 .1 0 .2.2 0 0 0 .1 0 .4.4 0 0 1 .1.2v.2a.4.4 0 0 1-.1.2.5.5 0 0 1 0 .2v.1h-.1a.5.5 0 0 1 0 .2l-.1.1a.5.5 0 0 0-.1.2.1.1 0 0 0 0 .1h.1v.1a.2.2 0 0 0 0 .1.1.1 0 0 0 0 .1h.1a.2.2 0 0 0 0-.1.4.4 0 0 0 .2 0h.1a.1.1 0 0 0 0 .1.2.2 0 0 0 .1 0 .3.3 0 0 1 .1 0 .2.2 0 0 0 .1-.1 1 1 0 0 0 0 .1 1 1 0 0 1 0 .2v.4a.4.4 0 0 0 0 .1v.1a.4.4 0 0 1-.2 0 1.2 1.2 0 0 1-.1 0 1.1 1.1 0 0 0-.1 0h-.5a1.2 1.2 0 0 1-.4-.1h-.1l-.2-.1h-.2v.1h-.1a.2.2 0 0 0-.1 0v.1a.3.3 0 0 1-.2 0 .3.3 0 0 0-.2 0 .3.3 0 0 1-.1 0h-.4a.8.8 0 0 1-.3 0 .4.4 0 0 0-.2 0 .1.1 0 0 0 0-.1.4.4 0 0 1-.2 0 .4.4 0 0 1 0-.2l-.2-.1V18q0-.2 0 0l-.1-.1v-.1a.6.6 0 0 0-.1 0v-.2a.3.3 0 0 1 0-.1Zm.4 0Zm.7 0a.6.6 0 0 0 0 .1.3.3 0 0 0 .1.2.3.3 0 0 0 .2 0 .3.3 0 0 0 .1 0h.1a.6.6 0 0 0 .1 0 .3.3 0 0 0 .1-.2.2.2 0 0 0 0-.1.2.2 0 0 1-.1 0 .2.2 0 0 0 0-.1.3.3 0 0 0 0-.1.4.4 0 0 0 0-.1l-.1-.1a.1.1 0 0 0-.1 0 .3.3 0 0 0-.2 0q-.2.1-.2.3Zm.2-1.3h.1V16Zm.4-.4a.2.2 0 0 0 0 .2.2.2 0 0 1 .1 0 .2.2 0 0 0 .1 0 .5.5 0 0 1 0-.1.3.3 0 0 0 0-.1.3.3 0 0 0 0-.1.2.2 0 0 0-.1 0 .2.2 0 0 0-.1.1ZM18.8 33H18l-.1-.3-.1-.1h-.1v-.2l-.2-.1H17v.2l-.2.2v.4h-.2v1.3h.2l.2.2h-.2l.2.2h.4l.2-.2.2-.1V34l.1-.1h.9l.1.1v.2l-.2.4-.5.6H18v.1h-.3l-.2.1h-.8l-.2-.2h-.1l-.2-.1-.4-.4-.1-.2-.2-.3v-1.6l.1-.2.1-.2.2-.2.2-.4h.2l.4-.2h1.1l.3.1.2.1.1.1.3.3v.4l.2.1v.5Zm-3.3.4Zm.8-1.2h-.1l.2.2Zm.1 2.7h-.1.2Zm.4 0-.1.1v.1h.1l.1.1V35Zm1.2 0v-.1h-.1v.1h-.4v.1H17h.1v.2l.1-.1h.2v.1h.2V35h.5Zm-.5.2V35Zm.3-3.3h-.1v.1h.2Zm.6.6v-.3h-.3v.1h.1v.4h.1l.1-.1v.1h.2v-.1Zm0 2.1-.2.1h.1v.1h-.1v.2l.3-.3Zm4.4.9h-1.1l-.1-.2v-.3l-.2-.3h-.9l-.2.1-.1.3v.2l-.1.1-.2.1h-.7V35l.2-.2v-.5l.2-.3v-.2h.1v-.3l.1-.3.1-.2v-.4h.1v-.2l.1-.1v-.1l.2-.2v-.5h1.2l.1.1.1.3v.2l.2.2v.4h.1v.5l.2.3.2.5v.2l.2.4-.2.1v.1l-.1.2h-.2v.1h.4v-.3h.1v.2l.2.2v.2Zm-2.8-.9v.2h-.1v.2h-.4v.5-.2h.5v-.7Zm.4-.9-.2.1v-.1H20l-.2.2v.1h.1l.2-.1h.2Zm0-.8v-.1h-.1v.2h.2Zm1.3-.4-.2-.1v-.4h-.3l-.1-.1h-.4.1v-.1h-.2v.1l-.1.2-.2.3h.3V32l.1.1h.4V32h-.2l.2-.1h.3v.4h.1v.2h.1v.1h.2Zm-.6.1h-.7l.2.2.2.1v.1l-.1.2v.2l-.1.1.1.4h.4v-.4l-.1-.3v-.4h.2Zm-.4 1.6h-.1v.1h.2Zm0-2V32Zm0 .6v-.1Zm1 .2v.1Zm0 .6.1.2h.2-.1v.2h.2v-.3Zm.5 1.8H22h.3Zm0-1h.1Zm4.4-.6v.3h-.2v.4l-.1.2v.1l-.2.2-.3.3-.4.2h-.2l-.3.1h-1.6l-.1-.1v-1.6l.1-.3v-.7l-.1-.2v-1h.7l.1.1v-.1h1.6l.4.3.3.4h.1l.1.3.1.2.1.2v.7Zm-3 1.2h-.1v.2h.1Zm.1 0v-.1.2Zm.3 0v.1h.1Zm.1-1.3v.3Zm0-.3Zm.1-1.2v.2l.1-.1Zm.3 2.8h-.3v.1l.3.1V35Zm.8-2.1-.5-.4h-.4v1.8l-.2.1.2.2h-.1v.2h.4l.1-.1h.2l.3-.3v-.7l.1-.3Zm-.8-.8v.1h.2V32Zm.4 0v.1h.1Zm0 3h.2Zm.4-3.1H25v.1h.2Zm1 1v.2l-.1.1h.1Zm0 .4v.2Zm0 .3v.1ZM30 32v.4h-1.7l-.1.3v.1l.1.2.2.2V33h.3l.5-.1h.3v.9h-1.2l-.1.2v.4l-.1.1v.1h.7l.2-.1h.8v.8h-1.3l-.2.1h-1.2V33l-.1-.4v-.9l.1-.2h.5v.1h.4v.1l.1-.1H30l.1.1Zm-1 3.2h.1Zm.4-1.8v.1l.1-.1ZM30 32l-.1-.1h-.3v.2h.4Zm-.2 2.8v.1l-.1.1.1.1.1-.2Zm4.2.6h-1.1v-.2l-.1-.1v-.2l-.2-.3h-.9l-.1.1-.2.3v.3l-.2.1h-.8V35l.2-.2v-.5l.2-.3v-.2h.2v-.6l.2-.2v-.4l.1-.2v-.2l.2-.2v-.3l.1-.2h1.2v.1l.2.3v.2l.1.2v.2l.1.2.1.5.2.3.1.5v.2h.1l.1.4-.1.1-.2.1v.2h-.2v.1h.5v-.3l.1.2.2.2v.2Zm-2.8-.9v.2l-.1.2h-.3l-.1.3v.2h.1v-.2h.4V35l.1-.1v-.3Zm.4-.9-.1.1-.2-.1-.2.2v.1h.2l.2-.1h.1Zm0-.8v-.1h-.1v.2h.2Zm1.3-.4-.2-.1v-.4h-.2l-.2-.1h-.4.2v-.1h-.3v.3h-.1l-.1.3h.2V32l.1.1h.4V32h-.1.5v.5h.2v.1Zm-.6.1h-.6l.1.2h.1l.1.1v.5l-.2.1.1.4h.4v-1.1h.1Zm-.3 1.6h-.2v.1h.2Zm0-2h-.2V32h.2Zm0 .6h-.2v-.1h.2Zm1 .2h-.1v.1h.1Zm0 .6v.2h.2-.1v.2h.2v-.3Zm.4 1.8h-.2.3Zm.1-1h-.1.2Zm4.1.2v.1l-.1.2v.1l-.4.4H37l-.3.1h-.3l-.1.1h-.5l-.2-.1H35l-.1-.1-.1-.2h-.2l-.2-.3v-2.1l-.1-.1v-.9l.1-.2h.2v.1h.2l.5-.2.1.1.1.2V34h-.2v.4h.5l.2.2h.6l.3-.3v-1.9l-.1-.6v-.2h.9v2.6h.1Zm-2.8-2.8h.1Zm.1 2.9Zm.6.4Zm.1-.1h.1Zm1 0h-.4v.2h-.1V35h-.3.2v.2l-.3-.1h-.1l.1.1h.5l.2-.2v.2-.1h.2Zm.7-.6v.1h-.1v.2l.2-.1v-.1Zm0-2.3v.2l.1-.1Zm0 .4v.2-.1Z" class="cls-2"/><path d="M59.8 24.9V3H58a14 14 0 0 1-3.5 0H32c-2.8.2-5.6.1-8.4 0l-1.4.2a7.4 7.4 0 0 1-2.5 0 14.9 14.9 0 0 1-2.7 0L13.6 3h-3.1c-.5.1 0 1-.2 1.3V5a.5.5 0 0 1 0 .5v1a184.5 184.5 0 0 1 0 3.6v1.4a9.4 9.4 0 0 1 0 1.3v.2c0 1.5-.2 3 0 4.5v9a27.9 27.9 0 0 0 0 1v8.9a1 1 0 0 0 .1.6 41.2 41.2 0 0 1 4.5 0c.8-.2 1.6.1 2.4 0 3.3-.2 6.7 0 10-.2 1.8.3 3.6-.2 5.5 0a45.7 45.7 0 0 1 7.2 0h11.5v-.2h-.2a9.2 9.2 0 0 1-2.7 0h-.1a8.9 8.9 0 0 1-2.6 0h-.1a4.8 4.8 0 0 1-2.1 0h-2.1c-.3-.1-1 .2-1.3-.3h5.5a35.6 35.6 0 0 1 4.8 0h.1a6.6 6.6 0 0 1 1.8 0 5.2 5.2 0 0 0 .7 0 1.3 1.3 0 0 1 .4 0h5.2V36a8.8 8.8 0 0 1 0-2.7v-.1a3.3 3.3 0 0 1 0-1.5v-3.5a14.4 14.4 0 0 1 0-2.2 8.7 8.7 0 0 1 0-1.1v-5a5.1 5.1 0 0 1 0-2.1v-4a13.7 13.7 0 0 1 0-1.7V7a1.8 1.8 0 0 1 0-1v-.2a5.1 5.1 0 0 1 0-2c0-.4-.5-.2-.8-.2a1.5 1.5 0 0 1-1 0h-1.3a2.8 2.8 0 0 1-1.2 0h-.1a5.8 5.8 0 0 1-1.4.1H42.3a23.9 23.9 0 0 1-2.5 0 5.9 5.9 0 0 1-2 0h-8.6l-.3.2a7.8 7.8 0 0 1 .8.1 1 1 0 0 0 .5.1 12.2 12.2 0 0 1 2-.2 1.4 1.4 0 0 1 .7.2 4 4 0 0 1 1 0A3.9 3.9 0 0 0 35 4a3.4 3.4 0 0 0 2 .1c.3-.2.8 0 1.2 0h.5a11 11 0 0 1 2 0 2.6 2.6 0 0 1 1.2 0 14.9 14.9 0 0 0 2 0h1.4a6.7 6.7 0 0 1 1.3 0l.6-.2a.2.2 0 0 1 .4.2h.6a49 49 0 0 0 4 0c2-.2 4.1 0 6.2 0v2.7a108.4 108.4 0 0 1 0 7V15a5.2 5.2 0 0 1 0 .6v1a4.7 4.7 0 0 1 0 1.3v7.5a73.3 73.3 0 0 1 0 5 11.4 11.4 0 0 1 0 1.4V36h-1.8a1.5 1.5 0 0 1-.7 0h-1.3a1.6 1.6 0 0 1-1 0h-8.2a20 20 0 0 0-2.4 0 42.9 42.9 0 0 1-4.7 0H37l-.3.1c-1.4.2-2.8-.1-4.3 0a.4.4 0 0 1-.5 0h-4.4a6.9 6.9 0 0 1-2 0H11.3v-3.3a5.4 5.4 0 0 1-.1-1.4V23l-.2 1.7v6.8a22.1 22.1 0 0 1 0 4.2l.1.5c.5 0 1 0 1.4.2h-2l.1-.5a1 1 0 0 0 0-.5 6.4 6.4 0 0 1 0-1.1v-.2a2 2 0 0 1 0-1.3 14 14 0 0 0 0-1.6 31.1 31.1 0 0 1 0-4.1v-5.2a16.8 16.8 0 0 1 0-2 15.1 15.1 0 0 1 0-1.7v-2.3a9.3 9.3 0 0 1 0-1.2V8.8a21.4 21.4 0 0 1 0-2.2V3.5h4a.5.5 0 0 1 .8 0H18a18.7 18.7 0 0 1 2 0h1c.2-.3.6-.2.8 0a4.2 4.2 0 0 0 1.5 0 2.4 2.4 0 0 1 1.6 0h.6a10 10 0 0 1 2.3-.1 8.1 8.1 0 0 1 1 0 37.2 37.2 0 0 1 2.8 0c.3-.2.5 0 .8 0h.3a30.6 30.6 0 0 1 4.2 0H42c.2-.3.6-.3.8 0h.2a15.9 15.9 0 0 1 3.4 0l.1-.1a8.7 8.7 0 0 1 2.7 0H54a8 8 0 0 1 2.6 0 19.7 19.7 0 0 0 2.6 0h.2v13.3c.3.1.2.5 0 .8v1.4a3.5 3.5 0 0 1 0 1.6v4.1a23.6 23.6 0 0 1 0 2.6v.8a103.2 103.2 0 0 1 0 5.6h.1v-.4a26.1 26.1 0 0 1 .1-3.7V25ZM36.4 36.3H39v.2c-.6 0-1.2.3-1.8 0-.2 0-1 .3-.8-.2Zm-1.8 0c.3.2 1-.2 1.1.2-.4 0-1 .4-1.2 0v-.1Zm-2.3 0a.4.4 0 0 1 .6.3H32a.4.4 0 0 1 .2-.2Zm-4.4 0c.2.1.8 0 .8.3 0-.2-1.3.2-.8-.3Zm-2.1 0c.1 0 .4 0 .4.2-.2.1-.6.1-.4-.1Zm-1.6.2a5.9 5.9 0 0 0-1.6.2c-.4 0 .1-.1 0-.2l-.1-.2c.5.2 1.3-.3 1.7.2Zm-2.3 0a2.8 2.8 0 0 1 .5 0c0 .3-.9.3-.5 0Zm-1.6-.2c.3.1.9-.2.8.3-.2-.1-.9.2-.8-.3Zm-5.3.1a4.5 4.5 0 0 1 2 0v.2h-4.1v-.3a8.5 8.5 0 0 1 2.1.1Z" class="cls-2"/><path d="M19.8 3.8c1 .2 2 0 3 .2h-4a5.2 5.2 0 0 1 1-.2Zm5.1 0a3.1 3.1 0 0 0 1.6 0 5.2 5.2 0 0 1 .6 0l1.3.1-.2.2h-4.5l1.2-.3ZM11.2 6.1a1.6 1.6 0 0 1 0 .4l.1 12.1v1.6c-.3-3.1 0-6.3-.1-9.4V6Zm41.3 8.2h.2c.4 0 .8.3 1.2.2.3 0 .5 0 .7-.2.2.5 1 .1 1.4.2h.1a3.7 3.7 0 0 1 1 .1c-.2 0-.3.2-.5.1-.5-.1-1 0-1.6 0h-1a7.3 7.3 0 0 0-1.5 0c-.6 0-1.2.3-1.8 0a29.2 29.2 0 0 0-3.6 0h-7.3a11.5 11.5 0 0 0-2 .1 6.8 6.8 0 0 1-.9 0h-6.4a5.4 5.4 0 0 0 0 .6V19c0 .4-.2 0-.1-.2a7.5 7.5 0 0 0 0-1.7 1.3 1.3 0 0 1-.1-.6 3 3 0 0 0 0-1.3v-.4c2.2-.2 4.4.1 6.7-.1h.4c.2.2.4 0 .7 0h.6l5-.1h.1a2.7 2.7 0 0 0 1 0 4.3 4.3 0 0 0 1.3 0c1.2 0 2.4-.2 3.6 0a7.5 7.5 0 0 0 1 0 3.8 3.8 0 0 0 .7 0l1.1-.2ZM40 19.2a10.8 10.8 0 0 1 1.1 0h6.5a.9.9 0 0 0 .7 0h7.4a9 9 0 0 0 1.3 0h.4v.2c-.6-.1-1.1.2-1.7 0H54a3.5 3.5 0 0 0-1.5 0 6.2 6.2 0 0 1-1.1 0h-9.3c-.3 0-.5-.2-.7 0-.8.3-1.7 0-2.5.1-1.2 0-2.4.2-3.5 0H34a3.5 3.5 0 0 1-1.1 0 11.9 11.9 0 0 0-1.7 0 3.2 3.2 0 0 1-1.3 0H22c-.2 0-.3-.1-.4 0h-.1a21.3 21.3 0 0 1-3.4 0H18c-.4 0-1-.2-1.3.2a1.4 1.4 0 0 0-.5-.3 12.2 12.2 0 0 0 2 0l2.8-.1h17a12 12 0 0 0 2-.1Zm-26.7.2h.1a4.1 4.1 0 0 1 1.2 0l-1.3.1Zm1.7 0h1c0 .2-.3 0-.4.1H15v-.1Zm-3.7 3.4a5.2 5.2 0 0 1 0-2v2Z" class="cls-2"/></svg>