<svg xmlns="http://www.w3.org/2000/svg" viewBox="0 0 31.568 48.6787"><defs><style>.cls-1{fill:#c7076f}</style></defs><g id="Layer_2" data-name="Layer 2"><g id="Layer_1-2" data-name="Layer 1"><path id="path40" d="M15.8096 44.8905a12.0653 12.0653 0 0 1-11.6059-9.2226 17.5322 17.5322 0 0 1-.3688-2.8645 18.8251 18.8251 0 0 1 .3491-2.8822 11.974 11.974 0 0 1 23.5958 2.8538v2.8977H10.2741a6.0081 6.0081 0 0 0 5.5355 3.1568h15.7368l.0216-17.087a4.6452 4.6452 0 0 0-4.6317-4.6318H4.632A4.5918 4.5918 0 0 0 .0001 21.662L0 21.6793v22.3044a4.7 4.7 0 0 0 4.632 4.695h22.3044a4.613 4.613 0 0 0 4.5617-3.7882Z" class="cls-1"/><path id="path44" d="M15.7841 26.4997a6.4335 6.4335 0 0 0-5.5283 3.3644h11.057a6.4334 6.4334 0 0 0-5.5287-3.3644" class="cls-1"/><path id="path48" d="M25.8858 9.8574A9.983 9.983 0 0 0 15.7811.0008 9.9895 9.9895 0 0 0 5.6828 9.5883a.6327.6327 0 0 0-.0005.0675v2.962a.7005.7005 0 0 0 .6517.7047h3.7177a.7265.7265 0 0 0 .6816-.7046V9.8574a5.0524 5.0524 0 0 1 10.1018 0v2.7605a.7056.7056 0 0 0 .6577.7046h3.7177a.721.721 0 0 0 .6754-.7046Z" class="cls-1"/></g></g></svg>