<svg xmlns="http://www.w3.org/2000/svg" viewBox="0 0 242 150"><path fill="#d70080" d="M0 0h242v150H0z"/><g fill="#fff"><path d="M34.707 76.2148c0 4.4844.3125 9.2696.2422 13.8282 1.7656.4414 3.6172.375 5.3516-.1875C42.3359 88.543 42.078 85 41.5664 80.457c-.8945-4.543-3.5742-4.5703-6.8594-4.2851m0-21.4297c-.2304 5.4883 0 10.871 0 15.9453 1.422 0 4.6094.1836 5.336-1.1172 1.793-3.2148 1.5664-8.414.6718-12.4687-.6406-2.7735-3.8867-2.5-6.0507-2.3594m7.4023 41.1016c-4.2734 0-9.039.328-13.539 0 0-12.8594 0-28.3711.1562-41.1876-2.6172 0-4.4961-.1289-5.6953-.1132a30.5272 30.5272 0 0 1 0-5.914h5.9219c5.4687 0 13.996-1.1563 16.2578 3.0702 2.8476 5.3438 2.0078 13.7422 1.0117 17.1446-.3672 1.5546-1.207 2.9609-2.4063 4.0117 5.0977 2.7734 5.4961 15.3593 3.332 20-.8984 1.9687-2.8867 3.1992-5.039 3.1289m16.9531-52v4.5c0 2.1875.3985 5.3164.668 9.6172a42.3791 42.3791 0 0 0 3.6328-12.8594c.625-6.2149-4.371-4.5547-4.2734-1.1992m7.1172 46.1445c1.3554-.7305 3.0468-2.457 7.6445-9.3008a14.2807 14.2807 0 0 1 2.5937 3.2695c-3.8437 7.5586-6.7187 10.4141-8.3164 11.4297-2.7617 1.8555-12.5976 2.3125-13.293-4.2851a85.0853 85.0853 0 0 1-.6992-10.2149c-.2265-6.2578 0-13.1132-.668-33.1445.1993-3.1289-1.1679-9.8398 4.2696-11.6719 2.2227-.7422 8.9258-1.6406 10.2227 3.9024 1.4218 6.0703-.0743 8.871-1.797 13.8437-1.207 3.6836-2.5038 5.6407-5.5624 12.586-.129 4.3828.539 14.7695 1.1797 22.2109.1289 1.832 2.7617 2.1602 4.3984 1.3164"/><path d="M83.9883 68.4844c-.4844-1.457-.2266-3.0586.6992-4.2852-3.375-.2578-4.7852 1.1133-4.8125 3.2422-.1563 6.6172-.4844 20.8008.1563 22.0313.7539 1.4257 5.8789 1.7695 6.418-.6602.6523-5.7695.8984-11.5781.7265-17.3828-1.4883-.3828-2.6836-1.4883-3.1875-2.9453m9.3242 5.5742c-.086 2.8555-.2852 5.5-.3828 7.1406-.2305 5.5586-.5977 9.5156-1.3242 11-1.4258 2.8594-4.3985 4.0703-8.8828 4.1719-3.1329.1016-8.4415-1.1563-8.9844-4.457-.4844-2.6446-.2695-9.629-.1406-14 .125-4.6016.3125-8.9844.5546-13.4727.1993-3.6719 3.3165-4.8828 7.1172-5.1562 2.4493-.1993 11.7149-1.543 12.0157 6.4843 1.039.5313 2.4453 0 4.2695-.3984a23.1794 23.1794 0 0 0 6.1797-2.6016 32.843 32.843 0 0 1 1.293 4.289 12.6974 12.6974 0 0 1-5.5508 3.2423 16.6752 16.6752 0 0 1-6.1914.8984v2.8594"/><path d="M110.211 64.957c-2.6055.5-2.9493 6.4727-3.1055 8.7735 1.9375 0 3.871.082 5.453-1.2461 1.129-1.3125 1.7032-3.0117 1.6095-4.7422 0-2.8555-1.793-3.2266-3.957-2.8555m-3.5587 14.2852c-.4296 3.3125-.8828 8.043.8399 9.8554 2.4023 2.5157 7.8125 3.6446 16.9258-8.7421 1.0898.9882 2.0078 2.1562 2.703 3.457-10.4062 18.5703-22.535 11.6445-24.1991 10.1875-3.504-3.3281-2.6211-12.5-2.164-18.5742.5546-6.6836 1.4218-14.6133 6.0937-15.7852 3.7578-.9258 8.6406-.9844 10.9453 1.9453 2.3047 2.9258 2.0625 12.043-1.9492 15.0977-3.504 2.6875-6.0665 2.2422-9.254 2.5156"/><path d="M144.3047 94.6133a44.9076 44.9076 0 0 1-6.3203 0c-.586-8.086-.4844-14.6992-.9844-25.2149-.1406-2.957-3.543-2.2109-4.2695-1.6132-1.336.7578-2.3125 2.0273-2.707 3.5156l.4726 23.6836h-6.3945c-.5547-10.7422-.6797-23.8555-.8086-35.7149a46.7484 46.7484 0 0 1 6.3203-.1133l.2265 5.3711c2.1915-3.043 6.25-6.6835 10.5352-4.7265 1.5469 1.0586 2.582 2.7226 2.8477 4.586 1.4218-2.1446 3.246-5.1173 7.457-4.9298 2.3555.457 4.2617 2.1914 4.9414 4.5a207.0932 207.0932 0 0 1 1.082 22.5c.1406 3.8438 4.2696 1.4297 8.754-6.586a13.048 13.048 0 0 1 2.9335 3.4571c-3.246 5.9414-7.5156 11.5274-12.8125 11.7735-3.7578.1562-4.3437-.7305-4.668-5.5-.543-8.5743.125-11.0586-.9413-20.5-.3711-3.543-4.3985-2.3711-6.0782 1.4257.4414 9.3868.3281 16.0586.414 24.1016"/><path d="M173.9844 64.2852c-2.6055.5-2.9492 6.4726-3.1055 8.7851 1.9375 0 3.875 0 5.4531-1.2422a6.7 6.7 0 0 0 1.6094-4.6836c0-2.8593-1.793-3.2304-3.957-2.8593m-3.5586 14.2851c-.4297 3.3164-.8828 8.043.8398 9.8594 2.4063 2.5117 7.7735 3.6406 16.9258-8.7422 1.0938.9844 2.0078 2.1563 2.7031 3.457-10.3906 18.5703-22.5351 11.625-24.1992 10.168-3.5-3.3281-2.621-12.5-2.164-18.5703.5546-6.6836 1.4218-14.6133 6.1054-15.7149 3.7461-.914 8.6406-.9687 10.9336 1.957 2.293 2.9298 2.0664 11.8712-1.8906 14.9884-3.504 2.6992-6.0664 2.2578-9.254 2.5273"/><path d="M201.1172 67.6563c-.8984-4-5.125 0-7.4336 2.4453.5273 7.1406 1 14.9414 1.539 23.7421-2.6757.3868-4.2695.5704-6.5351.8282l-1.7227-36.2578c1.793-.2227 3.5938-.3438 5.3985-.3555.1836 1.4258.1406 3.2539.5664 5.711 2.3203-2.0821 5.9219-5.9688 10.3633-4.8985 4.4414 1.0703 4.1015 11.4297 4.2734 16.6875.1992 3.8984.4414 11.3398.9102 11.9844 1.3242 1.871 4.5273-2.3555 7.7148-8.3008 1.1133 1.0703 2.0703 2.293 2.8477 3.6289A27.0479 27.0479 0 0 1 211.9219 93c-3.2344 2.5703-9.125 3.9414-9.8242-3.1992-.8946-9.2149-.6524-20.6875-1.0118-22.2149M125.5 31.7852c-.9648.2187-1.961-.2305-2.4375-1.0977-.7266-1.0664-.6133-2.496.2734-3.4297 1.5079-1.5703 3.9258 0 4.043 1.8008.082 1.4258-.8828 2.1289-1.8789 2.7266m1.6367 5.2578a2.4279 2.4279 0 0 1-.7265-2.6563c.3046-1.2422 1.4648-2.0742 2.7343-1.957 2.1328.2266 2.4766 3.1719 1.207 4.3828-1.0077.9883-2.1327.6445-3.2148.2305m-2.8633 4.6562c-.0273-1 .5782-1.914 1.5079-2.2695 1.1523-.5313 2.5195-.1211 3.1914.957.4335.832.3828 1.836-.1368 2.6172a2.5641 2.5641 0 0 1-2.3554 1.1406c-1.422-.1875-1.836-1.3164-2.207-2.4453m-5.3087.6133c.7305-.6602 1.8125-.754 2.6485-.2266 1.1328.6094 1.6836 1.9336 1.3242 3.172-.629 2.1288-3.4883 1.8984-4.3867.371-.539-1.086-.379-2.3945.414-3.3164m-3.8281-3.7422c.9766.1953 1.7227.9961 1.8477 1.9883.293 1.2539-.3477 2.539-1.5235 3.0547-1.9765.8594-3.6289-1.586-3.0586-3.2696.4415-1.4296 1.5938-1.6132 2.7344-1.7734M115.5781 33c.461.875.3555 1.9492-.2734 2.7148-.75 1.0196-2.1367 1.3282-3.2461.7149-1.8906-1.0586-1.1211-3.914.5-4.543 1.2969-.5 2.207.2695 3.0586 1.086m4.3438-3.1289a2.281 2.281 0 0 1-2.2344 1.5c-1.2774.0195-2.375-.8985-2.5899-2.1563-.1094-.9336.3125-1.8477 1.0899-2.3672a2.4731 2.4731 0 0 1 2.5937-.1055c1.1992.7149 1.211 1.9297 1.1406 3.129m2.8204 8.5976c-.7383.6563-1.8165.7461-2.6485.2148-1.1367-.6054-1.6797-1.9374-1.2969-3.1718.625-2.129 3.4883-1.8828 4.3711-.3555.539 1.0898.3711 2.3984-.4257 3.3125m-42.3516 75.2891c-1.4649-1.4063-3.3867-2.2227-5.4102-2.3008-1.3398-.0899-2.6601.3633-3.668 1.2539-1.0038.8945-1.6093 2.1562-1.6835 3.5039 0 2.1133 1.7343 4.5977 5.6953 4.5977a9.674 9.674 0 0 0 5.6914-2l1.2266 2.6445a12.524 12.524 0 0 1-6.9766 2.2148c-4.582 0-8.3711-2.6015-8.3711-7.5312 0-4.9258 4.4297-7.543 8.2148-7.543a10.4574 10.4574 0 0 1 6.8907 2.6875Zm10.6758 3.6133h5.2539l-2.6211-5.586ZM91.8906 109h3.629l6.6913 14.1563h-3.078l-1.422-2.9844h-7.9296l-1.422 2.9844h-3.0468Zm16.6836 11.3125h4.6524c1.1484.0898 2.2734-.3398 3.078-1.168a3.9122 3.9122 0 0 0 1.0782-3.1172 3.7049 3.7049 0 0 0-1.043-3.125c-.8164-.8203-1.9687-1.2148-3.1132-1.0585h-4.6524ZM113.2266 109c3.1328 0 6.8906 1.586 6.8906 6.8555 0 4.6718-2.8477 7.3007-6.8906 7.3007h-7.3868V109Zm23.9024 0v2.8438h-9.3673v2.5703h4.9531v2.8437h-4.953v3.0547h9.6952v2.8438h-12.4297V109Zm9.621 8.3438h5.2695l-2.6328-5.586Zm.7969-8.3438h3.6328l6.6914 14.1563H154.75l-1.4219-2.9844h-7.9726l-1.422 2.9844h-3.0038Zm17.0976 0v8.5703c0 1.6875.4297 3.1445 3.8438 3.1445 3.418 0 3.8437-1.6132 3.8437-3.1445V109h2.7618v8.5703c0 2.9727-1.422 5.9883-6.6055 5.9883-4.7383 0-6.5469-2.629-6.5469-5.9883V109Zm-125.0547 7.8438c-.7421.6445-1.8164.7343-2.6484.2148-1.1562-.5898-1.7266-1.9258-1.3516-3.1719.625-2.1289 3.4844-1.8867 4.3829-.371.5312 1.0976.3593 2.4062-.4415 3.328m8.4141.0001c-.7422.6445-1.8164.7343-2.6484.2148-1.1328-.6133-1.6719-1.9414-1.2969-3.1719.6406-2.1289 3.4883-1.8867 4.3867-.371.5313 1.0976.3555 2.4062-.4414 3.328m8.3555.0001a2.2337 2.2337 0 0 1-2.6485.2148c-1.1289-.6133-1.6718-1.9414-1.2968-3.1719.6406-2.1289 3.4883-1.8867 4.3867-.371.5312 1.0976.3594 2.4062-.4414 3.328m132.7032.0001a2.2519 2.2519 0 0 1-2.6642.2148c-1.121-.6211-1.6601-1.9414-1.2968-3.1719.6406-2.1289 3.4882-1.8867 4.3867-.371.5351 1.0937.3672 2.4023-.4258 3.328m8.3555.0001c-.7422.6445-1.8164.7343-2.6485.2148-1.1328-.6133-1.6797-1.9375-1.3086-3.1719.6407-2.1289 3.4844-1.8867 4.3829-.371.5351 1.0937.3671 2.4023-.4258 3.328m8.3554.0001c-.7421.6445-1.8164.7343-2.6484.2148-1.1328-.6133-1.6797-1.9375-1.3086-3.1719.6406-2.1289 3.4883-1.8867 4.3828-.371.5352 1.0937.3672 2.4023-.4258 3.328"/></g></svg>