<svg xmlns="http://www.w3.org/2000/svg" viewBox="0 0 39.6875 18.5208"><defs><clipPath id="a" clipPathUnits="userSpaceOnUse"/></defs><path fill="#184285" d="M36.4963 11.3974V2.9086C36.4963 1.4613 35.38.285 34.005.285H3.012C1.6364.285.5142 1.4613.5142 2.9086v9.4756c0 1.4477 1.1222 2.6247 2.4978 2.6247h2.164v.821c0 1.326 1.015 2.4063 2.265 2.4063h29.4584c1.253 0 2.2739-1.0803 2.2739-2.4063v-2.0175c0-1.3282-1.0132-2.415-2.2629-2.415h-.414"/><path fill="#fff" d="M36.9104 11.682c1.0907 0 1.9783.9557 1.9783 2.1304V15.83c0 1.17-.8924 2.1217-1.9893 2.1217H7.441c-1.092 0-1.9805-.9518-1.9805-2.1217v-1.1056H3.012c-1.2202 0-2.2129-1.0498-2.2129-2.34V2.9085c0-1.2896.9927-2.339 2.213-2.339h30.993c1.2165 0 2.2066 1.0494 2.2066 2.339v8.7734zm-.1295-.2846V2.9086C36.781 1.305 35.5358 0 34.005 0H3.012C1.4777 0 .2296 1.3049.2296 2.9086v9.4756c0 1.6041 1.2481 2.9093 2.7824 2.9093h2.164l-.2847-.2846v.821c0 1.4837 1.1436 2.691 2.5497 2.691h29.4584c1.411 0 2.5585-1.2073 2.5585-2.691v-2.0175c0-1.4889-1.1426-2.7-2.5475-2.7h-.414l.2845.285"/><g clip-path="url(#a)" transform="matrix(.32452 0 0 -.32452 -224.243 103.945)"><path fill="#b3dcf5" d="m735.019 312.211-20.808 6.361h20.808v-6.361"/><path fill="#b3dcf5" d="m735.019 312.109-21.139 6.463h.331l20.808-6.361v-.102"/><path fill="#b2dbf5" d="m735.019 312.008-21.469 6.564h.33l21.139-6.463v-.101"/><path fill="#b1dbf5" d="m735.019 311.907-21.8 6.665h.331l21.469-6.564v-.101"/><path fill="#b0daf4" d="m735.019 311.806-22.132 6.766h.332l21.8-6.665v-.101"/><path fill="#afdaf4" d="m735.019 311.706-22.462 6.866h.33l22.132-6.766v-.1"/><path fill="#aed9f4" d="m735.019 311.604-22.793 6.968h.331l22.462-6.866v-.102"/><path fill="#add9f4" d="m735.019 311.503-23.123 7.069h.33l22.793-6.968v-.101"/><path fill="#acd9f4" d="m735.019 311.402-23.454 7.17h.331l23.123-7.069v-.101"/><path fill="#abd8f4" d="m735.019 311.301-23.785 7.271h.331l23.454-7.17v-.101"/><path fill="#aad8f4" d="m735.019 311.2-24.116 7.372h.331l23.785-7.271v-.101"/><path fill="#a9d7f3" d="m735.019 311.098-24.447 7.474h.331l24.116-7.372v-.102"/><path fill="#a8d7f3" d="m735.019 310.997-24.778 7.575h.331l24.447-7.474v-.101"/><path fill="#a7d6f3" d="m735.019 310.896-25.109 7.676h.331l24.778-7.575v-.101"/><path fill="#a6d6f3" d="m735.019 310.794-25.44 7.778h.331l25.109-7.676v-.102"/><path fill="#a5d6f3" d="m735.019 310.693-25.771 7.879h.331l25.44-7.778v-.101"/><path fill="#a4d5f3" d="m735.019 310.592-26.102 7.98h.331l25.771-7.879v-.101"/><path fill="#a3d5f3" d="m735.019 310.492-26.431 8.08h.329l26.102-7.98v-.1"/><path fill="#a2d4f3" d="m735.019 310.39-26.762 8.182h.331l26.431-8.08v-.102"/><path fill="#a1d4f2" d="m735.019 310.29-27.093 8.282h.331l26.762-8.182v-.1"/><path fill="#a0d3f2" d="m735.019 310.188-27.424 8.384h.331l27.093-8.282v-.102"/><path fill="#9fd3f2" d="m735.019 310.087-27.755 8.485h.331l27.424-8.384v-.101"/><path fill="#9ed3f2" d="m735.019 309.986-28.086 8.586h.331l27.755-8.485v-.101"/><path fill="#9dd2f2" d="m735.019 309.885-28.417 8.687h.331l28.086-8.586v-.101"/><path fill="#9cd2f2" d="m735.019 309.783-28.748 8.789h.331l28.417-8.687v-.102"/><path fill="#9bd1f2" d="m735.019 309.682-29.078 8.89h.33l28.748-8.789v-.101"/><path fill="#9ad1f2" d="m735.019 309.581-29.41 8.991h.332l29.078-8.89v-.101"/><path fill="#99d0f1" d="m735.019 309.48-29.739 9.092h.329l29.41-8.991v-.101"/><path fill="#98d0f1" d="m735.019 309.378-30.071 9.194h.332l29.739-9.092v-.102"/><path fill="#97d0f1" d="m735.019 309.277-30.401 9.295h.33l30.071-9.194v-.101"/><path fill="#96cff1" d="m735.019 309.176-30.732 9.396h.331l30.401-9.295v-.101"/><path fill="#95cff1" d="m735.019 309.075-31.064 9.497h.332l30.732-9.396v-.101"/><path fill="#94cef1" d="m735.019 308.975-31.394 9.597h.33l31.064-9.497v-.1"/><path fill="#93cef1" d="m735.019 308.873-31.725 9.699h.331l31.394-9.597v-.102"/><path fill="#92cdf1" d="m735.019 308.772-32.056 9.8h.331l31.725-9.699v-.101"/><path fill="#91cdf0" d="m735.019 308.671-32.387 9.901h.331l32.056-9.8v-.101"/><path fill="#90cdf0" d="M735.019 308.57 702.3 318.572h.332l32.387-9.901v-.101"/><path fill="#8fccf0" d="m735.019 308.469-33.049 10.103h.33l32.719-10.002v-.101"/><path fill="#8eccf0" d="m735.019 308.367-33.379 10.205h.33l33.049-10.103v-.102"/><path fill="#8dcbf0" d="m735.019 308.266-33.71 10.306h.331l33.379-10.205v-.101"/><path fill="#8ccbf0" d="m735.019 308.165-34.041 10.407h.331l33.71-10.306v-.101"/><path fill="#8bcbf0" d="m735.019 308.064-34.371 10.508h.33l34.041-10.407v-.101"/><path fill="#8acaf0" d="m735.019 307.962-34.703 10.61h.332l34.371-10.508v-.102"/><path fill="#89caef" d="m735.019 307.861-35.034 10.711h.331l34.703-10.61v-.101"/><path fill="#88c9ef" d="m735.019 307.76-35.364 10.812h.33l35.034-10.711v-.101"/><path fill="#87c9ef" d="m735.019 307.66-35.696 10.912h.332l35.364-10.812v-.1"/><path fill="#86c9ef" d="m735.019 307.557-36.027 11.015h.331l35.696-10.912v-.103"/><path fill="#85c8ef" d="m735.019 307.457-36.357 11.115h.33l36.027-11.015v-.1"/><path fill="#84c8ef" d="m735.019 307.356-36.689 11.216h.332l36.357-11.115v-.101"/><path fill="#83c7ef" d="m735.019 307.255-37.018 11.317h.329l36.689-11.216v-.101"/><path fill="#82c7ef" d="m735.019 307.154-37.351 11.418h.333l37.018-11.317v-.101"/><path fill="#81c6ee" d="m735.019 307.052-37.68 11.52h.329l37.351-11.418v-.102"/><path fill="#80c6ee" d="m735.019 306.951-38.011 11.621h.331l37.68-11.52v-.101"/><path fill="#7fc6ee" d="m735.019 306.85-38.342 11.722h.331l38.011-11.621v-.101"/><path fill="#7ec5ee" d="m735.019 306.749-38.673 11.823h.331l38.342-11.722v-.101"/><path fill="#7dc5ee" d="m735.019 306.647-39.004 11.925h.331l38.673-11.823v-.102"/><path fill="#7cc4ee" d="m735.019 306.546-39.335 12.026h.331l39.004-11.925v-.101"/><path fill="#7bc4ee" d="m735.019 306.445-39.666 12.127h.331l39.335-12.026v-.101"/><path fill="#7ac4ee" d="m735.019 306.345-39.997 12.227h.331l39.666-12.127v-.1"/><path fill="#79c3ed" d="m735.019 306.242-40.327 12.33h.33l39.997-12.227v-.103"/><path fill="#78c3ed" d="m735.019 306.143-40.657 12.429h.33l40.327-12.33v-.099"/><path fill="#78c2ed" d="m735.019 306.042-40.99 12.53h.333l40.657-12.429v-.101"/><path fill="#77c2ed" d="m735.019 305.94-41.31 12.629.001.003h.319l40.99-12.53v-.102"/><path fill="#76c2ed" d="m735.019 305.839-41.337 12.638.027.092 41.31-12.629v-.101"/><path fill="#75c1ed" d="m735.019 305.738-41.366 12.646.029.093 41.337-12.638v-.101"/><path fill="#74c1ed" d="m735.019 305.636-41.395 12.656.029.092 41.366-12.646v-.102"/><path fill="#73c0ed" d="M735.019 305.535 693.597 318.2l.027.092 41.395-12.656v-.101"/><path fill="#72c0ec" d="m735.019 305.434-41.451 12.672.029.094 41.422-12.665v-.101"/><path fill="#71c0ec" d="m735.019 305.333-41.48 12.681.029.092 41.451-12.672v-.101"/><path fill="#70bfec" d="m735.019 305.231-41.508 12.691.028.092 41.48-12.681v-.102"/><path fill="#6fbfec" d="m735.019 305.13-41.535 12.7.027.092 41.508-12.691v-.101"/><path fill="#6ebfec" d="m735.019 305.029-41.564 12.708.029.093 41.535-12.7v-.101"/><path fill="#6dbeec" d="m735.019 304.928-41.593 12.716.029.093 41.564-12.708v-.101"/><path fill="#6cbeec" d="m735.019 304.828-41.62 12.724v.001l.027.091 41.593-12.716v-.1"/><path fill="#6bbdec" d="m735.019 304.727-41.62 12.723v.102l41.62-12.724v-.101"/><path fill="#6abdeb" d="m735.019 304.625-41.62 12.724v.101l41.62-12.723v-.102"/><path fill="#69bdeb" d="m735.019 304.524-41.62 12.724v.101l41.62-12.724v-.101"/><path fill="#68bceb" d="m735.019 304.423-41.62 12.724v.101l41.62-12.724v-.101"/><path fill="#68bceb" d="m735.019 304.32-41.62 12.725v.102l41.62-12.724v-.103"/><path fill="#67baea" d="m735.019 304.219-41.62 12.725v.101l41.62-12.725v-.101"/><path fill="#65b8e8" d="m735.019 304.117-41.62 12.724v.103l41.62-12.725v-.102"/><path fill="#64b5e7" d="m735.019 304.015-41.62 12.725v.101l41.62-12.724v-.102"/><path fill="#62b3e5" d="m735.019 303.913-41.62 12.724v.103l41.62-12.725v-.102"/><path fill="#61b1e4" d="m735.019 303.812-41.62 12.724v.101l41.62-12.724v-.101"/><path fill="#60afe2" d="m735.019 303.71-41.62 12.725v.101l41.62-12.724v-.102"/><path fill="#5eade1" d="m735.019 303.608-41.62 12.724v.103l41.62-12.725v-.102"/><path fill="#5daadf" d="m735.019 303.507-41.62 12.724v.101l41.62-12.724v-.101"/><path fill="#5ca8de" d="m735.019 303.404-41.62 12.725v.102l41.62-12.724v-.103"/><path fill="#5aa6dc" d="m735.019 303.303-41.62 12.724v.102l41.62-12.725v-.101"/><path fill="#59a4db" d="m735.019 303.202-41.62 12.723v.102l41.62-12.724v-.101"/><path fill="#58a2d9" d="m735.019 303.099-41.62 12.725v.101l41.62-12.723v-.103"/><path fill="#57a1d8" d="m735.019 302.998-41.62 12.723v.103l41.62-12.725v-.101"/><path fill="#559fd7" d="m735.019 302.895-41.62 12.725v.101l41.62-12.723v-.103"/><path fill="#549dd5" d="m735.019 302.794-41.62 12.725v.101l41.62-12.725v-.101"/><path fill="#539bd4" d="m735.019 302.692-41.62 12.724v.103l41.62-12.725v-.102"/><path fill="#5299d3" d="m735.019 302.59-41.62 12.725v.101l41.62-12.724v-.102"/><path fill="#5197d1" d="m735.019 302.488-41.62 12.726v.101l41.62-12.725v-.102"/><path fill="#5096d0" d="m735.019 302.386-41.62 12.725v.103l41.62-12.726v-.102"/><path fill="#4f94cf" d="m735.019 302.284-41.62 12.725v.102l41.62-12.725v-.102"/><path fill="#4e92ce" d="m735.019 302.183-41.62 12.724v.102l41.62-12.725v-.101"/><path fill="#4c91cc" d="m735.019 302.08-41.62 12.725v.102l41.62-12.724v-.103"/><path fill="#4b8fcb" d="m735.019 301.979-41.62 12.724v.102l41.62-12.725v-.101"/><path fill="#4a8dca" d="m735.019 301.878-41.62 12.723v.102l41.62-12.724v-.101"/><path fill="#498cc9" d="m735.019 301.775-41.62 12.725v.101l41.62-12.723v-.103"/><path fill="#488ac8" d="m735.019 301.674-41.62 12.723v.103l41.62-12.725v-.101"/><path fill="#4789c6" d="m735.019 301.572-41.62 12.724v.101l41.62-12.723v-.102"/><path fill="#4687c5" d="m735.019 301.47-41.62 12.725v.101l41.62-12.724v-.102"/><path fill="#4586c4" d="m735.019 301.368-41.62 12.724v.103l41.62-12.725v-.102"/><path fill="#4584c3" d="m735.019 301.267-41.62 12.724v.101l41.62-12.724v-.101"/><path fill="#4483c2" d="m735.019 301.164-41.62 12.725v.102l41.62-12.724v-.103"/><path fill="#4381c1" d="m735.019 301.063-41.62 12.724v.102l41.62-12.725v-.101"/><path fill="#4280c0" d="m735.019 300.96-41.62 12.726v.101l41.62-12.724v-.103"/><path fill="#417fbf" d="m735.019 300.859-41.62 12.725v.102l41.62-12.726v-.101"/><path fill="#407dbd" d="m735.019 300.758-41.62 12.724v.102l41.62-12.725v-.101"/><path fill="#3f7cbc" d="m735.019 300.655-41.62 12.725v.102l41.62-12.724v-.103"/><path fill="#3e7bbb" d="m735.019 300.554-41.62 12.725v.101l41.62-12.725v-.101"/><path fill="#3e79ba" d="m735.019 300.453-41.62 12.723v.103l41.62-12.725v-.101"/><path fill="#3d78b9" d="m735.019 300.35-41.62 12.725v.101l41.62-12.723v-.103"/><path fill="#3c77b8" d="m735.019 300.248-41.62 12.724v.103l41.62-12.725v-.102"/><path fill="#3b76b7" d="m735.019 300.147-41.62 12.724v.101l41.62-12.724v-.101"/><path fill="#3a75b6" d="m735.019 300.044-41.62 12.726v.101l41.62-12.724v-.103"/><path fill="#3a73b5" d="m735.019 299.943-41.62 12.724v.103l41.62-12.726v-.101"/><path fill="#3972b4" d="m735.019 299.841-41.62 12.725v.101l41.62-12.724v-.102"/><path fill="#3871b3" d="m735.019 299.739-41.62 12.725v.102l41.62-12.725v-.102"/><path fill="#3770b2" d="m735.019 299.638-41.62 12.724v.102l41.62-12.725v-.101"/><path fill="#376fb2" d="m735.019 299.535-41.62 12.725v.102l41.62-12.724v-.103"/><path fill="#366eb1" d="m735.019 299.434-41.62 12.724v.102l41.62-12.725v-.101"/><path fill="#356db0" d="m735.019 299.333-41.62 12.723v.102l41.62-12.724v-.101"/><path fill="#356caf" d="m735.019 299.23-41.62 12.725v.101l41.62-12.723v-.103"/><path fill="#346bae" d="m735.019 299.129-41.62 12.723v.103l41.62-12.725v-.101"/><path fill="#336aad" d="m735.019 299.028-41.62 12.723v.101l41.62-12.723v-.101"/><path fill="#3369ac" d="m735.019 298.925-41.62 12.725v.101l41.62-12.723v-.103"/><path fill="#3268ab" d="m735.019 298.824-41.62 12.723v.103l41.62-12.725v-.101"/><path fill="#3167ab" d="m735.019 298.722-41.62 12.724v.101l41.62-12.723v-.102"/><path fill="#3166aa" d="m735.019 298.619-41.62 12.726v.101l41.62-12.724v-.103"/><path fill="#3065a9" d="m735.019 298.518-41.62 12.724v.103l41.62-12.726v-.101"/><path fill="#3064a8" d="m735.019 298.415-41.62 12.726v.101l41.62-12.724v-.103"/><path fill="#2f63a7" d="m735.019 298.314-41.62 12.725v.102l41.62-12.726v-.101"/><path fill="#2e62a7" d="m735.019 298.213-41.62 12.723v.103l41.62-12.725v-.101"/><path fill="#2e62a6" d="m735.019 298.11-41.62 12.725v.101l41.62-12.723v-.103"/><path fill="#2d61a5" d="m735.019 298.009-41.62 12.725v.101l41.62-12.725v-.101"/><path fill="#2d60a4" d="m735.019 297.906-41.62 12.725v.103l41.62-12.725v-.103"/><path fill="#2c5fa4" d="m735.019 297.805-41.62 12.725v.101l41.62-12.725v-.101"/><path fill="#2c5ea3" d="m735.019 297.704-41.62 12.723v.103l41.62-12.725v-.101"/><path fill="#2b5ea2" d="m735.019 297.601-41.62 12.725v.101l41.62-12.723v-.103"/><path fill="#2b5da1" d="m735.019 297.499-41.62 12.724v.103l41.62-12.725v-.102"/><path fill="#2a5ca1" d="m735.019 297.398-41.62 12.724v.101l41.62-12.724v-.101"/><path fill="#2a5ba0" d="m735.019 297.295-41.62 12.726v.101l41.62-12.724v-.103"/><path fill="#295b9f" d="m735.019 297.194-41.62 12.724v.103l41.62-12.726v-.101"/><path fill="#295a9f" d="m735.019 297.093-41.62 12.724v.101l41.62-12.724v-.101"/><path fill="#28599e" d="m735.019 296.99-41.62 12.725v.102l41.62-12.724v-.103"/><path fill="#28599d" d="m735.019 296.889-41.62 12.724v.102l41.62-12.725v-.101"/><path fill="#27589d" d="m735.019 296.788-41.62 12.724v.101l41.62-12.724v-.101"/><path fill="#27579c" d="m735.019 296.685-41.62 12.725v.102l41.62-12.724v-.103"/><path fill="#27579c" d="m735.019 296.584-41.62 12.723v.103l41.62-12.725v-.101"/><path fill="#26569b" d="m735.019 296.481-41.62 12.725v.101l41.62-12.723v-.103"/><path fill="#26559a" d="m735.019 296.38-41.62 12.725v.101l41.62-12.725v-.101"/><path fill="#25559a" d="m735.019 296.278-41.62 12.724v.103l41.62-12.725v-.102"/><path fill="#255499" d="m735.019 296.176-41.62 12.725v.101l41.62-12.724v-.102"/><path fill="#255499" d="m735.019 296.074-41.62 12.726v.101l41.62-12.725v-.102"/><path fill="#245398" d="m735.019 295.973-41.62 12.724v.103l41.62-12.726v-.101"/><path fill="#245397" d="m735.019 295.87-41.62 12.726v.101l41.62-12.724v-.103"/><path fill="#235297" d="m735.019 295.769-41.62 12.724v.103l41.62-12.726v-.101"/><path fill="#235296" d="m735.019 295.668-41.62 12.724v.101l41.62-12.724v-.101"/><path fill="#235196" d="m735.019 295.565-41.62 12.725v.102l41.62-12.724v-.103"/><path fill="#225095" d="m735.019 295.464-41.62 12.723v.103l41.62-12.725v-.101"/><path fill="#225095" d="m735.019 295.361-41.62 12.725v.101l41.62-12.723v-.103"/><path fill="#225094" d="m735.019 295.26-41.62 12.725v.101l41.62-12.725v-.101"/><path fill="#214f94" d="m735.019 295.158-41.62 12.724v.103l41.62-12.725v-.102"/><path fill="#214f93" d="m735.019 295.056-41.62 12.725v.101l41.62-12.724v-.102"/><path fill="#214e93" d="m735.019 294.954-41.62 12.724v.103l41.62-12.725v-.102"/><path fill="#204e92" d="m735.019 294.853-41.62 12.724v.101l41.62-12.724v-.101"/><path fill="#204d92" d="m735.019 294.751-41.62 12.725v.101l41.62-12.724v-.102"/><path fill="#204d92" d="m735.019 294.649-41.62 12.724v.103l41.62-12.725v-.102"/><path fill="#204c91" d="m735.019 294.548-41.62 12.724v.101l41.62-12.724v-.101"/><path fill="#1f4c91" d="m735.019 294.445-41.62 12.725v.102l41.62-12.724v-.103"/><path fill="#1f4c90" d="m735.019 294.344-41.62 12.724v.102l41.62-12.725v-.101"/><path fill="#1f4b90" d="m735.019 294.243-41.62 12.723v.102l41.62-12.724v-.101"/><path fill="#1e4b8f" d="m735.019 294.14-41.62 12.725v.101l41.62-12.723v-.103"/><path fill="#1e4a8f" d="m735.019 294.039-41.62 12.723v.103l41.62-12.725v-.101"/><path fill="#1e4a8f" d="m735.019 293.936-41.62 12.725v.101l41.62-12.723v-.103"/><path fill="#1e4a8e" d="m735.019 293.835-41.62 12.725v.101l41.62-12.725v-.101"/><path fill="#1d498e" d="m735.019 293.733-41.62 12.724v.103l41.62-12.725v-.102"/><path fill="#1d498e" d="m735.019 293.631-41.62 12.725v.101l41.62-12.724v-.102"/><path fill="#1d498d" d="m735.019 293.529-41.62 12.725v.102l41.62-12.725v-.102"/><path fill="#1d488d" d="m735.019 293.426-41.62 12.726v.102l41.62-12.725v-.103"/><path fill="#1d488d" d="m735.019 293.325-41.62 12.725v.102l41.62-12.726v-.101"/><path fill="#1c488c" d="m735.019 293.224-41.62 12.724v.102l41.62-12.725v-.101"/><path fill="#1c488c" d="m735.019 293.121-41.62 12.725v.102l41.62-12.724v-.103"/><path fill="#1c478c" d="m735.019 293.02-41.62 12.724v.102l41.62-12.725v-.101"/><path fill="#1c478b" d="m735.019 292.919-41.62 12.723v.102l41.62-12.724v-.101"/><path fill="#1c478b" d="m735.019 292.816-41.62 12.725v.101l41.62-12.723v-.103"/><path fill="#1b468b" d="m735.019 292.715-41.62 12.723v.103l41.62-12.725v-.101"/><path fill="#1b468a" d="m735.019 292.613-41.62 12.724v.101l41.62-12.723v-.102"/><path fill="#1b468a" d="m735.019 292.511-41.62 12.725v.101l41.62-12.724v-.102m0-.102-41.62 12.724v.103l41.62-12.725v-.102"/><path fill="#1b458a" d="m735.019 292.308-41.62 12.724v.101l41.62-12.724v-.101"/><path fill="#1b4589" d="m735.019 292.205-41.62 12.725v.102l41.62-12.724v-.103"/><path fill="#1a4589" d="m735.019 292.104-41.62 12.724v.102l41.62-12.725v-.101"/><path fill="#1a4589" d="m735.019 292.001-41.62 12.726v.101l41.62-12.724v-.103"/><path fill="#1a4589" d="m735.019 291.9-41.62 12.725v.102l41.62-12.726v-.101"/><path fill="#1a4488" d="m735.019 291.799-41.62 12.724v.102l41.62-12.725v-.101"/><path fill="#1a4488" d="m735.019 291.696-41.62 12.725v.102l41.62-12.724v-.103"/><path fill="#1a4488" d="m735.019 291.595-41.62 12.725v.101l41.62-12.725v-.101"/><path fill="#1a4488" d="m735.019 291.494-41.62 12.723v.103l41.62-12.725v-.101"/><path fill="#1a4488" d="m735.019 291.391-41.62 12.725v.101l41.62-12.723v-.103"/><path fill="#194488" d="m735.019 291.29-41.62 12.723v.103l41.62-12.725v-.101"/><path fill="#194387" d="m735.019 291.187-41.62 12.725v.101l41.62-12.723v-.103"/><path fill="#194387" d="m735.019 291.086-41.62 12.725v.101l41.62-12.725v-.101m0-.102-41.62 12.724v.103l41.62-12.725v-.102"/><path fill="#194387" d="m735.019 290.882-41.62 12.725v.101l41.62-12.724v-.102m0-.102-41.62 12.725v.102l41.62-12.725v-.102m0-.101-41.62 12.724v.102l41.62-12.725v-.101"/><path fill="#194386" d="m735.019 290.576-41.62 12.725v.102l41.62-12.724v-.103m0-.101-41.62 12.724v.102l41.62-12.725v-.101"/><path fill="#194286" d="m735.019 290.374-41.62 12.723v.102l41.62-12.724v-.101"/><path fill="#194286" d="m735.019 290.271-41.62 12.725v.101l41.62-12.723v-.103"/><path fill="#194286" d="m735.019 290.17-41.62 12.723v.103l41.62-12.725v-.101"/><path fill="#184286" d="m735.019 290.069-41.62 12.723v.101l41.62-12.723v-.101"/><path fill="#184286" d="m735.019 289.966-41.62 12.725v.101l41.62-12.723v-.103m0-.102-41.62 12.724v.103l41.62-12.725v-.102m0-.101-41.62 12.724v.101l41.62-12.724v-.101"/><path fill="#184286" d="m735.019 289.66-41.62 12.726v.101l41.62-12.724v-.103"/><path fill="#184286" d="m735.019 289.559-41.62 12.724v.103l41.62-12.726v-.101"/><path fill="#184286" d="m735.019 289.456-41.62 12.726v.101l41.62-12.724v-.103"/><path fill="#184286" d="m735.019 289.355-41.62 12.725v.102l41.62-12.726v-.101"/><path fill="#184286" d="m735.019 289.252-41.62 12.725v.103l41.62-12.725v-.103"/><path fill="#184286" d="m735.019 289.151-41.62 12.725v.101l41.62-12.725v-.101"/><path fill="#184285" d="m735.019 289.05-41.62 12.723v.103l41.62-12.725v-.101"/><path fill="#184285" d="m735.019 288.947-41.62 12.725v.101l41.62-12.723v-.103"/><path fill="#184285" d="m735.019 288.846-41.62 12.725v.101l41.62-12.725v-.101m0-4.781-2.772-9.067h-38.848v26.573l41.62-12.725v-4.781"/></g><path fill="#fff" d="M3.4813 2.9927c-.0283-.1727-.2116-.3028-.4222-.3028-.3846 0-.526.2908-.526.5958 0 .2898.1414.5832.526.5832.26 0 .406-.162.4368-.3907h.4124c-.0438.4338-.3751.7136-.8492.7136-.5988 0-.9515-.4034-.9515-.906 0-.5177.3527-.9194.9515-.9194.4251 0 .7824.2239.8346.6263h-.4124m-.7584 2.7587h.5023l-.2447-.636h-.006zm.0409-1.0657h.4374l.7218 1.7404h-.4391l-.1486-.3875h-.723l-.1506.3875h-.4303l.7324-1.7404m-.1516 3.0371h.4664c.1898 0 .292-.0733.292-.2482 0-.1675-.1022-.2411-.292-.2411h-.4664zm-.4241-.7876h1.0417c.3475 0 .566.2168.566.4816 0 .2041-.0903.356-.3041.4336v.007c.2077.0474.2677.2327.2807.4082.008.1068.005.3138.081.4118h-.4263c-.0516-.1116-.0448-.2784-.0675-.417-.0283-.1843-.1084-.2638-.3213-.2638h-.426v.6808H2.188v-1.742m.5849 2.5856h-.581v-.3229h1.5857v.3229h-.5812v1.421h-.4235V9.521m-.5079 3.6193h1.47v-.3216H2.6905v-.4267h.9372v-.2982h-.9372v-.3729H3.712v-.3216H2.265v1.741"/><path fill="#68bceb" d="M5.4453 14.7665v-.9298c0-1.1916.9349-2.158 2.051-2.158h28.7236v.9684c0 1.1319-.8321 2.0519-1.7765 2.1116l-28.9981.008"/><path fill="#b3dcf5" d="M38.8858 13.8095c0-1.193-.8993-2.1376-2.0185-2.1376h-.6465v.933c0 1.0936-.7662 1.9863-1.7589 2.1145H5.4521l-.0007 1.0872c0 1.1926.9138 2.159 2.0318 2.159h29.369c1.1223 0 2.0335-.9664 2.0335-2.159v-1.9971"/><path fill="#fff" fill-rule="evenodd" d="M26.9932 2.3021v3.5405c0 .6552.1227 1.341-1.4282 1.341-1.4597 0-1.4227-.616-1.4227-1.341V2.2677H22.754v3.5749c0 1.437.777 2.5543 2.8 2.5543 2.2355 0 2.8236-1.2822 2.8236-2.5543V2.3021h-1.3844m-10.6967 6.024V7.207h-2.508c-.1982-.003-.3592-.1344-.3747-.308V2.2706h-1.547v4.8561h.004c0 .665.6033 1.1975 1.3497 1.1994h3.0757"/><path fill="#fff" d="M21.5809 3.4389V2.2677h-4.4796V7.107c0 .663.6117 1.2027 1.362 1.2027h3.1027V7.2393h-2.9174V5.7368h2.9174V4.6867h-2.9174V3.4389h2.9323m12.4809 0V2.2677H29.576V7.107c0 .663.6143 1.2027 1.366 1.2027h3.1072V7.2393h-2.925V5.7368h2.925V4.6867h-2.925V3.4389h2.9376"/><path fill="#184285" fill-rule="evenodd" d="M6.042 5.8358V7.249h2.715c.5273 0 .9323-.2197.9323-.7464 0-.5738-.4637-.667-.9323-.667zm-.044-1.2183h2.7149c.3407 0 .6282-.1859.6282-.54 0-.4105-.3005-.5156-.6282-.5156h-2.715zm2.6733-2.2719c1.1384 0 1.8355.5497 1.8355 1.6739 0 .3754-.1383.809-.4063 1.0777.3252.258.7078.6422.7078 1.4191 0 1.2143-.87 1.8942-2.137 1.8942H5.1867V2.3456h3.4846"/><path fill="#fff" fill-rule="evenodd" d="M6.4071 5.7495v1.4152h2.2067c.5209 0 .9298-.2197.9298-.7464 0-.5728-.4638-.6688-.9298-.6688zm0-1.218h2.2067c.336 0 .6254-.1827.6254-.5387 0-.4092-.3005-.5133-.6254-.5133H6.4071zM8.6138 2.26c1.1378 0 1.8332.551 1.8332 1.6742 0 .3771-.1398.809-.404 1.0777.3236.2596.7071.6445.7071 1.4182 0 1.2182-.8703 1.898-2.1363 1.898H5.198V2.26h3.4158"/></svg>