<svg xmlns="http://www.w3.org/2000/svg" viewBox="0 0 70 40"><defs><linearGradient id="linear-gradient" x1="23.1" x2="46.9" y1="38.2" y2="-3" gradientUnits="userSpaceOnUse"><stop offset=".2" stop-color="#b9994e"/><stop offset=".3" stop-color="#e5d8be"/><stop offset=".3" stop-color="#b9994e"/><stop offset=".4" stop-color="#e5d8be"/><stop offset=".4" stop-color="#b9994e"/><stop offset=".5" stop-color="#f7f4ec"/><stop offset="1" stop-color="#b9994e"/></linearGradient><style>.cls-1{fill:#fff}</style><mask id="mask" width="56.9" height="22.1" x="6.5" y="6.5" maskUnits="userSpaceOnUse"><path d="M19.8 10.5s-.7-1-1.1 0a18.4 18.4 0 0 1-1.4 2.2s0 .1-1 .4c-1 .4-2.5.4-2 .8s.4.8.7.8 1.3-.5.8.2l-3.1 4.5s-.6.2-.3.4c0 .3-2 3.6-3 6.4-.3 1 .6.7.6.7a35.5 35.5 0 0 1 3.3-6.4 12 12 0 0 1 5.2-1.7c.5 0 .6-.6-.5-.6a11.2 11.2 0 0 0-3.6.8 78 78 0 0 1 3.6-5.2 1.7 1.7 0 0 1 .7-.3 25 25 0 0 1 6.6-1.5c2-.1.3-1-.8-1a27.7 27.7 0 0 0-5.2 1.2c0-.5 1-1.3.5-1.7Zm9.9 6.5c-.8 0-2.7.9-3.1 2.4a11.7 11.7 0 0 1-3.4 2c-.4.3-.7.3-.4-.4s1.2-2.2 1-2.7-.4-.4-.7-.1c-.2-.2-.3-1.3-1-1a12.4 12.4 0 0 0-4 4.3c0 .5.6 1.1 1.5.5a25.6 25.6 0 0 0 2.5-2c0 .5-.7 2.8.7 2.4a11.4 11.4 0 0 0 4-2.5c.2 0 2.6.5 2 1a10.8 10.8 0 0 1-3.3 1.5c.1.4.7.7 2.2 0s2.2-1 2.2-1.5-.7-1.3-2-1.6c0-.6 1.8-1.9 2.6-1.9.5-.2 0-.6-.8-.5Zm-7.6 2a13.6 13.6 0 0 1-2.8 2 10.5 10.5 0 0 1 3-3s.3.7-.2 1Zm38.2 1.9c-1.3 0-2.8.8-4.1.8-.5 0-.8-.5-.8-1.5S56 18 55 18s-2.8 2-3 2a10.4 10.4 0 0 0 1.3-2.3c0-.5-.3-.6-.8 0a9.8 9.8 0 0 1-4.7 2.7c0-.3 1-1.4 1-2.5s-1.6-1-2.3-.3a23.2 23.2 0 0 1-6.1 4.2c-.2 0-.7-.3.8-2.8.4-.8 0-1.4-.7-.5s-2.2 3-3.8 3c-.7 0-.6-1.1-.6-1.1s.3-1.6-1-1.6c-1.2 0-3.8 2.8-3.9 2.9a66.2 66.2 0 0 1 3.8-5.9l2.5-3.4a.5.5 0 0 0-.1-.8c-.3-.4-1.3 1-1.3 1a56.5 56.5 0 0 0-6 9.7.5.5 0 0 0 .5.6s.5.3 1.3-.5a11.4 11.4 0 0 1 3.1-2.6c.2.1-.3 1.5.3 2a3.9 3.9 0 0 0 3.8-.6c0 .3.2 2 2 1s2.7-1.8 2.4-.7 0 1.4.8 1.4a2.8 2.8 0 0 0 2-1c.7-.6.5-.9 1.3-.9a7.5 7.5 0 0 0 3.8-1.6c0 .5-1.3 2.3-1.3 3.4 0 .3-.1.7.8-.2a16.8 16.8 0 0 1 3.8-3.6c.3 1 0 .6 0 1.7s.6 1.9 1.4 1.9 1.5-1 4.3-1.1c1.1 0 1.3-.6 0-.6Zm-15 .8c-.8.9-1 .7-1 .4a4.6 4.6 0 0 1 1.2-2.5s.1.8.4 1 0 .4-.6 1Zm2-2.7c-.7 1.2-1 1.4-1 1 0-.9 1.4-2.3 1.4-2.3s.5 0-.3 1.3Z" class="cls-1"/><path d="M42.2 15.5a2.7 2.7 0 0 0-.7 1.3c0 .3.5 0 1.3-1s1.3-1.4.8-1.6-1 .7-1 .7Z" class="cls-1"/></mask></defs><g id="Layer_2" data-name="Layer 2"><g id="Layer_1-2" data-name="Layer 1"><rect width="70" height="40" rx="3.7"/><path d="M18 28.3V28h1v1.5h-.4v-.3a.7.7 0 0 1-.6.3c-.2 0-.8 0-.8-1.4 0-1.1.3-1.5.9-1.5a.7.7 0 0 1 .7.7h-.3c0-.2-.1-.5-.4-.5-.6 0-.6.8-.6 1.2 0 .4 0 1.2.6 1.2.2 0 .5-.2.5-.8v-.1Zm5.2-1.4h-.4v2.3h.4v.2h-1v-.2h.3v-2.3H22v-.3h1Zm5 0H27v1h.9v.2h-1v1.3h-.2v-2.8h1.5Zm4.6 0H32v2.5h-.3v-2.5H31v-.3h1.9Zm4.2.3a.4.4 0 0 0-.4-.4c-.6 0-.6.8-.6 1.2 0 .4 0 1.2.6 1.2a.5.5 0 0 0 .4-.5h.3a.7.7 0 0 1-.8.8c-.7 0-.8-.9-.8-1.5s0-1.4.9-1.4a.7.7 0 0 1 .7.6Zm5 2.2h-.2l-.3-.8h-.8l-.3.8h-.3l1-3Zm-1.2-1h.7l-.4-1.2Zm4.2-1.8h.8a.7.7 0 0 1 .7.8.8.8 0 0 1-.5.8l.8 1.2h-.4l-.6-1.2h-.5v1.2h-.2Zm.6 1.4a.6.6 0 0 0 .6-.6c0-.4-.1-.5-.6-.5h-.3V28Zm4-1.4h.7c.5 0 .9.3.9 1.4 0 1-.3 1.4-1 1.4h-.6Zm.3 2.6h.3c.4 0 .7-.2.7-1.2s-.3-1.1-.7-1.1H50Z" class="cls-1"/><g mask="url(#mask)"><path fill="url(#linear-gradient)" d="M6.5 6.5h56.9v22.1H6.5z"/></g></g></g></svg>