<svg xmlns="http://www.w3.org/2000/svg" viewBox="0 0 70 40"><path fill="#112F77" d="M5.4999 11C3.5605 11 2 12.6492 2 14.699v19.602C2 36.3508 3.5605 38 5.4999 38c1.9394 0 3.4999-1.6492 3.4999-3.699V14.699C9.022 12.6492 7.4393 11 5.4998 11M5.5 8C7.4395 8 9 6.4395 9 4.5S7.4395 1 5.5 1A3.4917 3.4917 0 0 0 2 4.5C2 6.4395 3.5605 8 5.5 8m22.1588 3c-3.553 0-5.8588 1.3394-7.2706 2.6554-.447-.3995-.9411-.752-1.4588-1.081-.2823-.2115-.5647-.376-.8941-.4935-.4-.1645-.847-.235-1.3177-.235-2.047 0-3.7176 1.6685-3.7176 3.7128 0 1.41.7765 2.6319 1.9294 3.2429.0235 0 .047.0235.0706.0235.2588.141.4235.3054.5647.4464.9412.9635 1.2706 2.6789 1.3647 3.7363 0 .282.0235.5405.0235.7285v10.551c0 2.0443 1.6706 3.7127 3.7177 3.7127 2.047 0 3.7176-1.6684 3.7176-3.7128V21.974c.0236-1.9739 1.6236-3.5718 3.6-3.5718 1.9765 0 3.6 1.5979 3.6 3.5718v1.5744c0 .0235.0236.0705.0236.1175v10.6214c0 2.0444 1.647 3.6893 3.694 3.6893 2.0471 0 3.6942-1.645 3.6942-3.6893V23.5718c0-1.457-.2588-6.1332-3.4118-9.423-2-2.0444-4.7294-3.1488-7.9294-3.1488m38.7842 8.0852c.1174-.1422.2347-.2844.3285-.4266.047-.0712.1173-.1423.1642-.237.1408-.1897.258-.3793.3988-.5926 0-.0237.0234-.0474.047-.0474.211-.2845.3752-.569.4925-.9008v-.0237c.7038-1.4932 1.079-3.1998 1.079-5.0723 0-3.5792-1.337-5.902-2.6507-7.3242C64.6133 2.754 62.596 1 56.6377 1H45.7063C43.6655 1 42 2.6829 42 4.745c0 2.0622 1.6655 3.745 3.7063 3.745h12.292c1.9704.0238 3.5656 1.6356 3.5656 3.6266 0 1.8488-1.3606 3.3658-3.12 3.6028-.4222.0237-.8913.0237-1.384.0237h-.6333c-.0235 0-.0704.0237-.1173.0237h-10.603c-2.0408 0-3.6828 1.6592-3.6828 3.7213v.0475c0 2.062 1.6655 3.745 3.7063 3.745h12.2919c1.9705.0237 3.5656 1.6355 3.5656 3.6265s-1.5951 3.6265-3.5656 3.6265H56.45c-.0234 0-.0703.0237-.1172.0237h-10.603c-2.0408 0-3.6829 1.6592-3.6829 3.7214 0 2.0621 1.642 3.7213 3.6829 3.7213h10.6968c1.4544 0 6.1225-.2607 9.4066-3.4369C67.8975 32.5484 69 29.7988 69 26.5753c0-3.5791-1.3371-5.902-2.6507-7.3242 0-.0474.0469-.1185.0938-.1659"/></svg>