<svg xmlns="http://www.w3.org/2000/svg" id="svg2" viewBox="0 0 154 181.9"><defs><style>.cls-3{fill:#1d1d1b}</style></defs><g id="g20"><path id="path22" fill="#3d73b9" fill-rule="evenodd" d="M83.5 153.6h63c14.4 0 14.6-15.3 13.1-22.9-.8-5-9.4-5-10.4 0v6a5 5 0 0 1-4.9 4.8H23.4a5 5 0 0 1-4.8-4.9v-5.9c-1-5-9.6-5-10.4 0-1.5 7.6-1.3 22.9 13 22.9h62.3ZM38.9 7h97.2c6.9 0 12.5 6 12.5 13.2v6.2a6 6 0 0 1-12 0v-3.3a4 4 0 0 0-4-4H35a4 4 0 0 0-4 4v3.3c0 8.9-11.4 8.8-11.4.2v-6.4C19.7 12.9 25.3 7 32 7Z" transform="translate(-7.3 -7)"/></g><g id="g24"><path id="path26" fill="#1d1d1b" fill-rule="evenodd" d="M146.1 79.2a19.2 19.2 0 0 1 11.4 17.2c0 10.6-9.3 19.3-20.6 19.3h-31.6a5.2 5.2 0 0 1-5.4-5V50.4a5.3 5.3 0 0 1 5.3-5.3h26.4A20.1 20.1 0 0 1 146 79.2m-23.6-4.9h10v-.1a9.6 9.6 0 0 0 8.1-9.4 9.6 9.6 0 0 0-9.5-9.6h-20.3v50h25.7a9.9 9.9 0 1 0 0-19.8h-14a5.5 5.5 0 1 1 0-11" transform="translate(-7.3 -7)"/></g><g id="g28"><path id="path30" d="M43 172a1.7 1.7 0 0 1 3.3 0v9.3a7.6 7.6 0 0 1-7.6 7.6 7.6 7.6 0 0 1-7.6-7.6V172a1.7 1.7 0 1 1 3.4 0v9.2a4.3 4.3 0 0 0 4.2 4.2 4.3 4.3 0 0 0 4.2-4.2Z" class="cls-3" transform="translate(-7.3 -7)"/></g><g id="g32"><path id="path34" d="M59 185.5a1.7 1.7 0 1 1 0 3.4h-4.7a6.4 6.4 0 0 1-6.4-6.4v-10.4a1.7 1.7 0 1 1 3.4 0v10.4a3 3 0 0 0 3 3H59Z" class="cls-3" transform="translate(-7.3 -7)"/></g><g id="g36"><path id="path38" d="M94.9 109.7a6.4 6.4 0 1 1-12.7 1.3L77 63l-18.4 47v.5a6.1 6.1 0 0 1-1.6 1.8l-.1.1a5.8 5.8 0 0 1-1.1.8h-.1l-.1.1h-.7a6 6 0 0 1-1.8.4h-.5a6 6 0 0 1-2-.5h-1a6 6 0 0 1-1-.8l-.2-.2-.1-.1-.4-.1-.2-.2a6 6 0 0 1-.7-1v-.8L28.2 63 23 111a6.3 6.3 0 1 1-12.7-1.3l6.2-56.5a10.5 10.5 0 0 1 1.1-3.8 10.5 10.5 0 0 1 8-5.5h.3a10.9 10.9 0 0 1 1.6 0 10.2 10.2 0 0 1 2 .3 10.4 10.4 0 0 1 7.3 6.3l15.8 39.8 15.7-39.9a10.4 10.4 0 0 1 9.3-6.6 10.9 10.9 0 0 1 1.6 0h.3a10.6 10.6 0 0 1 8 5.4 12.2 12.2 0 0 1 .7 1.9 10.4 10.4 0 0 1 .4 2Z" class="cls-3" transform="translate(-7.3 -7)"/></g><g id="g40"><path id="path42" d="M30.4 187a1.7 1.7 0 1 1-3.3.4l-1.5-12.2-5.2 12a1.7 1.7 0 0 1-2.2.9 1.7 1.7 0 0 1-.9-1l-5.2-12-1.4 12.3a1.7 1.7 0 1 1-3.4-.4L9 172.8a2.7 2.7 0 0 1 1.5-2.1 2.5 2.5 0 0 1 .3-.2h.1a2.2 2.2 0 0 1 .6 0 2.9 2.9 0 0 1 2.3.7 2.6 2.6 0 0 1 .4.4 2.8 2.8 0 0 1 .2.3 1.7 1.7 0 0 1 0 .2l4.5 10.2 4.4-10.3a2.8 2.8 0 0 1 2-1.6 4 4 0 0 1 .5 0h.5a2.9 2.9 0 0 1 2.1 1.3 2.4 2.4 0 0 1 .2.5 1.6 1.6 0 0 1 .1.3 1.7 1.7 0 0 1 0 .2Z" class="cls-3" transform="translate(-7.3 -7)"/></g><g id="g44"><path id="path46" d="M66.4 187.2a1.7 1.7 0 1 1-3.4 0v-13.4h-4.8a1.7 1.7 0 0 1 0-3.4h13a1.7 1.7 0 0 1 0 3.4h-4.8Z" class="cls-3" transform="translate(-7.3 -7)"/></g><g id="g48"><path id="path50" d="M77 187.2a1.7 1.7 0 1 1-3.4 0V172a1.7 1.7 0 0 1 3.4 0Z" class="cls-3" transform="translate(-7.3 -7)"/></g><g id="g52"><path id="path54" d="M111.8 187a1.7 1.7 0 0 1-3.4.4l-.6-4.8H102a1.7 1.7 0 1 1 0-3.4h5.5l-.2-1.2v-.2a6.8 6.8 0 0 0-.2-.8 5.7 5.7 0 0 0-.3-1 3.9 3.9 0 0 0-3.5-2.2 4 4 0 0 0-.8.1 3.4 3.4 0 0 0-.8.3 4.8 4.8 0 0 0-2.4 3.8l-1 9.4a1.7 1.7 0 1 1-3.4-.4l1-9.4a8.1 8.1 0 0 1 4.3-6.4 7 7 0 0 1 1.5-.6 7.3 7.3 0 0 1 1.6-.2 7.2 7.2 0 0 1 6.5 4.2 9.6 9.6 0 0 1 .6 1.4 9.8 9.8 0 0 1 .2 1.4.4.4 0 0 1 0 .2Z" class="cls-3" transform="translate(-7.3 -7)"/></g><g id="g56"><path id="path58" d="M117 187.2a1.7 1.7 0 1 1-3.4 0v-14a1.4 1.4 0 0 1 0-.3 2.5 2.5 0 0 1 .1-.6l.2-.3a2.4 2.4 0 0 1 1.3-1l.2-.1h.6a2.4 2.4 0 0 1 1.9.9l9 11.5v-11.2a1.7 1.7 0 1 1 3.4 0v14a2.4 2.4 0 0 1-1 1.8 2.2 2.2 0 0 1-.3.3 1.4 1.4 0 0 1-.2 0l-.1.1a2.4 2.4 0 0 1-1.8 0l-.3-.2a2 2 0 0 1-.3-.2 2.3 2.3 0 0 1-.2-.3L117 176Z" class="cls-3" transform="translate(-7.3 -7)"/></g><g id="g60"><path id="path62" d="M143.5 185.5a1.7 1.7 0 1 1 0 3.4h-5a6.7 6.7 0 0 1-6.7-6.7v-5.1a6.7 6.7 0 0 1 6.7-6.7h5a1.7 1.7 0 0 1 0 3.4h-5a3.3 3.3 0 0 0-2.3 1 3.3 3.3 0 0 0-1 2.3v5.1a3.3 3.3 0 0 0 3.3 3.4h5Z" class="cls-3" transform="translate(-7.3 -7)"/></g><g id="g64"><path id="path66" d="M153.3 173.8a4.6 4.6 0 0 0-3.2 1.2 4.2 4.2 0 0 0-1.3 3v3.2a4.2 4.2 0 0 0 1.3 3 4.6 4.6 0 0 0 3.2 1.3 4.6 4.6 0 0 0 3.2-1.3 4.2 4.2 0 0 0 1.4-3v-3.1a4.2 4.2 0 0 0-1.3-3 4.7 4.7 0 0 0-3.3-1.3m0-3.4a8 8 0 0 1 5.6 2.2 7.5 7.5 0 0 1 2.4 5.4v3.2a7.5 7.5 0 0 1-2.4 5.5 8 8 0 0 1-5.6 2.2 8 8 0 0 1-5.5-2.3 7.6 7.6 0 0 1-2.4-5.4V178a7.6 7.6 0 0 1 2.4-5.4 8 8 0 0 1 5.5-2.2Z" class="cls-3" transform="translate(-7.3 -7)"/></g><g id="g68"><path id="path70" d="M81.8 173.8v11.7h6.6a2.1 2.1 0 0 0 2.1-2.1 2.1 2.1 0 0 0-.6-1.5 2 2 0 0 0-1.5-.7H86a1.7 1.7 0 0 1 0-3.4h.8a2 2 0 0 0 1.3-.6 2 2 0 0 0 .6-1.4 2 2 0 0 0-2-2h-5Zm-3.4 5.7v-7.3a1.6 1.6 0 0 1 .1-.7 2 2 0 0 1 .4-.6 1.7 1.7 0 0 1 1.2-.5h6.6a5.4 5.4 0 0 1 5.4 5.4 5.5 5.5 0 0 1-.8 2.9 5.4 5.4 0 0 1 1 .8h.1a5.5 5.5 0 0 1 1.5 3.9 5.5 5.5 0 0 1-5.5 5.5H80a1.7 1.7 0 0 1-1.7-1.7Z" class="cls-3" transform="translate(-7.3 -7)"/></g></svg>