<svg xmlns="http://www.w3.org/2000/svg" xml:space="preserve" id="Layer_1" x="0" y="0" version="1.1" viewBox="0 0 70 40"><style>.st0{opacity:.3;fill:#00abee;enable-background:new}</style><g id="Stockholm-icons-_-Shopping-_-Credit-card" transform="translate(1036 80)"><path id="Combined-Shape" d="M-1023.9-80h45.8c3.1 0 5.7 2.6 5.7 5.7v28.6c0 3.1-2.6 5.7-5.7 5.7h-45.8a5.7 5.7 0 0 1-5.7-5.7v-28.6c0-3.1 2.6-5.7 5.7-5.7z" class="st0"/><path id="Rectangle-59" fill="#00abee" d="M-1029.6-71.4h57.1v8.6h-57.1z"/><path id="Rectangle-59-Copy" d="M-986.7-54.3h5.7c1.6 0 2.9 1.3 2.9 2.9 0 1.5-1.3 2.8-2.9 2.8h-5.7a2.9 2.9 0 0 1-2.9-2.8c0-1.6 1.3-2.9 2.9-2.9z" class="st0"/></g></svg>