<svg xmlns="http://www.w3.org/2000/svg" id="Layer_1" data-name="Layer 1" viewBox="0 0 74 48"><defs><clipPath id="clippath"><path fill="none" stroke-width="0" d="M0 0h140v48H0z"/></clipPath><style>.cls-3{stroke-width:0}</style></defs><g clip-path="url(#clippath)"><path d="M67.373 0H6.627c-.253 0-.5064 0-.759.0015-.2134.0015-.4264.004-.6394.0098-.4645.0128-.933.0405-1.3917.124-.466.085-.8997.2236-1.3228.4419a4.443 4.443 0 0 0-1.1266.829 4.4899 4.4899 0 0 0-.8183 1.1416C.3538 2.9764.217 3.416.1336 3.8885c-.0829.4649-.1105.9395-.123 1.4096a32.2773 32.2773 0 0 0-.0095.6474C-.0004 6.2019 0 6.4582 0 6.715v34.5703c0 .2569-.0005.5127.001.7697.0013.2157.0038.4315.0095.6473.0125.4697.0401.9443.123 1.4091.0833.4727.2202.9121.4356 1.3408.2115.4218.4882.8075.8183 1.1415.33.335.7107.6153 1.1266.829.4231.2188.8568.3575 1.3228.4424.4587.083.9272.1113 1.3917.124.213.0049.426.0078.6394.0088.2526.002.506.002.759.002h60.746c.2526 0 .506 0 .7585-.002.213-.001.426-.0039.64-.0088.4635-.0127.9319-.041 1.3917-.124.4654-.0849.8992-.2236 1.3223-.4424a4.4216 4.4216 0 0 0 1.1267-.829 4.5106 4.5106 0 0 0 .8182-1.1415c.2159-.4287.3527-.8681.4356-1.3408.0829-.4648.1098-.9394.1224-1.4091.0058-.2158.0087-.4316.0096-.6473.002-.257.002-.5128.002-.7697V6.7151c0-.257 0-.5132-.002-.7696a28.5223 28.5223 0 0 0-.0096-.6474c-.0126-.4701-.0395-.9447-.1224-1.4096-.0829-.4725-.2197-.912-.4356-1.3407a4.5181 4.5181 0 0 0-.8182-1.1415 4.449 4.449 0 0 0-1.1267-.8291c-.4231-.2182-.8569-.3569-1.3223-.4418-.4598-.0836-.9282-.1113-1.3917-.124a31.5101 31.5101 0 0 0-.64-.01C67.879 0 67.6256 0 67.373 0Z" class="cls-3"/><path fill="#fff" stroke-width="0" d="m67.373 1.5994.7473.0014c.2025.0015.4049.0037.6085.0093.354.0097.7682.0291 1.1543.0993.3357.0612.6171.1543.8873.2937.2666.1373.511.3172.7243.533a2.912 2.912 0 0 1 .5292.7385c.1368.2715.2281.5554.2882.898.0691.3868.0881.8077.098 1.1686.0053.2038.008.4075.009.6161.0019.2523.0019.5044.0019.7572v34.5704c0 .2527 0 .5044-.002.7621a27.1415 27.1415 0 0 1-.0091.6115c-.0097.3605-.0287.7811-.0986 1.1726-.0593.3378-.1505.6217-.288.8946a2.896 2.896 0 0 1-.5277.7361 2.843 2.843 0 0 1-.7279.5354c-.268.1387-.549.2317-.8814.2923-.3939.0711-.8255.0907-1.1505.0996-.2045.0047-.408.0075-.6165.0085-.2484.002-.4978.0019-.7463.0019H6.6172c-.2456 0-.4918 0-.7419-.0019a32.8943 32.8943 0 0 1-.604-.0083c-.3325-.0091-.7643-.0286-1.155-.0993-.3352-.0611-.6162-.1541-.8878-.2946a2.8324 2.8324 0 0 1-.7253-.5344 2.877 2.877 0 0 1-.5268-.7352c-.137-.2727-.2287-.5574-.289-.8993-.0696-.3907-.0887-.8097-.0983-1.1676a30.2447 30.2447 0 0 1-.009-.6137l-.001-.6015V6.5557l.001-.6003a30.561 30.561 0 0 1 .009-.6146c.0096-.3584.0287-.7775.099-1.1715.0597-.3388.1513-.6235.289-.8975a2.8832 2.8832 0 0 1 .5272-.735 2.8562 2.8562 0 0 1 .7264-.5345c.2687-.1386.5502-.2317.8854-.2928.3862-.0703.8007-.0897 1.1557-.0994.2023-.0056.4046-.0078.6055-.0092l.7498-.0015H67.373Z"/><path d="M20.2035 16.1426c.6336-.803 1.0635-1.8812.9501-2.9829-.9275.0467-2.0593.62-2.7146 1.4236-.5884.6881-1.1092 1.8114-.9734 2.867 1.0412.0915 2.0814-.5273 2.7379-1.3077Zm.9378 1.5146c-1.512-.0912-2.7976.8695-3.5197.8695-.7225 0-1.8282-.8235-3.0242-.8013-1.5566.0232-3.0009.9149-3.7908 2.3332-1.6247 2.8373-.4288 7.046 1.1511 9.3568.7673 1.1432 1.692 2.402 2.9104 2.3568 1.1512-.0458 1.6024-.7553 3.0017-.7553 1.3983 0 1.8047.7553 3.0233.7324 1.2638-.0229 2.0538-1.1438 2.8211-2.2881.8801-1.3033 1.2405-2.5616 1.2631-2.6307-.0226-.0229-2.4368-.9613-2.4592-3.775-.0228-2.3559 1.8954-3.4765 1.9857-3.546-1.0832-1.6232-2.7757-1.8063-3.3625-1.8523Zm13.1643-3.1884c3.2864 0 5.5749 2.2952 5.5749 5.637 0 3.3537-2.3356 5.6609-5.6573 5.6609h-3.6387v5.863h-2.6289V14.4688h6.35Zm-3.7211 9.062h3.0166c2.2889 0 3.5916-1.2485 3.5916-3.4131 0-2.1643-1.3027-3.4011-3.5799-3.4011h-3.0283v6.8142Zm9.9824 4.5419c0-2.1884 1.655-3.5321 4.5896-3.6987l3.3801-.2021v-.9632c0-1.3915-.9273-2.2239-2.4763-2.2239-1.4676 0-2.3831.7134-2.6059 1.8314H41.06c.1408-2.2597 2.0421-3.9246 5.094-3.9246 2.993 0 4.9061 1.6055 4.9061 4.1148v8.6221h-2.4298v-2.0574h-.0584c-.7158 1.3915-2.2771 2.2714-3.8968 2.2714-2.4179 0-4.1082-1.5222-4.1082-3.7698Zm7.9697-1.1297v-.9871l-3.0401.1902c-1.5141.1071-2.3708.785-2.3708 1.8553 0 1.094.892 1.8076 2.2535 1.8076 1.7723 0 3.1574-1.2369 3.1574-2.866Zm4.817 9.2886v-2.0812c.1874.0474.6099.0474.8213.0474 1.1737 0 1.8076-.4993 2.1948-1.7837 0-.0239.2232-.7611.2232-.773l-4.4601-12.5229h2.7462l3.1225 10.1801h.0467l3.1225-10.1801h2.676l-4.6249 13.1649c-1.0559 3.0328-2.2766 4.0079-4.8354 4.0079-.2115 0-.8454-.0238-1.0328-.0594Z" class="cls-3"/></g></svg>