<svg xmlns="http://www.w3.org/2000/svg" viewBox="0 0 110 150"><path fill="#f39200" d="M0 .3h110v149.4H0Zm0 0"/><path d="M45.3 53.5c0 3.8-.7 6.8-2.3 8.9a8.4 8.4 0 0 1-7.1 3.3H25.6c-1 0-1.7-.7-1.7-1.7V22.2c0-1 .8-1.8 1.7-1.8H36c3 0 5.4 1.1 7.1 3.3 1.6 2 2.3 5 2.3 9v20.8Zm12 10c1.1-2.7 1.6-5.6 1.6-8.9V31.4a24 24 0 0 0-1.5-8.7 18.1 18.1 0 0 0-11.8-10.8 29 29 0 0 0-9.7-1.5H12.2c-.5 0-1 .2-1.4.5-.4.4-.5.9-.5 1.5v61.3c0 .6.1 1 .5 1.4.4.4.9.6 1.4.6H36a29 29 0 0 0 9.7-1.5c2.9-1 5.3-2.5 7.3-4.2 1.9-1.8 3.4-4 4.5-6.6M22 94c0 .8 0 1.5-.4 2.2-.3.7-.7 1.3-1.3 1.8a6 6 0 0 1-2 1c-.9.4-1.8.5-2.8.5a7 7 0 0 1-4.9-1.6 5.7 5.7 0 0 1-1.8-4.4v-4.2c0-2 .6-3.4 1.8-4.5a7 7 0 0 1 4.9-1.6c2 0 3.7.5 4.8 1.5a5 5 0 0 1 1.7 4c0 .4 0 .6-.3.8a1 1 0 0 1-.7.3h-2.6c-.3 0-.6 0-.7-.3a1 1 0 0 1-.3-.7c0-.6-.1-1-.5-1.4-.3-.3-.7-.5-1.4-.5-1.3 0-2 .9-2 2.7v3.6c0 1.8.7 2.7 2 2.7.7 0 1.1-.2 1.4-.5.4-.4.5-.9.5-1.4 0-.3 0-.6.3-.8.1-.2.4-.3.7-.3H21c.3 0 .6.1.8.3.2.2.3.4.3.7m7.8-6.9c-.6 0-1 .1-1.2.5-.3.3-.4.9-.4 1.7v4.4c0 .8.1 1.3.4 1.7.2.3.6.4 1.2.4.4 0 .7 0 1.1-.3.4-.2.8-.4 1-.8v-6.5c-.2-.4-.6-.6-1-.8-.4-.2-.7-.3-1.1-.3m-1.2 12.5c-1 0-1.8-.1-2.4-.4-.7-.2-1.2-.6-1.6-1-.3-.5-.6-1.1-.8-1.8-.2-.7-.2-1.6-.2-2.5v-4.9c0-1 0-1.8.2-2.5s.5-1.3.8-1.8a5.5 5.5 0 0 1 4-1.4 5.3 5.3 0 0 1 3.7 1.7l.1-.4c0-.3.2-.5.5-.7.2-.2.5-.3.8-.3h1.9c.3 0 .6 0 .8.3.2.2.3.4.3.7v13.7c0 .3-.1.5-.3.7a1 1 0 0 1-.8.3h-2c-.3 0-.5 0-.8-.3-.2-.2-.4-.4-.4-.7v-.3a5 5 0 0 1-1.6 1.1c-.7.3-1.4.5-2.2.5M44.8 87c-.6 0-1 .1-1.2.5-.2.3-.3.9-.3 1.7v4.4c0 .8 0 1.3.3 1.7.2.3.6.4 1.2.4.4 0 .8 0 1.2-.3.4-.2.7-.4 1-.8v-6.5c-.3-.4-.6-.6-1-.8l-1.2-.3m5.8-8.9c.3 0 .6.1.8.3.2.3.3.5.3.8v19c0 .3-.1.5-.3.7a1 1 0 0 1-.8.3h-2c-.2 0-.5 0-.7-.2-.3-.2-.4-.5-.5-.8V98a5 5 0 0 1-3.8 1.6c-1 0-1.7 0-2.4-.3-.6-.3-1.1-.6-1.5-1.1a5 5 0 0 1-.9-1.8l-.2-2.5V89c0-1 0-1.8.2-2.5s.5-1.3.9-1.8a4 4 0 0 1 1.5-1 6 6 0 0 1 2.4-.4c.7 0 1.3.1 2 .4.6.3 1 .6 1.4 1v-5.4c0-.3.1-.6.3-.8.2-.2.5-.3.8-.3h2.5Zm9.4 8.7c-.6 0-1 .2-1.4.6-.4.4-.6 1-.6 2v.1l4-.1v-.1c0-1.7-.6-2.5-2-2.5m6.6 7.8c0 .5-.1 1-.4 1.7a5 5 0 0 1-1.2 1.5c-.6.5-1.2 1-2 1.2a7 7 0 0 1-3 .5 7 7 0 0 1-4.8-1.6 5.7 5.7 0 0 1-1.8-4.4v-4.3c0-.9.2-1.7.5-2.5a5 5 0 0 1 1.3-1.9 6 6 0 0 1 2-1.2c1-.3 1.8-.4 2.9-.4 2 0 3.6.5 4.8 1.6a5.8 5.8 0 0 1 1.8 4.5V91c0 .3-.1.6-.3.8a1 1 0 0 1-.8.3h-7.5v1.3c0 .9.2 1.5.5 2 .3.3.8.5 1.5.5a2 2 0 0 0 1.4-.5c.3-.3.5-.7.5-1 0-.6.3-.9.9-.9h2.7c.3 0 .6.1.8.3l.2.7m7.9-7.5c-.5 0-1 .1-1.2.5-.2.3-.3.9-.3 1.7v4.4c0 .8.1 1.3.3 1.7.3.3.7.4 1.2.4.4 0 .8 0 1.2-.3.4-.2.7-.4 1-.8v-6.5c-.3-.4-.6-.6-1-.8l-1.2-.3m-1.2 12.5c-1 0-1.7-.1-2.4-.4a4 4 0 0 1-1.5-1c-.4-.5-.7-1.1-.8-1.8-.2-.7-.3-1.6-.3-2.5v-4.9c0-1 .1-1.8.3-2.5.1-.7.4-1.3.8-1.8a4 4 0 0 1 1.5-1 6 6 0 0 1 2.4-.4 5.3 5.3 0 0 1 3.7 1.7l.2-.4c0-.3.2-.5.4-.7.3-.2.5-.3.9-.3h1.9c.3 0 .5 0 .7.3.2.2.3.4.3.7v13.7c0 .3 0 .5-.3.7a1 1 0 0 1-.7.3h-2c-.3 0-.6 0-.8-.3-.3-.2-.4-.4-.5-.7v-.3a5 5 0 0 1-1.6 1.1c-.7.3-1.4.5-2.2.5m14.7 0c-.9 0-1.6-.1-2.3-.4a3.6 3.6 0 0 1-2.2-2.7c-.2-.7-.2-1.4-.2-2.2v-9.7c0-.3 0-.5.3-.7.2-.2.4-.3.7-.3H87c.3 0 .5 0 .7.3.2.2.3.4.3.7v9.3c0 .7.1 1.2.3 1.5.2.3.6.4 1.2.4.3 0 .7 0 1-.3l1-.8v-10c0-.4 0-.6.3-.8.2-.2.4-.3.7-.3H95c.3 0 .5 0 .7.3.2.2.3.4.3.7v13.7c0 .3 0 .5-.3.7a1 1 0 0 1-.7.3h-2c-.4 0-.7 0-.9-.3-.2-.1-.3-.4-.4-.7v-.3a4.7 4.7 0 0 1-3.6 1.7m-77.6 31.9A1.5 1.5 0 0 1 9 130v-26.5c0-.4.1-.8.4-1 .3-.3.7-.5 1-.5H14c.4 0 .8.2 1 .4.4.3.5.7.5 1.1v14.2h.2l4.5-7 1-.9 1.4-.3h4c.4 0 .6.1.8.4.1.3 0 .5-.1.8l-7.1 9.8 7.7 9.8c.2.2.3.5.2.8-.2.2-.4.4-.7.4h-4.5c-.5 0-.9-.1-1.4-.3-.4-.2-.8-.5-1-.9l-4.8-6.7h-.2v6.4a1.5 1.5 0 0 1-1.5 1.5h-3.5Zm26.8-17.2c-.8 0-1.4.3-1.7.7-.3.5-.5 1.3-.5 2.4v6.1c0 1.2.2 2 .5 2.4.3.5.9.7 1.7.7.5 0 1-.2 1.6-.4l1.5-1.1v-9.2c-.5-.5-1-.8-1.5-1.1-.6-.3-1-.5-1.6-.5M35.6 132a10 10 0 0 1-3.3-.5 5 5 0 0 1-2.2-1.6c-.5-.6-1-1.5-1.2-2.5-.2-1-.3-2.1-.3-3.4v-7c0-1.3.1-2.5.3-3.5.3-1 .7-1.8 1.2-2.5a5 5 0 0 1 2.2-1.5c.8-.3 2-.5 3.3-.5a7.1 7.1 0 0 1 5.2 2.3l.1-.5.7-1c.3-.3.7-.4 1.2-.4h2.6c.4 0 .8.1 1 .4.4.3.5.6.5 1v19a1.5 1.5 0 0 1-1.5 1.6h-2.7a1.8 1.8 0 0 1-1.8-1.5v-.5a7 7 0 0 1-5.3 2.4m22.9-17.5c-.8 0-1.3.3-1.7.7-.3.5-.4 1.3-.4 2.4v6.1c0 1.2.1 2 .4 2.4.4.5 1 .7 1.7.7.6 0 1-.2 1.6-.4.6-.3 1-.7 1.5-1.1v-9.2c-.4-.5-1-.8-1.5-1.1a3 3 0 0 0-1.6-.5M56.8 132c-1.3 0-2.4-.2-3.3-.5a5 5 0 0 1-2.1-1.6c-.6-.6-1-1.5-1.2-2.5-.2-1-.4-2.1-.4-3.4v-7c0-1.3.2-2.5.4-3.5s.6-1.8 1.2-2.5a5 5 0 0 1 2.1-1.5c.9-.3 2-.5 3.3-.5a7.1 7.1 0 0 1 5.3 2.3l.1-.5c.1-.4.3-.7.6-1a2 2 0 0 1 1.2-.4h2.6c.5 0 .8.1 1.1.4.3.3.4.6.4 1v19c0 .5-.1.8-.4 1.1-.3.3-.6.5-1 .5h-2.8a1.8 1.8 0 0 1-1.7-1.5l-.1-.5a7 7 0 0 1-5.3 2.4M82 109c.7 0 1 .4 1 1.2v3.3c0 .3 0 .6-.3.8-.2.3-.5.4-.9.4-.8 0-1.6.1-2.3.4-.7.3-1.3.8-1.8 1.5V130a1.5 1.5 0 0 1-1.5 1.5h-3.5a1.5 1.5 0 0 1-1.5-1.5v-19c0-.5.1-.8.4-1.1.3-.3.6-.4 1-.4h2.7a1.8 1.8 0 0 1 1.8 1.4l.1 1a6.5 6.5 0 0 1 4.7-2.8m11.2 22.8c-2.7 0-4.6-.8-5.8-2.2a9.4 9.4 0 0 1-1.8-6v-9.5h-.4c-.4 0-.7-.2-1-.5-.3-.2-.5-.6-.5-1V111c0-.5.2-.8.5-1.1.3-.3.6-.4 1-.4h.8l.5-4c0-.5.2-.8.5-1.1.3-.3.7-.4 1.2-.4h2.5a1.5 1.5 0 0 1 1.5 1.5v4h3.4c.4 0 .8.1 1 .4.4.3.5.6.5 1v1.8c0 .4-.1.8-.4 1-.3.3-.7.5-1 .5H92v9.6c0 2 .8 3 2.4 3H96c.4-.1.7 0 1 .2.2.2.3.5.3.9v2.2c0 .4-.2.8-.4 1.1-.3.3-.7.5-1.1.5l-2.6.2m1.5-62c0-.5 0-.8-.4-1.1-.3-.3-.6-.4-1-.4H74.4V57.5h14.8a1.4 1.4 0 0 0 1.5-1.5v-4.3c0-.4-.1-.7-.4-1-.3-.3-.6-.5-1-.5H74.4V39.5h18.2c.5 0 .8-.2 1.1-.5.3-.3.4-.6.4-1v-4.4a1.5 1.5 0 0 0-1.5-1.5H66.1c-.5 0-.8.1-1 .4-.4.3-.5.6-.5 1v40.7c0 .4.1.8.4 1 .3.4.6.5 1 .5h27.2c.5 0 .8-.1 1.1-.4.3-.3.4-.7.4-1.1Zm0 0"/><path fill="#fff" d="M70.8 15.3c1 .8 3.2 4.3 5.6 9l-8.9-.2c-1.2-.3-4.8-1.6-4-5.6.3-1.9 1.2-3 2.5-3.6 1.6-.7 3.7-.3 4.8.4m21 8.8-8.8.2a37 37 0 0 1 5.5-9 5.4 5.4 0 0 1 4.8-.4c1.4.5 2.2 1.7 2.5 3.6.8 4-2.8 5.3-4 5.6m8.1-6.4a8.3 8.3 0 0 0-5-6.7 9.6 9.6 0 0 0-8.8 1 32 32 0 0 0-6.4 9.6c-2-3.9-4.5-8.3-6.5-9.7a9.7 9.7 0 0 0-8.8-.9 8.3 8.3 0 0 0-5 6.7c-1.2 6.8 4.3 9.9 7.6 10.5l9.5.2h6.3l9.3-.1h.4c3-.7 8.7-3.8 7.4-10.6m.3 123.1H9.3a.8.8 0 0 1-.8-.8v-3c0-.4.4-.8.8-.8h90.9c.4 0 .8.4.8.8v2.9c0 .4-.4.8-.8.8"/></svg>