<svg xmlns="http://www.w3.org/2000/svg" version="1.0" viewBox="-2.4 -2.4 197 85.1"><path fill="#10298e" d="M.2 78.3v-6.9h5.1v1.2H1.6V74H5v1.1H1.6V77h3.8v1.2H.2zm6.5-6.9H8v1.2H6.7v-1.2zm0 1.9H8v5H6.7v-5zm7.2 5h-1.3v-2.6l-.1-1a.7.7 0 0 0-.7-.5 1 1 0 0 0-.6.2 1 1 0 0 0-.4.5l-.1 1.1v2.3H9.4v-5h1.2v.7a2 2 0 0 1 1.6-.8l.8.1.6.4.2.6v3.9zm2.7-6.9V74a2 2 0 0 1 2.3-.5 1.3 1.3 0 0 1 .8 1v3.9h-1.2v-2.7l-.1-1-.3-.3a.8.8 0 0 0-.4-.1 1 1 0 0 0-.6.1 1 1 0 0 0-.4.5l-.1 1v2.5h-1.3v-6.9h1.3zm7.4 5.3 1.4.2a2 2 0 0 1-.8 1c-.4.3-.9.5-1.4.5-.9 0-1.5-.3-2-.9-.2-.4-.4-1-.4-1.7 0-.8.2-1.4.6-2 .5-.4 1-.6 1.7-.6s1.3.2 1.7.7c.4.5.6 1.3.6 2.3h-3.3c0 .3.2.6.4.9.2.2.4.3.7.3.2 0 .4 0 .5-.2.2 0 .3-.3.4-.5m0-1.3c0-.4 0-.7-.3-1a.9.9 0 0 0-.6-.2 1 1 0 0 0-.8.3l-.2.9h2zm2.5-4h1.3v1.2h-1.3v-1.2zm0 1.9h1.3v5h-1.3v-5zm5 0v1h-1V77l.2.2h.8v1l-1 .2c-.2 0-.4 0-.6-.2a1 1 0 0 1-.4-.3l-.2-.5v-3.1h-.7v-1h.6v-1l1.4-.7v1.7h.9zm.9-1.9h1.3v6.9h-1.3v-6.9zm2.8 0h1.3v1.2h-1.3v-1.2zm0 1.9h1.3v5h-1.3v-5zm7 1.5L41 75a1 1 0 0 0-.3-.6.9.9 0 0 0-.6-.2 1 1 0 0 0-.8.4c-.2.2-.3.6-.3 1 0 .7.1 1 .3 1.3.2.3.5.4.8.4.3 0 .5 0 .6-.2l.4-.7 1.3.2c-.2.6-.4 1-.8 1.3-.4.3-.9.5-1.5.5-.8 0-1.3-.3-1.8-.7a3 3 0 0 1-.6-2c0-.7.2-1.4.6-1.8.5-.5 1-.7 1.8-.7.6 0 1 .1 1.4.4.4.2.6.6.8 1.2m2.4-3.4V74a2 2 0 0 1 2.3-.5 1.3 1.3 0 0 1 .8 1v3.9h-1.2v-2.7l-.1-1-.3-.3a.8.8 0 0 0-.5-.1 1 1 0 0 0-.5.1 1 1 0 0 0-.4.5l-.1 1v2.5h-1.3v-6.9h1.3zm7.4 5.3 1.3.2c-.1.5-.4.8-.8 1-.3.3-.8.5-1.3.5-.9 0-1.5-.3-2-.9-.3-.4-.4-1-.4-1.7 0-.8.2-1.4.6-2 .5-.4 1-.6 1.7-.6s1.3.2 1.7.7c.4.5.6 1.3.6 2.3h-3.3l.3.9c.2.2.5.3.8.3.2 0 .4 0 .5-.2.2 0 .3-.3.3-.5m.1-1.3c0-.4-.1-.7-.3-1a.9.9 0 0 0-.7-.2 1 1 0 0 0-.7.3c-.2.2-.3.5-.3.9h2zm3.7 2.9h-1.3v-5h1.2v.7l.6-.7.5-.1c.3 0 .6 0 .9.2l-.4 1.2c-.2-.2-.4-.2-.6-.2l-.5.1-.3.6-.1 1.6v1.6zm5.3 0v-6.9h5v1.2h-3.7V74H66v1.1h-3.5V77h3.9v1.2h-5.2zm9.7 0v-.8c-.2.3-.5.5-.8.6a2 2 0 0 1-1.8 0c-.3-.1-.4-.3-.6-.6l-.1-1v-3.2h1.3v3.6l.3.3.5.2a1 1 0 0 0 1-.7v-3.4h1.4v5h-1.2zm3.8 0h-1.3v-5h1.3v.7l.5-.7.6-.1c.3 0 .6 0 .8.2l-.4 1.2c-.2-.2-.4-.2-.6-.2l-.4.1c-.2.1-.3.3-.3.6l-.2 1.6v1.6zm2.3-2.6c0-.4 0-.8.3-1.3.2-.4.5-.7 1-.9.3-.2.7-.3 1.2-.3a2.5 2.5 0 0 1 2.6 2.6c0 .7-.3 1.3-.7 1.8-.5.5-1.1.8-1.9.8a3 3 0 0 1-1.3-.3c-.4-.2-.7-.5-.9-1a3 3 0 0 1-.3-1.4m1.3 0c0 .6.1 1 .4 1.2.2.3.5.4.8.4.4 0 .7-.1.9-.4.2-.3.3-.6.3-1.1 0-.5 0-.9-.3-1.2-.2-.2-.5-.3-.9-.3-.3 0-.6 0-.8.3-.3.3-.4.7-.4 1.2m4.7-.7h2.6v1.3H83v-1.3zm2.8 3.2V77l3.6-4.4h-3.1v-1.2h5v1l-3.8 4.7h3.9v1.2h-5.6zm7.5-3.5-1.2-.2c.2-.5.4-.8.7-1 .3-.3.8-.4 1.5-.4.6 0 1 0 1.3.2.3.1.5.3.6.5l.2 1.2v2.5l.2.7h-1.3v-.4l-.1-.2-.7.5a2 2 0 0 1-.9.2c-.5 0-.9-.2-1.2-.4-.3-.3-.4-.7-.4-1.1 0-.3 0-.5.2-.7.1-.3.3-.4.6-.5.2-.2.5-.3 1-.4.6 0 1-.2 1.3-.3 0-.3 0-.4-.2-.5-.1-.2-.4-.2-.7-.2a1 1 0 0 0-.6.1 1 1 0 0 0-.3.5m1.8 1a8 8 0 0 1-.8.3c-.4 0-.6.1-.7.2-.2.1-.3.3-.3.5s0 .3.2.4c.1.2.3.2.5.2.3 0 .5 0 .7-.2.2-.1.3-.3.3-.4v-1zm3.9-4.5V74a2 2 0 0 1 2.4-.5 1.3 1.3 0 0 1 .8 1v3.9H101v-3.7l-.3-.3a.8.8 0 0 0-.5-.1l-.6.1a1 1 0 0 0-.4.5v3.5h-1.4v-6.9H99zm4.6 0h1.3v6.9h-1.3v-6.9zm6 6.9v-.8c-.2.3-.4.5-.7.6a2 2 0 0 1-1.8 0 .9.9 0 0 1-.6-.6l-.2-1v-3.2h1.3v3.6l.4.3.4.2a1 1 0 0 0 1-.7l.1-1.3v-2.1h1.3v5h-1.2zm7.2 0h-1.4v-3.6a.7.7 0 0 0-.8-.5 1 1 0 0 0-.6.2 1 1 0 0 0-.4.5v3.4h-1.4v-5h1.3v.7a2 2 0 0 1 1.6-.8l.8.1.5.4.3.6v3.9zm1.2.3 1.5.2.2.3.6.2c.3 0 .6 0 .8-.2l.2-.3v-1.3c-.3.5-.8.8-1.4.8-.7 0-1.2-.3-1.6-.9-.3-.4-.4-1-.4-1.7 0-.8.2-1.4.6-1.9a2 2 0 0 1 1.4-.6 2 2 0 0 1 1.6.8v-.7h1.2v4.4c0 .6 0 1-.2 1.4 0 .2-.2.5-.4.6-.1.2-.4.3-.7.4l-1 .2c-1 0-1.5-.2-1.9-.5-.3-.3-.5-.6-.5-1v-.2zm1.2-3c0 .6.1 1 .3 1.2.2.3.5.4.8.4.3 0 .5-.1.8-.4.2-.2.3-.6.3-1 0-.6-.1-1-.3-1.2a1 1 0 0 0-.8-.4 1 1 0 0 0-.8.4c-.2.2-.3.6-.3 1m4.4 1.2 1.3-.2c0 .3.2.5.3.6.2.2.5.2.8.2.3 0 .6 0 .7-.2l.2-.3v-.3l-.5-.1a7 7 0 0 1-2-.7c-.4-.2-.6-.6-.6-1 0-.5.1-.9.5-1.2.3-.3.8-.4 1.6-.4.6 0 1.1.1 1.5.3.3.2.5.6.6 1l-1.2.2c0-.2-.1-.3-.3-.4a1 1 0 0 0-.6-.2c-.4 0-.6 0-.8.2l-.1.2.1.3 1.2.3 1.5.6c.3.3.4.6.4 1 0 .5-.2.9-.6 1.2-.3.3-.9.5-1.6.5-.7 0-1.2-.2-1.6-.4a2 2 0 0 1-.8-1.2m7.2 1.5-2-5h1.4l1 2.5.2.9a10.7 10.7 0 0 0 .3-.9l.9-2.5h1.3l-2 5h-1.1zm6.9-1.6 1.3.2c-.2.5-.4.8-.8 1-.4.3-.8.5-1.4.5-.8 0-1.5-.3-1.9-.9-.3-.4-.5-1-.5-1.7 0-.8.2-1.4.7-2 .4-.4 1-.6 1.6-.6.7 0 1.3.2 1.7.7.5.5.7 1.3.7 2.3h-3.3c0 .3 0 .6.3.9.2.2.4.3.7.3.3 0 .4 0 .6-.2l.3-.5m0-1.3c0-.4 0-.7-.2-1a.9.9 0 0 0-.7-.2 1 1 0 0 0-.7.3c-.2.2-.3.5-.3.9h2zm3.7 2.9h-1.3v-5h1.3v.7l.5-.7.6-.1c.3 0 .6 0 .8.2l-.4 1.2c-.2-.2-.4-.2-.6-.2l-.4.1c-.2.1-.3.3-.3.6l-.2 1.6v1.6zm2.6 0v-6.9h1.2V75l1.6-1.7h1.6l-1.7 1.8 1.8 3.2h-1.4l-1.2-2.3-.7.7v1.6H144zm8.2-1.6 1.3.2c-.1.5-.4.8-.8 1-.3.3-.8.5-1.3.5-.9 0-1.5-.3-2-.9-.3-.4-.4-1-.4-1.7 0-.8.2-1.4.6-2 .4-.4 1-.6 1.6-.6.8 0 1.4.2 1.8.7.4.5.6 1.3.6 2.3h-3.3l.3.9c.2.2.5.3.8.3.2 0 .4 0 .5-.2.2 0 .3-.3.3-.5m.1-1.3c0-.4-.1-.7-.3-1a.9.9 0 0 0-.7-.2 1 1 0 0 0-.7.3c-.2.2-.3.5-.3.9h2zm3.7-4V74a2 2 0 0 1 2.4-.5 1.3 1.3 0 0 1 .8 1v3.9H158v-3.7l-.3-.3a.8.8 0 0 0-.5-.1l-.6.1a1 1 0 0 0-.3.5l-.2 1v2.5h-1.3v-6.9h1.3zm5.9 6.9h-1.3v-5h1.2v.7l.6-.7.5-.1c.3 0 .6 0 .9.2l-.4 1.2c-.2-.2-.4-.2-.6-.2l-.5.1-.3.6-.1 1.6v1.6zm2.1-1.5 1.3-.2c0 .3.2.5.3.6.2.2.4.2.7.2.4 0 .6 0 .8-.2l.2-.3-.1-.3-.5-.1a7 7 0 0 1-2-.7c-.4-.2-.6-.6-.6-1 0-.5.2-.9.6-1.2.3-.3.8-.4 1.5-.4s1.2.1 1.5.3c.4.2.6.6.7 1l-1.2.2c0-.2-.2-.3-.3-.4a1 1 0 0 0-.6-.2c-.4 0-.6 0-.8.2l-.1.2.1.3 1.2.3 1.5.6c.3.3.4.6.4 1 0 .5-.2.9-.6 1.2-.4.3-1 .5-1.7.5-.6 0-1.2-.2-1.6-.4-.4-.3-.6-.7-.7-1.2m7 1.5h-1.2v-5h1.2v.7l.5-.7.6-.1c.3 0 .6 0 .9.2l-.4 1.2c-.3-.2-.5-.2-.7-.2l-.4.1c-.2.1-.3.3-.3.6l-.1 1.6v1.6zm3.6-3.5-1.2-.2c.1-.5.3-.8.7-1 .3-.3.8-.4 1.4-.4.6 0 1 0 1.3.2.3.1.5.3.6.5.2.2.2.6.2 1.2v2.5l.3.7h-1.3l-.1-.4v-.2l-.8.5a2 2 0 0 1-.8.2c-.5 0-1-.2-1.2-.4-.3-.3-.5-.7-.5-1.1l.2-.7c.2-.3.4-.4.6-.5l1-.4c.7 0 1-.2 1.3-.3 0-.3 0-.4-.2-.5 0-.2-.3-.2-.7-.2a1 1 0 0 0-.5.1 1 1 0 0 0-.3.5m1.7 1a8 8 0 0 1-.8.3l-.7.2c-.2.1-.2.3-.2.5s0 .3.2.4c.1.2.3.2.5.2s.4 0 .7-.2l.3-.4v-1zm5.9 2.4v-.8c-.1.3-.4.5-.7.6a2 2 0 0 1-1.8 0 .9.9 0 0 1-.6-.6l-.2-1v-3.2h1.4v3.6l.3.3.5.2a1 1 0 0 0 1-.7v-3.4h1.4v5h-1.3zm2.6-5h1.2v.7a2 2 0 0 1 1.5-.8c.4 0 .6 0 .9.2.2.1.4.3.5.6l.7-.6.8-.2c.4 0 .7 0 1 .2l.5.7.2 1v3.2h-1.3v-2.9c0-.5 0-.8-.2-1l-.5-.2c-.2 0-.4 0-.6.2a1 1 0 0 0-.3.5l-.1 1v2.4h-1.3v-3.7l-.3-.3a.7.7 0 0 0-.4-.1 1 1 0 0 0-.6.2l-.3.4-.1 1v2.5h-1.3v-5zM0 63l2-.3c.1.7.4 1.2.8 1.5.3.3.8.5 1.4.5.7 0 1.2-.2 1.5-.4.3-.3.5-.6.5-1 0-.2 0-.5-.2-.6l-.7-.5-1.7-.4c-1-.3-1.8-.6-2.3-1a2.6 2.6 0 0 1-.4-3.4c.2-.5.7-.8 1.2-1a5 5 0 0 1 2-.4c1.2 0 2.2.3 2.8.8A3 3 0 0 1 8 59l-2 .1c0-.5-.3-.9-.6-1-.2-.3-.7-.4-1.2-.4-.6 0-1 .1-1.4.3a1 1 0 0 0-.3.7c0 .2 0 .4.3.6.2.2.8.4 1.8.6 1 .3 1.7.5 2.2.8a2.7 2.7 0 0 1 1.5 2.6A3 3 0 0 1 6.4 66c-.6.3-1.3.4-2.2.4-1.3 0-2.2-.3-3-.9a4 4 0 0 1-1.1-2.6m10.2-6.7h2V58h-2v-1.8zm0 2.7h2v7.3h-2v-7.3zm11 7.3h-2v-3.7l-.1-1.5a1 1 0 0 0-1-.8c-.4 0-.7.1-1 .3l-.5.7-.2 1.7v3.3h-1.9v-7.3h1.8V60a3 3 0 0 1 2.4-1.2c.4 0 .8 0 1.2.2.3.2.6.3.8.6.1.2.3.5.3.8l.2 1.3v4.5zm2.1.5 2.2.2c0 .3.2.5.3.6l.9.2c.5 0 .8 0 1-.2.3-.1.4-.3.5-.5v-2c-.5.8-1.2 1.2-2.1 1.2-1 0-1.8-.4-2.3-1.2a4 4 0 0 1-.7-2.5c0-1.2.3-2.1.9-2.8a3 3 0 0 1 2.2-1c.9 0 1.6.5 2.2 1.3v-1h1.8v6.5c0 .8 0 1.5-.2 1.9l-.6 1-1 .5c-.5.2-1 .3-1.7.3-1.2 0-2-.3-2.6-.7a2 2 0 0 1-.8-1.6v-.2zm1.8-4.3c0 .8.1 1.4.4 1.7.3.4.7.5 1.1.5.5 0 .9-.1 1.2-.5.3-.4.5-1 .5-1.6 0-.8-.2-1.3-.5-1.7-.3-.4-.7-.6-1.2-.6-.4 0-.8.2-1 .6-.4.3-.5.9-.5 1.6m7.4-6.2h2v10h-2v-10zm8.5 7.7 2 .3a4 4 0 0 1-1.2 1.6c-.6.4-1.2.6-2 .6-1.3 0-2.2-.4-2.8-1.3-.5-.6-.7-1.5-.7-2.5a4 4 0 0 1 .9-2.8c.6-.7 1.4-1 2.4-1s2 .3 2.5 1c.7.8 1 1.9 1 3.3h-4.9c0 .6.2 1 .5 1.4.3.3.7.4 1.1.4.3 0 .6 0 .8-.2l.4-.8m.1-2c0-.5-.1-1-.4-1.2-.3-.3-.6-.5-1-.5s-.8.2-1 .5c-.3.3-.4.7-.4 1.2h2.8zm8.3 4.3v-10h7.4v1.7h-5.4V60h5v1.7h-5v2.7H57v1.7h-7.6zm14.5 0v-1l-1 .8a3 3 0 0 1-2.7 0 2 2 0 0 1-.9-.9 4 4 0 0 1-.2-1.6V59H61v3.4l.1 1.9c0 .2.2.4.4.5l.7.2a1.5 1.5 0 0 0 1.4-1c.1-.2.2-.9.2-1.9v-3h1.9v7.2H64zm6 0h-1.9v-7.3H70v1l.8-.9c.3-.2.5-.2.9-.2s.8 0 1.2.3l-.6 1.7-.9-.3a1 1 0 0 0-.7.2l-.4.8c-.1.4-.2 1.2-.2 2.5v2.2zm3.6-3.7c0-.7.2-1.3.5-1.9.3-.6.8-1 1.3-1.4a4 4 0 0 1 2-.4 3.6 3.6 0 0 1 3.7 3.7 4 4 0 0 1-1 2.8c-.8.7-1.6 1-2.7 1-.7 0-1.3 0-2-.4-.5-.3-1-.7-1.3-1.3-.3-.6-.5-1.3-.5-2.1m2 0c0 .8.2 1.3.5 1.7.3.4.8.6 1.3.6s.9-.2 1.2-.6c.4-.4.5-1 .5-1.6 0-.8-.1-1.3-.5-1.7-.3-.4-.7-.6-1.2-.6s-1 .2-1.3.6c-.3.4-.5 1-.5 1.7m11.8 3.6v-10h3.2l2.4.1c.6.2 1 .5 1.5 1 .4.5.6 1.2.6 2 0 .6-.2 1-.4 1.5-.2.4-.5.8-.8 1a3 3 0 0 1-1 .5l-2.2.1h-1.3v3.8h-2zm2-8.3v2.8h1.1l1.6-.1a1.3 1.3 0 0 0 .9-1.3c0-.4-.1-.7-.3-1l-.9-.4h-2.4zm9.2 3.3-1.8-.4c.2-.7.6-1.2 1-1.5.5-.4 1.2-.5 2.2-.5.8 0 1.5 0 1.9.3.4.2.7.4.9.7l.2 1.8v2.2l.1 1.4.3 1h-1.9a6.9 6.9 0 0 1-.2-.8l-1 .7a3 3 0 0 1-1.3.3c-.7 0-1.3-.2-1.7-.6a2 2 0 0 1-.7-1.6c0-.4.1-.8.3-1 .2-.4.5-.6.8-.8l1.6-.5 1.8-.4v-.2c0-.4 0-.7-.2-.8-.2-.2-.6-.3-1-.3l-.9.2-.4.8m2.5 1.5-1.1.3-1 .3c-.3.2-.5.4-.5.7 0 .3.1.5.3.7.2.2.5.3.8.3.4 0 .7-.1 1-.3l.5-.7v-1.3zm3.3-3.7h2l1.8 5.1 1.7-5.2h2l-2.6 7-.4 1.3-.5 1-.5.5c-.2.1-.5.3-.8.3l-1 .2a5 5 0 0 1-1-.2l-.2-1.5.8.1c.5 0 .8-.1 1-.4l.5-1-2.8-7.3zm9 0h1.8v1c.6-.8 1.4-1.2 2.3-1.2.4 0 .8 0 1.2.3.3.2.6.4.8.8.3-.4.7-.6 1-.8l1.2-.3c.6 0 1 0 1.4.3.3.2.6.5.8 1l.2 1.5v4.6h-2V62l-.1-1.3c-.2-.3-.5-.5-.8-.5-.3 0-.6.1-.8.3l-.5.7-.2 1.5v3.5h-1.9v-4l-.1-1.3c0-.3-.2-.4-.3-.5a1 1 0 0 0-.6-.2c-.3 0-.6.1-.8.3-.2.1-.4.4-.5.7a5 5 0 0 0-.2 1.5v3.5h-1.9v-7.3zm17.2 4.9 2 .3a4 4 0 0 1-1.2 1.6c-.5.4-1.2.6-2 .6-1.3 0-2.2-.4-2.8-1.3-.5-.6-.7-1.5-.7-2.5a4 4 0 0 1 1-2.8c.6-.7 1.3-1 2.3-1 1 0 2 .3 2.6 1 .6.8.9 1.9.9 3.3h-4.9c0 .6.2 1 .5 1.4.3.3.7.4 1.1.4.3 0 .6 0 .8-.2l.4-.8m.2-2c0-.5-.2-1-.5-1.2-.2-.3-.6-.5-1-.5s-.7.2-1 .5c-.3.3-.4.7-.4 1.2h2.9zm10.5 4.3h-2V61a1 1 0 0 0-.5-.6l-.7-.2c-.3 0-.6.1-.8.3-.3.2-.5.4-.6.7l-.1 1.7v3.3h-2v-7.3h1.8V60a3 3 0 0 1 2.4-1.2c.4 0 .8 0 1.2.2.3.2.6.3.8.6l.4.8v5.8zM147 59v1.5h-1.3v3.9l.2.3h.3l.8-.1.1 1.5c-.4.2-1 .3-1.5.3-.3 0-.7 0-1-.2l-.5-.5c-.2-.1-.3-.4-.3-.7v-4.5h-1v-1.6h1v-1.4l1.9-1.1v2.5h1.3zm1 5.1 2-.3c0 .4.2.7.5.9.2.2.6.3 1 .3.5 0 .9-.1 1.1-.3.2-.1.3-.3.3-.5l-.1-.4-.7-.2c-1.5-.4-2.5-.7-3-1a2 2 0 0 1-.8-1.6c0-.6.3-1.2.8-1.6.5-.4 1.2-.6 2.3-.6 1 0 1.7.1 2.2.5.5.3.8.8 1 1.4l-1.8.3a1 1 0 0 0-.5-.6c-.2-.2-.5-.2-.9-.2a2 2 0 0 0-1 .2c-.2 0-.3.2-.3.4 0 0 0 .2.2.3l1.8.5c1 .3 1.7.6 2.1.9.4.3.6.8.6 1.4 0 .7-.2 1.3-.8 1.7-.6.5-1.4.8-2.5.8a4 4 0 0 1-2.3-.6 3 3 0 0 1-1.2-1.7m21.8 2.1h-2.2l-.9-2.3h-4l-.8 2.3h-2.2l4-10h2l4 10zm-3.7-4-1.4-3.7-1.4 3.7h2.8zm7 4h-2v-7.3h1.9v1l.8-.9c.2-.2.5-.2.8-.2.5 0 .9 0 1.3.3l-.6 1.7-.9-.3a1 1 0 0 0-.7.2l-.4.8c-.1.4-.2 1.2-.2 2.5v2.2zm8.3-2.3 1.9.3a4 4 0 0 1-1.2 1.6c-.5.4-1.2.6-2 .6-1.3 0-2.2-.4-2.8-1.3-.5-.6-.7-1.5-.7-2.5a4 4 0 0 1 1-2.8c.6-.7 1.4-1 2.3-1 1 0 2 .3 2.6 1 .6.8.9 1.9.9 3.3h-4.8c0 .6.1 1 .4 1.4.3.3.7.4 1.1.4.3 0 .6 0 .8-.2l.5-.8m0-2c0-.5-.1-1-.4-1.2-.2-.3-.6-.5-1-.5s-.7.2-1 .5c-.3.3-.4.7-.4 1.2h2.9zm5.4-.7-1.8-.4c.2-.7.6-1.2 1-1.5.5-.4 1.3-.5 2.2-.5.9 0 1.5 0 2 .3l.8.7c.2.4.3 1 .3 1.8v3.6c0 .3.2.7.4 1h-2a6.5 6.5 0 0 1-.2-.8l-1 .7a3 3 0 0 1-1.2.3c-.8 0-1.4-.2-1.8-.6a2 2 0 0 1-.7-1.6c0-.4.1-.8.3-1 .2-.4.5-.6.9-.8l1.5-.5 1.9-.4v-.2c0-.4-.1-.7-.3-.8-.2-.2-.5-.3-1-.3l-.8.2c-.2.2-.4.4-.5.8m2.6 1.5-1.2.3-1 .3c-.3.2-.4.4-.4.7 0 .3 0 .5.3.7.2.2.4.3.7.3.4 0 .7-.1 1-.3.3-.2.4-.4.5-.7v-1.3zm-146.7-46H29.5c0-2.1-.2-3.6-.7-4.3-.8-1-3-1.6-6.5-1.6a16 16 0 0 0-6.8 1c-1.1.5-1.7 2-1.7 4s.5 3.2 1.5 3.8c.7.4 1.6.7 2.8.8l2.7.1 10.6.8c4.5.5 7.8 1.7 9.8 3.6a9.5 9.5 0 0 1 2.8 6A41.3 41.3 0 0 1 43 45c-1.4 3.6-4.7 5.8-9.8 6.8a58 58 0 0 1-9.8.6C16 52.4 10.9 52 8 51.1a10 10 0 0 1-7-6.6c-.7-1.8-1-4.9-1-9.1h13.1v1c0 2.3.7 3.8 2 4.5 1 .4 2 .6 3.3.7h4.8c2.5 0 4-.1 4.8-.4 1.2-.5 2-1.2 2.3-2.3a9 9 0 0 0 .3-2.5c0-2.3-.8-3.7-2.5-4.3l-8.8-.8-8.7-.8c-4.3-.9-7.2-2.5-8.6-5a19.6 19.6 0 0 1-2-9.7c0-3.3.4-6 1-8C1.9 6 3 4.6 4.5 3.5 6.6 2 9.4 1 12.9.7a91.3 91.3 0 0 1 21.3.6C40 2.7 42.8 7 42.8 14l-.1 2.6m57.8 35.9V0h26.3c3.6 0 6.4.3 8.3.9 4.3 1.3 7.2 4.1 8.7 8.3a31 31 0 0 1 1.2 10 37 37 0 0 1-1.3 11.5c-1.7 4.6-5.2 7.2-10.4 7.9l-7.9.3h-10.8v13.6h-14.1zm14.1-25.7h8.8c2.8-.1 4.5-.3 5.1-.7.9-.4 1.4-1.4 1.7-2.7.2-1 .3-2.3.3-4.1 0-2.3-.2-3.9-.5-5-.6-1.5-1.8-2.4-3.7-2.7l-2.7-.1h-9v15.3zm60.5 16.6h-18.9l-2.5 9.1H139L154.8 0h21.4l16 52.5h-14.4l-2.7-9zm-2.8-10.2-6.6-22.8-6.4 22.8h13z"/><path fill="#ffbe00" d="M81 7.4c5.8 0 11 2.7 14.4 6.9l3-6.6a26.7 26.7 0 0 0-42.9 9h-6l-3.4 7.5h7.6a25.5 25.5 0 0 0 0 4.7H50l-3.5 7.5h9.3A26.8 26.8 0 0 0 95 47.7v-9.2a18.6 18.6 0 0 1-29.6-2H85l3.5-7.6h-26a19 19 0 0 1 0-4.7h28l3.6-7.5H64.9c3.2-5.6 9.2-9.3 16-9.3"/><path fill="#10298e" d="M81 7.6c5.5 0 10.8 2.5 14.3 6.8l.2.3.1-.3 3-6.6.2-.1-.2-.1A26.9 26.9 0 0 0 65 4.8c-4.4 3-7.7 7-9.7 11.8l.2-.1h-6l-.1.1-3.5 7.5-.2.4h8l-.2-.3a26 26 0 0 0 0 4.7l.3-.2h-4v.1l-3.6 7.5-.1.3h9.6l-.2-.1a27 27 0 0 0 39.6 11.4h.1V37.8l-.4.5a18.4 18.4 0 0 1-29.2-2.1l-.2.3H85l3.6-7.6.1-.3H62.5l.3.2a19 19 0 0 1-.1-4.6l-.3.2h28.3v-.2l3.6-7.5.1-.3H65l.2.3c3.3-5.7 9.4-9.2 15.9-9.2M64.9 17H94l-.2-.3-3.5 7.5h.2-28.4v.1a19.6 19.6 0 0 0 .1 4.7v.2h26.3l-.2-.3-3.5 7.5.2-.1H65l.2.3a18.8 18.8 0 0 0 30 2.2l-.4-.2v9.2-.2A26.5 26.5 0 0 1 56 36.3v-.1h-9.5l.2.3 3.5-7.5-.2.1h4V29a25.6 25.6 0 0 1 0-4.7V24h-8l.2.3 3.5-7.5-.2.1h6l.1-.1a26.5 26.5 0 0 1 42.6-8.9v-.3l-3 6.6h.3a18.8 18.8 0 0 0-31 2.4l-.1.3h.4z"/></svg>