<svg xmlns="http://www.w3.org/2000/svg" fill="none" viewBox="0 0 123 131"><g clip-path="url(#a)"><path fill="#fff" d="M41.3 25.7V27a3.3 3.3 0 0 0 .3 1.7h.2l-.1-.3-.2-1v.2l.4.7.1.1v-.8l.2.2v-.3l-.2-1V26a.4.4 0 0 1 .3.2l.3 1a21 21 0 0 0 .3 1.1c.3.4.5.8.6 1.3l.6 1.5.4 1.4.4 1.2c0 .3.2.6.4.8l.6.4c.3 0 .7.2 1 .4a.7.7 0 0 0 .6 0l.5-.2c.2 0 .4-.2.5-.4l.6-.9a1 1 0 0 0 0-.8l-.2-.5a5.2 5.2 0 0 1-.3-.9l-.5-1.2-.2-.4-.2-.6v-.2l.2-.1a2 2 0 0 0 1-1c.2-.6.3-1.2.2-1.8 0-.5 0-1-.2-1.4v-.2a.8.8 0 0 1 .7 0 1 1 0 0 1 .5.6l.1.2.6 2.3.5 2.3a2.2 2.2 0 0 1-.1 1.5l-.4 1.4-.1 1-.1 1v1l.4 1v.3a.5.5 0 0 1-.2.5 35.9 35.9 0 0 0-2 2.3l-1.9 1.5-.8.4c-.3.2-.5.5-.6.8l-.3 1-.5 1.3c-.1.6-.4 1-.6 1.6l-.3.7-.1.3-.2.2-.5 1V51c0 .4 0 .8-.2 1.2l-.2.9-.3 1.8a.3.3 0 0 0 .3.4l.4-.2.8-.4a6.1 6.1 0 0 0 1-1c.3-.4.4-.8.4-1.3a1.1 1.1 0 0 0-.5-1 .3.3 0 0 1-.2-.4 38.8 38.8 0 0 1 .6-2.2v-.7l.4-1c0-.4.2-.7.4-1l.6-.8.6-.6a136.3 136.3 0 0 0 1.8-1.6l1.3-.7 3-1.5.6-.2 1.2-.3h.9c.3 0 .3 0 .4.3l.3 1.5c0 .6.2 1.1.4 1.7l.1.3.2.9.2 1.4.5 1.6.2.8c.2.4.3 1 .3 1.4l.1 1.7c0 .4 0 .8-.2 1.1l-.1.8-.1 1.2a1.6 1.6 0 0 1-.7 1.2l-.4.3-.4.5-.5.9-.3.6a.4.4 0 0 0 0 .4l.2.1.7.2H58a3 3 0 0 0 1.5-1c.2-.1.3-.3.4-.6v-.4c0-.3 0-.5-.2-.8l-.1-.3a.6.6 0 0 1 0-.6l.4-.4V55l.5-.8v-.6l-.3-1.5-.2-1.3v-2.5a30.4 30.4 0 0 0 0-3.5l.2-1.9.2-2.2V40c0-.2.1-.2.3-.2h.5l2.3-.3h3.8l.6-.1a9.6 9.6 0 0 0 1.7-.4l1-.5.4-.3.9-.8.4-.6h.2l.2.8.3 1.8v.5a55.4 55.4 0 0 0 .6 1.6l.5.9.5.6a.4.4 0 0 1 .1.3V46l-.1.7-.2.3-.2.3-.3.4-.9.8-.8.9-.7.6-.5.2-.4.6-.4.8c-.1.5-.3.8-.6 1.2l-.6.8-.3.4-.3.6a203.4 203.4 0 0 0-.6 1.4l.1.2h.5l1.8-.1c.4-.1.7-.3.9-.6l.4-.4.2-.6a.7.7 0 0 0 0-.5l-.4-.4a.5.5 0 0 1 0-.6l.1-.1.6-.4.4-.3.2-.6.2-.4 1-1.1.7-.9.7-.6 1-.8.9-.8.4-.4.1-.1.2-.6v-.1h.1l.2.2v.5l.4 1 .2 1v1.7l-.1.7v.2l-.2.6-.3.4-.1.7-.1.8c0 .4-.2.7-.5.9l-.6.5c-.2.1-.2.3-.3.4l-.7 1.3.1.2 1 .4a4 4 0 0 0 1.7-.2c.3 0 .5-.2.6-.4l.4-.6v-.7l-.1-.5-.3-.3a.2.2 0 0 1 0-.3c0-.2.2-.4.4-.5l.5-.6c.2-.1.2-.4.2-.6V49l.2-1.3.3-.8.2-1.8a.8.8 0 0 0-.4-.7l-.5-.5a70.7 70.7 0 0 0-1.3-1.2 13.7 13.7 0 0 1-.8-1.6V41l.7-.6A20.4 20.4 0 0 0 80 39l.6-.7.2-.3.5-.8.3-.7.6-1.5c.2-.9.2-1.8.1-2.8l-.3-1.3-.2-.5v-.1l.3.3.3.4.2.3c.1 0 .2 0 .2.2.2.4.4 1 .4 1.5v3.2a17.7 17.7 0 0 0 0 1 .1.1 0 0 0 .1 0l.3-.1.4-.8.2-.6v.1l.1 2.1.1 1.6a9 9 0 0 0 .3 2h.1l.2-.1.1-.2.1.3.4 1 .3 1h.2v-.2l-.3-.6-.2-.7-.2-3v-2.1.5l.2 1.8.3 1.5.2 1.4c.1.6.4 1.1.6 1.6l.5.6c0 .2.2.3.3.3v-.1l-.7-1.3a3 3 0 0 1-.2-.5v-.2l.1.1.4.7.2.2h.2l-.1-.2-.4-1a8.2 8.2 0 0 1-.6-3.4v-1.5l.2-1.8.1-1.5V31a5.3 5.3 0 0 0-1-3.3 3.3 3.3 0 0 0-2.8-1.2c-.6 0-1.2.1-1.7.4a53 53 0 0 0-1.7.7l-.5-.1-1-.4c-.7-.3-1.5-.4-2.3-.4H75l-1.5.3-2.3.4-2.5.3h-1a15 15 0 0 1-4.7-.8l-1-.4-1.4-.7-.9-.9a54.6 54.6 0 0 0-2.9-3.5 16.2 16.2 0 0 0-2.8-2.2 6 6 0 0 0-2.5-1A6 6 0 0 0 50 18c-.8 0-1.6.1-2.3.3-.7.2-1.4.5-2 .9l-1.3.9-.8.4h-.3l-.7-.8-.6-.6a1 1 0 0 0-.5-.2c-.2 0-.3 0-.2.2v.3l.3.7.2.7.1.3a.2.2 0 0 1-.1-.1l-.2-.3a16 16 0 0 0-.5-.6 3.5 3.5 0 0 0-.7-.7.1.1 0 0 0-.1 0 .1.1 0 0 0 0 .1v.2l.1.7.3 1 .5 1 .2.5v.3l-.2 1v.2l-.3 1.6v1.5a5 5 0 0 0 .3.5h.1l-.1-1.1M26.3 80.6c0 .7.2 1 .6 1.3.4.2 1.2.5 2.4.7.3 0 .4.3.4.6v.9a84.4 84.4 0 0 0-11 0v-.9c0-.3 0-.5.4-.6.8-.1 1.6-.4 2.3-.7a1.3 1.3 0 0 0 .6-1.3v-11H7.7v11c0 .7.2 1 .6 1.3a9.4 9.4 0 0 0 2.6.8.6.6 0 0 1 .3.5l-.1.9a94 94 0 0 0-11 0l-.1-.9c0-.3.1-.5.4-.6a8 8 0 0 0 2.4-.7 1.3 1.3 0 0 0 .6-1.3v-24l-.5-.5c-.3-.2-.6-.4-.9-.4l-1.5-.4c-.3 0-.4-.2-.4-.7v-.8a73.4 73.4 0 0 0 10.9 0v.8c0 .4 0 .7-.4.7a6 6 0 0 0-2.3.7 1.5 1.5 0 0 0-.6 1.3v10.3H22V57.3a1.6 1.6 0 0 0-.5-1.2 6 6 0 0 0-2.4-.8c-.3 0-.5-.2-.5-.7l.1-.8a72.9 72.9 0 0 0 10.9 0v.8c0 .4 0 .7-.4.7a6 6 0 0 0-2.3.7 1.5 1.5 0 0 0-.6 1.4v23.2Zm4.5-6.4a10.1 10.1 0 0 1 3-7.3A10.3 10.3 0 0 1 45 64.7c1.2.5 2.3 1.2 3.2 2 1 1 1.6 2 2 3.3a11.2 11.2 0 0 1 0 8.2 10.2 10.2 0 0 1-9.3 6.2c-1.4 0-2.8-.2-4.1-.8a9.3 9.3 0 0 1-5.3-5.3c-.5-1.3-.8-2.7-.8-4.1Zm4.3-1.6c0 1.2.1 2.4.4 3.5.2 1.2.6 2.2 1 3.3.5.9 1.2 1.7 2 2.3.8.7 1.8 1 2.9 1 1.7 0 3-.6 4-1.8 1-1.3 1.5-2.8 1.5-4.8 0-1.2-.2-2.4-.4-3.5a13 13 0 0 0-1-3.4 10 10 0 0 0-2-2.5 5 5 0 0 0-3-1 5 5 0 0 0-4 1.6c-1 1.1-1.4 3-1.4 5.3ZM66.5 64c.8 0 1.5.2 2 .6A2 2 0 0 1 69 66v.5l-.5.5c-.3.2-.6.5-1 .6-.3.3-1 .5-1.6.9-.3-.4-.6-.7-1-.9-.4-.2-.8-.4-1.3-.4s-1 .2-1.4.5a3 3 0 0 0-1 1.2c-.4.5-.6 1.1-.8 1.7l-.2 2v8c0 .6.3 1.1 1 1.4 1 .4 2 .7 3 .8a.5.5 0 0 1 .5.5l-.1.8a24.3 24.3 0 0 0-2.8-.2 56 56 0 0 0-8.4.2v-.8a.5.5 0 0 1 .3-.5 6 6 0 0 0 1.9-.6c.5-.2.8-.6.8-1V69.5l-.1-1.6c0-.3-.2-.7-.4-1-.2-.3-.5-.5-.8-.6l-1.4-.2c-.4-.1-.6-.3-.6-.6l.1-.7a26.7 26.7 0 0 0 6.4-.8c.4 0 .6.2.6.7v3c.9-1 1.9-1.8 3-2.6.9-.7 2-1.1 3.3-1.1Zm15.8 5.6c-.2 0-.4 0-.5-.2a.7.7 0 0 1-.2-.3c-.2-1.3-.7-2.2-1.5-2.7a5 5 0 0 0-2.9-.8c-.8 0-1.7.3-2.3.8a2.4 2.4 0 0 0-1 2 2.5 2.5 0 0 0 .9 2c.6.6 1.7 1 3.4 1.6l2.4 1c.7.2 1.3.6 2 1.1.4.5.9 1.1 1.2 1.8.3.8.4 1.6.4 2.4 0 .8-.1 1.6-.4 2.3-.3.8-.8 1.4-1.3 2-.7.5-1.5 1-2.3 1.3a11.3 11.3 0 0 1-6.4.1c-1.2-.2-2.3-.6-3.3-1.1a88.1 88.1 0 0 1-.2-5.2h.4c.3 0 .6 0 .8.2a.6.6 0 0 1 .4.5c0 1.2.6 2.3 1.4 3.1 1 .8 2.1 1.2 3.7 1.2 1.2 0 2.2-.3 2.8-.9a2.9 2.9 0 0 0 1-2.3 2.7 2.7 0 0 0-1-2.3c-1-.6-2.1-1.1-3.3-1.4-1.8-.6-3.2-1.3-4.2-2.2-1-.9-1.5-2.2-1.5-3.9a5.6 5.6 0 0 1 3.7-5.3c.9-.3 1.8-.5 2.7-.5a12 12 0 0 1 6 1.5 33.9 33.9 0 0 1 0 2l.1 1.2v1h-1Zm21.7 10a1 1 0 0 1 .7-.3c.4 0 .6.2 1 .7l-1.5 1.7c-.5.5-1.1 1-1.8 1.4l-2.4 1a12.2 12.2 0 0 1-6.6-.3c-1.1-.4-2.1-1-3-1.8-.8-1-1.5-2-2-3.1-.5-1.4-.7-2.8-.7-4.3s.3-3 1-4.3a11.1 11.1 0 0 1 5.3-5.6 8 8 0 0 1 3.3-.8c2.8 0 4.9.9 6.2 2.5a10.2 10.2 0 0 1 2 6.6.2.2 0 0 1-.2.1h-.2l-13.1.7c0 1 .1 2.2.5 3.3a8 8 0 0 0 1.4 2.6A6.4 6.4 0 0 0 99 82c1 0 2-.2 2.8-.7.9-.4 1.6-1 2.3-1.7Zm-7.3-14a4 4 0 0 0-3.5 1.8 8 8 0 0 0-1.3 4.7l8.6-.5c.4 0 .7-.2.7-.5a6.8 6.8 0 0 0-1.1-3.6c-.4-.6-.9-1-1.4-1.4-.6-.3-1.3-.5-2-.5Zm24.3 4c-.1 0-.3 0-.4-.2a.8.8 0 0 1-.2-.3c-.2-1.3-.7-2.2-1.5-2.7a5 5 0 0 0-3-.8c-.8 0-1.6.2-2.3.8a2.4 2.4 0 0 0-1 2 2.5 2.5 0 0 0 1 2c.6.6 1.7 1 3.3 1.6l2.5 1a5 5 0 0 1 3.2 3c.3.7.4 1.5.4 2.3 0 .8-.2 1.6-.4 2.3-.3.8-.8 1.4-1.4 2a8 8 0 0 1-2.2 1.3 11.3 11.3 0 0 1-6.5.1c-1.1-.2-2.2-.6-3.2-1.1a114.7 114.7 0 0 1-.2-5.2h.4c.3 0 .6 0 .8.2a.6.6 0 0 1 .4.5c0 1.2.6 2.3 1.4 3.1 1 .8 2.1 1.2 3.7 1.2 1.2 0 2.2-.3 2.8-.9a2.9 2.9 0 0 0 1-2.3 2.7 2.7 0 0 0-1-2.3c-1-.6-2.1-1.1-3.3-1.4-1.8-.6-3.2-1.3-4.2-2.2-1-.9-1.5-2.2-1.5-3.9a5.6 5.6 0 0 1 1.7-4 6 6 0 0 1 2-1.3c.8-.3 1.7-.5 2.6-.5a12 12 0 0 1 6 1.5 19.2 19.2 0 0 1 .2 2v2.2h-1ZM61.4 119a52 52 0 0 1-9 .7c-2.3 0-4.6-.3-6.7-1.1a13 13 0 0 1-7.5-8 19 19 0 0 1 0-11.4 14.3 14.3 0 0 1 14-9.8 48.2 48.2 0 0 1 7.5.8l2.6.6a36.8 36.8 0 0 0 1 6.5l-.4.2a3 3 0 0 1-.4 0 .8.8 0 0 1-.9-.6 7 7 0 0 0-2.7-4.3 9.7 9.7 0 0 0-5.5-1.3c-1.7 0-3.4.3-5 1a9.8 9.8 0 0 0-5.7 6.4 16.8 16.8 0 0 0 .3 10.7 13 13 0 0 0 2.4 4.5 11 11 0 0 0 8.5 4 18.9 18.9 0 0 0 4.8-.7v-6.9c0-.8-.2-1.3-.7-1.6a6 6 0 0 0-2.4-.7.6.6 0 0 1-.5-.4l-.1-.5v-.7a104.7 104.7 0 0 0 11 0v.7c0 .2 0 .4-.2.6l-.3.2c-1 .1-1.7.3-2 .6a1.6 1.6 0 0 0-.6 1.3v8c0 .3 0 .5-.2.7-.2.2-.6.4-1.3.5Zm12.1.2h-3a48.9 48.9 0 0 0-1.8.2v-.3l-.1-.4a.5.5 0 0 1 .4-.5 7 7 0 0 0 1.9-.6 1 1 0 0 0 .7-1v-12.3c0-.8-.2-1.5-.5-1.9-.3-.4-1-.6-2-.7h-.3a.6.6 0 0 1-.3-.6v-.6a25.7 25.7 0 0 0 6.5-.8c.4 0 .6.2.6.6l-.1 1.6-.2 2.3v12.4a1 1 0 0 0 .7 1c.6.3 1.3.5 2 .6 0 0 .2 0 .3.2v1h-.7l-1.1-.1a45.3 45.3 0 0 0-3-.1Zm-2.6-27a2.7 2.7 0 0 1 1.6-2.5c.3-.2.6-.2 1-.2a2.3 2.3 0 0 1 1.8.8c.4.5.7 1.2.7 1.9a2.6 2.6 0 0 1-.7 1.8 2.4 2.4 0 0 1-1.8.8 2.5 2.5 0 0 1-2.7-2.6Zm12.7 9.9H81v-.8a.6.6 0 0 1 .5-.6l.9-.2 1-.3c.2-.2.3-.5.3-1V97a10 10 0 0 1 2.5-7.2 6.9 6.9 0 0 1 5-2.2c.9 0 1.8 0 2.6.3.7.2 1.4.4 2 .8.6.3 1 .6 1.4 1 .3.4.4.9.4 1.3 0 .2 0 .4-.3.5a4.7 4.7 0 0 1-1.8.7l-.6.1a1 1 0 0 1-1-.5c-.3-.7-.7-1.2-1.1-1.8-.5-.5-1.2-.7-2.1-.7a2.6 2.6 0 0 0-2.4 1.3c-.5.9-.8 2.1-.8 3.8v5.7h5.3l-.1 1.4c0 .2-.2.3-.3.4l-.5.1h-4.4v13.8a1.6 1.6 0 0 0 1 1.6 12.6 12.6 0 0 0 3.6.7.5.5 0 0 1 .3.5v.4l-.1.3h-.8l-1.6-.1a87.9 87.9 0 0 0-3.8-.1H83a58.3 58.3 0 0 0-1.9.2v-.7a.5.5 0 0 1 .4-.5l1.6-.6a1.1 1.1 0 0 0 .6-1V102Z"/><path fill="#fff" d="m105.2 116.5.4-.2h.2c.3 0 .5.1.7.5a11 11 0 0 1-2.5 2.1c-.8.6-1.8.8-2.8.8a7 7 0 0 1-1.7-.2 3 3 0 0 1-1.4-.8 4 4 0 0 1-1-1.5l-.3-2.7v-12.4h-2.6V101l.3-.2h.2a3 3 0 0 0 2-.7c.5-.4 1-1 1.2-1.6l1-2c.2-.7.5-1 .9-1h.8v4.7h5.2c0 .5 0 1-.2 1.5a.7.7 0 0 1-.7.4h-4.3v11.2l.1 2.3c0 .5.2 1 .4 1.4l.6.6c.3 0 .6.1.8 0 .5.1 1 0 1.4-.2a8 8 0 0 0 1.3-.9Zm15.3-11.3a.7.7 0 0 1-.5-.2.7.7 0 0 1-.2-.3c-.2-1.2-.7-2.1-1.5-2.6a4 4 0 0 0-2.8-.8c-.8 0-1.7.2-2.3.7a2.4 2.4 0 0 0-1 2 2.5 2.5 0 0 0 1 2c.5.5 1.6 1 3.2 1.6.9.2 1.7.5 2.4.9.7.3 1.3.7 1.9 1.2.5.5 1 1 1.2 1.7a6.1 6.1 0 0 1 0 4.7c-.2.7-.7 1.3-1.3 1.8-.6.6-1.3 1-2.1 1.3a9 9 0 0 1-3.2.5l-3.2-.3c-1.1-.2-2.2-.6-3.2-1.1a120.9 120.9 0 0 1-.2-5h1.2a.6.6 0 0 1 .3.6c.1 1.2.6 2.2 1.5 3a5 5 0 0 0 3.6 1.2c1.2 0 2.1-.3 2.8-.9a2.8 2.8 0 0 0 1-2.2 2.6 2.6 0 0 0-1.1-2.3c-1-.6-2-1.1-3.2-1.4-1.7-.6-3.1-1.3-4.1-2.1-1-.9-1.5-2.2-1.5-3.9a5.5 5.5 0 0 1 3.6-5.2c.9-.3 1.8-.4 2.6-.4a11.7 11.7 0 0 1 5.9 1.5 32.7 32.7 0 0 1 .2 2v2h-1Z"/><path fill="#D5A686" d="M59.7 124.2c-1.2 0-9.9 8.2-23-.3-4.3-2.8-10-7.5-13.6-10.7a47.4 47.4 0 0 0 5-9.2l.7-1.2c.1-.3.4-.5.6-.7.3-.1.5-.3.8-.3l1.1-.3c.5-.1.7-.3.7-.7v-.4l-.2-.5-4 .2h-2.3l-2-.2c-.2.2-.2.3-.2.5v.4c0 .4.2.6.6.6a5 5 0 0 1 1.7.6 1 1 0 0 1 .4.8l-.3 1.6a34 34 0 0 1-4 7.6l-.9-.8a251.5 251.5 0 0 1-8-8c1.8-1.2 3-2.4 3.8-3.6a6.7 6.7 0 0 0 .6-6.2 8 8 0 0 0-1.5-2.1 7 7 0 0 0-2.3-1.4 7 7 0 0 0-2.8-.5c-2.2 0-4 .5-5.3 1.7a5.5 5.5 0 0 0-2 4.4c0 .7 0 1.4.2 2 .1.8.3 1.5.7 2.1a20.5 20.5 0 0 0 3.4 4.6 18.2 18.2 0 0 0-5 4.3 9.2 9.2 0 0 0-1 9c.3 1 1 1.8 1.8 2.5s1.8 1.2 2.9 1.5c1.1.3 2.4.5 3.6.5 2 0 4-.5 5.7-1.5 1.8-1 3.4-2.3 4.7-3.8 3.5 3 9 7.6 15.3 11.4 10.6 6.5 22.8.4 25-2.7 0 0 .3-1.3-.9-1.2ZM7.2 94.5a3 3 0 0 1 .8-2.3 3 3 0 0 1 2.2-.8c1.4 0 2.4.4 3 1.3a6 6 0 0 1 1 3.7 7.7 7.7 0 0 1-2.6 5.7 19 19 0 0 1-3.5-4.3c-.6-1-.9-2.1-1-3.3Zm7.8 23.8a10 10 0 0 1-3.9.8c-.6 0-1.3-.1-1.9-.3-.7-.2-1.4-.5-2-1a5.4 5.4 0 0 1-1.5-1.8c-.5-1-.7-2-.7-3 0-1.4.4-2.8 1-4.1.6-1.3 1.6-2.5 2.7-3.5a225.1 225.1 0 0 0 9.7 9.5l.5.5a13.7 13.7 0 0 1-3.9 2.9Zm52.3-91.1s-2.9 0-2.5 12.4c0 0 2 .3 3.2 0 0 0-1.9-6.3 1.7-12.3"/><path fill="#D5A686" d="M68.4 27.6s4.8-.3 8.9-2.4c3.7-2 6.7-8.8 2.8-13C71.2 3 67 22.6 68.4 27.7ZM77 16c4 5.2-8.1 11-8.1 11v-.3S73.1 11 77 16Z"/><path fill="#D5A686" d="M67.6 27.5s.3-5-.5-9.5c-.7-4.3-4.4-9-7.2-6.2-6.5 6.6 4.6 15.8 7.7 15.7ZM62 16.3c3.3-2.5 5.3 10.5 5.3 10.5l-.2-.1s-8.4-8-5.1-10.4Z"/><path fill="#D5A686" d="M68.1 29.3a.6.6 0 0 1-.5-.3V.6a.6.6 0 0 1 .3-.6.6.6 0 0 1 .8.4v28.3a.6.6 0 0 1-.4.6h-.2Z"/></g><defs><clipPath id="a"><path fill="#fff" d="M0 0h123v131H0z"/></clipPath></defs></svg>