<svg xmlns="http://www.w3.org/2000/svg" xmlns:xlink="http://www.w3.org/1999/xlink" viewBox="0 0 70 40"><defs><linearGradient id="b" x1="35.6" x2="38.5" y1="5.6" y2="22.3" gradientUnits="userSpaceOnUse"><stop offset="0" stop-color="#959695"/><stop offset=".3" stop-color="#e0e0e0"/><stop offset=".6" stop-color="#9c9c9b"/><stop offset="1" stop-color="#e0e0e0"/></linearGradient><linearGradient id="a" x1="31.3" x2="32.2" y1="26.8" y2="31.7" gradientUnits="userSpaceOnUse"><stop offset="0" stop-color="#e0e0e0"/><stop offset=".3" stop-color="#9c9c9b"/><stop offset=".6" stop-color="#e0e0e0"/><stop offset="1" stop-color="#9c9c9b"/></linearGradient><linearGradient xlink:href="#a" id="c" x1="36.3" x2="37.1" y1="26.8" y2="31.7"/><linearGradient xlink:href="#a" id="d" x1="41.8" x2="43" y1="24.8" y2="31.6"/><linearGradient xlink:href="#a" id="e" x1="47.3" x2="48.2" y1="26.8" y2="31.7"/><linearGradient xlink:href="#a" id="f" x1="52.2" x2="53.1" y1="26.7" y2="31.6"/><linearGradient xlink:href="#a" id="g" x1="57.8" x2="58.7" y1="26.7" y2="31.7"/></defs><g data-name="Layer 2"><g data-name="Layer 1"><rect width="70" height="40" rx="3.7"/><path d="M44.5 7.6c0-1 0-1-1-1H30.6c-1 0-1 0-1 1l-.1 13c0 .6.3.8 1 .8h12.9c1 0 1 0 1-1V7.6Zm-7 7.9v4.3c0 .9-.1 1-1 1h-2c-1 0-1-.1-1-1.1 0-1.2 0-1.2 1.2-1.2 1 0 1 0 1-1v-3.2c0-.6 0-.8-.7-.8-1.3 0-1.3 0-.8-1.3a10 10 0 0 0 .6-4.2c0-.5 0-1 .7-1 .7.1.7.6.7 1a9.4 9.4 0 0 0 .8 4.8 6.2 6.2 0 0 1 .5 2.7Zm3.7 5.2h-2.8v-.2c.4-.2 1-.1 1.1-.5a7.8 7.8 0 0 0 0-2c0-.4-.3-.5-.6-.7a3.3 3.3 0 0 1-.6-3.7.4.4 0 0 1 .4-.2h2c.4 0 .5.2.5.5.3 1.4.5 2.7-1 3.6-.3.2-.3.6-.3 1 0 1.4 0 1.4 1.3 2.2Zm-7.5 10.1a.4.4 0 0 0-.4-.2 2.5 2.5 0 0 0-.5.1c-1.3.4-2-.1-2-1.5 0-1.3.7-1.9 1.9-1.5h.3c.2.1.5.2.6 0 .2-.4-.2-.5-.4-.6a2.3 2.3 0 0 0-2.5 0 2.6 2.6 0 0 0-1 2.7 2.2 2.2 0 0 0 1.8 1.9 2.4 2.4 0 0 0 2-.5c.1 0 .3-.2.2-.4Zm2.1-3.9c-.3.1-.9.3-.8.6.2.5.7.2 1 .1a4.4 4.4 0 0 1 .8 0 1 1 0 0 1 .8.6c.2.4.1.6-.3.5a2.8 2.8 0 0 0-1.6 0 1.3 1.3 0 0 0-1 1.4 1.4 1.4 0 0 0 1 1.5 2.3 2.3 0 0 0 3.2-2.3c0-2-1.4-3-3.1-2.4Zm.7 4c-.5 0-.8-.3-.8-.8.1-.7.7-.7 1.2-.7.3.1.8-.2.8.4a1.1 1.1 0 0 1-1.2 1Zm8-6.1v-.4a.4.4 0 0 0-.5 0c-.8.2-.7 1-.7 1.5 0 1 0 1-.9.9a2.1 2.1 0 0 0-.5 0 2.4 2.4 0 0 0-2 2.6 2.4 2.4 0 0 0 2.2 2.3 2.2 2.2 0 0 0 2.4-2.2v-4.7Zm-2.3 6c-.7 0-1.1-.6-1.1-1.6s.4-1.7 1.1-1.7c.7 0 1 .7 1 1.7s-.4 1.7-1 1.7Zm5.2-1a10.5 10.5 0 0 0 1.2-.2c.6-.1 1.2-.4 1.2-1.2a1.4 1.4 0 0 0-1-1.5 2.4 2.4 0 0 0-2.8.8 2.7 2.7 0 0 0 .1 3.2 2.3 2.3 0 0 0 3 .5c.2-.1.6-.2.5-.6-.1-.3-.6-.2-.9-.1a1.9 1.9 0 0 1-1.2.1 1 1 0 0 1-.7-1h.6Zm.5-2.2c.5 0 .9.1.8.6 0 .6-.5.7-1 .7a.7.7 0 0 0-.2 0c-.2 0-.6 0-.7-.4a1.1 1.1 0 0 1 1.1-1Zm5.8-.6a2.4 2.4 0 0 0-2.5.2c-.2 0-.4.2-.3.4a.4.4 0 0 0 .5.2l1-.2a1 1 0 0 1 1.2.7c0 .3 0 .5-.4.4a2.8 2.8 0 0 0-1.3 0c-.9.2-1.3.7-1.3 1.5a1.6 1.6 0 0 0 1.5 1.5 2.3 2.3 0 0 0 2.7-2.6 2.2 2.2 0 0 0-1-2.1Zm-1.2 3.9c-.5 0-.8-.2-.9-.7 0-.5.4-.8 1.2-.8.2 0 .8-.2.8.4a1.1 1.1 0 0 1-1.1 1Zm7.7-4a.8.8 0 0 0-.7.2 1 1 0 0 0-.4.8v1.8c0 .8-.4 1.2-1 1.2s-1-.4-1-1.3v-2.1l-.1-.6a.8.8 0 0 0-.8.2.9.9 0 0 0-.4.7 20.1 20.1 0 0 0 0 2.2c.2 1.1 1 1.7 2.2 1.7 1.3 0 2.1-.5 2.3-1.6a11.9 11.9 0 0 0 .1-1.4v-1.2c0-.2.1-.5-.2-.6Z"/><path fill="#fff" d="M28.7 31.1a12.6 12.6 0 0 1 0-1.3 8 8 0 0 0-.1-1.6c-.3-1-1.1-1.6-2.5-1.5a2 2 0 0 0-2 1.8v2.2a.9.9 0 0 0 .5.8c.5.2.8.2.8-.4v-2.4c0-.6.3-1.1 1-1 .6 0 .9.4 1 1v1.8a1 1 0 0 0 .6 1c.4.2.7.2.7-.4ZM22.9 27a.9.9 0 0 0-1 .5 2 2 0 0 0-.1 1v3.4c0 1-.5 1.4-1.5 1.3-.2 0-.4-.2-.5 0a.5.5 0 0 0 .1.5 1 1 0 0 0 .8.4 2.2 2.2 0 0 0 2.4-2.1v-4.3c0-.3.2-.7-.2-.7Zm-.5-2.7a.7.7 0 0 0-.7.8.6.6 0 0 0 .7.6.7.7 0 0 0 .7-.7c0-.4-.3-.7-.7-.7Zm-1.7 5.1v-1.8c0-.2.2-.5-.1-.6a.8.8 0 0 0-.9.2 1 1 0 0 0-.3.8v2.7a1.2 1.2 0 0 0 .7 1c.4.2.7.3.6-.3v-2Zm-.6-5a.7.7 0 0 0-.7.6.6.6 0 0 0 .6.7c.5 0 .7-.3.7-.7a.6.6 0 0 0-.6-.7Zm-1.4 2.5c-.4-.2-.7 0-1 .2a1.4 1.4 0 0 0-.5.7l-1 2.6-.8-3c-.2-.6-.5-.6-1-.5a1 1 0 0 0-.7.8l-.7 2.7-1.1-2.8a1 1 0 0 0-1-.7c-.4-.1-.6 0-.4.5l1.6 4a.8.8 0 0 0 1.5.2 2 2 0 0 0 .5-1l.5-1.7.8 2.5c.1.6.5.6 1 .5a1.2 1.2 0 0 0 .7-.8l1.4-3.4c.1-.3.4-.6.2-.8Z"/><path fill="url(#b)" d="M44.5 7.6c0-1 0-1-1-1H30.6c-1 0-1 0-1 1l-.1 13c0 .6.3.8 1 .8h12.9c1 0 1 0 1-1V7.6Zm-7 7.9v4.3c0 .9-.1 1-1 1h-2c-1 0-1-.1-1-1.1 0-1.2 0-1.2 1.2-1.2 1 0 1 0 1-1v-3.2c0-.6 0-.8-.7-.8-1.3 0-1.3 0-.8-1.3a10 10 0 0 0 .6-4.2c0-.5 0-1 .7-1 .7.1.7.6.7 1a9.4 9.4 0 0 0 .8 4.8 6.2 6.2 0 0 1 .5 2.7Zm3.7 5.2h-2.8v-.2c.4-.2 1-.1 1.1-.5a7.8 7.8 0 0 0 0-2c0-.4-.3-.5-.6-.7a3.3 3.3 0 0 1-.6-3.7.4.4 0 0 1 .4-.2h2c.4 0 .5.2.5.5.3 1.4.5 2.7-1 3.6-.3.2-.3.6-.3 1 0 1.4 0 1.4 1.3 2.2Z"/><path fill="url(#a)" d="m33.7 30.8-.2.4a2.4 2.4 0 0 1-2 .5 2.2 2.2 0 0 1-1.8-1.9 2.6 2.6 0 0 1 1-2.7 2.3 2.3 0 0 1 2.5 0c.2.1.6.2.4.5 0 .3-.4.2-.6.2l-.3-.1c-1.2-.4-2 .2-2 1.5.1 1.4.8 1.9 2 1.5a2.5 2.5 0 0 1 .6-.1.4.4 0 0 1 .4.2Z"/><path fill="url(#c)" d="M35.8 26.9c-.3.1-.9.3-.8.6.2.5.7.2 1 .1a4.4 4.4 0 0 1 .8 0 1 1 0 0 1 .8.6c.2.4.1.6-.3.5a2.8 2.8 0 0 0-1.6 0 1.3 1.3 0 0 0-1 1.4 1.4 1.4 0 0 0 1 1.5 2.3 2.3 0 0 0 3.2-2.3c0-2-1.4-3-3.1-2.4Zm.7 4c-.5 0-.8-.3-.8-.8.1-.7.7-.7 1.2-.7.3.1.8-.2.8.4a1.1 1.1 0 0 1-1.2 1Z"/><path fill="url(#d)" d="M44.5 24.8v-.4H44c-.8.2-.7 1-.7 1.5 0 1 0 1-.9.9a2.1 2.1 0 0 0-.5 0 2.4 2.4 0 0 0-2 2.6 2.4 2.4 0 0 0 2.2 2.3 2.2 2.2 0 0 0 2.4-2.2v-4.7Zm-2.3 6c-.7 0-1.1-.6-1.1-1.6s.4-1.7 1.1-1.7c.7 0 1 .7 1 1.7s-.4 1.7-1 1.7Z"/><path fill="url(#e)" d="M47.4 29.8a10.5 10.5 0 0 0 1.2-.2c.6-.1 1.2-.4 1.2-1.2a1.4 1.4 0 0 0-1-1.5 2.4 2.4 0 0 0-2.8.8 2.7 2.7 0 0 0 .1 3.2 2.3 2.3 0 0 0 3 .5c.2-.1.6-.2.5-.6-.1-.3-.6-.2-.9-.1a1.9 1.9 0 0 1-1.2.1 1 1 0 0 1-.7-1h.6Zm.5-2.2c.5 0 .9.1.8.6 0 .6-.5.7-1 .7a.7.7 0 0 0-.2 0c-.2 0-.6 0-.7-.4a1.1 1.1 0 0 1 1.1-1Z"/><path fill="url(#f)" d="M53.7 27a2.4 2.4 0 0 0-2.5.2c-.2 0-.4.2-.3.4a.4.4 0 0 0 .5.2l1-.2a1 1 0 0 1 1.2.7c0 .3 0 .5-.4.4a2.8 2.8 0 0 0-1.3 0c-.9.2-1.3.7-1.3 1.5a1.6 1.6 0 0 0 1.5 1.5 2.3 2.3 0 0 0 2.7-2.6 2.2 2.2 0 0 0-1-2.1Zm-1.2 3.9c-.5 0-.8-.2-.9-.7 0-.5.4-.8 1.2-.8.2 0 .8-.2.8.4a1.1 1.1 0 0 1-1.1 1Z"/><path fill="url(#g)" d="M60.4 27.5v1.2a11.9 11.9 0 0 1 0 1.4c-.3 1.1-1 1.6-2.4 1.6-1.3 0-2-.6-2.1-1.7a20.1 20.1 0 0 1 0-2.2.9.9 0 0 1 .3-.7c.2-.2.5-.3.8-.2.2.1 0 .4 0 .6l.1 2.1c0 .9.4 1.3 1 1.3s1-.4 1-1.2v-1.8a1 1 0 0 1 .4-.8.8.8 0 0 1 .7-.2c.3 0 .2.4.2.6Z"/></g></g></svg>