<svg xmlns="http://www.w3.org/2000/svg" xml:space="preserve" viewBox="0 0 57.6 32"><path fill="#F28D20" d="M0 0h57.6v32H0z"/><path fill="#FFF" d="M8.26 11.54c-1.45 0-2.77.54-3.78 1.42.25-.59.72-1.07 1.31-1.33v-.53C5.8 9.94 4.85 9 3.69 9H2.53v8.27c0 3.16 2.56 5.73 5.73 5.73 3.16 0 5.73-2.56 5.73-5.73 0-3.16-2.57-5.73-5.73-5.73zm7.45 2.21h2.65V23h-2.65zM18.3 9.7c-.16-.16-.35-.28-.56-.38-.22-.09-.45-.14-.69-.14-.24 0-.47.05-.69.14-.22.09-.4.22-.56.38-.16.16-.28.34-.38.56-.09.22-.14.44-.14.68 0 .24.05.47.14.69.09.21.22.4.38.55.16.16.34.28.56.38.22.09.45.14.69.14.24 0 .47-.05.69-.14.22-.09.4-.22.56-.38.16-.16.29-.34.38-.55.09-.21.14-.44.14-.69 0-.24-.05-.46-.14-.68-.1-.21-.22-.4-.38-.56zm2.07-.06h2.65V23h-2.65zm4.66 0h2.65V23h-2.65zm7.25.06c-.16-.16-.35-.28-.56-.38-.22-.09-.45-.14-.69-.14-.24 0-.47.05-.69.14-.22.09-.4.22-.56.38-.16.16-.28.34-.38.56-.09.22-.14.44-.14.68 0 .24.05.47.14.69.09.21.22.4.38.55.16.16.34.28.56.38.22.09.45.14.69.14.24 0 .47-.05.69-.14.22-.09.4-.22.56-.38.16-.16.29-.34.38-.55.09-.21.14-.44.14-.69 0-.24-.05-.46-.14-.68-.09-.21-.22-.4-.38-.56zm-2.59 4.05h2.65V23h-2.65zm12.55.07c-.42-.42-.91-.75-1.47-.99-.56-.24-1.15-.36-1.79-.36-.59 0-1.15.1-1.68.31-.54.21-1.02.51-1.44.89l-.87-1h-.64V23h2.63v-5.91c0-.27.05-.53.15-.77.1-.24.24-.45.42-.63s.39-.32.64-.42c.24-.1.5-.15.78-.15.27 0 .52.05.76.15.24.1.45.24.63.42s.32.39.42.63c.1.24.15.5.15.77V23h2.63v-5.91c0-.64-.12-1.24-.36-1.8-.22-.56-.55-1.05-.96-1.47zm12.83-1.14h-3.03l-3.93 4.98V9.64h-2.65V23h2.65v-1.32l1.84-2.43L52.04 23h3.03l-3.43-6.01z"/><path fill="#F28D20" d="M11.34 17.27v-.02H5.18v.02c0 1.7 1.38 3.08 3.08 3.08s3.08-1.38 3.08-3.08z"/></svg>