<svg xmlns="http://www.w3.org/2000/svg" data-name="Layer 1" viewBox="0 0 97 48"><defs><clipPath id="a"><path fill="none" stroke-width="0" d="M0 0h140v48H0z"/></clipPath></defs><g fill-rule="evenodd" clip-path="url(#a)"><path fill="#2e3235" d="M90.9393 42H0L6.0612 6H97l-6.0607 36Z"/><path fill="#e5e5e0" d="M29.0023 26.9706c-1.5528 0-2.6434-1.0086-2.6434-2.5832 0-1.7426 1.3558-3.3781 3.3043-3.3781 1.5527 0 2.6434 1.0547 2.6434 2.6295 0 1.7428-1.3559 3.3318-3.3043 3.3318Zm.909-8.9726c-4.0808 0-7.1691 2.9808-7.1691 6.5423 0 3.2253 2.543 5.4578 6.012 5.4578 4.0807 0 7.169-3.0734 7.169-6.6349 0-3.2249-2.5429-5.3652-6.0119-5.3652Zm23.6808 8.9741c-1.5527 0-2.6413-1.0086-2.6413-2.5832 0-1.7426 1.3538-3.3781 3.3022-3.3781 1.5528 0 2.6435 1.0547 2.6435 2.6294 0 1.7429-1.3538 3.3319-3.3044 3.3319Zm.909-8.9726c-4.0807 0-7.1691 2.9808-7.1691 6.5422 0 3.2254 2.543 5.4579 6.0121 5.4579 4.0807 0 7.1711-3.0734 7.1711-6.6349 0-3.225-2.5451-5.3652-6.0141-5.3652Zm12.2127 5.6818h-.5325l.3999-2.4032h.4834c1.1314 0 1.7302.339 1.7302 1.0782 0 .8782-.8491 1.325-2.081 1.325Zm5.8088-1.8948c0-2.1566-1.696-3.5431-4.7587-3.5431h-4.3287l-1.8971 11.5073h3.6444l.5988-3.6201h.1669l1.9312 3.6201h4.177l-2.6799-4.0208c1.9655-.678 3.1461-2.141 3.1461-3.9434Zm-53.9562 1.0484c-1.3816-.6934-1.696-.8782-1.696-1.2478 0-.4623.5475-.6935 1.3132-.6935.8791 0 2.2072.0979 3.5075 1.3291.323-.9866.8469-1.8848 1.5335-2.6585-1.8436-1.0285-3.5417-1.5662-5.1073-1.5662-3.1119 0-4.8934 1.6484-4.8934 3.6353 0 1.7097 1.2982 2.6032 2.8466 3.3885 1.3817.7088 1.7303.9247 1.7303 1.3564 0 .462-.5817.7234-1.3474.7234-1.3325 0-2.8809-.8316-3.7963-1.6789l-.5326 3.2042c.9497.6774 2.3142 1.3703 4.378 1.3703 3.2124 0 4.9448-1.6013 4.9448-3.6654 0-1.6796-1.1164-2.6035-2.8809-3.4969Zm26.9472.461h-4.2668l.3337-2.0178h4.5768c.5925-1.2137 1.51-2.2517 2.6543-3.0347h-7.49c-1.6617 0-3.0733 1.1227-3.3235 2.6422l-1.4629 8.8651h3.6465l.5989-3.6201h4.3287l.3124-1.9675a7.6678 7.6678 0 0 1 .0919-.8672Zm27.088-5.0525c.9731.7413 1.5741 1.7776 1.7024 3.0347h3.0477l-1.3988 8.4726h3.6445l1.4009-8.4726h3.377l.5005-3.0347H72.6016Z"/></g></svg>