<svg xmlns="http://www.w3.org/2000/svg" xml:space="preserve" id="Livello_1" x="0" y="0" version="1.1" viewBox="0 0 88.1 26.6"><style id="style2" type="text/css">.st0{fill:#2d32aa}</style><g id="Symbols" transform="translate(-.2 -3.2)"><g id="logo-dark" transform="translate(0 -5)"><g id="logo-double" transform="translate(0 5)"><g id="nexi" transform="translate(0 3.2)"><path id="Fill-36" d="M88.3.8h-6.4v25.1h6.4z" class="st0"/><path id="Fill-37" d="M12.5.1C6.5.1.2 2.2.2 2.2V26h6.6V6.6s2.3-1 5.8-1c4.3 0 6 2.3 6 5.9v14.4h6.5V11.5C25.1 3.8 21.5.1 12.5.1" class="st0"/><path id="Fill-38" d="M80.1.8h-7.9l-6 7.4L63 4A8.8 8.8 0 0 0 56.1.7h-3.9l9.9 12.5-10.2 12.7h7.8l6.4-7.8 3.7 4.6a8.7 8.7 0 0 0 6.9 3.2h3.8L70.2 13Z" class="st0"/><path id="Fill-39" d="M40.6 5.5c2.9 0 5.3 1.3 6.2 3.6l-13 2.3c.7-3.8 3.4-5.9 6.8-5.9M53 21.1l-4.3-3.5a9.6 9.6 0 0 1-7.5 3.5c-3 0-5.7-1.6-6.9-4.4l19.3-3.4c0-1.9-.4-3.7-1.1-5.3a13 13 0 0 0-12.1-8C33 0 27.3 5.3 27.3 13.3c0 7.8 5.6 13.3 13.8 13.3 6.3.1 10-3.1 11.9-5.5" class="st0"/></g></g></g></g></svg>