<svg xmlns="http://www.w3.org/2000/svg" width="268" height="108" viewBox="0 0 67 27" fill="none"> <g clip-path="url(#clip0_5626_4148)"> <path d="M0.361328 0.216797V26.2168H66.3613V0.216797H0.361328Z" fill="#527A42"/> <path d="M58.6617 10.2383L57.1217 12.2641L55.5817 10.2383H53.8438L56.3847 13.5208V16.1966H57.7817V13.5208L60.3227 10.2383H58.6617Z" fill="#E7E4E2"/> <path d="M46.166 10.2383V11.4083H48.41V16.1966H49.796V11.4083H52.04V10.2383H46.166Z" fill="#E7E4E2"/> <path d="M39.2356 12.8274H41.3036C41.9196 12.8274 42.2056 12.5999 42.2056 12.1124C42.2056 11.6249 41.9196 11.3974 41.3036 11.3974H39.2356V12.8274ZM42.2716 16.1966L40.7646 14.0083H39.2356V16.1966H37.8496V10.2383H41.4466C42.8546 10.2383 43.6026 10.8991 43.6026 12.1233C43.6026 13.0658 43.1626 13.6724 42.3046 13.8999L43.8996 16.1966H42.2716Z" fill="#E7E4E2"/> <path d="M28.5547 10.2383V16.1966H34.0217V15.0266H29.9407V13.7916H33.4387V12.6216H29.9407V11.4191H34.0217V10.2383H28.5547Z" fill="#E7E4E2"/> <path d="M24.209 10.2383L22.427 14.6474L20.634 10.2383H19.127L21.679 16.1966H23.098L25.65 10.2383H24.209Z" fill="#E7E4E2"/> <path d="M14.8047 16.1966H16.1907V10.2383H14.8047V16.1966Z" fill="#E7E4E2"/> <path d="M6.40039 16.1968H7.78639V11.6035H6.40039V16.1968Z" fill="#E7E4E2"/> <path d="M7.78711 11.6033H12.4511V10.2383H7.78711V11.6033Z" fill="#E7E4E2"/> </g> <defs> <clipPath id="clip0_5626_4148"> <rect width="66" height="26" fill="white" transform="translate(0.361328 0.216797)"/> </clipPath> </defs> </svg>