<svg xmlns="http://www.w3.org/2000/svg" fill="none" viewBox="0 0 90 56"><path fill="#282828" d="M0 0h90v56H0z"/><path fill="#255A57" d="M0 0h90v28H0z"/><path fill="#fff" d="M51.8189 13.2546c-.0304-.1291-.069-.2386-.0966-.3368l-.0304-.0898c-.5078-1.4314-1.6808-2.2734-3.1243-2.2649-.2539 0-.4692.0196-.6927.0701-1.1537.2582-2.5199 1.103-2.5199 3.6542v4.0332c0 .2891.069.4575.138.595.0883.1684.2539.2975.4388.348a.7683.7683 0 0 0 .1656.0197c.1463 0 .2843-.0393.4002-.1292.3036-.2076.3036-.5669.3036-.8644v-4.0023c0-1.3499.4195-2.0067 1.3966-2.206.6541-.1487 1.2999.0702 1.7001.5558.196.2385.3119.4659.3616.6651.1463.7157.2236.9346.3229 1.0722l.0304.0392c.2153.247.5961.3172.908.16.4444-.247.3947-.8335.2981-1.3191ZM16.7858 8.0903c-.5382-.1095-1.0846-.1095-1.6118 0C13.2503 8.486 12 10.0353 12 12.042v6.2869c0 .2582.0304.4378.1076.5865l.0111.0113c.0883.1684.2539.2975.4388.348a.6694.6694 0 0 0 .5658-.1095c.3229-.2189.3616-.595.3616-.8644v-2.5316h5.0011v2.5512c0 .3088.0883.4856.138.595.0883.1684.2539.2975.4388.3481a.7685.7685 0 0 0 .1656.0196c.1463 0 .2843-.0393.4002-.1291.2926-.1993.3312-.5276.3312-.8644v-6.256c-.011-2.0068-1.2502-3.5476-3.174-3.9433Zm1.6892 6.2672h-4.9818v-2.3043c0-.9935.3422-1.6896 1.0929-2.1835.5272-.3761 1.2199-.5164 1.9044-.3873.3312.0589.6238.188.8777.376l.011.0113c.7425.5052 1.093 1.2012 1.093 2.1835v2.3043h.0028ZM44.2892 13.9c-.6238-2.3744-3.0084-3.7441-5.4289-3.1294-1.2393.3171-2.2467 1.0834-2.8318 2.1555-.5851 1.0721-.6927 2.3547-.3036 3.6065.5851 1.8383 2.2549 2.9891 4.1593 2.9891.3423 0 .7038-.0393 1.0544-.1179.5382-.1179 1.0653-.348 1.5345-.6568.3505-.2385.6459-.4967.8004-.696.2429-.2975.3919-.5361.3616-.8139-.0193-.1881-.1159-.3565-.265-.4772-.1573-.1178-.3615-.1684-.5465-.1291l-.0303.0113c-.1849.0589-.3312.1403-.4499.2582l-.127.16-.1849.1683-.011.0113c-.4113.4182-.9081.7044-1.4463.8139-1.4545.3368-2.8897-.4463-3.4168-1.858a6.6007 6.6007 0 0 1-.0966-.3284h6.3866l.138-.0196.2153-.0112c.2346-.0197.4112-.1095.5272-.2779.2152-.3087.2042-.7662-.0387-1.6587Zm-7.2478.6146c.0194-.1291.058-.2385.0966-.3676.4968-1.6082 2.0894-2.4727 3.6929-1.9955 1.0047.2975 1.7885 1.131 2.0424 2.1751.0193.0786.0387.16.0497.2386l-5.8816-.0506Zm-2.2963 1.3416c-.0773-.1684-.2346-.2975-.4112-.3564-.1849-.059-.3809-.0309-.5575.0589-.3423.1684-.4113.5473-.4306.6764l-.058.3172-.011.0982c-.2236.9823-1.0046 1.5184-2.001 1.3696-.6458-.0982-1.5042-.4462-1.5042-2.2537v-.1179h1.9541c.2346 0 .9467 0 .9467-.7157 0-.3564-.265-.6567-.5769-.6764-.1463-.0196-.2732-.0196-.4195-.0196h-1.9044v-2.7505c0-.2582-.0304-.4378-.1076-.5866v-.0112c-.0884-.1684-.254-.2975-.4389-.348-.1959-.0506-.4002-.0113-.5658.1094-.2925.1993-.3312.5277-.3312.8645v4.1004c0 2.3352.8308 3.5055 2.6965 3.8143.2153.0392.4306.0589.6459.0589 1.4655 0 2.6965-.9234 3.0857-2.3941.0303-.1178.0496-.2273.069-.3368v-.0056c.0579-.4294.0386-.6679-.0801-.8953Zm35.5904-1.2405c-.0193-.3565-.069-.6764-.1573-.9627-.3036-1.0721-1.0157-1.9674-2.001-2.5231-1.0543-.5866-2.2963-.7157-3.4859-.3565-1.5539.4659-2.7241 1.7373-3.047 3.3371-.4775 2.4025.8501 4.6478 3.0857 5.2344a4.8314 4.8314 0 0 0 1.2392.1599c.6238 0 1.231-.1291 1.7774-.376.4499-.2077.8501-.4856 1.162-.8252v.0196c0 .2695 0 .4267.0773.5866l.011.0113c.0883.1684.2539.2975.4389.348a.6694.6694 0 0 0 .5658-.1095c.3036-.2077.3505-.5557.3505-.8644v-3.5111l-.0166-.1684Zm-3.6735 3.3848c-1.6119.3761-3.105-.5164-3.5356-2.1246v-.0113c-.069-.2077-.0966-.4182-.1159-.6258-.0883-1.4202.7507-2.7 2.0507-3.1098.3118-.0982.6348-.1487.9466-.1487.6045 0 1.1813.1796 1.6809.536.7507.5361 1.2006 1.409 1.2309 2.3941.058 1.5212-.8418 2.7645-2.2576 3.0901Zm-6.3481-8.6303c-.7231-.8841-1.8078-1.3893-2.9781-1.3697-2.1969.031-3.6818 1.6475-3.6818 4.0332v6.2868c0 .2891.069.4575.138.595.0883.1684.2539.2975.4388.3481a.7685.7685 0 0 0 .1656.0196c.1463 0 .2843-.0393.4002-.1291.3036-.2077.3423-.5557.3423-.8644v-2.8516h2.139c2.0203 0 3.3975-1.0721 3.7784-2.9385.2263-1.1227-.0386-2.2537-.7424-3.1294Zm-3.0471 4.6478h-.0303l-2.0811-.0309v-2.0853c0-.9346.138-1.3697.5769-1.8271.4305-.4575.9963-.6764 1.6698-.6652 1.3193.0309 2.2356.9935 2.2273 2.3435-.0276 1.3416-.9936 2.265-2.3626 2.265Zm20.8129-2.8601c-.0883-.1684-.2539-.2975-.4388-.348a.6694.6694 0 0 0-.5658.1095c-.2926.1993-.3229.5361-.3229.8644v4.0023c0 .7858-.2346 1.4201-.6541 1.7962-.3699.3284-.8694.4575-1.4463.3761-.9963-.1403-1.5428-.8644-1.5428-2.046v-4.1482c0-.247-.0193-.4266-.0966-.595-.0883-.1684-.2539-.2975-.4389-.348-.1959-.0506-.4002-.0113-.5658.1094-.3036.2077-.3505.5557-.3505.8645v4.151c0 1.6587.7425 2.829 2.1004 3.3062 1.046.3676 2.1887.188 2.978-.407v.0309c-.1269.8728-.5658 1.4005-1.3469 1.6082-.4195.1179-.85.0898-1.1812-.0786-.2733-.1403-.4692-.2975-.5852-.4659l-.2152-.2779-.138-.1599c-.0884-.1179-.1574-.1797-.196-.2077l-.0386-.0393-.0387-.0197a.6842.6842 0 0 0-.6458-.0308.7244.7244 0 0 0-.4113.5276c-.0496.3172.0773.5866.3036.9346l.0111.0112c.1656.2386.3919.4772.6348.6764.5271.4266 1.2199.6456 1.9541.6456.3118 0 .6237-.0393.9384-.1179 1.5732-.407 2.4426-1.6896 2.4426-3.6065v-6.5114c.011-.3087-.0773-.4771-.127-.5866l-.0166-.0197Zm-50.7173 1.7599-.0303-.0898c-.5079-1.4314-1.6809-2.2734-3.1243-2.2649-.265 0-.4692.0196-.6928.0701-1.1537.2582-2.5199 1.103-2.5199 3.6542v4.0332c0 .3087.0883.4855.138.5866v.0112c.0883.1684.2539.2975.4389.348a.7668.7668 0 0 0 .1656.0197c.1462 0 .2842-.0393.4002-.1291.2925-.1993.3312-.5361.3312-.8645v-.9542l-.0304-1.6784h2.081c.6845 0 .8501-.3564.8694-.6652.0111-.2582-.0883-.4182-.1656-.5052-.1462-.16-.3808-.2385-.7038-.2385h-2.0893c.0111-1.3107.4306-1.9563 1.3966-2.1639.6541-.1488 1.2999.0701 1.7001.5557.196.2469.3119.4659.3616.6651.1463.7157.2236.9346.3229 1.0722l.0304.0393c.2153.2469.5961.3171.908.1599.4582-.2469.4113-.8335.3119-1.3219-.0304-.1319-.0607-.2414-.0994-.3396Zm53.3255-4.2521c-.2042-.2077-.4581-.3171-.7617-.3171-.2926 0-.5465.0982-.7618.3171-.2042.219-.3119.4771-.3119.7747 0 .2975.1077.5557.3119.7746.2043.2189.4582.3284.7618.3284.2925 0 .5465-.1095.7617-.3284.2043-.219.3119-.4771.3119-.7746 0-.3088-.0966-.567-.3119-.7747Zm-.1186 1.4398c-.1767.1881-.4002.2779-.6542.2779-.2539 0-.4692-.0898-.6541-.2779-.1849-.188-.2732-.4182-.2732-.6764s.0966-.4771.2732-.6652c.1849-.1796.4002-.2778.6541-.2778.254 0 .4692.0898.6542.2778.1849.1797.2732.407.2732.6652 0 .2695-.0966.4884-.2732.6764Z"/><path fill="#fff" d="M80.4039 9.1736c0-.16-.069-.2582-.1849-.3087-.069-.0309-.1766-.0393-.3229-.0393h-.4112v1.2012h.2152v-.4771h.1656c.116 0 .185.0112.2346.0393.069.0505.1077.1403.1077.2778v.16h.1959l-.011-.0112c-.011-.0112-.011-.0309-.011-.059V9.777c0-.0589-.0304-.129-.069-.188-.0497-.059-.116-.0982-.2043-.1179.0773-.0112.138-.0309.1767-.059.08-.0504.1186-.129.1186-.2385Zm-.3312.2077c-.0386.0197-.1076.0309-.1959.0309h-.1849v-.4379h.1766c.1159 0 .2042.0197.2539.0506.058.0308.0773.0898.0773.1684 0 .0898-.0497.1571-.127.188Z"/><path fill="#E7E4E2" d="m78 38.2532-3.111 4.1321v3.3615h-1.7115v-3.3615l-3.111-4.1321h2.1216l1.8931 2.5454 1.8785-2.5454H78Zm-17.3239 0v1.4799h2.7426V45.75h1.6969v-6.0201h2.7395V38.25l-7.179.0032Zm-8.4877 1.4799h2.5245c.7503 0 1.0989.2865 1.0989.8922s-.3486.8921-1.0989.8921h-2.5245v-1.7843Zm5.7127 6.0169-1.9484-2.888c1.0436-.2864 1.5884-1.0465 1.5884-2.2367 0-1.5434-.9247-2.369-2.6435-2.369h-4.4061V45.75h1.6969v-2.759h1.8712l1.8388 2.7558 2.0027.0032Zm-18.785-7.4937V45.75h6.6906v-1.4799h-4.9905v-1.5539h4.2882v-1.4799h-4.2882v-1.5064h4.9936V38.25l-6.6937.0063Zm-5.3224 0-2.1832 5.5402-2.1979-5.5423h-1.8409l3.1225 7.4937h1.7407l3.1225-7.4937-1.7637.0021Zm-11.5006 7.4905H23.99v-7.4936h-1.6969v7.4936Zm-10.2931 0h1.6969v-5.7759H12v5.7759Zm1.6969-5.7748h5.7013v-1.7199h-5.7013v1.7199Z"/></svg>