<svg xmlns="http://www.w3.org/2000/svg" viewBox="0 0 800 256.2"><defs><style>.cls-1{fill:#005aa9}.cls-2{fill:#003787}.cls-3{fill:#308bcd}</style></defs><g id="Group_11" data-name="Group 11" transform="translate(-730 -357)"><g id="Group_10" data-name="Group 10" transform="translate(720.8 404.3)"><g id="Group_1" data-name="Group 1" transform="translate(305.4 49.3)"><g id="Group_1-2" data-name="Group 1"><path id="Path_1" d="M81.6 122.8s8.4 9.5 18.6 9.5c4 0 8.1-1.4 8.1-6 0-8.9-36.7-10-36.7-35.3 0-14.6 12.8-24.3 28.9-24.3 10.8 0 25.8 5.2 25.8 17.5v8.9h-18.1v-3.5c0-3-4.2-4.8-8-4.8-4 0-8.2 1.7-8.2 5.4 0 9.9 36.7 8.5 36.7 35.1 0 13.5-10.5 25-28.8 25A39.6 39.6 0 0 1 70.4 137Z" class="cls-1" data-name="Path 1" transform="translate(-70.4 -66.7)"/><path id="Path_2" d="M90 91.6a2.3 2.3 0 0 0-2.5-2.5h-4.3V72.7h16.9c5.6 0 7.6 2.6 7.6 5.1v1h.2s5-7.4 17.4-7.4c15.9 0 26.3 12.4 26.3 30.5 0 18.5-11.7 30.5-27.2 30.5-9.5 0-14.8-5-14.8-5h-.2a49.7 49.7 0 0 1 .2 5v21.3H90Zm30.5 24.6c6 0 11.4-5 11.4-14 0-8.6-4.6-14.3-11.4-14.3-6 0-11.5 4.3-11.5 14.4 0 7 3.8 13.9 11.5 13.9Z" class="cls-1" data-name="Path 2" transform="translate(-21 -48.7)"/><path id="Path_3" d="M104.8 91.4a2.3 2.3 0 0 0-2.5-2.5H98V72.5h17.3c5.4 0 8.3 2.1 8.3 7.4v3a16.5 16.5 0 0 1-.2 3h.2c2.5-7.9 9.9-14.5 18.6-14.5a13.2 13.2 0 0 1 2.2.3v19.2a20.7 20.7 0 0 0-4-.3c-4.6 0-12.2 1.4-15 10.2a26.3 26.3 0 0 0-1 7.9v22h-19.6Z" class="cls-1" data-name="Path 3" transform="translate(35.7 -48.5)"/><path id="Path_4" d="M142.3 94.3h.8v-.6c0-5.6-2.6-7.6-7.5-7.6-2.5 0-5.1.6-5.1 2.8v2.6h-18.1v-6.4c0-13 16.5-13.7 23.2-13.7 20.4 0 27 10.4 27 23.7v17a2.3 2.3 0 0 0 2.5 2.5h4.3V131h-17c-5.6 0-7.6-3.5-7.6-6v-1.1h-.3s-4 8.5-16.3 8.5c-10.8 0-19.8-7.3-19.8-18.8 0-17.3 24.8-19.3 33.9-19.3Zm-8.6 23.1c5 0 9.6-5.5 9.6-10.3v-.9h-1.8c-6.2 0-13.4 1.7-13.4 6.4 0 2.7 1.7 4.8 5.6 4.8Z" class="cls-1" data-name="Path 4" transform="translate(75.7 -48.7)"/><path id="Path_5" d="M136 137.4c3.2 0 6.8-.9 8.7-5.8l.7-1.7L127 90c-.7-1.5-1.1-1.8-2.5-1.8h-2.2V71.7h14.3a6.8 6.8 0 0 1 6.8 4.7L152 100a72.5 72.5 0 0 1 2.1 9h.3s1-5.9 1.9-9l6.4-23.6c.8-3 3.9-4.7 7-4.7h14.5V88h-2.1a2.4 2.4 0 0 0-2.7 1.8l-17.7 46.3c-5 12.9-15 17.5-24.3 17.5a25 25 0 0 1-16.4-6.2l7-13.8s3.4 3.7 8 3.7Z" class="cls-1" data-name="Path 5" transform="translate(124 -47.7)"/><path id="Path_6" d="M142 84h-7.4V67h39.3c15.7 0 26.3 11.5 26.3 27.8s-10.6 28-26.3 28h-11.7V148H142Zm27.8 22c6.6 0 9.7-4.7 9.7-11.2S176.4 84 170.1 84h-7.9v22Z" class="cls-2" data-name="Path 6" transform="translate(176.2 -65.6)"/><path id="Path_7" d="M182.7 94.3h.8v-.6c0-5.6-2.6-7.6-7.5-7.6-2.5 0-5 .6-5 2.8v2.6h-18.2v-6.4c0-13 16.5-13.7 23.2-13.7 20.4 0 27 10.4 27 23.7v17a2.3 2.3 0 0 0 2.6 2.5h4.3V131h-17c-5.7 0-7.7-3.5-7.7-6v-1.1h-.2s-4.1 8.5-16.3 8.5c-11 0-19.9-7.3-19.9-18.8 0-17.3 24.8-19.3 33.9-19.3Zm-8.6 23.1c5 0 9.6-5.5 9.6-10.3v-.9H182c-6.2 0-13.3 1.7-13.3 6.4 0 2.7 1.6 4.8 5.5 4.8Z" class="cls-2" data-name="Path 7" transform="translate(231 -48.7)"/><path id="Path_8" d="M176.5 137.4c3.1 0 6.8-.9 8.7-5.8l.7-1.7-18.5-40c-.7-1.5-1.1-1.8-2.5-1.8h-2.1V71.7H177a6.8 6.8 0 0 1 6.8 4.7l8.6 23.6a72.5 72.5 0 0 1 2.2 9h.2s1-5.9 2-9l6.4-23.6c.8-3 3.8-4.7 6.9-4.7h14.6V88h-2.2a2.4 2.4 0 0 0-2.7 1.8l-17.6 46.3a25.4 25.4 0 0 1-24.4 17.5 25 25 0 0 1-16.4-6.2l7-13.8s3.4 3.7 8 3.7Z" class="cls-2" data-name="Path 8" transform="translate(279.2 -47.7)"/></g></g><g id="Group_2" data-name="Group 2" transform="translate(9.2 -47.4)"><g id="Group_3" data-name="Group 3" transform="translate(203.4 75)"><path id="Path_9" d="M53 83.7a2 2 0 0 1-1.2-.5 1.7 1.7 0 0 1-.1-2.4l16.9-18a1.7 1.7 0 0 1 2.4 2.3L54.2 83a1.6 1.6 0 0 1-1.2.6Z" class="cls-3" data-name="Path 9" transform="translate(-51.2 -62.2)"/></g><g id="Group_4" data-name="Group 4" transform="translate(198.1 54.2)"><path id="Path_10" d="M51.8 80.5a1.3 1.3 0 0 1-1-.4 1.7 1.7 0 0 1-.3-2.4L66 58.5a1.6 1.6 0 0 1 2.4-.1 1.7 1.7 0 0 1 .2 2.3L53.1 79.8a1.7 1.7 0 0 1-1.3.7Z" class="cls-3" data-name="Path 10" transform="translate(-50.1 -58)"/></g><g id="Group_5" data-name="Group 5" transform="translate(168.9 63.9)"><path id="Path_11" d="M45.8 82.3a1.6 1.6 0 0 1-1-.3 1.7 1.7 0 0 1-.3-2.4l15.6-19a1.6 1.6 0 0 1 2.3-.3 1.7 1.7 0 0 1 .3 2.4l-15.6 19a1.5 1.5 0 0 1-1.3.6Z" class="cls-3" data-name="Path 11" transform="translate(-44 -60)"/></g><g id="Group_6" data-name="Group 6" transform="translate(308.1 59)"><path id="Path_12" d="M74.6 85.3a2.5 2.5 0 0 1-.7-.1 1.7 1.7 0 0 1-1-2.2l9-23a1.7 1.7 0 0 1 2.2-1 1.7 1.7 0 0 1 1 2.1l-9 23.2a1.6 1.6 0 0 1-1.5 1Z" class="cls-3" data-name="Path 12" transform="translate(-72.9 -59)"/></g><g id="Group_7" data-name="Group 7" transform="translate(285.6 47.4)"><path id="Path_13" d="M73.9 84.2a1.8 1.8 0 0 1-1.7-1.4l-4-24.3a1.7 1.7 0 0 1 1.4-2 1.7 1.7 0 0 1 2 1.5l4 24.3a1.7 1.7 0 0 1-1.4 1.9H74Z" class="cls-3" data-name="Path 13" transform="translate(-68.2 -56.5)"/></g><g id="Group_8" data-name="Group 8" transform="translate(359.8 41.7)"><path id="Path_14" d="M85.3 83.4h-.1a1.7 1.7 0 0 1-1.6-1.8L85 57a1.7 1.7 0 0 1 1.8-1.7 1.6 1.6 0 0 1 1.6 1.8L87 81.8a1.8 1.8 0 0 1-1.7 1.6Z" class="cls-3" data-name="Path 14" transform="translate(-83.5 -55.3)"/></g><g id="Group_9" data-name="Group 9"><circle id="Ellipse_1" cx="9.9" cy="9.9" r="9.9" class="cls-3" data-name="Ellipse 1" transform="translate(245.7 53.6)"/><circle id="Ellipse_2" cx="9.9" cy="9.9" r="9.9" class="cls-3" data-name="Ellipse 2" transform="translate(234.6 22.3)"/><circle id="Ellipse_3" cx="9.9" cy="9.9" r="9.9" class="cls-3" data-name="Ellipse 3" transform="translate(276.3 38.4)"/><circle id="Ellipse_4" cx="9.9" cy="9.9" r="9.9" class="cls-3" data-name="Ellipse 4" transform="translate(249.4 119.4)"/><circle id="Ellipse_5" cx="9.9" cy="9.9" r="9.9" class="cls-3" data-name="Ellipse 5" transform="translate(250.4 162.6)"/><circle id="Ellipse_6" cx="9.9" cy="9.9" r="9.9" class="cls-2" data-name="Ellipse 6" transform="translate(211.7 191.2)"/><circle id="Ellipse_7" cx="9.9" cy="9.9" r="9.9" class="cls-3" data-name="Ellipse 7" transform="translate(183.2 217.2)"/><circle id="Ellipse_8" cx="9.9" cy="9.9" r="9.9" class="cls-3" data-name="Ellipse 8" transform="translate(148 232.8)"/><circle id="Ellipse_9" cx="9.9" cy="9.9" r="9.9" class="cls-3" data-name="Ellipse 9" transform="translate(109.7 236.3)"/><circle id="Ellipse_10" cx="9.9" cy="9.9" r="9.9" class="cls-2" data-name="Ellipse 10" transform="translate(72.2 227.5)"/><circle id="Ellipse_11" cx="9.9" cy="9.9" r="9.9" class="cls-3" data-name="Ellipse 11" transform="translate(39.5 207)"/><circle id="Ellipse_12" cx="9.9" cy="9.9" r="9.9" class="cls-3" data-name="Ellipse 12" transform="translate(15 177.3)"/><circle id="Ellipse_13" cx="9.9" cy="9.9" r="9.9" class="cls-2" data-name="Ellipse 13" transform="translate(1.4 141.3)"/><circle id="Ellipse_14" cx="9.9" cy="9.9" r="9.9" class="cls-3" data-name="Ellipse 14" transform="translate(0 102.8)"/><circle id="Ellipse_15" cx="9.9" cy="9.9" r="9.9" class="cls-3" data-name="Ellipse 15" transform="translate(11 65.9)"/><circle id="Ellipse_16" cx="9.9" cy="9.9" r="9.9" class="cls-3" data-name="Ellipse 16" transform="translate(33.1 34.3)"/><circle id="Ellipse_17" cx="9.9" cy="9.9" r="9.9" class="cls-3" data-name="Ellipse 17" transform="translate(64.2 11.6)"/><circle id="Ellipse_18" cx="9.9" cy="9.9" r="9.9" class="cls-3" data-name="Ellipse 18" transform="translate(101)"/><circle id="Ellipse_19" cx="9.9" cy="9.9" r="9.9" class="cls-3" data-name="Ellipse 19" transform="translate(139.5 .7)"/><circle id="Ellipse_20" cx="9.9" cy="9.9" r="9.9" class="cls-3" data-name="Ellipse 20" transform="translate(175.8 13.7)"/><circle id="Ellipse_21" cx="8.4" cy="8.4" r="8.4" class="cls-2" data-name="Ellipse 21" transform="translate(311.5 51)"/><circle id="Ellipse_22" cx="8.4" cy="8.4" r="8.4" class="cls-1" data-name="Ellipse 22" transform="translate(207.7 45)"/><circle id="Ellipse_23" cx="8.4" cy="8.4" r="8.4" class="cls-3" data-name="Ellipse 23" transform="translate(273.6 79.8)"/><circle id="Ellipse_24" cx="8.4" cy="8.4" r="8.4" class="cls-3" data-name="Ellipse 24" transform="translate(225.5 138.3)"/><circle id="Ellipse_25" cx="8.4" cy="8.4" r="8.4" class="cls-3" data-name="Ellipse 25" transform="translate(207.4 167.6)"/><circle id="Ellipse_26" cx="8.4" cy="8.4" r="8.4" class="cls-3" data-name="Ellipse 26" transform="translate(187.3 193.2)"/><circle id="Ellipse_27" cx="8.4" cy="8.4" r="8.4" class="cls-3" data-name="Ellipse 27" transform="translate(160.1 211)"/><circle id="Ellipse_28" cx="8.4" cy="8.4" r="8.4" class="cls-3" data-name="Ellipse 28" transform="translate(128.7 219)"/><circle id="Ellipse_29" cx="8.4" cy="8.4" r="8.4" class="cls-2" data-name="Ellipse 29" transform="translate(96.3 216.8)"/><circle id="Ellipse_30" cx="8.4" cy="8.4" r="8.4" class="cls-1" data-name="Ellipse 30" transform="translate(66.3 204.2)"/><circle id="Ellipse_31" cx="8.4" cy="8.4" r="8.4" class="cls-3" data-name="Ellipse 31" transform="translate(42 182.8)"/><circle id="Ellipse_32" cx="8.4" cy="8.4" r="8.4" class="cls-2" data-name="Ellipse 32" transform="translate(25.7 154.6)"/><circle id="Ellipse_33" cx="8.4" cy="8.4" r="8.4" class="cls-3" data-name="Ellipse 33" transform="translate(19.3 122.7)"/><circle id="Ellipse_34" cx="8.4" cy="8.4" r="8.4" class="cls-1" data-name="Ellipse 34" transform="translate(23.4 90.5)"/><circle id="Ellipse_35" cx="8.4" cy="8.4" r="8.4" class="cls-3" data-name="Ellipse 35" transform="translate(37.7 61.3)"/><circle id="Ellipse_36" cx="8.4" cy="8.4" r="8.4" class="cls-2" data-name="Ellipse 36" transform="translate(60.5 38.1)"/><circle id="Ellipse_37" cx="8.4" cy="8.4" r="8.4" class="cls-1" data-name="Ellipse 37" transform="translate(89.5 23.4)"/><circle id="Ellipse_38" cx="8.4" cy="8.4" r="8.4" class="cls-3" data-name="Ellipse 38" transform="translate(121.6 18.8)"/><circle id="Ellipse_39" cx="8.4" cy="8.4" r="8.4" class="cls-3" data-name="Ellipse 39" transform="translate(153.6 24.7)"/><circle id="Ellipse_40" cx="8.4" cy="8.4" r="8.4" class="cls-3" data-name="Ellipse 40" transform="translate(213.2 7.4)"/><circle id="Ellipse_41" cx="7" cy="7" r="7" class="cls-3" data-name="Ellipse 41" transform="translate(312.1 22.4)"/><circle id="Ellipse_42" cx="7.1" cy="7.1" r="7.1" class="cls-3" data-name="Ellipse 42" transform="translate(214.7 68.2)"/><circle id="Ellipse_43" cx="7" cy="7" r="7" class="cls-2" data-name="Ellipse 43" transform="translate(242.2 92.8)"/><circle id="Ellipse_44" cx="7.1" cy="7.1" r="7.1" class="cls-3" data-name="Ellipse 44" transform="translate(205.9 121.9)"/><circle id="Ellipse_45" cx="7" cy="7" r="7" class="cls-3" data-name="Ellipse 45" transform="translate(201.1 149)"/><circle id="Ellipse_46" cx="7" cy="7" r="7" class="cls-2" data-name="Ellipse 46" transform="translate(187.8 173.2)"/><circle id="Ellipse_47" cx="7" cy="7" r="7" class="cls-3" data-name="Ellipse 47" transform="translate(167.6 191.8)"/><circle id="Ellipse_48" cx="7" cy="7" r="7" class="cls-3" data-name="Ellipse 48" transform="translate(142.5 203)"/><circle id="Ellipse_49" cx="7" cy="7" r="7" class="cls-3" data-name="Ellipse 49" transform="translate(115 205.4)"/><circle id="Ellipse_50" cx="7" cy="7" r="7" class="cls-3" data-name="Ellipse 50" transform="translate(88.3 199.1)"/><circle id="Ellipse_51" cx="7" cy="7" r="7" class="cls-2" data-name="Ellipse 51" transform="translate(65 184.6)"/><circle id="Ellipse_52" cx="7" cy="7" r="7" class="cls-3" data-name="Ellipse 52" transform="translate(47.5 163.3)"/><circle id="Ellipse_53" cx="7" cy="7" r="7" class="cls-3" data-name="Ellipse 53" transform="translate(37.8 137.5)"/><circle id="Ellipse_54" cx="7.1" cy="7.1" r="7.1" class="cls-2" data-name="Ellipse 54" transform="translate(36.7 110)"/><circle id="Ellipse_55" cx="7.1" cy="7.1" r="7.1" class="cls-3" data-name="Ellipse 55" transform="translate(44.5 83.6)"/><circle id="Ellipse_56" cx="7" cy="7" r="7" class="cls-3" data-name="Ellipse 56" transform="translate(60.4 61.2)"/><circle id="Ellipse_57" cx="7" cy="7" r="7" class="cls-3" data-name="Ellipse 57" transform="translate(82.6 45)"/><circle id="Ellipse_58" cx="7" cy="7" r="7" class="cls-2" data-name="Ellipse 58" transform="translate(108.8 36.6)"/><circle id="Ellipse_59" cx="7" cy="7" r="7" class="cls-3" data-name="Ellipse 59" transform="translate(136.4 37.2)"/><circle id="Ellipse_60" cx="7.1" cy="7.1" r="7.1" class="cls-3" data-name="Ellipse 60" transform="translate(162.2 46.4)"/><circle id="Ellipse_61" cx="6" cy="6" r="6" class="cls-3" data-name="Ellipse 61" transform="translate(356.8 37.8)"/><circle id="Ellipse_62" cx="6" cy="6" r="6" class="cls-3" data-name="Ellipse 62" transform="translate(218.8 94.4)"/><circle id="Ellipse_63" cx="6" cy="6" r="6" class="cls-3" data-name="Ellipse 63" transform="translate(276 143)"/><circle id="Ellipse_64" cx="6" cy="6" r="6" class="cls-1" data-name="Ellipse 64" transform="translate(192.6 134.4)"/><circle id="Ellipse_65" cx="6" cy="6" r="6" class="cls-1" data-name="Ellipse 65" transform="translate(184.8 156.3)"/><circle id="Ellipse_66" cx="6" cy="6" r="6" class="cls-3" data-name="Ellipse 66" transform="translate(170.5 174.6)"/><circle id="Ellipse_67" cx="6" cy="6" r="6" class="cls-2" data-name="Ellipse 67" transform="translate(151 187.2)"/><circle id="Ellipse_68" cx="6" cy="6" r="6" class="cls-3" data-name="Ellipse 68" transform="translate(128.6 193)"/><circle id="Ellipse_69" cx="6" cy="6" r="6" class="cls-1" data-name="Ellipse 69" transform="translate(105.5 191.4)"/><circle id="Ellipse_70" cx="6" cy="6" r="6" class="cls-3" data-name="Ellipse 70" transform="translate(84 182.4)"/><circle id="Ellipse_71" cx="6" cy="6" r="6" class="cls-1" data-name="Ellipse 71" transform="translate(66.7 167)"/><circle id="Ellipse_72" cx="5.9" cy="5.9" r="5.9" class="cls-3" data-name="Ellipse 72" transform="translate(55.2 147.1)"/><circle id="Ellipse_73" cx="6" cy="6" r="6" class="cls-1" data-name="Ellipse 73" transform="translate(50.5 124.2)"/><circle id="Ellipse_74" cx="6" cy="6" r="6" class="cls-3" data-name="Ellipse 74" transform="translate(53.5 101.2)"/><circle id="Ellipse_75" cx="6" cy="6" r="6" class="cls-2" data-name="Ellipse 75" transform="translate(63.6 80.4)"/><circle id="Ellipse_76" cx="6" cy="6" r="6" class="cls-2" data-name="Ellipse 76" transform="translate(79.9 63.8)"/><circle id="Ellipse_77" cx="6" cy="6" r="6" class="cls-3" data-name="Ellipse 77" transform="translate(100.6 53.4)"/><circle id="Ellipse_78" cx="6" cy="6" r="6" class="cls-1" data-name="Ellipse 78" transform="translate(123.6 50)"/><circle id="Ellipse_79" cx="6" cy="6" r="6" class="cls-2" data-name="Ellipse 79" transform="translate(146.4 54.3)"/><circle id="Ellipse_80" cx="6" cy="6" r="6" class="cls-3" data-name="Ellipse 80" transform="translate(181 57.3)"/></g></g><circle id="Ellipse_1-2" cx="3.6" cy="3.6" r="3.6" class="cls-2" data-name="Ellipse 1" transform="translate(109.2 118)"/><circle id="Ellipse_2-2" cx="3" cy="3" r="3" class="cls-3" data-name="Ellipse 2" transform="translate(148 116.6)"/></g></g></svg>