<svg xmlns="http://www.w3.org/2000/svg" xml:space="preserve" viewBox="0 0 750 250"><path fill="#012b28" d="m265 169 2 26h-30V51h28v70c4-24 28-30 52-30 28 0 52 22 52 54s-24 54-56 54c-22-2-42-8-48-30zm78-26c0-20-14-32-36-32-18 0-36 12-36 32s16 32 36 32c22 0 36-12 36-32zm36-80c0-10 6-16 18-16 10 0 18 6 18 16 0 12-6 16-18 16-10 0-18-6-18-16zm4 32h28v100h-28V95zm42-42h28v144h-28V53zm42 0h28v144h-28V53zm40 92c0-32 24-54 60-54s60 18 60 46v16h-92c4 16 16 24 42 24 24 0 34-6 46-12v24c-20 8-30 10-56 10-36 0-60-22-60-54zm94-4c0-16-14-26-34-26-18 0-30 10-32 26h66zm36-46h32l-2 16s20-20 58-20v24c-42 0-58 14-58 46v34h-28V95h-2z"/><path fill="#049483" d="M107 25H65c-22 0-40 18-40 40v84s0-34 42-34h48c22 0 38-18 38-40 0-28-20-50-46-50z"/><path fill="#00ab97" d="M127 225H73c-26 0-48-22-48-50V73s0 42 52 42h60c26 0 48 22 48 50-2 32-26 60-58 60z"/></svg>